<svg id="Capa_1" enable-background="new 0 0 510 510" height="512" viewBox="0 0 510 510" width="512" xmlns="http://www.w3.org/2000/svg" xmlns:xlink="http://www.w3.org/1999/xlink"><linearGradient id="lg1"><stop offset="0" stop-color="#ff7044"/><stop offset="1" stop-color="#f92814"/></linearGradient><linearGradient id="SVGID_1_" gradientUnits="userSpaceOnUse" x1="151.593" x2="475.819" xlink:href="#lg1" y1="305.766" y2="638.377"/><linearGradient id="lg2"><stop offset="0" stop-color="#f92814" stop-opacity="0"/><stop offset="1" stop-color="#c1272d"/></linearGradient><linearGradient id="SVGID_2_" gradientUnits="userSpaceOnUse" x1="244.764" x2="266.599" xlink:href="#lg2" y1="406.652" y2="570.412"/><linearGradient id="lg3"><stop offset="0" stop-color="#f9f7fc"/><stop offset="1" stop-color="#f0ddfc"/></linearGradient><linearGradient id="SVGID_3_" gradientUnits="userSpaceOnUse" x1="239.098" x2="261.599" xlink:href="#lg3" y1="304.438" y2="428.899"/><linearGradient id="lg4"><stop offset="0" stop-color="#f0ddfc" stop-opacity="0"/><stop offset=".2889" stop-color="#c8b7e0" stop-opacity=".289"/><stop offset=".5915" stop-color="#a595c8" stop-opacity=".592"/><stop offset=".8395" stop-color="#8f81b8" stop-opacity=".84"/><stop offset="1" stop-color="#8779b3"/></linearGradient><linearGradient id="SVGID_5_" gradientUnits="userSpaceOnUse" x1="264.834" x2="282.082" xlink:href="#lg4" y1="440.42" y2="540.644"/><linearGradient id="SVGID_6_" gradientUnits="userSpaceOnUse" x1="249.05" x2="242.883" xlink:href="#lg4" y1="441.338" y2="508.739"/><linearGradient id="SVGID_7_" gradientUnits="userSpaceOnUse" x1="110.754" x2="197.428" xlink:href="#lg3" y1="338.521" y2="425.195"/><linearGradient id="SVGID_8_" gradientUnits="userSpaceOnUse" x1="331.598" x2="413.866" xlink:href="#lg3" y1="314.701" y2="420.475"/><linearGradient id="SVGID_9_" gradientUnits="userSpaceOnUse" x1="135.869" x2="56.147" y1="367.495" y2="293.739"><stop offset="0" stop-color="#e9edf5" stop-opacity="0"/><stop offset="1" stop-color="#fff"/></linearGradient><linearGradient id="SVGID_10_" gradientUnits="userSpaceOnUse" x1="401.132" x2="261.799" y1="354.438" y2="211.105"><stop offset="0" stop-color="#f0ddfc" stop-opacity="0"/><stop offset=".1613" stop-color="#e8d5f6" stop-opacity=".161"/><stop offset=".4171" stop-color="#d1bfe6" stop-opacity=".417"/><stop offset=".7332" stop-color="#ac9ccd" stop-opacity=".733"/><stop offset="1" stop-color="#8779b3"/></linearGradient><linearGradient id="SVGID_11_" gradientTransform="matrix(.707 .707 -.707 .707 1013.855 -672.841)" gradientUnits="userSpaceOnUse" x1="97.177" x2="148.993" xlink:href="#lg1" y1="878.038" y2="878.038"/><linearGradient id="SVGID_12_" gradientTransform="matrix(.707 .707 -.707 .707 1013.855 -672.841)" gradientUnits="userSpaceOnUse" x1="125.983" x2="91.532" y1="887.223" y2="846.073"><stop offset="0" stop-color="#ff7044" stop-opacity="0"/><stop offset="1" stop-color="#ffa425"/></linearGradient><linearGradient id="SVGID_13_" gradientTransform="matrix(.707 .707 -.707 .707 1013.855 -672.841)" gradientUnits="userSpaceOnUse" x1="138.822" x2="149.987" xlink:href="#lg2" y1="850.466" y2="890.34"/><linearGradient id="SVGID_14_" gradientTransform="matrix(.707 .707 -.707 .707 1013.855 -672.841)" gradientUnits="userSpaceOnUse" x1="94.769" x2="151.983" xlink:href="#lg3" y1="912.634" y2="912.634"/><linearGradient id="SVGID_15_" gradientTransform="matrix(.707 .707 -.707 .707 1013.855 -672.841)" gradientUnits="userSpaceOnUse" x1="124.377" x2="114.807" xlink:href="#lg4" y1="934.048" y2="886.837"/><linearGradient id="SVGID_16_" gradientTransform="matrix(.707 .707 -.707 .707 1013.855 -672.841)" gradientUnits="userSpaceOnUse" x1="120.088" x2="120.582" xlink:href="#lg3" y1="902.843" y2="914.47"/><linearGradient id="SVGID_17_" gradientTransform="matrix(.707 .707 -.707 .707 1013.855 -672.841)" gradientUnits="userSpaceOnUse" x1="81.544" x2="159.033" y1="1222.849" y2="1222.849"><stop offset="0" stop-color="#ffdaaa"/><stop offset=".4213" stop-color="#ffd8a8"/><stop offset=".6519" stop-color="#fed1a0"/><stop offset=".8359" stop-color="#fdc592"/><stop offset=".9951" stop-color="#fcb47f"/><stop offset="1" stop-color="#fcb37e"/></linearGradient><linearGradient id="SVGID_18_" gradientTransform="matrix(.707 .707 -.707 .707 1013.855 -672.841)" gradientUnits="userSpaceOnUse" x1="135.216" x2="74.609" y1="1225.783" y2="1216.214"><stop offset="0" stop-color="#ffdaaa" stop-opacity="0"/><stop offset=".2507" stop-color="#ffe7c8" stop-opacity=".251"/><stop offset=".5543" stop-color="#fff4e6" stop-opacity=".554"/><stop offset=".8148" stop-color="#fffcf8" stop-opacity=".815"/><stop offset="1" stop-color="#fff"/></linearGradient><linearGradient id="lg5"><stop offset="0" stop-color="#ffda45"/><stop offset="1" stop-color="#ffa425"/></linearGradient><linearGradient id="SVGID_19_" gradientTransform="matrix(.707 .707 -.707 .707 1013.855 -672.841)" gradientUnits="userSpaceOnUse" x1="81.544" x2="159.033" xlink:href="#lg5" y1="1068.962" y2="1068.962"/><linearGradient id="SVGID_20_" gradientTransform="matrix(.707 .707 -.707 .707 1013.855 -672.841)" gradientUnits="userSpaceOnUse" x1="101.039" x2="162.61" xlink:href="#lg5" y1="1068.29" y2="1068.29"/><linearGradient id="SVGID_21_" gradientUnits="userSpaceOnUse" x1="355.989" x2="311.07" y1="184.682" y2="108.807"><stop offset="0" stop-color="#ffda45" stop-opacity="0"/><stop offset="1" stop-color="#fcee21"/></linearGradient><linearGradient id="SVGID_22_" gradientTransform="matrix(.707 .707 -.707 .707 1013.855 -672.841)" gradientUnits="userSpaceOnUse" x1="117.949" x2="137.721" y1="1258.64" y2="1258.64"><stop offset="0" stop-color="#7e8595"/><stop offset="1" stop-color="#555a66"/></linearGradient><linearGradient id="SVGID_23_" gradientTransform="matrix(.707 .707 -.707 .707 1013.855 -672.841)" gradientUnits="userSpaceOnUse" x1="145.283" x2="95.202" y1="993.862" y2="886.682"><stop offset="0" stop-color="#ffda45" stop-opacity="0"/><stop offset="1" stop-color="#b53759"/></linearGradient><linearGradient id="SVGID_24_" gradientTransform="matrix(.707 .707 -.707 .707 1013.855 -672.841)" gradientUnits="userSpaceOnUse" x1="120.088" x2="120.582" xlink:href="#lg3" y1="929.348" y2="940.975"/><linearGradient id="lg6"><stop offset="0" stop-color="#92f37f"/><stop offset="1" stop-color="#4ab272"/></linearGradient><linearGradient id="SVGID_25_" gradientUnits="userSpaceOnUse" x1="20.521" x2="20.521" xlink:href="#lg6" y1="211.919" y2="232.608"/><linearGradient id="SVGID_26_" gradientTransform="matrix(0 1 1 0 615.218 -615.218)" gradientUnits="userSpaceOnUse" x1="639.118" x2="639.118" xlink:href="#lg6" y1="-406.677" y2="-385.989"/><linearGradient id="SVGID_27_" gradientTransform="matrix(.707 .707 -.707 .707 -180.026 -285.916)" gradientUnits="userSpaceOnUse" x1="439.736" x2="439.736" xlink:href="#lg6" y1="74.924" y2="95.613"/><linearGradient id="SVGID_28_" gradientTransform="matrix(-.707 .707 .707 .707 690.026 -285.916)" gradientUnits="userSpaceOnUse" x1="502.13" x2="502.13" xlink:href="#lg6" y1="12.531" y2="33.219"/><path d="m510 330.598v163.678c0 7.732-8.27 13.019-15.897 10.177-36.682-13.651-74.137-20.47-111.603-20.47-39.824 0-79.637 7.71-118.507 23.141-2.864 1.137-5.91 1.751-8.992 1.751-3.084 0-6.131-.614-8.997-1.751-75.432-29.934-154.448-30.825-230.108-2.67-7.626 2.84-15.896-2.447-15.896-10.178v-163.678c0-5.568 3.497-10.633 8.948-12.797 38.893-15.441 78.711-23.149 118.54-23.149 42.894 0 85.799 8.948 127.512 26.845 80.465-34.519 165.294-35.747 246.052-3.696 5.451 2.164 8.948 7.229 8.948 12.797z" fill="url(#SVGID_1_)"/><path d="m494.103 482.035c-36.682-13.651-74.137-20.47-111.603-20.47-39.824 0-79.637 7.71-118.507 23.141-2.864 1.137-5.91 1.751-8.992 1.751-3.084 0-6.131-.614-8.997-1.751-75.432-29.934-154.448-30.824-230.108-2.67-7.626 2.842-15.896-2.446-15.896-10.177v22.417c0 7.732 8.27 13.019 15.897 10.177 75.66-28.154 154.675-27.264 230.108 2.671 2.866 1.137 5.914 1.751 8.997 1.751 3.082 0 6.128-.614 8.992-1.751 38.869-15.431 78.683-23.141 118.507-23.141 37.466 0 74.921 6.819 111.603 20.47 7.627 2.842 15.897-2.445 15.897-10.177v-22.417c-.001 7.731-8.271 13.019-15.898 10.176z" fill="url(#SVGID_2_)"/><path d="m495.367 324.755v135.53c0 7.732-7.79 13.019-14.984 10.177-34.577-13.651-69.879-20.47-105.193-20.47-34.058 0-68.106 6.343-101.499 19.048-5.975 2.273-12.297 3.504-18.69 3.504-6.401 0-12.728-1.236-18.711-3.511-68-25.857-138.765-25.378-206.672 1.428-7.194 2.842-14.984-2.445-14.984-10.177v-135.53c0-5.568 3.299-10.633 8.434-12.797 36.659-15.441 74.207-23.149 111.744-23.149 40.437 0 80.863 8.948 120.189 26.845 75.845-34.519 155.807-35.747 231.933-3.696 5.134 2.165 8.433 7.23 8.433 12.798z" fill="url(#SVGID_3_)"/><path d="m495.367 324.755v135.53c0 7.732-7.79 13.019-14.984 10.177-34.577-13.651-69.879-20.47-105.193-20.47-34.058 0-68.106 6.343-101.499 19.048-5.975 2.273-12.297 3.504-18.69 3.504-6.401 0-12.728-1.236-18.711-3.511-68-25.857-138.765-25.378-206.672 1.428-7.194 2.842-14.984-2.445-14.984-10.177v-135.53c0-5.568 3.299-10.633 8.434-12.797 36.659-15.441 74.207-23.149 111.744-23.149 40.437 0 80.863 8.948 120.189 26.845 75.845-34.519 155.807-35.747 231.933-3.696 5.134 2.165 8.433 7.23 8.433 12.798z" fill="url(#SVGID_3_)"/><path d="m495.367 315.631v135.53c0 7.732-7.79 13.019-14.984 10.177-34.577-13.651-69.879-20.47-105.193-20.47-34.058 0-68.106 6.343-101.499 19.048-5.975 2.273-12.297 3.504-18.69 3.504-6.401 0-12.728-1.236-18.711-3.511-68-25.857-138.765-25.378-206.672 1.428-7.194 2.842-14.984-2.445-14.984-10.177v-135.53c0-5.568 3.299-10.633 8.434-12.797 36.659-15.441 74.207-23.149 111.744-23.149 40.437 0 80.863 8.948 120.189 26.845 75.845-34.519 155.807-35.747 231.933-3.696 5.134 2.165 8.433 7.23 8.433 12.798z" fill="url(#SVGID_5_)"/><path d="m14.633 308.613v135.53c0 7.732 7.79 13.019 14.984 10.176 34.577-13.651 69.879-20.47 105.193-20.47 34.058 0 68.106 6.343 101.499 19.048 5.975 2.273 12.297 3.504 18.69 3.504 6.401 0 12.728-1.236 18.711-3.511 68-25.857 138.765-25.378 206.672 1.428 7.194 2.842 14.984-2.445 14.984-10.176v-135.53c0-5.568-3.299-10.633-8.434-12.797-36.659-15.441-74.207-23.149-111.744-23.149-40.437 0-80.863 8.948-120.189 26.845-75.845-34.519-155.807-35.747-231.933-3.696-5.134 2.165-8.433 7.23-8.433 12.798z" fill="url(#SVGID_6_)"/><path d="m23.063 284.306c-5.13 2.16-8.429 7.229-8.429 12.795v135.527c0 7.735 7.795 13.022 14.989 10.181 74.16-29.288 151.719-27.16 225.377 6.37 0-109.08 0-52.099 0-161.18-75.837-34.517-155.798-35.755-231.937-3.693z" fill="url(#SVGID_7_)"/><path d="m486.937 284.307c-76.131-32.056-156.091-30.832-231.937 3.693v161.18c73.667-33.535 151.226-35.653 225.377-6.369 7.194 2.841 14.989-2.446 14.989-10.181 0-100.529 0-34.998 0-135.527.001-5.568-3.299-10.636-8.429-12.796z" fill="url(#SVGID_8_)"/><path d="m38.23 305.947c-4.795 2.019-7.878 6.756-7.878 11.958v115.805c0 7.229 7.285 12.171 14.009 9.515 69.31-27.372 141.797-25.384 210.639 5.953 0-101.947 0-37.833 0-139.78-70.878-32.259-145.609-33.417-216.77-3.451z" fill="url(#SVGID_9_)"/><g fill="#bec3d2"><path d="m50.776 310.205c21.179-7.505 42.586-12.176 64.078-14.01 1.997-.171 3.707 1.426 3.707 3.43v8.17c0 1.787-1.371 3.261-3.151 3.418-20.902 1.843-41.718 6.548-62.316 14.106-2.236.82-4.603-.844-4.603-3.226v-8.64c-.001-1.455.914-2.762 2.285-3.248z"/><path d="m171.75 300.987v8.196c0 2.078-1.833 3.693-3.89 3.403-12.177-1.712-24.358-2.452-36.514-2.223-1.932.036-3.525-1.501-3.525-3.433v-8.126c0-1.866 1.49-3.407 3.356-3.442 12.528-.23 25.069.508 37.612 2.214 1.698.231 2.961 1.696 2.961 3.411z"/><path d="m214 310.491v8.535c0 2.326-2.268 3.992-4.479 3.27-8.541-2.792-17.164-5.104-25.784-6.92-1.593-.336-2.737-1.727-2.737-3.355v-8.313c0-2.162 1.976-3.804 4.094-3.372 8.862 1.805 17.724 4.1 26.51 6.872 1.428.45 2.396 1.786 2.396 3.283z"/><path d="m50.775 341.797c5.717-2.023 11.454-3.842 17.212-5.454 2.199-.616 4.383 1.021 4.383 3.305v8.46c0 1.533-1.017 2.869-2.489 3.294-5.617 1.623-11.218 3.457-16.791 5.5-2.234.819-4.599-.848-4.599-3.227v-8.632c-.001-1.455.913-2.761 2.284-3.246z"/><path d="m148.87 330.556v8.13c0 1.945-1.613 3.514-3.556 3.432-4.485-.189-8.969-.243-13.454-.172-15.372.257-30.77 2.068-46.062 5.41-2.145.469-4.168-1.19-4.168-3.386v-8.277c0-1.62 1.131-3.032 2.716-3.367 15.687-3.314 31.475-5.116 47.264-5.381 4.658-.081 9.323-.024 13.984.17 1.834.078 3.276 1.605 3.276 3.441z"/><path d="m214 342.081v8.528c0 2.327-2.269 3.99-4.481 3.268-15.96-5.208-32.116-8.732-48.319-10.54-1.745-.195-3.07-1.654-3.07-3.41v-8.176c0-2.033 1.757-3.637 3.778-3.42 16.662 1.789 33.275 5.292 49.696 10.466 1.428.452 2.396 1.787 2.396 3.284z"/><path d="m50.776 373.385c21.097-7.471 42.559-12.156 64.081-13.991 1.996-.17 3.703 1.424 3.703 3.427v8.163c0 1.787-1.371 3.261-3.152 3.418-20.92 1.844-41.792 6.561-62.316 14.087-2.235.82-4.602-.845-4.602-3.226v-8.631c0-1.454.915-2.761 2.286-3.247z"/><path d="m214 373.662v8.537c0 2.326-2.268 3.991-4.479 3.27-25.597-8.354-51.678-12.357-77.661-11.932-.177.003-.354.006-.531.009-1.926.036-3.509-1.506-3.509-3.432v-8.133c0-1.87 1.496-3.403 3.366-3.436.141-.003.283-.005.424-.007 26.787-.446 53.641 3.534 79.993 11.842 1.428.449 2.397 1.784 2.397 3.282z"/><path d="m50.775 404.967c5.716-2.021 11.453-3.836 17.211-5.45 2.199-.617 4.384 1.021 4.384 3.305v8.459c0 1.532-1.015 2.867-2.486 3.293-5.618 1.628-11.22 3.464-16.794 5.508-2.234.819-4.599-.848-4.599-3.227v-8.641c-.001-1.456.913-2.762 2.284-3.247z"/><path d="m171.75 395.754v8.198c0 2.099-1.863 3.689-3.941 3.398-11.965-1.678-23.965-2.422-35.949-2.223-15.372.257-30.77 2.059-46.062 5.408-2.145.47-4.168-1.189-4.168-3.385v-8.277c0-1.62 1.13-3.032 2.715-3.367 15.688-3.322 31.476-5.115 47.265-5.38 12.401-.204 24.811.536 37.181 2.219 1.698.232 2.959 1.696 2.959 3.409z"/></g><path d="m480.378 442.81c7.194 2.841 14.989-2.446 14.989-10.181 0-100.529 0-34.998 0-135.527 0-5.567-3.299-10.635-8.43-12.795-76.131-32.056-156.091-30.832-231.937 3.693-14.121-6.427-28.385-11.697-42.741-15.816l-11.553 32.317c-1.087 3.04 1.151 5.986 4.036 6.18l116.919 116.919c52.901-10.409 106.648-5.352 158.717 15.21z" fill="url(#SVGID_10_)"/><path d="m490.469 70.28-49.622-49.622 17.295-17.295c2.537-2.537 6.5-2.965 9.52-1.026 16.507 10.594 30.535 24.622 41.129 41.129 1.938 3.02 1.511 6.982-1.026 9.52z" fill="url(#SVGID_11_)"/><path d="m490.469 70.28 17.295-17.295c.411-.411.76-.862 1.06-1.338-.2-.733-.506-1.446-.933-2.112-10.594-16.507-24.623-30.535-41.13-41.129-3.02-1.938-6.982-1.511-9.52 1.026l-13.81 13.81z" fill="url(#SVGID_12_)"/><path d="m508.791 43.465c-1.794-2.796-3.695-5.514-5.681-8.163-.458 1.182-1.158 2.285-2.099 3.227l-21.146 21.146 10.605 10.605 17.295-17.295c2.537-2.538 2.964-6.5 1.026-9.52z" fill="url(#SVGID_13_)"/><path d="m465.349 100.57 29.211-29.211c1.138-1.138 1.138-2.982 0-4.119l-50.673-50.673c-1.138-1.138-2.982-1.138-4.119 0l-29.211 29.211z" fill="url(#SVGID_14_)"/><path d="m425.269 31.028v109.621l54.875-54.838-54.828-54.829z" fill="url(#SVGID_15_)"/><path d="m478.388 84.575-51.836-51.836c-2.596-2.597-2.596-6.806 0-9.403 2.597-2.596 6.806-2.596 9.403 0l51.836 51.836c2.596 2.597 2.596 6.806 0 9.403-2.597 2.596-6.807 2.596-9.403 0z" fill="url(#SVGID_16_)"/><path d="m227.898 228.436-27.192 76.065c-1.316 3.68 2.239 7.235 5.919 5.919l76.065-27.192c15.176-15.175-39.616-69.968-54.792-54.792z" fill="url(#SVGID_17_)"/><path d="m241.16 241.036-40.017 66.869c-.065.108-.112.215-.167.322 1.015 1.889 3.303 3.031 5.648 2.193l76.065-27.192c.117-.117.218-.244.327-.366 4.515-17.735-27.029-53.681-41.856-41.826z" fill="url(#SVGID_18_)"/><path d="m469.979 95.939-187.289 187.289c-.726-1.259-1.633-2.445-2.707-3.519-6.704-6.704-17.575-6.704-24.279 0-.302.302.866-.938.866-.938 5.824-6.744 5.535-16.939-.871-23.345s-16.601-6.695-23.345-.871c0 0-1.24 1.168-.938.866 6.704-6.704 6.704-17.575 0-24.279-1.074-1.074-2.26-1.98-3.519-2.707l187.29-187.288z" fill="url(#SVGID_19_)"/><path d="m454.691 80.651-198.12 198.12c5.824-6.744 5.535-16.939-.871-23.345s-16.601-6.695-23.345-.871l198.12-198.12z" fill="url(#SVGID_20_)"/><path d="m231.417 255.422c-.302.302.938-.866.938-.866 6.744-5.824 16.939-5.535 23.345.871s6.694 16.601.871 23.345c0 0-1.168 1.24-.866.938 6.704-6.704 17.575-6.704 24.279 0 1.074 1.074 1.98 2.26 2.707 3.519l187.288-187.29-48.275-48.275-187.37 187.37c3.573 6.519 2.604 14.866-2.917 20.388z" fill="url(#SVGID_21_)"/><path d="m216.061 295.066c-2.879-2.879-6.096-5.188-9.499-6.943l-5.855 16.378c-1.316 3.68 2.239 7.235 5.919 5.919l16.378-5.855c-1.755-3.404-4.065-6.621-6.943-9.499z" fill="url(#SVGID_22_)"/><path d="m406.537 49.76.129 109.529 54.746-54.746-54.828-54.829z" fill="url(#SVGID_23_)"/><path d="m459.646 103.317-51.836-51.836c-2.597-2.597-2.597-6.806 0-9.403 2.597-2.597 6.806-2.597 9.403 0l51.836 51.836c2.597 2.596 2.597 6.806 0 9.403-2.597 2.596-6.807 2.596-9.403 0z" fill="url(#SVGID_24_)"/><path d="m30.988 224.315h-20.934c-5.553 0-10.054-4.501-10.054-10.054 0-5.553 4.501-10.054 10.054-10.054h20.934c5.553 0 10.054 4.502 10.054 10.054.001 5.553-4.501 10.054-10.054 10.054z" fill="url(#SVGID_25_)"/><path d="m220.936 34.367v-20.934c0-5.553-4.502-10.054-10.054-10.054-5.553 0-10.054 4.502-10.054 10.054v20.934c0 5.553 4.501 10.054 10.054 10.054 5.552.001 10.054-4.501 10.054-10.054z" fill="url(#SVGID_26_)"/><path d="m76.568 94.166-14.802-14.802c-3.926-3.926-3.926-10.292 0-14.219 3.926-3.926 10.292-3.926 14.219 0l14.803 14.803c3.926 3.926 3.926 10.292 0 14.219-3.927 3.926-10.293 3.926-14.22-.001z" fill="url(#SVGID_27_)"/><path d="m345.195 94.166 14.803-14.803c3.926-3.926 3.926-10.292 0-14.219-3.926-3.926-10.293-3.926-14.219 0l-14.803 14.803c-3.926 3.926-3.926 10.292 0 14.219 3.926 3.927 10.292 3.927 14.219 0z" fill="url(#SVGID_28_)"/></svg>