<svg id="Capa_1" enable-background="new 0 0 510 510" height="512" viewBox="0 0 510 510" width="512" xmlns="http://www.w3.org/2000/svg" xmlns:xlink="http://www.w3.org/1999/xlink"><linearGradient id="lg1"><stop offset="0" stop-color="#ff637b"/><stop offset="1" stop-color="#e63950"/></linearGradient><linearGradient id="SVGID_1_" gradientTransform="matrix(0 1 -1 0 510 0)" gradientUnits="userSpaceOnUse" x1="242.502" x2="275.896" xlink:href="#lg1" y1="81.112" y2="81.112"/><linearGradient id="lg2"><stop offset="0" stop-color="#ff9690"/><stop offset="1" stop-color="#f9545b"/></linearGradient><linearGradient id="SVGID_2_" gradientTransform="matrix(0 1 -1 0 510 0)" gradientUnits="userSpaceOnUse" x1="246.768" x2="269.759" xlink:href="#lg2" y1="20.931" y2="43.922"/><linearGradient id="SVGID_3_" gradientTransform="matrix(.707 .707 -.707 .707 255 -105.625)" gradientUnits="userSpaceOnUse" x1="242.502" x2="275.896" xlink:href="#lg1" y1="81.112" y2="81.112"/><linearGradient id="SVGID_4_" gradientTransform="matrix(.707 .707 -.707 .707 255 -105.625)" gradientUnits="userSpaceOnUse" x1="246.768" x2="269.759" xlink:href="#lg2" y1="20.931" y2="43.922"/><linearGradient id="SVGID_5_" gradientTransform="matrix(-.707 .707 -.707 -.707 615.625 255)" gradientUnits="userSpaceOnUse" x1="242.502" x2="275.896" xlink:href="#lg1" y1="81.112" y2="81.112"/><linearGradient id="SVGID_6_" gradientTransform="matrix(-.707 .707 -.707 -.707 615.625 255)" gradientUnits="userSpaceOnUse" x1="246.768" x2="269.759" xlink:href="#lg2" y1="20.931" y2="43.922"/><linearGradient id="SVGID_7_" gradientUnits="userSpaceOnUse" x1="242.502" x2="275.896" xlink:href="#lg1" y1="81.112" y2="81.112"/><linearGradient id="SVGID_8_" gradientUnits="userSpaceOnUse" x1="246.768" x2="269.759" xlink:href="#lg2" y1="20.931" y2="43.922"/><linearGradient id="SVGID_9_" gradientTransform="matrix(-1 0 0 -1 510 713.966)" gradientUnits="userSpaceOnUse" x1="242.502" x2="275.896" xlink:href="#lg1" y1="285.078" y2="285.078"/><linearGradient id="SVGID_10_" gradientTransform="matrix(-1 0 0 -1 510 713.966)" gradientUnits="userSpaceOnUse" x1="246.768" x2="269.759" xlink:href="#lg2" y1="224.898" y2="247.888"/><linearGradient id="SVGID_11_" gradientTransform="matrix(0 -1 1 0 -203.966 510)" gradientUnits="userSpaceOnUse" x1="242.502" x2="275.896" xlink:href="#lg1" y1="285.078" y2="285.078"/><linearGradient id="SVGID_12_" gradientTransform="matrix(0 -1 1 0 -203.966 510)" gradientUnits="userSpaceOnUse" x1="246.768" x2="269.759" xlink:href="#lg2" y1="224.898" y2="247.888"/><linearGradient id="SVGID_13_" gradientTransform="matrix(-.707 -.707 .707 -.707 110.774 759.85)" gradientUnits="userSpaceOnUse" x1="242.502" x2="275.896" xlink:href="#lg1" y1="285.078" y2="285.078"/><linearGradient id="SVGID_14_" gradientTransform="matrix(-.707 -.707 .707 -.707 110.774 759.85)" gradientUnits="userSpaceOnUse" x1="246.768" x2="269.759" xlink:href="#lg2" y1="224.898" y2="247.888"/><linearGradient id="SVGID_15_" gradientTransform="matrix(.707 -.707 .707 .707 -249.85 110.774)" gradientUnits="userSpaceOnUse" x1="242.502" x2="275.896" xlink:href="#lg1" y1="285.078" y2="285.078"/><linearGradient id="SVGID_16_" gradientTransform="matrix(.707 -.707 .707 .707 -249.85 110.774)" gradientUnits="userSpaceOnUse" x1="246.768" x2="269.759" xlink:href="#lg2" y1="224.898" y2="247.888"/><linearGradient id="SVGID_17_" gradientUnits="userSpaceOnUse" x1="134.181" x2="387.535" xlink:href="#lg2" y1="134.181" y2="387.535"/><linearGradient id="lg3"><stop offset="0" stop-color="#e63950" stop-opacity="0"/><stop offset=".0467" stop-color="#e4354b" stop-opacity=".047"/><stop offset=".4669" stop-color="#d31822" stop-opacity=".467"/><stop offset=".7991" stop-color="#c90709" stop-opacity=".799"/><stop offset="1" stop-color="#c50000"/></linearGradient><linearGradient id="SVGID_18_" gradientUnits="userSpaceOnUse" x1="366.642" x2="273.339" xlink:href="#lg3" y1="168.702" y2="75.399"/><linearGradient id="SVGID_19_" gradientUnits="userSpaceOnUse" x1="278.539" x2="234.794" xlink:href="#lg3" y1="302.382" y2="215.934"/><linearGradient id="SVGID_20_" gradientTransform="matrix(.927 .375 -.375 .927 114.197 -77.001)" gradientUnits="userSpaceOnUse" x1="244.975" x2="271.76" xlink:href="#lg1" y1="115.531" y2="115.531"/><linearGradient id="SVGID_21_" gradientTransform="matrix(.927 .375 -.375 .927 114.197 -77.001)" gradientUnits="userSpaceOnUse" x1="248.398" x2="266.837" xlink:href="#lg2" y1="67.262" y2="85.702"/><linearGradient id="SVGID_22_" gradientTransform="matrix(-.375 .927 -.927 -.375 587.001 114.197)" gradientUnits="userSpaceOnUse" x1="244.975" x2="271.76" xlink:href="#lg1" y1="115.531" y2="115.531"/><linearGradient id="SVGID_23_" gradientTransform="matrix(-.375 .927 -.927 -.375 587.001 114.197)" gradientUnits="userSpaceOnUse" x1="248.398" x2="266.837" xlink:href="#lg2" y1="67.262" y2="85.702"/><linearGradient id="SVGID_24_" gradientTransform="matrix(.39 .921 -.921 .39 390.197 -79.323)" gradientUnits="userSpaceOnUse" x1="244.975" x2="271.76" xlink:href="#lg1" y1="115.531" y2="115.531"/><linearGradient id="SVGID_25_" gradientTransform="matrix(.39 .921 -.921 .39 390.197 -79.323)" gradientUnits="userSpaceOnUse" x1="248.398" x2="266.837" xlink:href="#lg2" y1="67.262" y2="85.702"/><linearGradient id="SVGID_26_" gradientTransform="matrix(-.921 .39 -.39 -.921 589.323 390.197)" gradientUnits="userSpaceOnUse" x1="244.975" x2="271.76" xlink:href="#lg1" y1="115.531" y2="115.531"/><linearGradient id="SVGID_27_" gradientTransform="matrix(-.921 .39 -.39 -.921 589.323 390.197)" gradientUnits="userSpaceOnUse" x1="248.398" x2="266.837" xlink:href="#lg2" y1="67.262" y2="85.702"/><linearGradient id="SVGID_28_" gradientTransform="matrix(-.927 -.375 .375 -.927 319.336 776.091)" gradientUnits="userSpaceOnUse" x1="244.975" x2="271.76" xlink:href="#lg1" y1="319.497" y2="319.497"/><linearGradient id="SVGID_29_" gradientTransform="matrix(-.927 -.375 .375 -.927 319.336 776.091)" gradientUnits="userSpaceOnUse" x1="248.398" x2="266.837" xlink:href="#lg2" y1="271.228" y2="289.668"/><linearGradient id="SVGID_30_" gradientUnits="userSpaceOnUse" x1="123.355" x2="108.773" xlink:href="#lg3" y1="241.587" y2="138.995"/><linearGradient id="SVGID_31_" gradientTransform="matrix(.375 -.927 .927 .375 -266.091 319.336)" gradientUnits="userSpaceOnUse" x1="244.975" x2="271.76" xlink:href="#lg1" y1="319.497" y2="319.497"/><linearGradient id="SVGID_32_" gradientTransform="matrix(.375 -.927 .927 .375 -266.091 319.336)" gradientUnits="userSpaceOnUse" x1="248.398" x2="266.837" xlink:href="#lg2" y1="271.228" y2="289.668"/><linearGradient id="SVGID_33_" gradientTransform="matrix(-.39 -.921 .921 -.39 -67.974 668.96)" gradientUnits="userSpaceOnUse" x1="244.975" x2="271.76" xlink:href="#lg1" y1="319.497" y2="319.497"/><linearGradient id="SVGID_34_" gradientTransform="matrix(-.39 -.921 .921 -.39 -67.974 668.96)" gradientUnits="userSpaceOnUse" x1="248.398" x2="266.837" xlink:href="#lg2" y1="271.228" y2="289.668"/><linearGradient id="SVGID_35_" gradientUnits="userSpaceOnUse" x1="242.809" x2="140.738" xlink:href="#lg3" y1="143.583" y2="63.906"/><linearGradient id="SVGID_36_" gradientTransform="matrix(.921 -.39 .39 .921 -158.96 -67.974)" gradientUnits="userSpaceOnUse" x1="244.975" x2="271.76" xlink:href="#lg1" y1="319.497" y2="319.497"/><linearGradient id="SVGID_37_" gradientTransform="matrix(.921 -.39 .39 .921 -158.96 -67.974)" gradientUnits="userSpaceOnUse" x1="248.398" x2="266.837" xlink:href="#lg2" y1="271.228" y2="289.668"/><linearGradient id="SVGID_38_" gradientUnits="userSpaceOnUse" x1="222.712" x2="312.888" xlink:href="#lg1" y1="222.712" y2="312.888"/><g><g><path d="m386.313 255c0-5.177 4.197-9.374 9.374-9.374h66.402c5.177 0 9.374 4.197 9.374 9.374 0 5.177-4.197 9.374-9.374 9.374h-66.402c-5.177 0-9.374-4.197-9.374-9.374z" fill="url(#SVGID_1_)"/><circle cx="480.837" cy="255" fill="url(#SVGID_2_)" r="29.163"/></g><g><path d="m347.852 162.148c-3.661-3.661-3.661-9.596 0-13.257l46.954-46.954c3.661-3.661 9.596-3.661 13.257 0 3.661 3.661 3.661 9.596 0 13.257l-46.954 46.954c-3.661 3.66-9.596 3.66-13.257 0z" fill="url(#SVGID_3_)"/><circle cx="414.691" cy="95.309" fill="url(#SVGID_4_)" r="29.163"/></g><g><path d="m347.852 347.852c3.661-3.661 9.596-3.661 13.257 0l46.954 46.954c3.661 3.661 3.661 9.596 0 13.257-3.661 3.661-9.596 3.661-13.257 0l-46.954-46.954c-3.66-3.661-3.66-9.596 0-13.257z" fill="url(#SVGID_5_)"/><circle cx="414.691" cy="414.691" fill="url(#SVGID_6_)" r="29.163"/></g><g><path d="m255 123.687c-5.177 0-9.374-4.197-9.374-9.374v-66.402c0-5.177 4.197-9.374 9.374-9.374 5.177 0 9.374 4.197 9.374 9.374v66.402c0 5.177-4.197 9.374-9.374 9.374z" fill="url(#SVGID_7_)"/><circle cx="255" cy="29.163" fill="url(#SVGID_8_)" r="29.163"/></g><g><path d="m255 386.313c5.177 0 9.374 4.197 9.374 9.374v66.402c0 5.177-4.197 9.374-9.374 9.374-5.177 0-9.374-4.197-9.374-9.374v-66.402c0-5.177 4.197-9.374 9.374-9.374z" fill="url(#SVGID_9_)"/><circle cx="255" cy="480.837" fill="url(#SVGID_10_)" r="29.163"/></g><g><path d="m123.687 255c0 5.177-4.197 9.374-9.374 9.374h-66.402c-5.177 0-9.374-4.197-9.374-9.374 0-5.177 4.197-9.374 9.374-9.374h66.402c5.177 0 9.374 4.197 9.374 9.374z" fill="url(#SVGID_11_)"/><circle cx="29.163" cy="255" fill="url(#SVGID_12_)" r="29.163"/></g><g><path d="m162.148 347.852c3.661 3.661 3.661 9.596 0 13.257l-46.954 46.954c-3.661 3.661-9.596 3.661-13.257 0-3.661-3.661-3.661-9.596 0-13.257l46.954-46.954c3.661-3.66 9.596-3.66 13.257 0z" fill="url(#SVGID_13_)"/><circle cx="95.309" cy="414.691" fill="url(#SVGID_14_)" r="29.163"/></g><g><path d="m162.148 162.148c-3.661 3.661-9.596 3.661-13.257 0l-46.954-46.954c-3.661-3.661-3.661-9.596 0-13.257 3.661-3.661 9.596-3.661 13.257 0l46.954 46.954c3.66 3.661 3.66 9.596 0 13.257z" fill="url(#SVGID_15_)"/><circle cx="95.309" cy="95.309" fill="url(#SVGID_16_)" r="29.163"/></g><circle cx="255" cy="255" fill="url(#SVGID_17_)" r="179.575"/><path d="m326.636 90.297-27.125 67.278s28.744 7.362 55.825 52.914l64.884-25.945c-17.988-42.125-51.615-75.967-93.584-94.247z" fill="url(#SVGID_18_)"/><path d="m255 434.575c99.176 0 179.575-80.398 179.575-179.575 0-23.193-4.398-45.358-12.404-65.709l-330.759 139.874c28.231 62.172 90.859 105.41 163.588 105.41z" fill="url(#SVGID_19_)"/><g><path d="m294.485 157.36c-3.849-1.557-5.708-5.939-4.151-9.789l19.966-49.374c1.557-3.849 5.939-5.708 9.789-4.151 3.849 1.557 5.708 5.939 4.151 9.789l-19.967 49.375c-1.556 3.848-5.939 5.707-9.788 4.15z" fill="url(#SVGID_20_)"/><circle cx="322.907" cy="87.075" fill="url(#SVGID_21_)" r="23.391"/></g><g><path d="m352.64 294.485c1.557-3.849 5.939-5.708 9.789-4.151l49.375 19.967c3.849 1.557 5.708 5.939 4.151 9.789-1.557 3.849-5.939 5.708-9.789 4.151l-49.375-19.967c-3.849-1.557-5.708-5.94-4.151-9.789z" fill="url(#SVGID_22_)"/><circle cx="422.925" cy="322.907" fill="url(#SVGID_23_)" r="23.391"/></g><g><path d="m351.962 213.878c-1.621-3.823.163-8.236 3.986-9.857l49.032-20.795c3.823-1.621 8.236.163 9.857 3.986 1.621 3.823-.163 8.236-3.986 9.857l-49.032 20.795c-3.823 1.622-8.236-.163-9.857-3.986z" fill="url(#SVGID_24_)"/><circle cx="421.759" cy="184.277" fill="url(#SVGID_25_)" r="23.391"/></g><g><path d="m296.122 351.962c3.823-1.621 8.236.163 9.857 3.986l20.795 49.032c1.621 3.823-.163 8.236-3.986 9.857-3.823 1.621-8.236-.163-9.857-3.986l-20.795-49.032c-1.622-3.823.163-8.236 3.986-9.857z" fill="url(#SVGID_26_)"/><circle cx="325.723" cy="421.759" fill="url(#SVGID_27_)" r="23.391"/></g><g><path d="m215.515 352.64c3.849 1.557 5.708 5.939 4.151 9.789l-19.966 49.374c-1.557 3.849-5.939 5.708-9.789 4.151-3.849-1.557-5.708-5.939-4.151-9.789l19.967-49.375c1.556-3.848 5.939-5.707 9.788-4.15z" fill="url(#SVGID_28_)"/><circle cx="187.093" cy="422.925" fill="url(#SVGID_29_)" r="23.391"/></g><path d="m81.112 209.705 66.107 66.107s-6.259-44.58 10.141-60.297l-68.641-28.423z" fill="url(#SVGID_30_)"/><g><path d="m157.36 215.515c-1.557 3.849-5.939 5.708-9.789 4.151l-49.374-19.966c-3.849-1.557-5.708-5.939-4.151-9.789 1.557-3.849 5.939-5.708 9.789-4.151l49.375 19.967c3.848 1.556 5.707 5.939 4.15 9.788z" fill="url(#SVGID_31_)"/><circle cx="87.075" cy="187.093" fill="url(#SVGID_32_)" r="23.391"/></g><g><path d="m158.038 296.122c1.621 3.823-.163 8.236-3.986 9.857l-49.032 20.795c-3.823 1.621-8.236-.163-9.857-3.986-1.621-3.823.163-8.236 3.986-9.857l49.032-20.795c3.823-1.622 8.236.163 9.857 3.986z" fill="url(#SVGID_33_)"/><circle cx="88.241" cy="325.723" fill="url(#SVGID_34_)" r="23.391"/></g><path d="m185.249 89.477 28.611 65.014c23.955-11.978 56.03-9.437 56.03-9.437l-63.08-63.08c-7.389 2.055-14.589 4.561-21.561 7.503z" fill="url(#SVGID_35_)"/><g><path d="m213.878 158.038c-3.823 1.621-8.236-.163-9.857-3.986l-20.795-49.032c-1.621-3.823.163-8.236 3.986-9.857 3.823-1.621 8.236.163 9.857 3.986l20.795 49.032c1.622 3.823-.163 8.236-3.986 9.857z" fill="url(#SVGID_36_)"/><circle cx="184.277" cy="88.241" fill="url(#SVGID_37_)" r="23.391"/></g><circle cx="255" cy="255" fill="url(#SVGID_38_)" r="114.387"/></g></svg>