<svg id="Capa_1" enable-background="new 0 0 510 510" height="512" viewBox="0 0 510 510" width="512" xmlns="http://www.w3.org/2000/svg" xmlns:xlink="http://www.w3.org/1999/xlink"><linearGradient id="SVGID_1_" gradientUnits="userSpaceOnUse" x1="233.545" x2="371.907" y1="208.455" y2="346.817"><stop offset="0" stop-color="#28a265"/><stop offset="1" stop-color="#28895e"/></linearGradient><linearGradient id="lg1"><stop offset="0" stop-color="#108372" stop-opacity="0"/><stop offset="1" stop-color="#006837"/></linearGradient><linearGradient id="SVGID_2_" gradientUnits="userSpaceOnUse" x1="336.498" x2="124.535" xlink:href="#lg1" y1="372.564" y2="160.6"/><linearGradient id="SVGID_3_" gradientUnits="userSpaceOnUse" x1="435.134" x2="307.287" xlink:href="#lg1" y1="325.533" y2="197.685"/><g><path d="m255.001 0c-127.351 0-229.912 102.56-229.911 229.911 0 124.764 99.381 226.317 223.299 229.816 3.679.104 6.612 3.101 6.612 6.781v31.263c0 10.872 13.145 16.317 20.833 8.629l45.439-45.439c9.766-9.766 21.072-17.879 33.512-23.881 76.996-37.151 130.125-115.951 130.125-207.17 0-126.975-102.933-229.91-229.909-229.91z" fill="url(#SVGID_1_)"/><path d="m354.784 437.081c32.38-15.624 60.537-38.614 82.299-66.795l-200.85-200.849c-4.165-5.79-10.956-7.564-18.632-7.564h-70.849c-12.671 0-20.943 8.272-20.943 20.943v70.85c0 7.677 1.774 14.468 7.564 18.633l188.29 188.29c9.677-9.597 20.843-17.584 33.121-23.508z" fill="url(#SVGID_2_)"/><path d="m381.9 169.437c-4.165-5.79-10.956-7.564-18.633-7.564h-70.849c-12.671 0-20.943 8.272-20.943 20.943v70.85c0 7.677 1.774 14.468 7.564 18.633l129.089 129.089c37.879-33.843 64.471-80.047 73.445-132.278z" fill="url(#SVGID_3_)"/><g fill="#ebeff0"><path d="m123.808 182.816v70.85c0 12.671 10.272 22.943 22.943 22.943h11.279c12.671 0 22.943 10.272 22.943 22.943v9.885c0 9.869 11.932 14.811 18.91 7.833l5.208-5.208c22.7-22.7 35.453-53.488 35.453-85.591v-43.655c0-12.671-10.272-22.943-22.943-22.943h-70.85c-12.671 0-22.943 10.272-22.943 22.943z"/><path d="m269.456 182.816v70.85c0 12.671 10.272 22.943 22.943 22.943h11.279c12.671 0 22.943 10.272 22.943 22.943v9.885c0 9.869 11.932 14.811 18.91 7.833l5.208-5.208c22.7-22.7 35.453-53.488 35.453-85.591v-43.655c0-12.671-10.272-22.943-22.943-22.943h-70.849c-12.672 0-22.944 10.272-22.944 22.943z"/></g></g></svg>