<svg id="Capa_1" enable-background="new 0 0 510 510" height="512" viewBox="0 0 510 510" width="512" xmlns="http://www.w3.org/2000/svg" xmlns:xlink="http://www.w3.org/1999/xlink"><linearGradient id="lg1"><stop offset="0" stop-color="#ff637b"/><stop offset="1" stop-color="#f90217"/></linearGradient><linearGradient id="SVGID_1_" gradientTransform="matrix(0 1 1 0 -290.99 -168.882)" gradientUnits="userSpaceOnUse" x1="489.505" x2="624.909" xlink:href="#lg1" y1="497.71" y2="497.71"/><linearGradient id="SVGID_2_" gradientTransform="matrix(0 1 1 0 -290.99 -168.882)" gradientUnits="userSpaceOnUse" x1="629.647" x2="444.228" xlink:href="#lg1" y1="497.71" y2="497.71"/><linearGradient id="SVGID_3_" gradientTransform="matrix(0 1 1 0 -290.99 -168.882)" gradientUnits="userSpaceOnUse" x1="633.772" x2="547.644" y1="436.649" y2="350.521"><stop offset="0" stop-color="#f90217" stop-opacity="0"/><stop offset=".2669" stop-color="#e7010f" stop-opacity=".267"/><stop offset=".7232" stop-color="#ce0004" stop-opacity=".723"/><stop offset="1" stop-color="#c50000"/></linearGradient><linearGradient id="lg2"><stop offset="0" stop-color="#e3e5e4"/><stop offset="1" stop-color="#cbd0e4"/></linearGradient><linearGradient id="SVGID_4_" gradientTransform="matrix(0 1 1 0 -290.99 -168.882)" gradientUnits="userSpaceOnUse" x1="536.611" x2="578.281" xlink:href="#lg2" y1="339.488" y2="381.158"/><linearGradient id="SVGID_5_" gradientTransform="matrix(0 -1 -1 0 -1011.765 1247.145)" gradientUnits="userSpaceOnUse" x1="846.971" x2="870.945" xlink:href="#lg2" y1="-1092.708" y2="-1068.735"/><linearGradient id="lg3"><stop offset="0" stop-color="#ffd833"/><stop offset="1" stop-color="#f2b631"/></linearGradient><linearGradient id="SVGID_6_" gradientTransform="matrix(-.599 .801 .801 .599 180.584 -421.664)" gradientUnits="userSpaceOnUse" x1="482.246" x2="617.65" xlink:href="#lg3" y1="478.165" y2="478.165"/><linearGradient id="SVGID_7_" gradientTransform="matrix(-.599 .801 .801 .599 180.584 -421.664)" gradientUnits="userSpaceOnUse" x1="622.388" x2="436.969" xlink:href="#lg3" y1="478.165" y2="478.165"/><linearGradient id="SVGID_8_" gradientUnits="userSpaceOnUse" x1="209.051" x2="56.718" y1="307.749" y2="155.417"><stop offset="0" stop-color="#f9a126" stop-opacity="0"/><stop offset="1" stop-color="#ec4437"/></linearGradient><linearGradient id="SVGID_9_" gradientTransform="matrix(-.599 .801 .801 .599 180.584 -421.664)" gradientUnits="userSpaceOnUse" x1="529.352" x2="571.022" xlink:href="#lg2" y1="319.943" y2="361.613"/><linearGradient id="SVGID_10_" gradientTransform="matrix(.599 -.801 -.801 -.599 -1244.461 281.115)" gradientUnits="userSpaceOnUse" x1="854.23" x2="878.204" xlink:href="#lg2" y1="-1073.163" y2="-1049.19"/><linearGradient id="lg4"><stop offset="0" stop-color="#28a265"/><stop offset="1" stop-color="#28895e"/></linearGradient><linearGradient id="SVGID_11_" gradientTransform="matrix(-.959 .283 .283 .959 709.648 -341.845)" gradientUnits="userSpaceOnUse" x1="488.132" x2="623.535" xlink:href="#lg4" y1="458.164" y2="458.164"/><linearGradient id="SVGID_12_" gradientTransform="matrix(-.959 .283 .283 .959 709.648 -341.845)" gradientUnits="userSpaceOnUse" x1="628.274" x2="442.855" xlink:href="#lg4" y1="458.164" y2="458.164"/><linearGradient id="SVGID_13_" gradientUnits="userSpaceOnUse" x1="343.415" x2="239.911" y1="199.272" y2="95.768"><stop offset="0" stop-color="#108372" stop-opacity="0"/><stop offset="1" stop-color="#006837"/></linearGradient><linearGradient id="SVGID_14_" gradientTransform="matrix(-.959 .283 .283 .959 709.648 -341.845)" gradientUnits="userSpaceOnUse" x1="535.238" x2="576.908" xlink:href="#lg2" y1="299.941" y2="341.611"/><linearGradient id="SVGID_15_" gradientTransform="matrix(.959 -.283 -.283 -.959 -852.551 -631.993)" gradientUnits="userSpaceOnUse" x1="848.345" x2="872.318" xlink:href="#lg2" y1="-1053.162" y2="-1029.188"/><linearGradient id="lg5"><stop offset="0" stop-color="#7faef4"/><stop offset="1" stop-color="#4c8df1"/></linearGradient><linearGradient id="SVGID_16_" gradientTransform="matrix(-.938 -.347 -.347 .938 1085.655 38.81)" gradientUnits="userSpaceOnUse" x1="504.82" x2="640.224" xlink:href="#lg5" y1="445.665" y2="445.665"/><linearGradient id="SVGID_17_" gradientTransform="matrix(-.938 -.347 -.347 .938 1085.655 38.81)" gradientUnits="userSpaceOnUse" x1="644.962" x2="459.543" xlink:href="#lg5" y1="445.665" y2="445.665"/><linearGradient id="lg6"><stop offset="0" stop-color="#4256ac" stop-opacity="0"/><stop offset="1" stop-color="#1b1464"/></linearGradient><linearGradient id="SVGID_18_" gradientUnits="userSpaceOnUse" x1="490.149" x2="412.21" xlink:href="#lg6" y1="176.495" y2="102.268"/><linearGradient id="SVGID_19_" gradientTransform="matrix(-.938 -.347 -.347 .938 1085.655 38.81)" gradientUnits="userSpaceOnUse" x1="551.926" x2="593.596" xlink:href="#lg2" y1="287.443" y2="329.113"/><linearGradient id="SVGID_20_" gradientTransform="matrix(.938 .347 .347 -.938 7.999 -1128.797)" gradientUnits="userSpaceOnUse" x1="831.656" x2="855.63" xlink:href="#lg2" y1="-1040.663" y2="-1016.69"/><linearGradient id="SVGID_21_" gradientUnits="userSpaceOnUse" x1="400.346" x2="325.011" xlink:href="#lg6" y1="437.663" y2="362.328"/><linearGradient id="SVGID_22_" gradientTransform="matrix(-.938 -.347 -.347 .938 1085.655 38.81)" gradientUnits="userSpaceOnUse" x1="551.926" x2="593.596" xlink:href="#lg2" y1="560.082" y2="601.752"/><linearGradient id="SVGID_23_" gradientTransform="matrix(.938 .347 .347 -.938 7.999 -1128.797)" gradientUnits="userSpaceOnUse" x1="831.656" x2="855.63" xlink:href="#lg2" y1="-1313.302" y2="-1289.329"/><g><g><g><path d="m413.441 388.324c0-37.391-30.311-67.702-67.702-67.702h-278.037c-37.391.001-67.702 30.312-67.702 67.702 0 37.391 30.311 67.702 67.702 67.702h278.037c37.391 0 67.702-30.311 67.702-67.702z" fill="url(#SVGID_1_)"/><path d="m381.1 388.324c0-19.499-15.863-35.361-35.361-35.361h-278.037c-19.499 0-35.361 15.863-35.361 35.361s15.863 35.361 35.361 35.361h278.037c19.499.001 35.361-15.862 35.361-35.361z" fill="url(#SVGID_2_)"/></g><path d="m22.399 388.324c0-26.384 20.31-46.695 46.694-46.695 14.104 0 26.776 5.037 35.521 14.756l99.64 99.64h-134.918l-32.181-32.181c-9.719-8.743-14.756-21.416-14.756-35.52z" fill="url(#SVGID_3_)"/><g><circle cx="69.094" cy="388.324" fill="url(#SVGID_4_)" r="47.773"/><circle cx="69.094" cy="388.324" fill="url(#SVGID_5_)" r="27.485"/></g></g><g><g><path d="m399.969 428.853c22.384-29.951 16.249-72.376-13.701-94.759l-222.713-166.444c-29.951-22.384-72.376-16.249-94.759 13.701-22.384 29.951-16.249 72.376 13.701 94.759l222.713 166.445c29.951 22.383 72.376 16.249 94.759-13.702z" fill="url(#SVGID_6_)"/><path d="m374.064 409.493c11.673-15.619 8.462-37.821-7.156-49.494l-222.713-166.444c-15.619-11.673-37.821-8.462-49.494 7.156s-8.462 37.821 7.156 49.494l222.713 166.445c15.619 11.672 37.822 8.462 49.494-7.157z" fill="url(#SVGID_7_)"/></g><g><path d="m398.916 430.191-246.176-245.745c-21.134-15.795-47.607-8.76-63.401 12.375-15.196 20.334-15.221 46.103 3.883 62.299l98.972 98.972 113.017 84.463c29.493 22.042 71.069 16.412 93.705-12.364z" fill="url(#SVGID_8_)"/><circle cx="124.141" cy="222.714" fill="url(#SVGID_9_)" r="47.773"/><circle cx="124.141" cy="222.714" fill="url(#SVGID_10_)" r="27.485"/></g></g><g><g><path d="m364.916 453.253c35.859-10.591 56.343-48.247 45.752-84.106l-78.757-266.65c-10.591-35.859-48.247-56.343-84.106-45.752-35.859 10.591-56.343 48.247-45.752 84.106l78.757 266.65c10.591 35.86 48.247 56.344 84.106 45.752z" fill="url(#SVGID_11_)"/><path d="m355.756 422.238c18.7-5.523 29.42-25.23 23.896-43.93l-78.757-266.65c-5.523-18.7-25.23-29.42-43.93-23.896s-29.42 25.23-23.896 43.93l78.757 266.65c5.523 18.699 25.23 29.419 43.93 23.896z" fill="url(#SVGID_12_)"/><path d="m234.447 98.909c-15.196 20.334-15.221 46.103 3.883 62.299l157.415 157.415-56.279-190.544-41.618-41.544c-21.134-15.795-47.606-8.76-63.401 12.374z" fill="url(#SVGID_13_)"/></g><g><circle cx="267.376" cy="123.01" fill="url(#SVGID_14_)" r="47.773"/><circle cx="267.376" cy="123.01" fill="url(#SVGID_15_)" r="27.485"/></g></g><g><g><path d="m322.231 451.814c35.064 12.983 74.014-4.918 86.997-39.982l96.541-260.739c12.983-35.064-4.918-74.014-39.982-86.997-35.064-12.983-74.014 4.918-86.997 39.982l-96.541 260.739c-12.982 35.064 4.918 74.014 39.982 86.997z" fill="url(#SVGID_16_)"/><path d="m333.461 421.486c18.285 6.77 38.669-2.598 45.439-20.883l96.541-260.739c6.77-18.285-2.598-38.669-20.883-45.439s-38.669 2.598-45.439 20.883l-96.541 260.739c-6.771 18.285 2.597 38.668 20.883 45.439z" fill="url(#SVGID_17_)"/></g><g><path d="m509.941 129.905-38.849-38.781c-21.134-15.795-47.607-8.76-63.402 12.375-15.196 20.334-15.221 46.103 3.883 62.299l64.77 64.77 29.426-79.475c2.588-6.987 3.929-14.128 4.172-21.188z" fill="url(#SVGID_18_)"/><circle cx="441.796" cy="128.891" fill="url(#SVGID_19_)" r="47.773"/><circle cx="441.796" cy="128.891" fill="url(#SVGID_20_)" r="27.485"/></g><g><path d="m381.432 351.566c-4.258-4.25-9.315-7.683-14.978-9.714-18.573-6.659-38.871 1.18-51.901 18.616-15.196 20.334-15.221 46.103 3.883 62.299l33.021 33.021c25.32-2.163 48.365-18.547 57.773-43.956l8.789-23.737z" fill="url(#SVGID_21_)"/><circle cx="347.13" cy="384.567" fill="url(#SVGID_22_)" r="47.773"/><circle cx="347.13" cy="384.567" fill="url(#SVGID_23_)" r="27.485"/></g></g></g></svg>