<svg id="Capa_1" enable-background="new 0 0 510 510" height="512" viewBox="0 0 510 510" width="512" xmlns="http://www.w3.org/2000/svg" xmlns:xlink="http://www.w3.org/1999/xlink"><linearGradient id="lg1"><stop offset="0" stop-color="#ffd833"/><stop offset="1" stop-color="#f2b631"/></linearGradient><linearGradient id="SVGID_1_" gradientUnits="userSpaceOnUse" x1="203.906" x2="375.62" xlink:href="#lg1" y1="168.086" y2="339.799"/><linearGradient id="SVGID_2_" gradientUnits="userSpaceOnUse" x1="312.573" x2="186.714" xlink:href="#lg1" y1="275.429" y2="149.57"/><linearGradient id="lg2"><stop offset="0" stop-color="#4166bf"/><stop offset="1" stop-color="#4256ac"/></linearGradient><linearGradient id="SVGID_3_" gradientUnits="userSpaceOnUse" x1="328.398" x2="403.724" xlink:href="#lg2" y1="103.828" y2="179.154"/><linearGradient id="SVGID_4_" gradientUnits="userSpaceOnUse" x1="358.311" x2="265.303" xlink:href="#lg2" y1="178.911" y2="85.903"/><linearGradient id="lg3"><stop offset="0" stop-color="#ff637b"/><stop offset="1" stop-color="#f90217"/></linearGradient><linearGradient id="SVGID_5_" gradientUnits="userSpaceOnUse" x1="35.112" x2="144.103" xlink:href="#lg3" y1="180.89" y2="289.882"/><linearGradient id="SVGID_6_" gradientUnits="userSpaceOnUse" x1="142.552" x2="75.544" xlink:href="#lg3" y1="239.45" y2="172.443"/><linearGradient id="lg4"><stop offset="0" stop-color="#7faef4"/><stop offset="1" stop-color="#4c8df1"/></linearGradient><linearGradient id="SVGID_7_" gradientUnits="userSpaceOnUse" x1="144.859" x2="280.914" xlink:href="#lg4" y1="-.618" y2="135.438"/><linearGradient id="SVGID_8_" gradientUnits="userSpaceOnUse" x1="235.103" x2="182.413" xlink:href="#lg4" y1="138.627" y2="85.937"/><linearGradient id="lg5"><stop offset="0" stop-color="#28a265"/><stop offset="1" stop-color="#28895e"/></linearGradient><linearGradient id="SVGID_9_" gradientUnits="userSpaceOnUse" x1="313.083" x2="411.964" xlink:href="#lg5" y1="281.135" y2="380.017"/><linearGradient id="SVGID_10_" gradientUnits="userSpaceOnUse" x1="380.178" x2="297.342" xlink:href="#lg5" y1="343.034" y2="260.198"/><linearGradient id="SVGID_11_" gradientUnits="userSpaceOnUse" x1="235.435" x2="321.866" y1="198.292" y2="284.723"><stop offset="0" stop-color="#ebeff0"/><stop offset="1" stop-color="#cbd0e4"/></linearGradient><g><path d="m469.827 214.066c-2.029-119.365-95.717-211.211-215.098-211.066-119.67.146-213.374 92.925-214.574 212.623-.35 34.912 4.514 67.952 18.777 97.307 19.531 40.197 51.061 73.485 89.933 95.211 4.662 2.606 9.219 5.376 13.66 8.307 22.315 14.725 41.71 30.494 56.794 52.686l20.149 29.643c7.453 10.965 23.614 10.965 31.068 0l21.077-31.008c17.62-25.922 41.321-47.013 68.743-62.192 68.113-37.702 110.895-107.821 109.471-191.511z" fill="url(#SVGID_1_)"/><circle cx="255.002" cy="217.858" fill="url(#SVGID_2_)" r="154.217"/><g><path d="m452.842 126.14-49.48 49.48-62.09 62.09-103.56-103.56 63.48-63.48 48.99-48.99c9.95 4.8 19.47 10.35 28.5 16.56 21.92 15.07 40.91 34.06 55.99 55.99 6.91 10.05 13 20.72 18.17 31.91z" fill="url(#SVGID_3_)"/><path d="m403.361 175.62-62.09 62.09-103.56-103.56 63.48-63.48c49.331 15.48 88.001 55.06 102.17 104.95z" fill="url(#SVGID_4_)"/></g><g><path d="m167.152 204.71-59.34 59.34-48.88 48.88c-14.27-29.35-22.13-62.4-21.78-97.31.4-40.29 11.63-77.87 30.91-110z" fill="url(#SVGID_5_)"/><path d="m167.152 204.71-59.34 59.34c-4.57-14.59-7.03-30.1-7.03-46.19 0-23.27 5.16-45.35 14.38-65.14z" fill="url(#SVGID_6_)"/></g><g><path d="m350.182 21.67-49 49-134.03 134.04-99.1-99.1c25.79-42.97 65.98-76.21 113.96-93.16 22.73-8.03 47.2-12.42 72.72-12.45 34.25-.04 66.64 7.74 95.45 21.67z" fill="url(#SVGID_7_)"/><path d="m301.182 70.67-134.03 134.04-51.99-51.99c21.82-46.72 66.35-80.71 119.39-87.73 6.69-.89 13.52-1.35 20.45-1.35 16.09 0 31.6 2.46 46.18 7.03z" fill="url(#SVGID_8_)"/></g><g><path d="m270.535 501.776 21.077-31.008c17.62-25.922 41.321-47.013 68.743-62.192 68.113-37.702 113.895-110.821 112.472-194.511-.535-31.438-7.642-61.172-19.995-87.92l-290.318 290.319c22.315 14.725 41.72 33.479 56.805 55.67l20.149 29.643c7.453 10.964 23.614 10.964 31.067-.001z" fill="url(#SVGID_9_)"/><path d="m255.002 372.075c85.172 0 154.217-69.045 154.217-154.217 0-14.647-2.042-28.817-5.857-42.242l-190.602 190.602c13.424 3.815 27.594 5.857 42.242 5.857z" fill="url(#SVGID_10_)"/></g><circle cx="255.002" cy="217.858" fill="url(#SVGID_11_)" r="117.842"/></g></svg>