<svg id="Capa_1" enable-background="new 0 0 510 510" height="512" viewBox="0 0 510 510" width="512" xmlns="http://www.w3.org/2000/svg" xmlns:xlink="http://www.w3.org/1999/xlink"><linearGradient id="lg1"><stop offset="0" stop-color="#0b799d"/><stop offset="1" stop-color="#07485e"/></linearGradient><linearGradient id="SVGID_1_" gradientUnits="userSpaceOnUse" x1="70.756" x2="373.193" xlink:href="#lg1" y1="131.546" y2="433.982"/><linearGradient id="SVGID_2_" gradientUnits="userSpaceOnUse" x1="194.211" x2="194.211" xlink:href="#lg1" y1="284.668" y2="-231.823"/><linearGradient id="SVGID_3_" gradientUnits="userSpaceOnUse" x1="207.347" x2="177.45" xlink:href="#lg1" y1="40.484" y2="10.588"/><linearGradient id="SVGID_4_" gradientTransform="matrix(-1 0 0 -1 2638 -4016)" gradientUnits="userSpaceOnUse" x1="2452.034" x2="2433.271" xlink:href="#lg1" y1="-4035.104" y2="-4053.867"/><linearGradient id="lg2"><stop offset="0" stop-color="#edf5ff"/><stop offset="1" stop-color="#d5e8fe"/></linearGradient><linearGradient id="SVGID_5_" gradientUnits="userSpaceOnUse" x1="89.319" x2="222.834" xlink:href="#lg2" y1="129.023" y2="262.537"/><linearGradient id="SVGID_6_" gradientUnits="userSpaceOnUse" x1="220.076" x2="164.796" xlink:href="#lg1" y1="499.851" y2="444.571"/><linearGradient id="SVGID_7_" gradientUnits="userSpaceOnUse" x1="296.901" x2="168.184" xlink:href="#lg2" y1="328.856" y2="200.138"/><linearGradient id="SVGID_8_" gradientUnits="userSpaceOnUse" x1="341.21" x2="240.965" y1="307.36" y2="207.116"><stop offset="0" stop-color="#b5dbff" stop-opacity="0"/><stop offset=".2428" stop-color="#93cef6" stop-opacity=".243"/><stop offset=".5763" stop-color="#6abfec" stop-opacity=".576"/><stop offset=".8403" stop-color="#51b5e5" stop-opacity=".84"/><stop offset="1" stop-color="#48b2e3"/></linearGradient><linearGradient id="SVGID_9_" gradientUnits="userSpaceOnUse" x1="247.95" x2="125.324" xlink:href="#lg1" y1="279.916" y2="157.291"/><linearGradient id="SVGID_10_" gradientUnits="userSpaceOnUse" x1="234.57" x2="188.555" y1="218.734" y2="218.734"><stop offset="0" stop-color="#07485e" stop-opacity="0"/><stop offset="1" stop-color="#03232e"/></linearGradient><linearGradient id="lg3"><stop offset="0" stop-color="#ffda2d"/><stop offset="1" stop-color="#fdbf00"/></linearGradient><linearGradient id="SVGID_11_" gradientUnits="userSpaceOnUse" x1="243.821" x2="243.821" xlink:href="#lg3" y1="203.891" y2="258.681"/><linearGradient id="SVGID_12_" gradientUnits="userSpaceOnUse" x1="243.821" x2="243.821" xlink:href="#lg3" y1="256.707" y2="222.036"/><linearGradient id="SVGID_13_" gradientTransform="matrix(0 1 -1 0 -44.956 -521.774)" gradientUnits="userSpaceOnUse" x1="711.211" x2="911.279" xlink:href="#lg3" y1="-458.104" y2="-258.036"/><linearGradient id="SVGID_14_" gradientTransform="matrix(0 1 -1 0 -44.956 -521.774)" gradientUnits="userSpaceOnUse" x1="794.915" x2="605.59" xlink:href="#lg3" y1="-374.4" y2="-563.725"/><g><g><g><path d="m307.877 510h-227.333c-21.061 0-38.135-17.074-38.135-38.135v-433.73c0-21.061 17.074-38.135 38.135-38.135h227.333c21.061 0 38.135 17.074 38.135 38.135v433.73c0 21.061-17.074 38.135-38.135 38.135z" fill="url(#SVGID_1_)"/><path d="m305.25 440.481h-222.079c-10.717 0-19.404-8.688-19.404-19.404v-374.325c0-10.717 8.688-19.404 19.404-19.404h222.08c10.717 0 19.404 8.688 19.404 19.404v374.324c0 10.717-8.688 19.405-19.405 19.405z" fill="url(#SVGID_2_)"/><g><circle cx="194.211" cy="27.348" fill="url(#SVGID_3_)" r="8.758"/><circle cx="194.211" cy="27.348" fill="url(#SVGID_4_)" r="5.496"/></g><path d="m293.405 425.084h-198.389c-9.758 0-17.669-7.911-17.669-17.669v-347.001c0-9.758 7.911-17.669 17.669-17.669h198.39c9.758 0 17.669 7.911 17.669 17.669v347.001c-.001 9.758-7.911 17.669-17.67 17.669z" fill="url(#SVGID_5_)"/><circle cx="194.211" cy="473.986" fill="url(#SVGID_6_)" r="23.855"/></g><path d="m262.055 206.696c0-37.47-30.375-67.845-67.845-67.845s-67.845 30.375-67.845 67.845c0 26.526 15.232 49.481 37.419 60.636v31.22c0 16.804 13.622 30.426 30.426 30.426 16.804 0 30.426-13.622 30.426-30.426v-31.22c22.187-11.155 37.419-34.11 37.419-60.636z" fill="url(#SVGID_7_)"/><path d="m346.012 204.333h-151.801v63.857l151.801 151.801z" fill="url(#SVGID_8_)"/><path d="m194.211 311.34c-7.051 0-12.788-5.737-12.788-12.788v-42.094l-9.715-4.885c-17.088-8.592-27.704-25.788-27.704-44.878 0-27.684 22.522-50.206 50.206-50.206s50.206 22.522 50.206 50.206c0 19.09-10.616 36.286-27.704 44.878l-9.715 4.885v42.094c.001 7.051-5.735 12.788-12.786 12.788z" fill="url(#SVGID_9_)"/><path d="m244.417 206.699c0 19.09-10.62 36.28-27.71 44.87l-9.71 4.89v24.52l-12.79-12.79v-111.7c27.68 0 50.21 22.52 50.21 50.21z" fill="url(#SVGID_10_)"/></g><g><path d="m293.431 199.63v68.56h-47.91c-1.67 0-3.19-.68-4.29-1.77-1.058-1.068-1.73-2.532-1.768-4.145-.081-3.405-2.666-6.205-6.072-6.205h-18.29c-1.67 0-3.19.68-4.29 1.77-1.09 1.1-1.77 2.62-1.77 4.29 0 3.35-2.72 6.06-6.06 6.06h-8.77v-68.56z" fill="url(#SVGID_11_)"/><path d="m194.211 222.98h99.22v21.87h-99.22z" fill="url(#SVGID_12_)"/><path d="m467.591 233.914c0-54.631-44.289-98.92-98.92-98.92s-98.92 44.289-98.92 98.92 44.289 98.92 98.92 98.92 98.92-44.288 98.92-98.92zm-89.394 0c0-15.488 12.549-28.048 28.048-28.048 15.488 0 28.037 12.56 28.037 28.048s-12.549 28.048-28.037 28.048c-15.499 0-28.048-12.56-28.048-28.048z" fill="url(#SVGID_13_)"/><path d="m450.3 233.914c0-45.084-36.545-81.629-81.629-81.629s-81.629 36.545-81.629 81.629 36.545 81.629 81.629 81.629 81.629-36.544 81.629-81.629zm-72.103 0c0-15.488 12.549-28.048 28.048-28.048 15.488 0 28.037 12.56 28.037 28.048s-12.549 28.048-28.037 28.048c-15.499 0-28.048-12.56-28.048-28.048z" fill="url(#SVGID_14_)"/></g><g fill="#b5dbff"><path d="m259.012 399.672h35.799c5.247 0 9.5-4.253 9.5-9.5v-19c0-5.247-4.253-9.5-9.5-9.5h-35.799c-5.247 0-9.5 4.253-9.5 9.5v19c0 5.247 4.253 9.5 9.5 9.5z"/><path d="m93.61 399.672h125c5.247 0 9.5-4.253 9.5-9.5v-19c0-5.247-4.253-9.5-9.5-9.5h-125c-5.247 0-9.5 4.253-9.5 9.5v19c0 5.247 4.253 9.5 9.5 9.5z"/></g></g></svg>