<svg id="Capa_1" enable-background="new 0 0 510 510" height="512" viewBox="0 0 510 510" width="512" xmlns="http://www.w3.org/2000/svg" xmlns:xlink="http://www.w3.org/1999/xlink"><linearGradient id="lg1"><stop offset="0" stop-color="#0b799d"/><stop offset="1" stop-color="#07485e"/></linearGradient><linearGradient id="SVGID_1_" gradientUnits="userSpaceOnUse" x1="159.583" x2="471.562" xlink:href="#lg1" y1="249.541" y2="561.52"/><linearGradient id="SVGID_2_" gradientUnits="userSpaceOnUse" x1="413.834" x2="45.074" xlink:href="#lg1" y1="503.792" y2="135.033"/><linearGradient id="SVGID_3_" gradientUnits="userSpaceOnUse" x1="394.509" x2="274.129" y1="417.582" y2="167.094"><stop offset="0" stop-color="#07485e" stop-opacity="0"/><stop offset="1" stop-color="#03232e"/></linearGradient><linearGradient id="SVGID_4_" gradientUnits="userSpaceOnUse" x1="153.375" x2="356.785" y1="243.334" y2="446.744"><stop offset="0" stop-color="#edf5ff"/><stop offset="1" stop-color="#d5e8fe"/></linearGradient><linearGradient id="lg2"><stop offset="0" stop-color="#b9dd39"/><stop offset="1" stop-color="#0b799d"/></linearGradient><linearGradient id="SVGID_5_" gradientUnits="userSpaceOnUse" x1="70.85" x2="231.377" xlink:href="#lg2" y1="273.15" y2="433.677"/><linearGradient id="SVGID_6_" gradientUnits="userSpaceOnUse" x1="268.531" x2="237.736" xlink:href="#lg1" y1="215.221" y2="184.426"/><linearGradient id="SVGID_7_" gradientTransform="matrix(-1 0 0 -1 510 -2952)" gradientUnits="userSpaceOnUse" x1="263.492" x2="244.166" xlink:href="#lg1" y1="-3145.198" y2="-3164.524"/><linearGradient id="SVGID_8_" gradientUnits="userSpaceOnUse" x1="68.708" x2="91.032" xlink:href="#lg2" y1="485.983" y2="508.307"/><linearGradient id="SVGID_9_" gradientUnits="userSpaceOnUse" x1="355.591" x2="264.121" y1="394.972" y2="127.388"><stop offset="0" stop-color="#b5dbff" stop-opacity="0"/><stop offset=".1734" stop-color="#8fc5e9" stop-opacity=".173"/><stop offset=".4541" stop-color="#56a4c8" stop-opacity=".454"/><stop offset=".6955" stop-color="#2d8db1" stop-opacity=".696"/><stop offset=".8853" stop-color="#147ea2" stop-opacity=".885"/><stop offset="1" stop-color="#0b799d"/></linearGradient><linearGradient id="SVGID_10_" gradientUnits="userSpaceOnUse" x1="205.95" x2="281.012" y1="23.763" y2="98.824"><stop offset="0" stop-color="#edf5ff"/><stop offset="1" stop-color="#b5dbff"/></linearGradient><linearGradient id="SVGID_11_" gradientUnits="userSpaceOnUse" x1="251.98" x2="251.98" y1="77.752" y2="-102.228"><stop offset="0" stop-color="#b5dbff" stop-opacity="0"/><stop offset=".2428" stop-color="#93cef6" stop-opacity=".243"/><stop offset=".5763" stop-color="#6abfec" stop-opacity=".576"/><stop offset=".8403" stop-color="#51b5e5" stop-opacity=".84"/><stop offset="1" stop-color="#48b2e3"/></linearGradient><linearGradient id="lg3"><stop offset="0" stop-color="#ffda2d"/><stop offset="1" stop-color="#fdbf00"/></linearGradient><linearGradient id="SVGID_12_" gradientUnits="userSpaceOnUse" x1="205.127" x2="288.743" xlink:href="#lg3" y1="112.917" y2="196.534"/><linearGradient id="SVGID_13_" gradientUnits="userSpaceOnUse" x1="291.553" x2="208.145" xlink:href="#lg3" y1="195.212" y2="111.804"/><linearGradient id="SVGID_14_" gradientUnits="userSpaceOnUse" x1="283.646" x2="218.28" xlink:href="#lg1" y1="187.313" y2="121.946"/><linearGradient id="SVGID_15_" gradientUnits="userSpaceOnUse" x1="255" x2="255" y1="215.499" y2="240.684"><stop offset="0" stop-color="#ff9100" stop-opacity="0"/><stop offset="1" stop-color="#ff9100"/></linearGradient><g><g><g><g><g><path d="m458.025 510h-406.05c-16.308 0-29.528-13.22-29.528-29.528v-271.027c0-16.308 13.22-29.528 29.528-29.528h406.049c16.308 0 29.528 13.22 29.528 29.528v271.028c0 16.307-13.22 29.527-29.527 29.527z" fill="url(#SVGID_1_)"/><path d="m442.007 488.227h-374.014c-12.964 0-23.474-10.51-23.474-23.474v-239.59c0-12.964 10.51-23.474 23.474-23.474h374.014c12.964 0 23.474 10.51 23.474 23.474v239.59c0 12.964-10.51 23.474-23.474 23.474z" fill="url(#SVGID_2_)"/><path d="m487.552 480.472v-162.331l-138.216-138.216h-188.672v39.468c0 6.666 3.203 12.583 8.153 16.298l274.311 274.309h14.897c16.307 0 29.527-13.22 29.527-29.528z" fill="url(#SVGID_3_)"/><path d="m430.477 474.077h-350.954c-11.908 0-21.561-9.653-21.561-21.561v-215.115c0-11.908 9.653-21.561 21.561-21.561h350.955c11.908 0 21.561 9.653 21.561 21.561v215.115c0 11.908-9.654 21.561-21.562 21.561z" fill="url(#SVGID_4_)"/><g><path d="m190.262 414.482h-95.207c-6.614 0-11.975-5.362-11.975-11.975v-115.097c0-6.614 5.362-11.975 11.975-11.975h95.207c6.614 0 11.975 5.362 11.975 11.975v115.096c0 6.614-5.361 11.976-11.975 11.976z" fill="url(#SVGID_5_)"/><g fill="#b5dbff"><g><path d="m300.063 310.09h-65.295c-4.785 0-8.664-3.879-8.664-8.664v-17.327c0-4.785 3.879-8.664 8.664-8.664h65.295c4.785 0 8.664 3.879 8.664 8.664v17.327c0 4.785-3.879 8.664-8.664 8.664z"/><path d="m418.257 310.09h-81.349c-4.785 0-8.664-3.879-8.664-8.664v-17.327c0-4.785 3.879-8.664 8.664-8.664h81.349c4.785 0 8.664 3.879 8.664 8.664v17.327c-.001 4.785-3.879 8.664-8.664 8.664z"/></g><g><path d="m385.609 362.286h32.648c4.785 0 8.664-3.879 8.664-8.664v-17.327c0-4.785-3.879-8.664-8.664-8.664h-32.648c-4.785 0-8.664 3.879-8.664 8.664v17.327c0 4.785 3.879 8.664 8.664 8.664z"/><path d="m234.767 362.286h113.996c4.785 0 8.664-3.879 8.664-8.664v-17.327c0-4.785-3.879-8.664-8.664-8.664h-113.996c-4.785 0-8.664 3.879-8.664 8.664v17.327c.001 4.785 3.88 8.664 8.664 8.664z"/></g><g><path d="m300.063 414.482h-65.295c-4.785 0-8.664-3.879-8.664-8.664v-17.327c0-4.785 3.879-8.664 8.664-8.664h65.295c4.785 0 8.664 3.879 8.664 8.664v17.327c0 4.785-3.879 8.664-8.664 8.664z"/><path d="m418.257 414.482h-81.349c-4.785 0-8.664-3.879-8.664-8.664v-17.327c0-4.785 3.879-8.664 8.664-8.664h81.349c4.785 0 8.664 3.879 8.664 8.664v17.327c-.001 4.785-3.879 8.664-8.664 8.664z"/></g></g></g><circle cx="255" cy="201.69" fill="url(#SVGID_6_)" r="9.021"/><circle cx="255" cy="201.69" fill="url(#SVGID_7_)" r="5.661"/></g></g></g><path d="m77.064 501.296h-6.7c-3.843 0-6.958-3.115-6.958-6.958v-6.7c0-3.843 3.115-6.958 6.958-6.958h6.7c3.843 0 6.958 3.115 6.958 6.958v6.7c-.001 3.843-3.116 6.958-6.958 6.958z" fill="url(#SVGID_8_)"/></g><g fill="#07485e"><circle cx="142.531" cy="327.362" r="37.619"/><path d="m189.895 390.702c2.61 2.938.749 7.592-3.167 7.928-11.216.961-26.067 1.544-42.36 1.544-18.035 0-34.302-.714-45.828-1.862-3.868-.385-5.724-5.006-3.122-7.895.02-.022.039-.043.059-.065 11.582-12.868 28.371-20.957 47.049-20.957 18.477 0 35.093 7.907 46.665 20.528.237.258.472.517.704.779z"/></g><path d="m385.251 215.84h-222.585v3.552c0 6.666 1.202 12.583 6.152 16.298l238.387 238.387h23.273c11.908 0 21.561-9.653 21.561-21.561v-169.888z" fill="url(#SVGID_9_)"/><g><g><path d="m332.202 92.539h-29.133v-12.317c0-28.171-22.919-51.089-51.089-51.089-28.171 0-51.089 22.919-51.089 51.089v12.317h-29.133v-12.317c0-44.235 35.987-80.222 80.222-80.222 44.234 0 80.222 35.987 80.222 80.222z" fill="url(#SVGID_10_)"/><path d="m251.98 15.774c-36.695 0-66.548 29.853-66.548 66.548v10.217h15.459v-12.317c0-28.171 22.919-51.089 51.089-51.089 28.171 0 51.089 22.919 51.089 51.089v12.317h15.459v-10.218c-.001-36.694-29.854-66.547-66.548-66.547z" fill="url(#SVGID_11_)"/></g><g><g><path d="m328.971 239.757h-147.942c-11.247 0-20.365-9.117-20.365-20.365v-113.202c0-11.247 9.118-20.365 20.365-20.365h147.942c11.247 0 20.365 9.118 20.365 20.365v113.203c0 11.246-9.118 20.364-20.365 20.364z" fill="url(#SVGID_12_)"/><path d="m291.165 148.282c0-19.973-16.192-36.165-36.165-36.165s-36.165 16.192-36.165 36.165c0 14.14 8.12 26.376 19.946 32.323v16.642c0 8.957 7.261 16.219 16.219 16.219 8.957 0 16.219-7.261 16.219-16.219v-16.642c11.827-5.947 19.946-18.183 19.946-32.323z" fill="url(#SVGID_13_)"/><path d="m255 204.063c-3.759 0-6.817-3.058-6.817-6.817v-22.439l-5.179-2.604c-9.109-4.58-14.768-13.746-14.768-23.922 0-14.757 12.006-26.763 26.763-26.763s26.763 12.006 26.763 26.763c0 10.176-5.659 19.343-14.768 23.922l-5.179 2.604v22.439c.002 3.759-3.056 6.817-6.815 6.817z" fill="url(#SVGID_14_)"/><path d="m160.664 188.571v30.821c0 11.247 9.117 20.365 20.365 20.365h147.942c11.247 0 20.365-9.117 20.365-20.365v-30.821z" fill="url(#SVGID_15_)"/></g></g></g></g></svg>