<svg id="Capa_1" enable-background="new 0 0 510 510" height="512" viewBox="0 0 510 510" width="512" xmlns="http://www.w3.org/2000/svg" xmlns:xlink="http://www.w3.org/1999/xlink"><linearGradient id="lg1"><stop offset="0" stop-color="#ff637b"/><stop offset="1" stop-color="#e63950"/></linearGradient><linearGradient id="SVGID_1_" gradientUnits="userSpaceOnUse" x1="100.371" x2="426.998" xlink:href="#lg1" y1="197.415" y2="524.043"/><linearGradient id="SVGID_2_" gradientUnits="userSpaceOnUse" x1="419.998" x2="68.587" xlink:href="#lg1" y1="495.078" y2="143.667"/><linearGradient id="lg2"><stop offset="0" stop-color="#e63950" stop-opacity="0"/><stop offset=".0467" stop-color="#e4354b" stop-opacity=".047"/><stop offset=".4669" stop-color="#d31822" stop-opacity=".467"/><stop offset=".7991" stop-color="#c90709" stop-opacity=".799"/><stop offset="1" stop-color="#c50000"/></linearGradient><linearGradient id="SVGID_3_" gradientUnits="userSpaceOnUse" x1="255" x2="255" xlink:href="#lg2" y1="424" y2="468.911"/><linearGradient id="SVGID_4_" gradientUnits="userSpaceOnUse" x1="388.63" x2="99.377" xlink:href="#lg2" y1="448.616" y2="159.363"/><linearGradient id="lg3"><stop offset="0" stop-color="#0b799d"/><stop offset="1" stop-color="#07485e"/></linearGradient><linearGradient id="SVGID_5_" gradientUnits="userSpaceOnUse" x1="166.039" x2="332.921" xlink:href="#lg3" y1="208.577" y2="343.088"/><linearGradient id="SVGID_6_" gradientUnits="userSpaceOnUse" x1="177.052" x2="264.197" xlink:href="#lg3" y1="277.3" y2="364.445"/><linearGradient id="SVGID_7_" gradientUnits="userSpaceOnUse" x1="268.516" x2="355.868" xlink:href="#lg3" y1="276.812" y2="364.164"/><g><g><path d="m203.482 67.959-194.09 309.459c-25.402 40.501 3.711 93.124 51.518 93.124h388.18c47.807 0 76.92-52.624 51.518-93.124l-194.09-309.459c-23.834-38.001-79.202-38.001-103.036 0z" fill="url(#SVGID_1_)"/><path d="m221.022 142.717-128.008 204.097c-16.753 26.711 2.447 61.418 33.978 61.418h256.016c31.53 0 50.731-34.707 33.978-61.418l-128.008-204.097c-15.72-25.063-52.237-25.063-67.956 0z" fill="url(#SVGID_2_)"/><path d="m60.91 470.542h388.18c36.163 0 61.621-30.112 60.886-62.31h-509.952c-.735 32.198 24.723 62.31 60.886 62.31z" fill="url(#SVGID_3_)"/></g><path d="m500.608 377.418-152.647-243.382-25.884-25.884c-2.801-5.33-8.383-7.969-14.823-7.969-9.248 0-15.743 6.496-15.743 15.743 0 16.638-5.379 33.782-13.603 43.661-3.529-.664-7.128-2.125-10.773-2.415l-49.565-49.02c-2.801-5.33-8.383-7.969-14.823-7.969-9.248 0-15.743 7.496-15.743 16.744 0 19.736 6.181 38.566 15.683 53.808-21.831 12.819-39.436 33.582-46.749 58.376l-29.84-37.767-24.268 38.692s11.659 14.248 18.975 20.743c2.2 2.481 17.857 21.139 19.891 23.019-.037.557-.164 11.611-.183 16.615-10.736 2.173-21.683 5.25-30.355 9.166-30.589 13.813-34.156 31.773-34.156 41.846 0 6.44 2.639 12.022 7.969 14.823 0 0 21.526 21.82 21.729 22.149-8.14 12.344-11.852 26.906-11.852 42.494 0 6.44 2.639 12.022 7.969 14.823l34.829 34.829h312.444c47.807-.001 76.92-52.625 51.518-93.125z" fill="url(#SVGID_4_)"/><g><g fill="#07485e"><g><path d="m109.59 437.634c-9.248 0-16.744-7.496-16.744-16.744 0-44.452 38.261-80.617 85.289-80.617 9.248 0 16.744 7.496 16.744 16.744s-7.496 16.744-16.744 16.744c-28.563 0-51.801 21.142-51.801 47.129 0 9.248-7.496 16.744-16.744 16.744z"/><path d="m178.135 274.666c-47.029 0-85.289-36.165-85.289-80.617 0-9.248 7.496-16.744 16.744-16.744s16.744 7.496 16.744 16.744c0 25.987 23.238 47.129 51.801 47.129 9.248 0 16.744 7.496 16.744 16.744 0 9.247-7.496 16.744-16.744 16.744z"/><path d="m91.744 358.169c-9.248 0-16.744-7.496-16.744-16.744 0-10.073 4.567-29.033 35.156-42.846 18.436-8.325 42.578-12.91 67.979-12.91 9.248 0 16.744 7.496 16.744 16.744s-7.496 16.744-16.744 16.744c-20.45 0-40.204 3.624-54.197 9.943-11.56 5.22-15.451 10.65-15.451 12.326.001 9.246-7.495 16.743-16.743 16.743z"/></g><g><path d="m400.41 437.634c-9.248 0-16.744-7.496-16.744-16.744 0-25.987-23.238-47.129-51.801-47.129-9.248 0-16.744-7.496-16.744-16.744s7.496-16.744 16.744-16.744c47.029 0 85.289 36.165 85.289 80.617 0 9.248-7.496 16.744-16.744 16.744z"/><path d="m331.865 274.666c-9.248 0-16.744-7.496-16.744-16.744s7.496-16.744 16.744-16.744c28.563 0 51.801-21.142 51.801-47.129 0-9.248 7.496-16.744 16.744-16.744s16.744 7.496 16.744 16.744c0 44.452-38.261 80.617-85.289 80.617z"/><path d="m418.256 358.169c-9.248 0-16.744-7.496-16.744-16.744 0-1.676-3.89-7.106-15.451-12.326-13.993-6.319-33.747-9.943-54.197-9.943-9.248 0-16.744-7.496-16.744-16.744s7.496-16.744 16.744-16.744c25.401 0 49.543 4.585 67.979 12.91 30.59 13.814 35.157 32.774 35.157 42.847 0 9.247-7.496 16.744-16.744 16.744z"/></g></g><path d="m255 202.813c-19.097 0-37.459-9.945-50.377-27.285-12.008-16.119-18.621-37.286-18.621-59.602 0-9.248 7.496-16.744 16.744-16.744s16.744 7.496 16.744 16.744c0 28.946 16.262 53.4 35.51 53.4s35.51-24.454 35.51-53.4c0-9.248 7.496-16.744 16.744-16.744s16.744 7.496 16.744 16.744c0 22.316-6.613 43.483-18.621 59.602-12.918 17.34-31.28 27.285-50.377 27.285z" fill="#07485e"/><g><path d="m359.139 254.031c-1.369-54.482-45.987-97.883-100.485-98.203-2.436-.014-4.873-.014-7.309 0-54.498.321-99.115 43.722-100.484 98.203-.44 17.5-.44 35 0 52.501 1.369 54.482 45.987 97.882 100.484 98.203 2.436.014 4.872.014 7.309 0 54.498-.321 99.116-43.722 100.484-98.203.44-17.501.44-35.001.001-52.501z" fill="url(#SVGID_5_)"/><path d="m166.412 244.83c-15.141 1.658-26.635 14.417-26.793 29.648-.142 13.665-.196 29.48.048 39.194.835 33.238 17.433 62.752 42.262 82.618 29.433 23.549 73.07 2.326 73.07-35.369v-120.813c-30.829 0-60.573 1.654-88.587 4.722z" fill="url(#SVGID_6_)"/><path d="m343.588 244.83c15.141 1.658 26.635 14.417 26.793 29.648.142 13.665.196 29.48-.048 39.194-.835 33.238-17.433 62.752-42.262 82.618-29.433 23.549-73.07 2.326-73.07-35.369v-120.813c30.829 0 60.573 1.654 88.587 4.722z" fill="url(#SVGID_7_)"/></g></g></g></svg>