<svg id="Capa_1" enable-background="new 0 0 510 510" height="512" viewBox="0 0 510 510" width="512" xmlns="http://www.w3.org/2000/svg" xmlns:xlink="http://www.w3.org/1999/xlink"><linearGradient id="lg1"><stop offset="0" stop-color="#b5dbff"/><stop offset="1" stop-color="#48b2e3"/></linearGradient><linearGradient id="SVGID_1_" gradientUnits="userSpaceOnUse" x1="162.365" x2="465.247" xlink:href="#lg1" y1="200.689" y2="503.571"/><linearGradient id="SVGID_2_" gradientUnits="userSpaceOnUse" x1="409.202" x2="51.196" xlink:href="#lg1" y1="447.526" y2="89.52"/><linearGradient id="lg2"><stop offset="0" stop-color="#b5dbff" stop-opacity="0"/><stop offset=".1734" stop-color="#8fc5e9" stop-opacity=".173"/><stop offset=".4541" stop-color="#56a4c8" stop-opacity=".454"/><stop offset=".6955" stop-color="#2d8db1" stop-opacity=".696"/><stop offset=".8853" stop-color="#147ea2" stop-opacity=".885"/><stop offset="1" stop-color="#0b799d"/></linearGradient><linearGradient id="SVGID_3_" gradientUnits="userSpaceOnUse" x1="255" x2="255" xlink:href="#lg2" y1="367.849" y2="428.984"/><linearGradient id="SVGID_4_" gradientUnits="userSpaceOnUse" x1="364.764" x2="217.764" xlink:href="#lg2" y1="298.958" y2="188.958"/><linearGradient id="SVGID_5_" gradientUnits="userSpaceOnUse" x1="156.338" x2="353.817" y1="194.662" y2="392.141"><stop offset="0" stop-color="#76e2f8"/><stop offset="1" stop-color="#48b2e3"/></linearGradient><linearGradient id="SVGID_6_" gradientUnits="userSpaceOnUse" x1="378.227" x2="224.227" y1="333.405" y2="217.405"><stop offset="0" stop-color="#48b2e3" stop-opacity="0"/><stop offset=".4112" stop-color="#2995bf" stop-opacity=".411"/><stop offset=".7781" stop-color="#1381a6" stop-opacity=".778"/><stop offset="1" stop-color="#0b799d"/></linearGradient><linearGradient id="SVGID_7_" gradientUnits="userSpaceOnUse" x1="255" x2="255" xlink:href="#lg1" y1="426.658" y2="529.642"/><linearGradient id="SVGID_8_" gradientUnits="userSpaceOnUse" x1="249.937" x2="285.654" xlink:href="#lg2" y1="441.127" y2="579.875"/><linearGradient id="SVGID_9_" gradientUnits="userSpaceOnUse" x1="255" x2="255" xlink:href="#lg1" y1="423.223" y2="445.89"/><linearGradient id="SVGID_10_" gradientUnits="userSpaceOnUse" x1="38.921" x2="48.065" y1="438.31" y2="445.277"><stop offset="0" stop-color="#ff637b"/><stop offset="1" stop-color="#e63950"/></linearGradient><linearGradient id="SVGID_11_" gradientUnits="userSpaceOnUse" x1="64.439" x2="73.584" y1="438.31" y2="445.277"><stop offset="0" stop-color="#ffda2d"/><stop offset="1" stop-color="#fdbf00"/></linearGradient><linearGradient id="SVGID_12_" gradientUnits="userSpaceOnUse" x1="87.322" x2="108.994" y1="435.145" y2="456.817"><stop offset="0" stop-color="#b9dd39"/><stop offset="1" stop-color="#0b799d"/></linearGradient><linearGradient id="lg3"><stop offset="0" stop-color="#0b799d"/><stop offset="1" stop-color="#07485e"/></linearGradient><linearGradient id="SVGID_13_" gradientUnits="userSpaceOnUse" x1="213.743" x2="333.424" xlink:href="#lg3" y1="224.097" y2="352.602"/><linearGradient id="SVGID_14_" gradientUnits="userSpaceOnUse" x1="329.104" x2="251.272" xlink:href="#lg3" y1="224.354" y2="146.522"/><linearGradient id="SVGID_15_" gradientUnits="userSpaceOnUse" x1="384.77" x2="67.433" y1="346.203" y2="141.784"><stop offset="0" stop-color="#07485e" stop-opacity="0"/><stop offset="1" stop-color="#03232e"/></linearGradient><linearGradient id="SVGID_16_" gradientUnits="userSpaceOnUse" x1="245.56" x2="333.958" xlink:href="#lg3" y1="80.268" y2="80.268"/><linearGradient id="SVGID_17_" gradientUnits="userSpaceOnUse" x1="277.068" x2="302.45" xlink:href="#lg3" y1="132.949" y2="132.949"/><linearGradient id="SVGID_18_" gradientUnits="userSpaceOnUse" x1="277.068" x2="302.45" xlink:href="#lg3" y1="38.681" y2="38.681"/><g><g><g><g><path d="m452.104 453.553h-394.208c-15.832 0-28.667-12.835-28.667-28.667v-263.124c0-15.832 12.835-28.667 28.667-28.667h394.209c15.832 0 28.667 12.835 28.667 28.667v263.124c-.001 15.832-12.835 28.667-28.668 28.667z" fill="url(#SVGID_1_)"/><path d="m436.554 432.415h-363.108c-12.586 0-22.789-10.203-22.789-22.789v-232.604c0-12.586 10.203-22.789 22.789-22.789h363.108c12.586 0 22.789 10.203 22.789 22.789v232.603c0 12.587-10.203 22.79-22.789 22.79z" fill="url(#SVGID_2_)"/><path d="m29.229 347.93v76.956c0 15.832 12.835 28.667 28.667 28.667h394.209c15.832 0 28.667-12.835 28.667-28.667v-76.956z" fill="url(#SVGID_3_)"/><path d="m480.77 161.761v263.12c0 15.84-12.83 28.67-28.67 28.67h-199.28c-58.34-57.88-123.88-122.88-124.42-123.34-2.24-1.9-3.41-5.04-2.29-8.31l2.62-7.65c6.07-17.71 22.73-29.61 41.46-29.61h.72c8.06 0 15.04 4 19.27 10.11 0 0 48.49 48.36 48.7 48.51 15.36-4.06 26.54-18.38 26.54-34.95v-73.34c-1.3-1.25-7.87-7.77-9.71-9.93-11.32-9.64-18.52-23.99-18.52-40.03 0-24.66 16.98-45.34 39.88-51.02v-.9h175.03c15.84 0 28.67 12.841 28.67 28.67z" fill="url(#SVGID_4_)"/><path d="m425.361 418.677h-340.721c-11.561 0-20.932-9.372-20.932-20.932v-208.842c0-11.561 9.372-20.932 20.932-20.932h340.721c11.561 0 20.932 9.372 20.932 20.932v208.842c0 11.561-9.372 20.932-20.932 20.932z" fill="url(#SVGID_5_)"/><path d="m425.36 167.97h-185.336c-1.831 5.344-2.834 11.074-2.834 17.041 0 16.04 7.2 30.39 18.52 40.03 1.84 2.16 8.41 8.68 9.71 9.93v73.34c0 16.57-11.18 30.89-26.54 34.95-.21-.15-48.7-48.51-48.7-48.51-4.23-6.11-11.21-10.11-19.27-10.11h-.72c-18.73 0-35.39 11.9-41.46 29.61l-2.62 7.65c-1.12 3.27.05 6.41 2.29 8.31.432.368 42.546 42.123 89.266 88.466h207.694c11.561 0 20.932-9.372 20.932-20.932v-208.842c.001-11.561-9.371-20.933-20.932-20.933z" fill="url(#SVGID_6_)"/></g><g><path d="m0 440.784v16.751c0 7.751 3.464 15.096 9.445 20.026l20.732 17.09c5.69 4.691 12.835 7.256 20.21 7.256h409.225c7.375 0 14.52-2.565 20.21-7.256l20.732-17.09c5.981-4.93 9.445-12.275 9.445-20.026v-16.751c0-12.209-9.897-22.106-22.106-22.106h-465.787c-12.209-.001-22.106 9.897-22.106 22.106z" fill="url(#SVGID_7_)"/><path d="m.145 460.227c.703 6.739 4.018 12.979 9.301 17.335l20.732 17.09c5.691 4.691 12.835 7.256 20.21 7.256h409.225c7.375 0 14.52-2.565 20.21-7.256l20.732-17.089c5.283-4.355 8.598-10.595 9.301-17.335h-509.711z" fill="url(#SVGID_8_)"/><path d="m282.761 441.744h-55.523c-12.74 0-23.067-10.327-23.067-23.067h101.657c0 12.74-10.327 23.067-23.067 23.067z" fill="url(#SVGID_9_)"/><g><path d="m44.397 450.011h-6.505c-3.731 0-6.755-3.024-6.755-6.755v-6.505c0-3.731 3.024-6.755 6.755-6.755h6.505c3.731 0 6.755 3.024 6.755 6.755v6.505c0 3.731-3.024 6.755-6.755 6.755z" fill="url(#SVGID_10_)"/><path d="m69.915 450.011h-6.505c-3.731 0-6.755-3.024-6.755-6.755v-6.505c0-3.731 3.024-6.755 6.755-6.755h6.505c3.731 0 6.755 3.024 6.755 6.755v6.505c0 3.731-3.024 6.755-6.755 6.755z" fill="url(#SVGID_11_)"/><path d="m95.434 450.011h-6.505c-3.731 0-6.755-3.024-6.755-6.755v-6.505c0-3.731 3.024-6.755 6.755-6.755h6.505c3.731 0 6.755 3.024 6.755 6.755v6.505c0 3.731-3.025 6.755-6.755 6.755z" fill="url(#SVGID_12_)"/></g></g></g></g><g><g><path d="m289.754 132.444c-29.028 0-52.565 23.537-52.565 52.565 0 20.247 11.457 37.808 28.229 46.588v76.715c0 19.371-15.273 35.676-34.644 36.104-19.955.448-36.328-15.701-36.25-35.579.049-13.316-10.309-24.199-23.615-24.199h-.72c-18.729 0-35.384 11.905-41.458 29.612l-2.619 7.651c-2.171 6.327 4.254 12.197 10.357 9.452 5.675-2.551 12.255.321 14.377 6.171 11.817 32.668 43.327 56.001 80.133 55.563 46.218-.535 83.111-38.859 83.111-85.087v-76.403c16.782-8.78 28.229-26.341 28.229-46.588.001-29.028-23.527-52.565-52.565-52.565zm0 73.172c-11.379 0-20.607-9.228-20.607-20.607s9.228-20.607 20.607-20.607c11.389 0 20.617 9.228 20.617 20.607s-9.227 20.607-20.617 20.607z" fill="url(#SVGID_13_)"/><path d="m289.754 146.393c-21.318 0-38.606 17.288-38.606 38.616s17.288 38.616 38.606 38.616c21.328 0 38.616-17.288 38.616-38.616s-17.288-38.616-38.616-38.616zm0 59.223c-11.379 0-20.607-9.228-20.607-20.607s9.228-20.607 20.607-20.607c11.389 0 20.617 9.228 20.617 20.607s-9.227 20.607-20.617 20.607z" fill="url(#SVGID_14_)"/><path d="m310.372 185.009c0 11.379-9.228 20.607-20.617 20.607v109.206c0 31.94-25.893 57.833-57.833 57.833-31.94 0-57.833-25.893-57.833-57.833 0-6.128-5.872-10.589-11.754-8.871-9.734 2.842-23.348 9.557-32.162 25.384 1.865.865 4.099 1.006 6.297.017 5.675-2.551 12.255.321 14.377 6.171 11.817 32.668 43.327 56.001 80.133 55.563 46.218-.535 83.111-38.859 83.111-85.087v-76.403c16.782-8.78 28.229-26.341 28.229-46.588 0-29.028-23.528-52.565-52.565-52.565v31.958c11.389 0 20.617 9.228 20.617 20.608z" fill="url(#SVGID_15_)"/></g><g><path d="m296.218 132.788h-12.918c-20.81 0-37.74-16.93-37.74-37.74v-29.561c0-20.81 16.93-37.74 37.74-37.74h12.918c20.81 0 37.74 16.93 37.74 37.74v29.562c-.001 20.809-16.93 37.739-37.74 37.739zm-12.918-79.658c-6.814 0-12.357 5.543-12.357 12.357v29.562c0 6.814 5.543 12.357 12.357 12.357h12.918c6.814 0 12.357-5.543 12.357-12.357v-29.562c0-6.814-5.543-12.357-12.357-12.357z" fill="url(#SVGID_16_)"/><path d="m289.759 178.214c-7.009 0-12.691-5.682-12.691-12.691v-65.148c0-7.009 5.682-12.691 12.691-12.691s12.691 5.682 12.691 12.691v65.148c0 7.009-5.682 12.691-12.691 12.691z" fill="url(#SVGID_17_)"/><g><path d="m289.759 69.269c-7.009 0-12.691-5.682-12.691-12.691v-35.793c0-7.009 5.682-12.691 12.691-12.691s12.691 5.682 12.691 12.691v35.793c0 7.009-5.682 12.691-12.691 12.691z" fill="url(#SVGID_18_)"/></g></g></g></g></svg>