<?xml version="1.0" encoding="UTF-8"?>
<svg xmlns="http://www.w3.org/2000/svg" xmlns:xlink="http://www.w3.org/1999/xlink" width="612pt" height="792pt" viewBox="0 0 612 792" version="1.1">
<g id="surface1">
<path style=" stroke:none;fill-rule:nonzero;fill:rgb(25.87738%,52.146912%,95.701599%);fill-opacity:1;" d="M 305.957031 434.226563 C 327.324219 434.226563 344.511719 416.902344 344.511719 395.546875 L 344.636719 305.28125 C 344.636719 283.894531 327.324219 266.601563 305.957031 266.601563 C 284.605469 266.601563 267.277344 283.894531 267.277344 305.28125 L 267.277344 395.546875 C 267.277344 416.902344 284.605469 434.226563 305.957031 434.226563 "/>
<path style=" stroke:none;fill-rule:nonzero;fill:rgb(20.384216%,65.818787%,32.542419%);fill-opacity:1;" d="M 293.0625 484.828125 L 293.0625 525.398438 L 318.847656 525.398438 L 318.847656 485.265625 L 318.84375 485.265625 C 314.648438 485.859375 310.417969 485.828125 306.03125 485.828125 C 301.628906 485.828125 297.320313 485.4375 293.0625 484.828125 "/>
<path style=" stroke:none;fill-rule:nonzero;fill:rgb(91.796875%,26.268005%,20.776367%);fill-opacity:1;" d="M 370.261719 396.453125 C 370.261719 428.695313 341.609375 460.464844 306 460.464844 C 288.1875 460.464844 272.066406 453.007813 260.394531 441.324219 L 260.171875 441.546875 L 260.171875 441.550781 L 254.480469 447.199219 L 242.179688 459.429688 L 242.195313 459.449219 C 242.246094 459.492188 242.308594 459.546875 242.363281 459.589844 C 255.789063 472.96875 273.414063 481.976563 293.058594 484.828125 C 297.320313 485.4375 301.628906 485.828125 306.03125 485.828125 C 310.417969 485.828125 314.648438 485.859375 318.84375 485.265625 C 362.570313 479.015625 396 441.589844 396 396.453125 L 370.261719 396.453125 "/>
<path style=" stroke:none;fill-rule:nonzero;fill:rgb(98.4375%,73.631287%,1.960754%);fill-opacity:1;" d="M 241.738281 396.453125 C 241.738281 412.8125 248.480469 429.296875 260.394531 441.324219 L 242.363281 459.589844 C 226.21875 443.363281 216 421.078125 216 396.453125 L 241.738281 396.453125 "/>
</g>
</svg>
