<svg xmlns="http://www.w3.org/2000/svg" xmlns:xlink="http://www.w3.org/1999/xlink" data-name="Layer 1" viewBox="0 0 16 16"><defs><radialGradient id="i" cx="-45.438" cy="-98.5" r=".5" gradientTransform="matrix(16 0 0 -16 735 -1568)" gradientUnits="userSpaceOnUse"><stop offset="0" stop-color="#f28a2d" stop-opacity="0"/><stop offset="1" stop-color="#f08423" stop-opacity=".34"/></radialGradient><radialGradient id="a" cx="-42.824" cy="-98.338" r=".101" gradientTransform="matrix(14.5998 6.5456 5.063 -11.2928 1124.844 -821.877)" gradientUnits="userSpaceOnUse"><stop offset="0" stop-color="#f28a2d" stop-opacity=".5"/><stop offset="1" stop-color="#f28a2d" stop-opacity="0"/></radialGradient><radialGradient id="j" cx="-50.805" cy="-113.217" r=".283" gradientTransform="matrix(12.5663 -9.904 -3.6032 -4.5717 242.358 -1008.99)" xlink:href="#a"/><radialGradient id="k" cx="-47.107" cy="-132.469" r=".107" gradientTransform="matrix(15.7394 -2.8762 -.572 -3.1299 670.762 -548.077)" gradientUnits="userSpaceOnUse"><stop offset="0" stop-color="#d45f00" stop-opacity=".15"/><stop offset="1" stop-color="#f28a2d" stop-opacity="0"/></radialGradient><radialGradient id="l" cx="-43.719" cy="-126.47" r=".106" gradientTransform="matrix(15.6768 3.1995 .6363 -3.1176 776.734 -252.257)" gradientUnits="userSpaceOnUse"><stop offset="0" stop-color="#d45f00" stop-opacity=".15"/><stop offset="1" stop-color="#d45f00" stop-opacity="0"/></radialGradient><radialGradient id="b" cx="-108.514" cy="-113.645" r=".872" gradientTransform="matrix(0 -2.1326 -2.1327 0 -237.377 -227.146)" gradientUnits="userSpaceOnUse"><stop offset="0" stop-color="#3b446b"/><stop offset=".688" stop-color="#202340"/></radialGradient><radialGradient id="m" cx="-108.528" cy="-113.645" r=".872" gradientTransform="matrix(0 -2.1326 2.1327 0 -231.366 -227.175)" xlink:href="#b"/><radialGradient id="c" cx="-148.598" cy="-92.895" r=".298" gradientTransform="matrix(-.339 -1.3177 -6.1081 1.5713 -612.782 -48.133)" gradientUnits="userSpaceOnUse"><stop offset="0" stop-color="#e38200"/><stop offset="1" stop-color="#cd6700"/></radialGradient><radialGradient id="n" cx="-134.056" cy="-99.26" r=".314" gradientTransform="matrix(.2577 -1.3359 -7.9278 -1.5293 -741.43 -329.351)" xlink:href="#c"/><radialGradient id="t" cx="15.654" cy="21.737" r="8.846" gradientTransform="translate(0 -14)" xlink:href="#f"/><radialGradient id="w" cx="-27.67" cy="-103.633" r="1.226" gradientTransform="matrix(4.3582 3.2271 3.227 -4.3582 454.936 -354.89)" xlink:href="#f"/><linearGradient id="e" x1="-45.438" x2="-45.438" y1="-98.95" y2="-98.074" gradientTransform="matrix(16 0 0 -16 735 -1568)" gradientUnits="userSpaceOnUse"><stop offset="0" stop-color="#f28a2d"/><stop offset="1" stop-color="#fde86f"/></linearGradient><linearGradient id="d" x1="-34.103" x2="-34.103" y1="-226.147" y2="-227.667" gradientTransform="matrix(3.4035 0 0 -.9374 124.07 -206.681)" gradientUnits="userSpaceOnUse"><stop offset="0" stop-color="#482314"/><stop offset="1" stop-color="#9a4111"/></linearGradient><linearGradient id="o" x1="32.26" x2="32.804" y1="-4.858" y2="-4.858" gradientTransform="rotate(16.27 -22.745 -78.044)" xlink:href="#d"/><linearGradient id="p" x1="9.159" x2="12.635" y1="8.179" y2="8.179" gradientUnits="userSpaceOnUse"><stop offset="0" stop-color="#ff6e83"/><stop offset="1" stop-color="#d54f83"/></linearGradient><linearGradient id="q" x1="6.192" x2="12.819" y1="4.285" y2="12.649" gradientUnits="userSpaceOnUse"><stop offset="0" stop-color="#fff"/><stop offset="1" stop-color="#6b9fcc"/></linearGradient><linearGradient id="f" x1="-1.776" x2="12.019" y1="18.493" y2="8.051" gradientUnits="userSpaceOnUse"><stop offset="0" stop-color="#eda83a"/><stop offset="1" stop-color="#ffdc5e"/></linearGradient><linearGradient id="r" x1="3.388" x2="5.788" y1="15.223" y2="13.327" gradientUnits="userSpaceOnUse"><stop offset="0" stop-color="#e5aa6e"/><stop offset="1" stop-color="#fa965a"/></linearGradient><linearGradient id="s" x1="1.661" x2="32.648" y1="16.152" y2="-8.443" xlink:href="#e"/><linearGradient id="g" x1="-1.326" x2="12.914" y1="12.567" y2="11.552" gradientUnits="userSpaceOnUse"><stop offset="0" stop-color="#9c0600"/><stop offset="1" stop-color="#9c0600" stop-opacity="0"/></linearGradient><linearGradient id="v" x1="8.395" x2="1.913" y1="10.935" y2="10.236" xlink:href="#g"/><clipPath id="h"><rect width="16" height="16" fill="none"/></clipPath><clipPath id="u"><circle cx="8" cy="8" r="8" fill="none"/></clipPath></defs><g clip-path="url(#h)"><path fill="url(#e)" fill-rule="evenodd" d="M16,8A8,8,0,1,1,8,0,8.02352,8.02352,0,0,1,16,8Z"/><path fill="url(#i)" fill-rule="evenodd" d="M16,8A8,8,0,1,1,8,0,8.02352,8.02352,0,0,1,16,8Z" data-name="b"/><path fill="url(#a)" fill-rule="evenodd" d="M16,8A8,8,0,1,1,8,0,8.02352,8.02352,0,0,1,16,8Z" data-name="b"/><path fill="url(#j)" fill-rule="evenodd" d="M16,8A8,8,0,1,1,8,0,8.02352,8.02352,0,0,1,16,8Z" data-name="b"/><path fill="url(#k)" fill-rule="evenodd" d="M16,8A8,8,0,1,1,8,0,8.02352,8.02352,0,0,1,16,8Z" data-name="b"/><path fill="url(#l)" fill-rule="evenodd" d="M16,8A8,8,0,1,1,8,0,8.02352,8.02352,0,0,1,16,8Z" data-name="b"/><path fill="url(#d)" fill-rule="evenodd" d="M9.7,5.9c-.1-.3-3.3-.3-3.4,0s.6.7,1.7.7S9.8,6.2,9.7,5.9Z"/><path fill="url(#b)" fill-rule="evenodd" d="M6,4.1c0,.7-.4.9-1,1s-1.1-.2-1.1-1c0-.6.3-1.4,1.1-1.4C5.7,2.7,6,3.5,6,4.1Z"/><path fill="#4e506a" fill-rule="evenodd" d="M4.9,3.1a.34826.34826,0,0,1-.1.5c-.1.1-.3.2-.4,0a.45417.45417,0,0,1,0-.5.44637.44637,0,0,1,.5,0Z"/><path fill="url(#m)" fill-rule="evenodd" d="M10,4.1c0,.7.4.9,1.1,1,.6.1,1.1-.2,1.1-1,0-.6-.3-1.4-1.1-1.4S10,3.5,10,4.1Z"/><path fill="#4e506a" fill-rule="evenodd" d="M11,3.1c.1.1,0,.3-.1.5a.30417.30417,0,0,1-.4,0c-.1-.1,0-.3.1-.5C10.8,2.9,10.9,2.9,11,3.1Z"/><path fill="url(#c)" fill-rule="evenodd" d="M3.4,2.1c-.2.2,0,.5.3.4A5.85669,5.85669,0,0,1,6.5,2c.3,0,.4,0,.3-.4,0-.3-.4-.5-1.2-.4A3.78644,3.78644,0,0,0,3.4,2.1Z"/><path fill="url(#n)" fill-rule="evenodd" d="M10.4,1.2c-.8-.1-1.2.1-1.2.4-.1.4,0,.4.3.4a5.39694,5.39694,0,0,1,2.8.5c.4.2.5-.2.3-.4A3.78644,3.78644,0,0,0,10.4,1.2Z"/><path fill="url(#o)" d="M9.52378,7.72179,9.608,7.43331A.16572.16572,0,0,1,9.81938,7.321a.32124.32124,0,0,1,.0533.02451.66365.66365,0,0,1,.167.14357.25291.25291,0,0,1,.04737.24325l-.12529.38577Z"/><path fill="url(#p)" d="M10.27851,6.58733,9.15865,7.7072l2.21043,2.21043,1.11986-1.11986a.5.5,0,0,0,0-.70711L10.98562,6.58733A.5.5,0,0,0,10.27851,6.58733Z" data-name="Layer 2"/><path fill="url(#q)" d="M9.64249,7.22336,8.13366,8.73219l2.21028,2.2103,1.50883-1.50883Z" data-name="Layer 3"/><path fill="#2b2622" d="M4.67226,15.4061l-1.32894.578a.191.191,0,0,1-.25127-.25127l.578-1.32894A.76163.76163,0,1,1,4.67226,15.4061Z" data-name="Layer 4"/><path fill="url(#f)" d="M9.115,7.75084,4.53472,12.33113s-.992,2.45476-.6182,2.8285,2.8285-.6182,2.8285-.6182L11.3253,9.96115Z" data-name="Layer 5"/><path fill="url(#r)" d="M4.53472,12.33113l-.07787.4853a.106.106,0,0,0,.12169.12136l.34779-.0568a.106.106,0,0,1,.12251.115l-.03872.39257a.10594.10594,0,0,0,.12167.11509l.35149-.05452a.106.106,0,0,1,.12055.12335l-.06013.33629a.106.106,0,0,0,.11492.12407l.3956-.03989a.10593.10593,0,0,1,.116.11618l-.04078.3991a.106.106,0,0,0,.12076.11561l.50341-.07375L3.91655,15.73721c.22633-.22633-.35969-.81237-.586-.586Z" data-name="Layer 6"/><path fill="url(#s)" d="M5.26277,12.45934a.13213.13213,0,0,1-.09342-.22555L8.8022,8.60094A.13212.13212,0,1,1,8.989,8.7878L5.35619,12.42064A.13165.13165,0,0,1,5.26277,12.45934Zm.84083.70871L9.73644,9.5352a.13213.13213,0,0,0-.18685-.18687L5.91674,12.9812a.13213.13213,0,0,0,.18686.18685Zm.74742.74739,3.63283-3.63283a.13213.13213,0,0,0-.18685-.18686L6.66415,13.7286a.13213.13213,0,0,0,.18687.18684Z" data-name="Layer 7"/><path fill="url(#g)" d="M15.13789,8.26713c-.11608-.09583-.16921-.062-.3612-.1548-.30835-.14911-.35542.67451-.47669.68767-.17312.01879-.24414-.60673-.32245-.352a3.22671,3.22671,0,0,1-1.0043,1.44331,3.80684,3.80684,0,0,1-1.93207.88144,13.13383,13.13383,0,0,1-1.76673-.09346.463.463,0,0,0-.28693.11919.39881.39881,0,0,0-.10079.18265c-.06223.22482.18157.4657.36713.649A1.88447,1.88447,0,0,0,9.6,11.9c.14121.05492.27912.12324.27176.18346-.02033.16628-1.17117-.12915-1.72285.44688a1.295,1.295,0,0,0-.28284,1.01094,1.85351,1.85351,0,0,0,1.1253,1.31607,2.754,2.754,0,0,0,1.51742.19512A7.27361,7.27361,0,0,0,13.637,13.6617c.79466-.59482,1.192-2.89222,1.45734-3.46719.33929-.73521.36328.33148.32731-.09557a3.40011,3.40011,0,0,1-.05159-.92881,1.18506,1.18506,0,0,0,0-.4902A.74547.74547,0,0,0,15.13789,8.26713Z"/><path fill="url(#t)" d="M14.3,7.8c.3-.6.8-.4,1.1-.3a.91613.91613,0,0,1,.7,1,5.70617,5.70617,0,0,1-1.5,4.3c-2.3,2.6-6.2,2.2-6.6.6C7.7,12.2,9.1,12,9.6,12v-.1c-.2-.1-.3-.2-.5-.3-.4-.3-.3-.9.2-.8a6.80386,6.80386,0,0,0,2,.2c1.9-.2,2.2-1.7,3-3.2Z"/><g clip-path="url(#u)"><path fill="url(#v)" d="M6.31933,10.25326a.82184.82184,0,0,0-.458-.17463c-.72793-.086-1.48341-.12807-1.76-.14228a1.24221,1.24221,0,0,0,.99713-.28009c.04012-.03877.42538-.42025.27383-.72006a.56611.56611,0,0,0-.42793-.24331c-.05378.01316-.133.03111-.22957.04756A3.71631,3.71631,0,0,1,2.8877,8.56517a4.77,4.77,0,0,1-.93585-.46256A3.27059,3.27059,0,0,0,1.3,7.7a1.17553,1.17553,0,0,0-.80158-.10293C.002,7.81606.08161,8.953.097,9.17277a4.17965,4.17965,0,0,0,1.71086,3.16648,3.55484,3.55484,0,0,0,2.93911.49967C5.75052,12.5085,6.65048,11.59569,6.6,10.9A.93851.93851,0,0,0,6.31933,10.25326Z"/><path fill="url(#w)" fill-rule="evenodd" d="M1.3,7.7c-.5-.5-1.4-.8-1.5.4a4.23772,4.23772,0,0,0,1.4,3.4c2.8,2.2,5.3,1,5.4-.6.1-1.2-1.4-1.1-1.8-1.1V9.7c.1-.1.3-.2.4-.3.4-.3.2-.8-.3-.7a4.23105,4.23105,0,0,1-2.1.1C2,8.5,1.9,8.2,1.3,7.7Z"/></g></g></svg>