<svg xmlns="http://www.w3.org/2000/svg" xmlns:xlink="http://www.w3.org/1999/xlink" data-name="Layer 1" viewBox="0 0 16 16"><defs><radialGradient id="j" cx="-70.75" cy="-71.938" r=".5" gradientTransform="matrix(16 0 0 -16 1140 -1143)" gradientUnits="userSpaceOnUse"><stop offset="0" stop-color="#f28a2d" stop-opacity="0"/><stop offset="1" stop-color="#f08423" stop-opacity=".34"/></radialGradient><radialGradient id="a" cx="-68.924" cy="-70.602" r=".101" gradientTransform="matrix(14.5998 6.5456 5.063 -11.2928 1365.464 -337.826)" gradientUnits="userSpaceOnUse"><stop offset="0" stop-color="#f28a2d" stop-opacity=".5"/><stop offset="1" stop-color="#f28a2d" stop-opacity="0"/></radialGradient><radialGradient id="k" cx="-75.512" cy="-87.715" r=".283" gradientTransform="matrix(12.5663 -9.904 -3.6032 -4.5717 644.728 -1137.105)" xlink:href="#a"/><radialGradient id="l" cx="-72.166" cy="-101.266" r=".107" gradientTransform="matrix(15.7394 -2.8762 -.572 -3.1299 1083.026 -522.487)" gradientUnits="userSpaceOnUse"><stop offset="0" stop-color="#d45f00" stop-opacity=".15"/><stop offset="1" stop-color="#f28a2d" stop-opacity="0"/></radialGradient><radialGradient id="m" cx="-69.378" cy="-92.075" r=".106" gradientTransform="matrix(15.6768 3.1995 .6363 -3.1176 1157.1 -62.93)" gradientUnits="userSpaceOnUse"><stop offset="0" stop-color="#d45f00" stop-opacity=".15"/><stop offset="1" stop-color="#d45f00" stop-opacity="0"/></radialGradient><radialGradient id="b" cx="-123.791" cy="-101.305" r=".872" gradientTransform="matrix(0 -2.1326 -2.1327 0 -211.06 -259.726)" gradientUnits="userSpaceOnUse"><stop offset="0" stop-color="#3b446b"/><stop offset=".688" stop-color="#202340"/></radialGradient><radialGradient id="n" cx="-123.805" cy="-101.305" r=".872" gradientTransform="matrix(0 -2.1326 -2.1327 0 -205.046 -259.757)" xlink:href="#b"/><radialGradient id="c" cx="-162.748" cy="-73.028" r=".298" gradientTransform="matrix(-.339 -1.3177 -6.1081 1.5713 -496.232 -97.993)" gradientUnits="userSpaceOnUse"><stop offset="0" stop-color="#e38200"/><stop offset="1" stop-color="#cd6700"/></radialGradient><radialGradient id="o" cx="-139.255" cy="-76.957" r=".314" gradientTransform="matrix(.2577 -1.3359 -7.9278 -1.5293 -563.277 -302.188)" xlink:href="#c"/><radialGradient id="g" cx="15.654" cy="21.737" r="8.846" gradientTransform="translate(0 -14)" gradientUnits="userSpaceOnUse"><stop offset="0" stop-color="#eda83a"/><stop offset="1" stop-color="#ffdc5e"/></radialGradient><radialGradient id="v" cx="-53.412" cy="-71.965" r="1.226" gradientTransform="matrix(4.3582 3.2271 3.227 -4.3582 464.932 -133.803)" xlink:href="#g"/><linearGradient id="i" x1="-70.75" x2="-70.75" y1="-72.388" y2="-71.512" gradientTransform="matrix(16 0 0 -16 1140 -1143)" gradientUnits="userSpaceOnUse"><stop offset="0" stop-color="#f28a2d"/><stop offset="1" stop-color="#fde86f"/></linearGradient><linearGradient id="d" x1="-53.17" x2="-53.17" y1="-174.478" y2="-175.997" gradientTransform="matrix(3.4035 0 0 -.9374 188.965 -158.246)" gradientUnits="userSpaceOnUse"><stop offset="0" stop-color="#482314"/><stop offset="1" stop-color="#9a4111"/></linearGradient><linearGradient id="f" x1=".9" x2="13.775" y1="-12.657" y2="-4.024" gradientTransform="matrix(1.00522 .29338 -.28016 .95995 -4.093 15.536)" gradientUnits="userSpaceOnUse"><stop offset="0" stop-color="#9c0600"/><stop offset="1" stop-color="#9c0600" stop-opacity="0"/></linearGradient><linearGradient id="p" x1="24.224" x2="24.812" y1="-10.889" y2="-10.889" gradientTransform="rotate(16.27 -49.745 -53.044)" xlink:href="#d"/><linearGradient id="q" x1="24.743" x2="21.087" y1="-1.901" y2="-15.757" gradientTransform="rotate(16.27 -49.745 -53.044)" gradientUnits="userSpaceOnUse"><stop offset=".079" stop-color="#fcbb21"/><stop offset=".818" stop-color="#f32e48"/></linearGradient><linearGradient id="e" x1="24.739" x2="26.569" y1="-12.378" y2="-7.396" gradientTransform="rotate(16.27 -49.745 -53.044)" gradientUnits="userSpaceOnUse"><stop offset="0" stop-color="#5aff00"/><stop offset="1" stop-color="#126d1a"/></linearGradient><linearGradient id="r" x1="26.728" x2="25.861" y1="-12.469" y2="-8.478" xlink:href="#e"/><linearGradient id="s" x1="-1.326" x2="12.914" y1="12.567" y2="11.552" xlink:href="#f"/><linearGradient id="u" x1="8.395" x2="1.913" y1="10.935" y2="10.236" xlink:href="#f"/><clipPath id="h"><rect width="16" height="16" fill="none"/></clipPath><clipPath id="t"><circle cx="8" cy="8" r="8" fill="none"/></clipPath></defs><g clip-path="url(#h)"><path fill="url(#i)" fill-rule="evenodd" d="M16,8A8,8,0,1,1,8,0,8.02352,8.02352,0,0,1,16,8Z"/><path fill="url(#j)" fill-rule="evenodd" d="M16,8A8,8,0,1,1,8,0,8.02352,8.02352,0,0,1,16,8Z" data-name="b"/><path fill="url(#a)" fill-rule="evenodd" d="M16,8A8,8,0,1,1,8,0,8.02352,8.02352,0,0,1,16,8Z" data-name="b"/><path fill="url(#k)" fill-rule="evenodd" d="M16,8A8,8,0,1,1,8,0,8.02352,8.02352,0,0,1,16,8Z" data-name="b"/><path fill="url(#l)" fill-rule="evenodd" d="M16,8A8,8,0,1,1,8,0,8.02352,8.02352,0,0,1,16,8Z" data-name="b"/><path fill="url(#m)" fill-rule="evenodd" d="M16,8A8,8,0,1,1,8,0,8.02352,8.02352,0,0,1,16,8Z" data-name="b"/><path fill="url(#d)" fill-rule="evenodd" d="M9.7,5.9c-.1-.3-3.3-.3-3.4,0s.6.7,1.7.7S9.8,6.2,9.7,5.9Z"/><path fill="url(#b)" fill-rule="evenodd" d="M6,4.1c0,.7-.4.9-1,1s-1.1-.2-1.1-1c0-.6.3-1.4,1.1-1.4C5.7,2.7,6,3.5,6,4.1Z"/><path fill="#4e506a" fill-rule="evenodd" d="M4.9,3.1a.34826.34826,0,0,1-.1.5c-.1.1-.3.2-.4,0a.45417.45417,0,0,1,0-.5.44637.44637,0,0,1,.5,0Z"/><path fill="url(#n)" fill-rule="evenodd" d="M10,4.1c0,.7.4.9,1.1,1,.6.1,1.1-.2,1.1-1,0-.6-.3-1.4-1.1-1.4S10,3.5,10,4.1Z"/><path fill="#4e506a" fill-rule="evenodd" d="M11,3.1c.1.1,0,.3-.1.5a.30417.30417,0,0,1-.4,0c-.1-.1,0-.3.1-.5C10.8,2.9,10.9,2.9,11,3.1Z"/><path fill="url(#c)" fill-rule="evenodd" d="M3.4,2.1c-.2.2,0,.5.3.4A5.85669,5.85669,0,0,1,6.5,2c.3,0,.4,0,.3-.4,0-.3-.4-.5-1.2-.4A3.78644,3.78644,0,0,0,3.4,2.1Z"/><path fill="url(#o)" fill-rule="evenodd" d="M10.4,1.2c-.8-.1-1.2.1-1.2.4-.1.4,0,.4.3.4a5.39694,5.39694,0,0,1,2.8.5c.4.2.5-.2.3-.4A3.78644,3.78644,0,0,0,10.4,1.2Z"/><path fill="url(#f)" d="M10.15428,8.89221a3.62073,3.62073,0,0,0-.95874-.59188A3.23061,3.23061,0,0,0,7.56254,8.02a2.75948,2.75948,0,0,0-1.46837.66092,2.8848,2.8848,0,0,0-.84045,1.27727,3.8779,3.8779,0,0,0-.20456,1.0408A9.139,9.139,0,0,0,5.086,12.83931a3.752,3.752,0,0,1,.0412.58721,5.11086,5.11086,0,0,1-.05032.68231,4.515,4.515,0,0,0-.0985.58027.95785.95785,0,0,0,.22447.56627,2.37349,2.37349,0,0,0,1.0833.6342,3.34818,3.34818,0,0,0,1.54.01637,4.80841,4.80841,0,0,0,3.48456-3.6116,3.414,3.414,0,0,0-.12275-1.98673A3.72413,3.72413,0,0,0,10.15428,8.89221Z"/><path fill="url(#p)" d="M9.41982,8.25493l.091-.31184a.17914.17914,0,0,1,.22853-.12145.34741.34741,0,0,1,.05761.0265.71736.71736,0,0,1,.18053.15519.2734.2734,0,0,1,.05121.26294l-.13544.417Z"/><path fill="url(#q)" d="M9.62877,8.31732a3.60893,3.60893,0,0,0-.98561-.625,3.19417,3.19417,0,0,0-1.68826-.2806,2.89864,2.89864,0,0,0-1.53.73112,3.22767,3.22767,0,0,0-.8875,1.38679,4.38249,4.38249,0,0,0-.22557,1.12375,10.21277,10.21277,0,0,0,.0141,1.98179,4.17829,4.17829,0,0,1,.035.632,5.75329,5.75329,0,0,1-.06107.73559,5.0998,5.0998,0,0,0-.10965.62632,1.03185,1.03185,0,0,0,.22515.607,2.36487,2.36487,0,0,0,1.1141.66894,3.33418,3.33418,0,0,0,1.59535-.00253,5.264,5.264,0,0,0,3.6576-3.93577,3.8056,3.8056,0,0,0-.10117-2.13836A3.86791,3.86791,0,0,0,9.62877,8.31732Z"/><path fill="url(#e)" d="M9.75515,8.43543a2.53461,2.53461,0,0,1,.06974.45548,3.00546,3.00546,0,0,1-.18626,1.14454,3.82454,3.82454,0,0,0,.73124,2.81427,4.14942,4.14942,0,0,0,.50541.6151,2.12132,2.12132,0,0,1,.28553-.73809,6.44026,6.44026,0,0,0,.52882-1.67354C11.83417,9.82709,9.99359,8.59194,9.75515,8.43543Z"/><path fill="url(#r)" d="M11.55342,10.29555a4.79616,4.79616,0,0,0-.68741-.95234,5.09431,5.09431,0,0,0-1.11086-.90778,3.12676,3.12676,0,0,1,.4211.59205,3.19844,3.19844,0,0,1,.22806.52543,6.13075,6.13075,0,0,1,.275,1.47171c.068.82535-.00461,1.01911.09478,1.806.03409.26982.0733.4899.10123.6342C11.007,13.273,12.15452,11.55786,11.55342,10.29555Z"/><path fill="url(#s)" d="M15.13789,8.26713c-.11608-.09583-.16921-.062-.3612-.1548-.30835-.14911-.35542.67451-.47669.68767-.17312.01879-.24414-.60673-.32245-.352a3.22671,3.22671,0,0,1-1.0043,1.44331,3.80684,3.80684,0,0,1-1.93207.88144,13.13383,13.13383,0,0,1-1.76673-.09346.463.463,0,0,0-.28693.11919.39881.39881,0,0,0-.10079.18265c-.06223.22482.18157.4657.36713.649A1.88447,1.88447,0,0,0,9.6,11.9c.14121.05492.27912.12324.27176.18346-.02033.16628-1.17117-.12915-1.72285.44688a1.295,1.295,0,0,0-.28284,1.01094,1.85351,1.85351,0,0,0,1.1253,1.31607,2.754,2.754,0,0,0,1.51742.19512A7.27361,7.27361,0,0,0,13.637,13.6617c.79466-.59482,1.192-2.89222,1.45734-3.46719.33929-.73521.36328.33148.32731-.09557a3.40011,3.40011,0,0,1-.05159-.92881,1.18506,1.18506,0,0,0,0-.4902A.74547.74547,0,0,0,15.13789,8.26713Z"/><path fill="url(#g)" d="M14.3,7.8c.3-.6.8-.4,1.1-.3a.91613.91613,0,0,1,.7,1,5.70617,5.70617,0,0,1-1.5,4.3c-2.3,2.6-6.2,2.2-6.6.6C7.7,12.2,9.1,12,9.6,12v-.1c-.2-.1-.3-.2-.5-.3-.4-.3-.3-.9.2-.8a6.80386,6.80386,0,0,0,2,.2c1.9-.2,2.2-1.7,3-3.2Z"/><g clip-path="url(#t)"><path fill="url(#u)" d="M6.31933,10.25326a.82184.82184,0,0,0-.458-.17463c-.72793-.086-1.48341-.12807-1.76-.14228a1.24221,1.24221,0,0,0,.99713-.28009c.04012-.03877.42538-.42025.27383-.72006a.56611.56611,0,0,0-.42793-.24331c-.05378.01316-.133.03111-.22957.04756A3.71631,3.71631,0,0,1,2.8877,8.56517a4.77,4.77,0,0,1-.93585-.46256A3.27059,3.27059,0,0,0,1.3,7.7a1.17553,1.17553,0,0,0-.80158-.10293C.002,7.81606.08161,8.953.097,9.17277a4.17965,4.17965,0,0,0,1.71086,3.16648,3.55484,3.55484,0,0,0,2.93911.49967C5.75052,12.5085,6.65048,11.59569,6.6,10.9A.93851.93851,0,0,0,6.31933,10.25326Z"/><path fill="url(#v)" fill-rule="evenodd" d="M1.3,7.7c-.5-.5-1.4-.8-1.5.4a4.23772,4.23772,0,0,0,1.4,3.4c2.8,2.2,5.3,1,5.4-.6.1-1.2-1.4-1.1-1.8-1.1V9.7c.1-.1.3-.2.4-.3.4-.3.2-.8-.3-.7a4.23105,4.23105,0,0,1-2.1.1C2,8.5,1.9,8.2,1.3,7.7Z"/></g></g></svg>