<svg xmlns="http://www.w3.org/2000/svg" xmlns:xlink="http://www.w3.org/1999/xlink" data-name="Layer 1" viewBox="0 0 16 16"><defs><radialGradient id="h" cx="-94.188" cy="-28.375" r=".5" gradientTransform="matrix(16 0 0 -16 1515 -446)" gradientUnits="userSpaceOnUse"><stop offset="0" stop-color="#f28a2d" stop-opacity="0"/><stop offset="1" stop-color="#f08423" stop-opacity=".34"/></radialGradient><radialGradient id="a" cx="-93.546" cy="-25.753" r=".101" gradientTransform="matrix(14.5998 6.5456 5.063 -11.2928 1497.876 329.819)" gradientUnits="userSpaceOnUse"><stop offset="0" stop-color="#f28a2d" stop-opacity=".5"/><stop offset="1" stop-color="#f28a2d" stop-opacity="0"/></radialGradient><radialGradient id="i" cx="-97.699" cy="-43.841" r=".283" gradientTransform="matrix(12.5663 -9.904 -3.6032 -4.5717 1081.617 -1156.266)" xlink:href="#a"/><radialGradient id="j" cx="-95.169" cy="-49.002" r=".107" gradientTransform="matrix(15.7394 -2.8762 -.572 -3.1299 1474.963 -425.066)" gradientUnits="userSpaceOnUse"><stop offset="0" stop-color="#d45f00" stop-opacity=".15"/><stop offset="1" stop-color="#f28a2d" stop-opacity="0"/></radialGradient><radialGradient id="k" cx="-93.36" cy="-36.879" r=".106" gradientTransform="matrix(15.6768 3.1995 .6363 -3.1176 1497.932 185.879)" gradientUnits="userSpaceOnUse"><stop offset="0" stop-color="#d45f00" stop-opacity=".15"/><stop offset="1" stop-color="#d45f00" stop-opacity="0"/></radialGradient><radialGradient id="b" cx="-129.565" cy="-72.027" r=".872" gradientTransform="matrix(0 -2.1326 -2.1327 0 -148.62 -272.04)" gradientUnits="userSpaceOnUse"><stop offset="0" stop-color="#3b446b"/><stop offset=".688" stop-color="#202340"/></radialGradient><radialGradient id="m" cx="-129.58" cy="-72.027" r=".872" gradientTransform="matrix(0 -2.1326 -2.1327 0 -142.606 -272.072)" xlink:href="#b"/><radialGradient id="c" cx="-163.142" cy="-37.487" r=".298" gradientTransform="matrix(-.339 -1.3177 -6.1081 1.5713 -279.275 -154.359)" gradientUnits="userSpaceOnUse"><stop offset="0" stop-color="#e38200"/><stop offset="1" stop-color="#cd6700"/></radialGradient><radialGradient id="n" cx="-131.185" cy="-38.035" r=".314" gradientTransform="matrix(.2577 -1.3359 -7.9278 -1.5293 -256.795 -231.884)" xlink:href="#c"/><radialGradient id="e" cx="-79.206" cy="-22.146" r="1.226" gradientTransform="matrix(4.3582 3.2271 3.227 -4.3582 416.58 166.56)" gradientUnits="userSpaceOnUse"><stop offset="0" stop-color="#eda83a"/><stop offset="1" stop-color="#ffdc5e"/></radialGradient><radialGradient id="s" cx="15.654" cy="21.737" r="8.846" gradientTransform="translate(0 -14)" xlink:href="#e"/><linearGradient id="g" x1="-94.188" x2="-94.188" y1="-28.825" y2="-27.949" gradientTransform="matrix(16 0 0 -16 1515 -446)" gradientUnits="userSpaceOnUse"><stop offset="0" stop-color="#f28a2d"/><stop offset="1" stop-color="#fde86f"/></linearGradient><linearGradient id="l" x1="-70.825" x2="-70.825" y1="-89.74" y2="-91.259" gradientTransform="matrix(3.4035 0 0 -.9374 249.053 -78.813)" gradientUnits="userSpaceOnUse"><stop offset="0" stop-color="#482314"/><stop offset="1" stop-color="#9a4111"/></linearGradient><linearGradient id="o" x1="9.616" x2="2.56" y1="6.466" y2="20.777" gradientUnits="userSpaceOnUse"><stop offset="0" stop-color="#3b446b"/><stop offset="1" stop-color="#202340"/></linearGradient><linearGradient id="p" x1="8.031" x2="6.165" y1="8.843" y2="14.4" gradientUnits="userSpaceOnUse"><stop offset="0" stop-color="#18afff"/><stop offset="1" stop-color="#0062df"/></linearGradient><linearGradient id="d" x1="8.295" x2="1.89" y1="10.924" y2="10.234" gradientUnits="userSpaceOnUse"><stop offset="0" stop-color="#9c0600"/><stop offset="1" stop-color="#9c0600" stop-opacity="0"/></linearGradient><linearGradient id="r" x1="-1.326" x2="12.914" y1="12.567" y2="11.552" xlink:href="#d"/><clipPath id="f"><rect width="16" height="16" fill="none"/></clipPath><clipPath id="q"><circle cx="8" cy="8" r="8" fill="none"/></clipPath></defs><g clip-path="url(#f)"><path fill="url(#g)" fill-rule="evenodd" d="M16,8A8,8,0,1,1,8,0,8.02352,8.02352,0,0,1,16,8Z"/><path fill="url(#h)" fill-rule="evenodd" d="M16,8A8,8,0,1,1,8,0,8.02352,8.02352,0,0,1,16,8Z" data-name="b"/><path fill="url(#a)" fill-rule="evenodd" d="M16,8A8,8,0,1,1,8,0,8.02352,8.02352,0,0,1,16,8Z" data-name="b"/><path fill="url(#i)" fill-rule="evenodd" d="M16,8A8,8,0,1,1,8,0,8.02352,8.02352,0,0,1,16,8Z" data-name="b"/><path fill="url(#j)" fill-rule="evenodd" d="M16,8A8,8,0,1,1,8,0,8.02352,8.02352,0,0,1,16,8Z" data-name="b"/><path fill="url(#k)" fill-rule="evenodd" d="M16,8A8,8,0,1,1,8,0,8.02352,8.02352,0,0,1,16,8Z" data-name="b"/><path fill="url(#l)" fill-rule="evenodd" d="M9.7,5.9c-.1-.3-3.3-.3-3.4,0s.6.7,1.7.7S9.8,6.2,9.7,5.9Z"/><path fill="url(#b)" fill-rule="evenodd" d="M6,4.1c0,.7-.4.9-1,1s-1.1-.2-1.1-1c0-.6.3-1.4,1.1-1.4C5.7,2.7,6,3.5,6,4.1Z"/><path fill="#4e506a" fill-rule="evenodd" d="M4.9,3.1a.34826.34826,0,0,1-.1.5c-.1.1-.3.2-.4,0a.45417.45417,0,0,1,0-.5.44637.44637,0,0,1,.5,0Z"/><path fill="url(#m)" fill-rule="evenodd" d="M10,4.1c0,.7.4.9,1.1,1,.6.1,1.1-.2,1.1-1,0-.6-.3-1.4-1.1-1.4S10,3.5,10,4.1Z"/><path fill="#4e506a" fill-rule="evenodd" d="M11,3.1c.1.1,0,.3-.1.5a.30417.30417,0,0,1-.4,0c-.1-.1,0-.3.1-.5C10.8,2.9,10.9,2.9,11,3.1Z"/><path fill="url(#c)" fill-rule="evenodd" d="M3.4,2.1c-.2.2,0,.5.3.4A5.85669,5.85669,0,0,1,6.5,2c.3,0,.4,0,.3-.4,0-.3-.4-.5-1.2-.4A3.78644,3.78644,0,0,0,3.4,2.1Z"/><path fill="url(#n)" fill-rule="evenodd" d="M10.4,1.2c-.8-.1-1.2.1-1.2.4-.1.4,0,.4.3.4a5.39694,5.39694,0,0,1,2.8.5c.4.2.5-.2.3-.4A3.78644,3.78644,0,0,0,10.4,1.2Z"/><path fill="url(#o)" d="M4.29236,14.91605a.90818.90818,0,0,1-.58723-1.17257L5.75379,7.58419A.90818.90818,0,0,1,6.92635,6.997L10.006,8.02128a.90818.90818,0,0,1,.58723,1.17257L8.54457,15.35314a.90818.90818,0,0,1-1.17256.58724Z"/><path fill="url(#p)" d="M4.21824,13.66984l3.95955,1.317,1.90233-5.71935L6.12057,7.9505Z"/><g clip-path="url(#q)"><path fill="url(#d)" d="M6.31933,10.25326a.82184.82184,0,0,0-.458-.17463c-.72793-.086-1.48341-.12807-1.76-.14228a1.24221,1.24221,0,0,0,.99713-.28009c.04012-.03877.42538-.42025.27383-.72006a.56611.56611,0,0,0-.42793-.24331c-.05378.01316-.133.03111-.22957.04756A3.71631,3.71631,0,0,1,2.8877,8.56517a4.77,4.77,0,0,1-.93585-.46256A3.27059,3.27059,0,0,0,1.3,7.7a1.17553,1.17553,0,0,0-.80158-.10293C.002,7.81606.08161,8.953.097,9.17277a4.17965,4.17965,0,0,0,1.71086,3.16648,3.55484,3.55484,0,0,0,2.93911.49967c1.00354-.33042,1.81425-1.16375,1.76377-1.85945C6.50405,10.88719,6.56845,10.46525,6.31933,10.25326Z"/><path fill="url(#e)" fill-rule="evenodd" d="M1.3,7.7c-.5-.5-1.4-.8-1.5.4a4.23772,4.23772,0,0,0,1.4,3.4c2.8,2.2,5.3,1,5.4-.6.1-1.2-1.4-1.1-1.8-1.1V9.7c.1-.1.3-.2.4-.3.4-.3.2-.8-.3-.7a4.23105,4.23105,0,0,1-2.1.1C2,8.5,1.9,8.2,1.3,7.7Z"/></g><path fill="url(#r)" d="M15.13789,8.26713c-.11608-.09583-.16921-.062-.3612-.1548-.30835-.14911-.35542.67451-.47669.68767-.17312.01879-.24414-.60673-.32245-.352a3.22671,3.22671,0,0,1-1.0043,1.44331,3.80684,3.80684,0,0,1-1.93207.88144,13.13383,13.13383,0,0,1-1.76673-.09346.463.463,0,0,0-.28693.11919.39881.39881,0,0,0-.10079.18265c-.06223.22482.18157.4657.36713.649A1.88447,1.88447,0,0,0,9.6,11.9c.14121.05492.27912.12324.27176.18346-.02033.16628-1.17117-.12915-1.72285.44688a1.295,1.295,0,0,0-.28284,1.01094,1.85351,1.85351,0,0,0,1.1253,1.31607,2.754,2.754,0,0,0,1.51742.19512A7.27361,7.27361,0,0,0,13.637,13.6617c.79466-.59482,1.192-2.89222,1.45734-3.46719.33929-.73521.36328.33148.32731-.09557a3.40011,3.40011,0,0,1-.05159-.92881,1.18506,1.18506,0,0,0,0-.4902A.74547.74547,0,0,0,15.13789,8.26713Z"/><path fill="url(#s)" d="M14.3,7.8c.3-.6.8-.4,1.1-.3a.91613.91613,0,0,1,.7,1,5.70617,5.70617,0,0,1-1.5,4.3c-2.3,2.6-6.2,2.2-6.6.6C7.7,12.2,9.1,12,9.6,12v-.1c-.2-.1-.3-.2-.5-.3-.4-.3-.3-.9.2-.8a6.80386,6.80386,0,0,0,2,.2c1.9-.2,2.2-1.7,3-3.2Z"/></g></svg>