<svg xmlns="http://www.w3.org/2000/svg" xmlns:xlink="http://www.w3.org/1999/xlink" data-name="Layer 1" viewBox="0 0 16 16"><defs><radialGradient id="i" cx="-70.75" cy="-3.938" r=".5" gradientTransform="matrix(16 0 0 -16 1140 -55)" gradientUnits="userSpaceOnUse"><stop offset="0" stop-color="#f28a2d" stop-opacity="0"/><stop offset="1" stop-color="#f08423" stop-opacity=".34"/></radialGradient><radialGradient id="a" cx="-70.56" cy="-1.883" r=".101" gradientTransform="matrix(14.5998 6.5456 5.063 -11.2928 1041.432 448.913)" gradientUnits="userSpaceOnUse"><stop offset="0" stop-color="#f28a2d" stop-opacity=".5"/><stop offset="1" stop-color="#f28a2d" stop-opacity="0"/></radialGradient><radialGradient id="j" cx="-73.036" cy="-15.08" r=".283" gradientTransform="matrix(12.5663 -9.904 -3.6032 -4.5717 875.333 -780.517)" xlink:href="#a"/><radialGradient id="k" cx="-71.447" cy="-17.478" r=".107" gradientTransform="matrix(15.7394 -2.8762 -.572 -3.1299 1119.634 -258.174)" gradientUnits="userSpaceOnUse"><stop offset="0" stop-color="#d45f00" stop-opacity=".15"/><stop offset="1" stop-color="#f28a2d" stop-opacity="0"/></radialGradient><radialGradient id="l" cx="-70.178" cy="-8.367" r=".106" gradientTransform="matrix(15.6768 3.1995 .6363 -3.1176 1116.377 200.596)" gradientUnits="userSpaceOnUse"><stop offset="0" stop-color="#d45f00" stop-opacity=".15"/><stop offset="1" stop-color="#d45f00" stop-opacity="0"/></radialGradient><radialGradient id="b" cx="-93.78" cy="-37.305" r=".872" gradientTransform="matrix(0 -2.1326 -2.1327 0 -74.567 -195.726)" gradientUnits="userSpaceOnUse"><stop offset="0" stop-color="#3b446b"/><stop offset=".688" stop-color="#202340"/></radialGradient><radialGradient id="m" cx="-93.795" cy="-37.305" r=".872" gradientTransform="matrix(0 -2.1326 -2.1327 0 -68.554 -195.757)" xlink:href="#b"/><radialGradient id="c" cx="-117.193" cy="-11.556" r=".298" gradientTransform="matrix(-.339 -1.3177 -6.1081 1.5713 -105.314 -134.556)" gradientUnits="userSpaceOnUse"><stop offset="0" stop-color="#e38200"/><stop offset="1" stop-color="#cd6700"/></radialGradient><radialGradient id="n" cx="-93.066" cy="-11.456" r=".314" gradientTransform="matrix(.2577 -1.3359 -7.9278 -1.5293 -55.898 -140.313)" xlink:href="#c"/><radialGradient id="o" cx="8.643" cy="9.891" r="7.263" xlink:href="#c"/><radialGradient id="e" cx="-11.625" cy="11.569" r="12.289" gradientUnits="userSpaceOnUse"><stop offset="0" stop-color="#eda83a"/><stop offset="1" stop-color="#ffdc5e"/></radialGradient><radialGradient id="t" cx="15.654" cy="21.737" r="8.846" gradientTransform="translate(0 -14)" xlink:href="#e"/><radialGradient id="w" cx="-60.435" cy="1.519" r="1.226" gradientTransform="matrix(4.3582 3.2271 3.227 -4.3582 258.404 209.122)" xlink:href="#e"/><linearGradient id="h" x1="-70.75" x2="-70.75" y1="-4.388" y2="-3.512" gradientTransform="matrix(16 0 0 -16 1140 -55)" gradientUnits="userSpaceOnUse"><stop offset="0" stop-color="#f28a2d"/><stop offset="1" stop-color="#fde86f"/></linearGradient><linearGradient id="d" x1="-53.17" x2="-53.17" y1="-42.204" y2="-43.723" gradientTransform="matrix(3.4035 0 0 -.9374 188.965 -34.253)" gradientUnits="userSpaceOnUse"><stop offset="0" stop-color="#482314"/><stop offset="1" stop-color="#9a4111"/></linearGradient><linearGradient id="p" x1="2.519" x2="11.015" y1="12.759" y2="12.759" xlink:href="#d"/><linearGradient id="q" x1="3.055" x2="10.835" y1="12.376" y2="12.376" gradientTransform="rotate(78.272 6.945 12.376)" gradientUnits="userSpaceOnUse"><stop offset="0" stop-color="#f34462"/><stop offset="1" stop-color="#cc0820"/></linearGradient><linearGradient id="r" x1="5.203" x2="8.724" y1="13.091" y2="10.793" gradientUnits="userSpaceOnUse"><stop offset="0" stop-color="#16992b"/><stop offset="1" stop-color="#126d1a"/></linearGradient><linearGradient id="s" x1="5.2" x2="13.283" y1="15.113" y2="-3.348" gradientUnits="userSpaceOnUse"><stop offset="0" stop-color="#ffaf42"/><stop offset="1" stop-color="#cd6700"/></linearGradient><linearGradient id="f" x1="-1.326" x2="12.914" y1="12.567" y2="11.552" gradientUnits="userSpaceOnUse"><stop offset="0" stop-color="#9c0600"/><stop offset="1" stop-color="#9c0600" stop-opacity="0"/></linearGradient><linearGradient id="v" x1="8.295" x2="1.89" y1="10.924" y2="10.234" xlink:href="#f"/><clipPath id="g"><rect width="16" height="16" fill="none"/></clipPath><clipPath id="u"><circle cx="8" cy="8" r="8" fill="none"/></clipPath></defs><g clip-path="url(#g)"><path fill="url(#h)" fill-rule="evenodd" d="M16,8A8,8,0,1,1,8,0,8.02352,8.02352,0,0,1,16,8Z"/><path fill="url(#i)" fill-rule="evenodd" d="M16,8A8,8,0,1,1,8,0,8.02352,8.02352,0,0,1,16,8Z" data-name="b"/><path fill="url(#a)" fill-rule="evenodd" d="M16,8A8,8,0,1,1,8,0,8.02352,8.02352,0,0,1,16,8Z" data-name="b"/><path fill="url(#j)" fill-rule="evenodd" d="M16,8A8,8,0,1,1,8,0,8.02352,8.02352,0,0,1,16,8Z" data-name="b"/><path fill="url(#k)" fill-rule="evenodd" d="M16,8A8,8,0,1,1,8,0,8.02352,8.02352,0,0,1,16,8Z" data-name="b"/><path fill="url(#l)" fill-rule="evenodd" d="M16,8A8,8,0,1,1,8,0,8.02352,8.02352,0,0,1,16,8Z" data-name="b"/><path fill="url(#d)" fill-rule="evenodd" d="M9.7,5.9c-.1-.3-3.3-.3-3.4,0s.6.7,1.7.7S9.8,6.2,9.7,5.9Z"/><path fill="url(#b)" fill-rule="evenodd" d="M6,4.1c0,.7-.4.9-1,1s-1.1-.2-1.1-1c0-.6.3-1.4,1.1-1.4C5.7,2.7,6,3.5,6,4.1Z"/><path fill="#4e506a" fill-rule="evenodd" d="M4.9,3.1a.34826.34826,0,0,1-.1.5c-.1.1-.3.2-.4,0a.45417.45417,0,0,1,0-.5.44637.44637,0,0,1,.5,0Z"/><path fill="url(#m)" fill-rule="evenodd" d="M10,4.1c0,.7.4.9,1.1,1,.6.1,1.1-.2,1.1-1,0-.6-.3-1.4-1.1-1.4S10,3.5,10,4.1Z"/><path fill="#4e506a" fill-rule="evenodd" d="M11,3.1c.1.1,0,.3-.1.5a.30417.30417,0,0,1-.4,0c-.1-.1,0-.3.1-.5C10.8,2.9,10.9,2.9,11,3.1Z"/><path fill="url(#c)" fill-rule="evenodd" d="M3.4,2.1c-.2.2,0,.5.3.4A5.85669,5.85669,0,0,1,6.5,2c.3,0,.4,0,.3-.4,0-.3-.4-.5-1.2-.4A3.78644,3.78644,0,0,0,3.4,2.1Z"/><path fill="url(#n)" fill-rule="evenodd" d="M10.4,1.2c-.8-.1-1.2.1-1.2.4-.1.4,0,.4.3.4a5.39694,5.39694,0,0,1,2.8.5c.4.2.5-.2.3-.4A3.78644,3.78644,0,0,0,10.4,1.2Z"/><path fill="url(#o)" d="M10.73068,15.07691a.96905.96905,0,0,1-.717.74546,8.74407,8.74407,0,0,1-3.83014-.068A8.74394,8.74394,0,0,1,2.6428,14.29214a.969.969,0,0,1-.361-.96927h0a.97155.97155,0,0,1,1.14875-.75378l6.54641,1.35907a.97155.97155,0,0,1,.75377,1.14875Z"/><path fill="url(#p)" d="M10.99481,13.62015a.969.969,0,0,0-.361-.96928,8.74409,8.74409,0,0,0-3.54071-1.46219,8.74423,8.74423,0,0,0-3.83014-.068.96905.96905,0,0,0-.717.74547h0l-.00287.01583-.00367.01566h0a.96906.96906,0,0,0,.361.96928,8.74418,8.74418,0,0,0,3.54071,1.46218,8.74406,8.74406,0,0,0,3.83014.068.969.969,0,0,0,.717-.74546h0l.00286-.01583.00368-.01566Z"/><ellipse cx="6.945" cy="12.376" fill="url(#q)" rx="1.35" ry="3.963" transform="rotate(-78.272 6.945 12.376)"/><ellipse cx="7.049" cy="11.873" fill="#ff473e" rx="1.35" ry="3.963" transform="rotate(-78.272 7.05 11.873)"/><path fill="url(#r)" d="M11.42777,11.91327a3.7186,3.7186,0,0,0-1.59033-.68773,4.77545,4.77545,0,0,0-.94328-.09858c-.24088-.00073-.47914.01216-.72318-.00642q-.06033-.01-.1198-.0237-.03993-.015-.07846-.032c-.09165-.05354-.17717-.11171-.265-.16855a4.81518,4.81518,0,0,0-3.08762-.69291,1.074,1.074,0,0,0-.256-.00074,3.28235,3.28235,0,0,0-1.46508.5223,1.69446,1.69446,0,0,0-.22362.18288c-.14584.14246-.28119.292-.22034.49568.11392.38132.64116.62126,1.16677.64645a2.91173,2.91173,0,0,0,.973-.16456,2.05829,2.05829,0,0,1,.23407-.04333c.00873,0-.04736.31209-.0386.31222.06179.057.11887.11607.18244.17238a3.16857,3.16857,0,0,0,.35393.27572,2.68926,2.68926,0,0,0,.9273.38529,2.17833,2.17833,0,0,0,.98856-.0159,1.17537,1.17537,0,0,0,.41018-.19167c.04158-.03161.07887-.06554.1187-.09788.025.00987.27283-.19647.3346-.14967.1528.12589.30059.25555.47052.37113a2.35653,2.35653,0,0,0,.82928.35045,2.9958,2.9958,0,0,0,1.65016-.16211,1.09,1.09,0,0,0,.57077-.41182A.60308.60308,0,0,0,11.42777,11.91327Zm-6.09961-.84784q.19019-.00138.384.01646a4.2153,4.2153,0,0,1,.51668.10727,3.81992,3.81992,0,0,1,.45555.182c.11376.06374.15375.44588.26107.5144a2.6822,2.6822,0,0,0-.34435.24285l-.01716.0067-.04112.00651q-.03716-.00014-.07468-.00218-.04665-.00837-.09268-.01936c-.04511-.01654-.089-.03465-.132-.05418a2.11952,2.11952,0,0,1-.197-.12891c-.11321-.09842-.21244-.20279-.33213-.29841C5.585,11.53536,5.49781,11.13135,5.32816,11.06543Zm4.76023,1.28869a2.54346,2.54346,0,0,1-.318.056c-.04757.00088-.09535,0-.14359-.00282q-.03609-.00654-.07177-.01476c-.023-.00875-.0458-.01793-.06818-.02771a2.16005,2.16005,0,0,1-.21336-.1453c-.07836-.06491-.15537-.13117-.235-.19572.1271.00043.25453.0041.3839.01528a3.98934,3.98934,0,0,1,.4823.10043,3.73631,3.73631,0,0,1,.37763.14793C10.22023,12.31238,10.15519,12.33419,10.08839,12.35412Z"/><path fill="#fecb21" d="M4.19317,12.46232a23.27165,23.27165,0,0,0-.91743-2.16974c-.87994-.03221,6.13135.23232,6.13135.23232,1.85036.592,1.90593,1.57978,1.80782,2.05715a.26932.26932,0,0,1-.33745.20336c-3.99309-1.1283-5.69827-.53867-6.29348-.18278A.26948.26948,0,0,1,4.19317,12.46232Z"/><path fill="url(#s)" d="M7.88734,7.36273c-2.261-.46939-4.52092.551-4.878,2.271-.19039.91711,1.54661,2.05322,3.87973,2.53758s4.37881.13357,4.5692-.78354C11.80525,9.7164,10.14831,7.83212,7.88734,7.36273Z"/><path fill="url(#e)" d="M4.82765,8.78971l.09754.421a.09235.09235,0,0,1-.14893.09192l-.33261-.27586a.23813.23813,0,1,1,.384-.237Zm4.01981-.5836a.23813.23813,0,1,0-.304.36658l.33261.27586A.09236.09236,0,0,0,9.025,8.75663l-.09755-.421A.23751.23751,0,0,0,8.84746,8.20611Zm-2.20132.03581a.23813.23813,0,0,0-.43752.18817l.17072.397a.09237.09237,0,0,0,.17447-.01413l.10463-.41928A.2375.2375,0,0,0,6.64614,8.24192Zm4.07161,1.92046a.24761.24761,0,0,0-.39885-.29354l-.19877.27009a.096.096,0,0,0,.08571.15259l.33408-.02924A.24911.24911,0,0,0,10.71775,10.16238ZM7.05461,10.429a.23813.23813,0,0,0-.18074.44063l.39981.164a.09234.09234,0,0,0,.11468-.13219l-.21876-.37266A.23721.23721,0,0,0,7.05461,10.429Zm2.16844.81877a.23813.23813,0,1,0,.46608-.098l-.0889-.42289a.09236.09236,0,0,0-.17381-.02063l-.18545.39032A.23767.23767,0,0,0,9.22305,11.24779Zm-3.47819-.84294a.24083.24083,0,0,0-.45743-.15083l-.13684.415a.07785.07785,0,0,0,.11383.09121l.37519-.22406A.24076.24076,0,0,0,5.74486,10.40485Zm2.29644-.32453A.23812.23812,0,1,0,8.29294,9.676l-.36689-.22832a.09235.09235,0,0,0-.13513.11123l.15361.40391A.2373.2373,0,0,0,8.0413,10.08032Z"/><path fill="url(#f)" d="M15.13789,8.26713c-.11608-.09583-.16921-.062-.3612-.1548-.30835-.14911-.35542.67451-.47669.68767-.17312.01879-.24414-.60673-.32245-.352a3.22671,3.22671,0,0,1-1.0043,1.44331,3.80684,3.80684,0,0,1-1.93207.88144,13.13383,13.13383,0,0,1-1.76673-.09346.463.463,0,0,0-.28693.11919.39881.39881,0,0,0-.10079.18265c-.06223.22482.18157.4657.36713.649A1.88447,1.88447,0,0,0,9.6,11.9c.14121.05492.27912.12324.27176.18346-.02033.16628-1.17117-.12915-1.72285.44688a1.295,1.295,0,0,0-.28284,1.01094,1.85351,1.85351,0,0,0,1.1253,1.31607,2.754,2.754,0,0,0,1.51742.19512A7.27361,7.27361,0,0,0,13.637,13.6617c.79466-.59482,1.192-2.89222,1.45734-3.46719.33929-.73521.36328.33148.32731-.09557a3.40011,3.40011,0,0,1-.05159-.92881,1.18506,1.18506,0,0,0,0-.4902A.74547.74547,0,0,0,15.13789,8.26713Z"/><path fill="url(#t)" d="M14.3,7.8c.3-.6.8-.4,1.1-.3a.91613.91613,0,0,1,.7,1,5.70617,5.70617,0,0,1-1.5,4.3c-2.3,2.6-6.2,2.2-6.6.6C7.7,12.2,9.1,12,9.6,12v-.1c-.2-.1-.3-.2-.5-.3-.4-.3-.3-.9.2-.8a6.80386,6.80386,0,0,0,2,.2c1.9-.2,2.2-1.7,3-3.2Z"/><g clip-path="url(#u)"><path fill="url(#v)" d="M6.31933,10.25326a.82184.82184,0,0,0-.458-.17463c-.72793-.086-1.48341-.12807-1.76-.14228a1.24221,1.24221,0,0,0,.99713-.28009c.04012-.03877.42538-.42025.27383-.72006a.56611.56611,0,0,0-.42793-.24331c-.05378.01316-.133.03111-.22957.04756A3.71631,3.71631,0,0,1,2.8877,8.56517a4.77,4.77,0,0,1-.93585-.46256A3.27059,3.27059,0,0,0,1.3,7.7a1.17553,1.17553,0,0,0-.80158-.10293C.002,7.81606.08161,8.953.097,9.17277a4.17965,4.17965,0,0,0,1.71086,3.16648,3.55484,3.55484,0,0,0,2.93911.49967c1.00354-.33042,1.81425-1.16375,1.76377-1.85945C6.50405,10.88719,6.56845,10.46525,6.31933,10.25326Z"/><path fill="url(#w)" fill-rule="evenodd" d="M1.3,7.7c-.5-.5-1.4-.8-1.5.4a4.23772,4.23772,0,0,0,1.4,3.4c2.8,2.2,5.3,1,5.4-.6.1-1.2-1.4-1.1-1.8-1.1V9.7c.1-.1.3-.2.4-.3.4-.3.2-.8-.3-.7a4.23105,4.23105,0,0,1-2.1.1C2,8.5,1.9,8.2,1.3,7.7Z"/></g></g></svg>