<?xml version="1.0" encoding="UTF-8"?>
<svg xmlns="http://www.w3.org/2000/svg" xmlns:xlink="http://www.w3.org/1999/xlink" width="413.59pt" height="427.91pt" viewBox="0 0 413.59 427.91" version="1.1">
<defs>
<clipPath id="clip1">
  <path d="M 0 0 L 413.589844 0 L 413.589844 427.910156 L 0 427.910156 Z M 0 0 "/>
</clipPath>
</defs>
<g id="surface1">
<g clip-path="url(#clip1)" clip-rule="nonzero">
<path style=" stroke:none;fill-rule:nonzero;fill:rgb(96.484375%,86.71875%,19.213867%);fill-opacity:1;" d="M 110.363281 203.597656 C 110.363281 203.597656 38.003906 128.941406 85.667969 36.480469 C 126.445313 -20.949219 197.65625 6.617188 197.65625 6.617188 C 197.65625 6.617188 225.222656 -6.589844 250.488281 14.082031 C 250.488281 14.082031 301.027344 1.449219 332.039063 47.964844 C 373.386719 112.285156 338.929688 172.585938 338.929688 172.585938 C 338.929688 172.585938 355.582031 172.585938 354.433594 192.109375 C 354.433594 192.109375 371.660156 184.644531 381.425781 193.257813 C 391.1875 201.871094 387.742188 214.507813 387.742188 214.507813 C 387.742188 214.507813 398.652344 213.359375 406.121094 230.585938 L 413.585938 247.816406 C 413.585938 247.816406 401.527344 255.28125 400.953125 258.152344 C 400.378906 261.023438 413.585938 275.382813 399.230469 288.589844 C 384.871094 301.796875 370.515625 293.183594 370.515625 293.183594 C 370.515625 293.183594 362.472656 298.351563 351.5625 295.480469 L 348.117188 296.628906 C 348.117188 296.628906 345.820313 313.285156 327.441406 312.710938 C 309.640625 308.6875 310.214844 295.480469 310.214844 295.480469 L 303.898438 295.480469 C 303.898438 295.480469 349.265625 409.761719 252.785156 424.117188 C 160.328125 441.921875 83.371094 393.683594 68.441406 348.886719 C 57.53125 315.003906 91.414063 294.332031 91.414063 294.332031 C 91.414063 294.332031 77.628906 297.203125 71.886719 287.4375 C 71.886719 287.4375 56.382813 289.164063 51.785156 285.144531 C 51.785156 285.144531 33.410156 302.371094 15.03125 294.90625 C -13.679688 281.121094 7.566406 239.773438 7.566406 239.773438 C 7.566406 239.773438 36.855469 167.988281 81.078125 177.75 C 105.195313 186.363281 100.027344 205.890625 100.027344 205.890625 C 100.027344 205.890625 107.492188 203.027344 110.363281 203.597656 "/>
</g>
<path style=" stroke:none;fill-rule:nonzero;fill:rgb(0%,0%,0%);fill-opacity:1;" d="M 194.691406 20.589844 C 194.691406 20.589844 225.367188 3.484375 246.605469 28.261719 C 246.605469 28.261719 283.769531 11.152344 317.394531 48.90625 C 342.011719 78.175781 344.339844 113.929688 336.863281 143.296875 C 328.21875 177.273438 307.367188 202.882813 307.367188 202.882813 C 307.367188 202.882813 290.972656 222.539063 284.613281 242.480469 C 280.917969 254.070313 282.230469 268.53125 286.71875 283.113281 C 300.777344 328.757813 324.476563 398.148438 250.144531 412.898438 C 175.8125 427.648438 93.808594 389.890625 79.652344 346.234375 C 65.492188 293.730469 172.207031 271.789063 220.648438 319.097656 C 220.648438 319.097656 220.058594 289.601563 192.328125 263.054688 C 164.601563 236.507813 86.730469 191.082031 80.242188 104.363281 C 76.703125 15.28125 158.113281 -2.417969 194.691406 20.589844 "/>
<path style=" stroke:none;fill-rule:nonzero;fill:rgb(96.484375%,86.71875%,19.213867%);fill-opacity:1;" d="M 205.058594 65.1875 C 205.058594 65.1875 201.164063 67.273438 200.1875 63.65625 C 199.632813 60.597656 201.996094 60.457031 201.996094 60.457031 L 200.230469 56.089844 C 197.804688 56.925781 195.9375 59.164063 195.636719 61.976563 C 195.226563 65.796875 197.871094 69.210938 201.539063 69.601563 C 202.789063 69.734375 203.992188 69.492188 205.058594 68.972656 "/>
<path style=" stroke:none;fill-rule:nonzero;fill:rgb(96.484375%,86.71875%,19.213867%);fill-opacity:1;" d="M 247.476563 66.195313 L 244.847656 66.996094 L 243.734375 69.5 C 243.734375 69.5 246.238281 71.449219 245.125 73.117188 C 244.015625 74.785156 241.230469 73.953125 241.230469 73.953125 L 241.347656 78.921875 C 243.808594 78.855469 247.808594 78.09375 249.578125 74.089844 C 250.515625 70.257813 248.992188 67.699219 247.476563 66.195313 "/>
<path style=" stroke:none;fill-rule:nonzero;fill:rgb(0%,0%,0%);fill-opacity:1;" d="M 78.457031 256.882813 C 74.761719 261.152344 70.175781 263.234375 68.210938 261.53125 C 66.246094 259.835938 67.648438 254.992188 71.34375 250.726563 C 75.039063 246.457031 79.628906 244.375 81.59375 246.070313 C 83.554688 247.773438 82.152344 252.613281 78.457031 256.882813 M 89.457031 236.734375 C 77.054688 228.109375 61.957031 245.542969 61.957031 245.542969 C 61.957031 245.542969 52.609375 257.585938 45.417969 255.25 C 39.128906 253.449219 48.117188 229.726563 57.101563 216.425781 C 57.101563 216.425781 61.597656 207.257813 67.707031 210.675781 C 72.917969 213.371094 55.484375 232.601563 60.339844 236.558594 C 62.113281 238.003906 66.566406 233.84375 71.300781 229.007813 C 80.914063 219.1875 91.769531 202.59375 81.1875 194.855469 C 64.472656 182.636719 42.003906 209.957031 31.582031 225.414063 C 19.539063 241.589844 6.238281 277.175781 22.054688 281.851563 C 33.558594 285.265625 51.171875 265.3125 51.171875 265.3125 L 53.328125 265.851563 C 53.328125 265.851563 55.125 273.222656 62.675781 274.121094 C 74.359375 274.660156 101.855469 245.363281 89.457031 236.734375 "/>
<path style=" stroke:none;fill-rule:nonzero;fill:rgb(0%,0%,0%);fill-opacity:1;" d="M 101.351563 262.109375 C 98.667969 265.933594 95.0625 268.027344 93.304688 266.792969 C 91.546875 265.558594 92.296875 261.460938 94.980469 257.636719 C 97.667969 253.8125 101.269531 251.71875 103.027344 252.949219 C 104.785156 254.1875 104.035156 258.285156 101.351563 262.109375 M 106.53125 243.207031 C 104.375 243.027344 105.992188 241.050781 105.992188 241.050781 L 112.101563 228.828125 C 112.101563 228.828125 118.035156 221.277344 113.539063 218.941406 C 108.148438 216.246094 106.890625 222.535156 106.890625 222.535156 C 106.890625 222.535156 78.132813 272.144531 80.46875 276.636719 C 85.859375 285.804688 103.296875 275.019531 109.765625 260.460938 C 116.234375 245.902344 108.6875 243.386719 106.53125 243.207031 "/>
<path style=" stroke:none;fill-rule:nonzero;fill:rgb(0%,0%,0%);fill-opacity:1;" d="M 128.234375 246.140625 C 128.234375 246.140625 129.097656 242.796875 127.480469 242.257813 C 122.949219 240.207031 120.6875 246.679688 120.6875 246.679688 C 120.6875 246.679688 112.277344 268.246094 109.039063 272.449219 C 109.039063 272.449219 107.640625 274.390625 111.195313 276.546875 C 114.757813 278.703125 117.234375 271.804688 117.234375 271.804688 C 117.234375 271.804688 125.429688 248.1875 140.636719 248.078125 C 140.636719 248.078125 144.949219 249.265625 145.058594 246.894531 C 145.164063 244.519531 143.222656 241.070313 138.480469 241.609375 C 132.007813 242.148438 128.34375 246.570313 128.34375 246.570313 "/>
<path style=" stroke:none;fill-rule:nonzero;fill:rgb(0%,0%,0%);fill-opacity:1;" d="M 144.644531 264.15625 C 142.226563 267.199219 139.003906 268.664063 137.453125 267.429688 C 135.898438 266.195313 136.597656 262.726563 139.015625 259.683594 C 141.4375 256.640625 144.65625 255.175781 146.210938 256.40625 C 147.765625 257.640625 147.0625 261.109375 144.644531 264.15625 M 166.515625 260.050781 C 166.515625 260.050781 164.574219 257.027344 161.015625 260.804688 C 156.378906 265.546875 154.4375 265.332031 153.359375 264.578125 C 152.28125 263.824219 156.488281 258.753906 156.488281 258.753906 C 156.488281 258.753906 160.261719 254.117188 153.144531 250.773438 C 143.761719 247.21875 137.183594 252.5 130.605469 259.511719 C 124.34375 266.183594 120.148438 278.921875 126.726563 280.644531 C 133.304688 282.371094 136.644531 275.144531 139.773438 275.253906 C 142.898438 275.363281 141.175781 278.703125 144.519531 279.78125 C 150.125 281.832031 162.09375 267.164063 165.222656 264.792969 C 168.347656 262.421875 166.515625 260.050781 166.515625 260.050781 "/>
<path style=" stroke:none;fill-rule:nonzero;fill:rgb(76.951599%,80.076599%,81.639099%);fill-opacity:1;" d="M 206.910156 39.371094 C 206.910156 39.371094 205.910156 28.871094 222.910156 30.371094 C 240.410156 33.371094 242.410156 42.871094 240.410156 47.871094 C 237.410156 53.871094 229.910156 45.871094 229.910156 45.871094 C 229.910156 45.871094 224.410156 42.871094 211.910156 46.371094 C 205.410156 46.871094 206.910156 39.371094 206.910156 39.371094 "/>
<path style=" stroke:none;fill-rule:nonzero;fill:rgb(76.951599%,80.076599%,81.639099%);fill-opacity:1;" d="M 199.035156 47.621094 C 200.535156 45.121094 208.035156 46.871094 209.910156 50.371094 C 209.910156 50.371094 210.910156 51.621094 213.535156 50.496094 C 216.160156 49.371094 220.285156 50.121094 221.535156 55.746094 C 222.785156 61.371094 216.910156 58.371094 213.535156 62.746094 C 209.785156 65.121094 206.046875 62.171875 205.285156 58.746094 C 204.785156 56.496094 200.535156 52.496094 200.535156 52.496094 C 200.535156 52.496094 196.910156 51.246094 199.035156 47.621094 "/>
<path style=" stroke:none;fill-rule:nonzero;fill:rgb(76.951599%,80.076599%,81.639099%);fill-opacity:1;" d="M 230.785156 50.996094 C 235.160156 50.246094 238.160156 54.496094 238.160156 54.496094 C 238.160156 54.496094 238.902344 55.234375 239.660156 55.246094 C 242.007813 55.289063 246.714844 54.859375 248.035156 56.746094 C 249.785156 59.246094 249.535156 60.871094 245.910156 61.871094 C 242.285156 62.871094 238.910156 66.621094 238.035156 68.746094 C 237.160156 70.871094 234.160156 66.871094 234.035156 64.121094 C 233.910156 61.371094 231.535156 58.371094 230.285156 58.121094 C 226.785156 57.121094 226.410156 51.746094 230.785156 50.996094 "/>
<path style=" stroke:none;fill-rule:nonzero;fill:rgb(76.951599%,80.076599%,81.639099%);fill-opacity:1;" d="M 215.285156 65.371094 C 215.285156 65.371094 218.035156 61.746094 221.035156 62.371094 C 224.035156 62.996094 224.285156 78.496094 214.785156 77.871094 C 205.285156 77.246094 207.285156 70.246094 207.285156 70.246094 C 207.285156 70.246094 207.660156 64.746094 215.285156 65.371094 "/>
<path style=" stroke:none;fill-rule:nonzero;fill:rgb(76.951599%,80.076599%,81.639099%);fill-opacity:1;" d="M 224.160156 72.496094 C 224.160156 72.496094 225.410156 63.246094 228.035156 63.121094 C 230.660156 62.996094 240.660156 77.746094 236.910156 79.871094 C 232.785156 81.371094 223.035156 80.746094 224.160156 72.496094 "/>
<path style=" stroke:none;fill-rule:nonzero;fill:rgb(76.951599%,80.076599%,81.639099%);fill-opacity:1;" d="M 190.160156 75.621094 C 188.632813 72.078125 189.035156 65.746094 192.160156 65.371094 C 192.160156 65.371094 191.410156 70.246094 196.910156 73.246094 C 196.910156 73.246094 197.785156 73.996094 196.035156 76.996094 C 193.910156 81.496094 191.5 78.726563 190.160156 75.621094 "/>
<path style=" stroke:none;fill-rule:nonzero;fill:rgb(76.951599%,80.076599%,81.639099%);fill-opacity:1;" d="M 205.410156 78.996094 C 205.410156 78.996094 200.535156 73.621094 197.785156 76.496094 C 195.035156 79.371094 202.160156 86.246094 207.160156 86.871094 C 212.160156 87.496094 216.660156 86.121094 216.660156 86.121094 L 211.535156 78.871094 C 211.535156 78.871094 207.910156 80.621094 205.410156 78.996094 "/>
<path style=" stroke:none;fill-rule:nonzero;fill:rgb(76.951599%,80.076599%,81.639099%);fill-opacity:1;" d="M 225.285156 85.871094 L 225.410156 87.746094 C 225.410156 87.746094 241.285156 97.121094 244.535156 85.746094 L 244.535156 83.996094 C 244.535156 83.996094 237.410156 85.746094 234.410156 82.496094 L 232.535156 82.246094 C 232.535156 82.246094 232.660156 86.496094 225.285156 85.871094 "/>
<path style=" stroke:none;fill-rule:nonzero;fill:rgb(76.951599%,80.076599%,81.639099%);fill-opacity:1;" d="M 209.785156 87.996094 L 209.785156 88.996094 C 209.785156 88.996094 212.910156 97.871094 221.910156 98.371094 C 230.910156 98.871094 233.160156 92.496094 233.160156 92.496094 L 232.535156 91.621094 L 226.785156 91.621094 C 226.785156 91.621094 224.785156 87.496094 221.535156 87.246094 C 218.285156 86.996094 215.535156 90.121094 215.535156 90.121094 C 215.535156 90.121094 212.535156 89.746094 209.785156 87.996094 "/>
<path style=" stroke:none;fill-rule:nonzero;fill:rgb(76.951599%,80.076599%,81.639099%);fill-opacity:1;" d="M 200.660156 89.746094 C 200.660156 89.746094 202.410156 85.621094 200.285156 85.121094 C 198.160156 84.621094 197.035156 87.746094 196.535156 90.246094 C 195.910156 93.621094 192.910156 113.371094 208.535156 117.246094 C 208.535156 117.246094 210.035156 115.371094 209.410156 112.371094 C 209.410156 112.371094 198.035156 110.621094 200.660156 89.746094 "/>
<path style=" stroke:none;fill-rule:nonzero;fill:rgb(76.951599%,80.076599%,81.639099%);fill-opacity:1;" d="M 202.285156 89.871094 C 202.285156 89.871094 198.910156 102.496094 207.285156 109.496094 C 207.285156 109.496094 206.160156 101.496094 208.535156 97.621094 C 212.410156 92.621094 207.160156 89.246094 207.160156 89.246094 C 207.160156 89.246094 203.410156 87.371094 202.285156 89.871094 "/>
<path style=" stroke:none;fill-rule:nonzero;fill:rgb(76.951599%,80.076599%,81.639099%);fill-opacity:1;" d="M 229.410156 98.621094 C 229.410156 98.621094 231.410156 108.746094 227.535156 113.121094 C 227.535156 113.121094 236.285156 112.871094 236.410156 96.996094 C 236.410156 96.996094 235.660156 94.871094 233.410156 94.871094 C 231.910156 94.871094 231.910156 97.246094 229.410156 98.621094 "/>
<path style=" stroke:none;fill-rule:nonzero;fill:rgb(76.951599%,80.076599%,81.639099%);fill-opacity:1;" d="M 226.160156 115.371094 L 225.660156 120.746094 C 225.660156 120.746094 240.660156 121.871094 242.035156 98.246094 C 242.035156 98.246094 242.160156 94.246094 239.910156 94.121094 C 235.160156 93.246094 242.035156 115.121094 226.160156 115.371094 "/>
<path style=" stroke:none;fill-rule:nonzero;fill:rgb(76.951599%,80.076599%,81.639099%);fill-opacity:1;" d="M 245.660156 81.996094 C 245.660156 81.996094 247.660156 87.496094 245.660156 89.746094 L 246.160156 91.246094 C 246.160156 91.246094 252.660156 91.496094 252.535156 83.746094 C 252.035156 79.246094 250.910156 77.746094 250.910156 77.746094 "/>
<path style=" stroke:none;fill-rule:nonzero;fill:rgb(0%,0%,0%);fill-opacity:1;" d="M 331.722656 192.109375 C 331.722656 192.109375 333.269531 185.574219 337.910156 187.121094 C 341.691406 188.324219 338.941406 195.203125 338.941406 195.203125 L 327.59375 231.824219 C 327.59375 231.824219 326.734375 234.402344 328.109375 234.917969 C 328.753906 235.023438 343.878906 217.550781 356.820313 209.128906 C 366.621094 202.078125 372.1875 204.679688 373.671875 207.582031 C 373.671875 207.582031 376.421875 212.566406 366.105469 216.695313 C 355.789063 220.820313 335.847656 235.433594 333.097656 249.703125 C 329.65625 273.601563 332.925781 290.792969 332.925781 290.792969 C 332.925781 290.792969 335.328125 297.84375 329.3125 298.1875 C 323.296875 298.53125 320.375 284.433594 324.328125 247.984375 L 323.8125 247.46875 L 311.949219 276.179688 C 311.949219 276.179688 309.886719 281.851563 304.898438 280.476563 C 298.023438 277.039063 302.320313 269.988281 302.320313 269.988281 "/>
<path style=" stroke:none;fill-rule:nonzero;fill:rgb(0%,0%,0%);fill-opacity:1;" d="M 378.65625 245.75 C 378.65625 245.75 381.53125 227.445313 389.488281 230.792969 C 391.378906 232.683594 397.738281 242.308594 391.894531 243.34375 C 388.042969 246.363281 378.65625 245.75 378.65625 245.75 "/>
<path style=" stroke:none;fill-rule:nonzero;fill:rgb(0%,0%,0%);fill-opacity:1;" d="M 356.125 266.585938 C 353.707031 269.628906 350.484375 271.09375 348.933594 269.859375 C 347.378906 268.625 348.078125 265.15625 350.496094 262.113281 C 352.917969 259.070313 356.136719 257.601563 357.691406 258.835938 C 359.242188 260.070313 358.542969 263.539063 356.125 266.585938 M 392.925781 266.722656 C 386.5625 263.285156 389.316406 272.054688 383.125 272.570313 C 376.9375 273.085938 381.234375 260.019531 384.847656 255.03125 C 388.457031 250.046875 384.328125 249.359375 380.375 249.53125 C 376.421875 249.703125 369.542969 269.476563 369.542969 269.476563 C 369.542969 269.476563 367.480469 272.742188 364.386719 272.570313 C 359.914063 272.398438 366.277344 262.082031 366.277344 262.082031 C 372.46875 253.484375 358.195313 244.890625 345.304688 259.332031 C 333.265625 270.679688 334.128906 282.539063 338.769531 283.742188 C 343.410156 284.945313 352.867188 278.414063 352.867188 278.414063 C 352.867188 278.414063 353.726563 282.023438 356.820313 282.367188 C 361.121094 282.539063 368.339844 277.039063 368.339844 277.039063 C 368.339844 277.039063 373.496094 280.304688 380.203125 280.992188 C 386.90625 281.679688 397.394531 269.988281 392.925781 266.722656 "/>
<path style=" stroke:none;fill-rule:nonzero;fill:rgb(0%,0%,0%);fill-opacity:1;" d="M 389.863281 284.882813 L 390.300781 284.882813 C 390.800781 284.882813 391.226563 284.699219 391.226563 284.230469 C 391.226563 283.894531 390.984375 283.5625 390.300781 283.5625 C 390.105469 283.5625 389.96875 283.578125 389.863281 283.59375 Z M 389.863281 286.984375 L 389.257813 286.984375 L 389.257813 283.183594 C 389.574219 283.140625 389.878906 283.09375 390.332031 283.09375 C 390.90625 283.09375 391.285156 283.214844 391.515625 283.382813 C 391.738281 283.546875 391.863281 283.804688 391.863281 284.167969 C 391.863281 284.667969 391.527344 284.972656 391.117188 285.09375 L 391.117188 285.121094 C 391.453125 285.183594 391.679688 285.484375 391.757813 286.046875 C 391.847656 286.636719 391.9375 286.863281 391.996094 286.984375 L 391.363281 286.984375 C 391.269531 286.863281 391.179688 286.515625 391.105469 286.015625 C 391.015625 285.53125 390.769531 285.351563 390.285156 285.351563 L 389.863281 285.351563 Z M 390.496094 282.121094 C 389 282.121094 387.769531 283.410156 387.769531 285.003906 C 387.769531 286.621094 389 287.894531 390.515625 287.894531 C 392.027344 287.910156 393.238281 286.621094 393.238281 285.015625 C 393.238281 283.410156 392.027344 282.121094 390.515625 282.121094 Z M 390.515625 281.59375 C 392.378906 281.59375 393.859375 283.109375 393.859375 285.003906 C 393.859375 286.925781 392.378906 288.425781 390.496094 288.425781 C 388.636719 288.425781 387.121094 286.925781 387.121094 285.003906 C 387.121094 283.109375 388.636719 281.59375 390.496094 281.59375 "/>
<path style=" stroke:none;fill-rule:nonzero;fill:rgb(87.889099%,25.87738%,23.143005%);fill-opacity:1;" d="M 180.910156 65.371094 C 175.410156 63.371094 168.410156 44.371094 149.410156 44.371094 C 130.410156 44.371094 104.269531 54.832031 104.652344 90.144531 C 105.085938 105.164063 109.03125 116.726563 113.027344 124.03125 C 120.429688 137.566406 129.496094 140.121094 129.496094 140.121094 C 129.496094 140.121094 147.152344 145.640625 148.152344 151.640625 C 149.152344 157.640625 147.339844 165.011719 155.101563 167.253906 C 163.667969 169.726563 162.8125 189.8125 157.910156 191.371094 C 154.28125 192.527344 149.628906 180.871094 149.410156 173.871094 C 149.292969 170.109375 145.199219 174.296875 142.410156 174.371094 C 136.347656 175.914063 137.390625 160.714844 116.550781 149.832031 C 103.507813 141.933594 78.410156 83.871094 105.410156 50.371094 C 132.410156 16.871094 171.410156 40.371094 171.410156 40.371094 C 171.410156 40.371094 178.410156 46.871094 189.910156 41.371094 C 201.410156 35.871094 197.410156 43.871094 192.410156 51.371094 C 187.410156 58.871094 186.410156 67.371094 180.910156 65.371094 "/>
<path style=" stroke:none;fill-rule:nonzero;fill:rgb(87.889099%,25.87738%,23.143005%);fill-opacity:1;" d="M 153.304688 85.222656 C 153.304688 85.222656 153.863281 72.003906 166.523438 74.230469 C 175.984375 77.011719 166.242188 90.230469 166.242188 90.230469 C 166.242188 90.230469 163.601563 92.871094 164.15625 99.691406 C 164.574219 104.976563 153.167969 100.523438 153.304688 85.222656 "/>
<path style=" stroke:none;fill-rule:nonzero;fill:rgb(87.889099%,25.87738%,23.143005%);fill-opacity:1;" d="M 259.039063 107.757813 C 259.039063 107.757813 256.53125 95.378906 262.238281 94.542969 C 269.191406 93.566406 276.984375 114.296875 257.925781 119.722656 C 257.925781 119.722656 255.28125 120.417969 255.421875 118.054688 C 255.558594 115.6875 260.152344 114.855469 259.039063 107.757813 "/>
<path style=" stroke:none;fill-rule:nonzero;fill:rgb(87.889099%,25.87738%,23.143005%);fill-opacity:1;" d="M 254.445313 53.917969 C 257.226563 52.109375 260.84375 56.285156 268.773438 54.613281 C 276.703125 52.945313 316.769531 43.347656 327.203125 89.8125 C 340.144531 143.929688 296.320313 152.277344 296.320313 152.277344 C 296.320313 152.277344 280.878906 156.308594 278.375 173.5625 C 276.007813 188.027344 263.628906 181.492188 263.628906 181.492188 C 263.628906 181.492188 262.515625 179.125 257.226563 191.925781 C 257.226563 191.925781 257.367188 193.316406 254.585938 193.316406 C 252.078125 193.453125 252.496094 189.976563 252.496094 189.976563 C 252.496094 189.976563 250.6875 173.144531 259.035156 171.335938 C 265.019531 170.082031 262.097656 162.429688 262.097656 162.429688 C 262.097656 162.429688 260.84375 154.363281 269.746094 151.578125 C 278.652344 148.796875 278.929688 146.988281 282.269531 142.953125 C 287.277344 135.996094 297.433594 134.886719 297.433594 134.886719 C 297.433594 134.886719 319.832031 130.019531 318.023438 103.585938 C 316.214844 77.152344 305.222656 66.441406 290.058594 63.65625 C 274.894531 60.875 268.496094 72.5625 268.496094 72.5625 C 268.496094 72.5625 266.675781 79.226563 262.515625 78.820313 C 256.808594 78.265625 256.949219 70.195313 256.949219 70.195313 C 256.949219 70.195313 257.503906 63.933594 255.835938 62.960938 C 254.167969 61.988281 252.890625 54.929688 254.445313 53.917969 "/>
<path style=" stroke:none;fill-rule:nonzero;fill:rgb(87.889099%,25.87738%,23.143005%);fill-opacity:1;" d="M 210.027344 347.070313 L 209.910156 345.996094 C 209.910156 345.996094 150.285156 318.746094 148.035156 339.121094 C 145.785156 359.496094 188.027344 363.570313 210.027344 347.070313 "/>
<path style=" stroke:none;fill-rule:nonzero;fill:rgb(87.889099%,25.87738%,23.143005%);fill-opacity:1;" d="M 159.285156 324.246094 C 157.410156 325.371094 158.660156 327.996094 160.535156 327.746094 C 162.410156 327.496094 165.160156 327.496094 167.910156 323.121094 C 170.660156 318.746094 169.410156 317.246094 168.035156 316.871094 C 162.410156 314.746094 164.160156 322.746094 159.285156 324.246094 "/>
<path style=" stroke:none;fill-rule:nonzero;fill:rgb(87.889099%,25.87738%,23.143005%);fill-opacity:1;" d="M 172.410156 322.371094 C 172.410156 322.371094 173.035156 313.246094 180.410156 315.121094 C 187.003906 316.800781 181.785156 331.746094 169.160156 328.996094 C 169.160156 328.996094 167.410156 328.371094 167.535156 326.621094 C 167.644531 325.117188 168.410156 323.621094 172.410156 322.371094 "/>
<path style=" stroke:none;fill-rule:nonzero;fill:rgb(87.889099%,25.87738%,23.143005%);fill-opacity:1;" d="M 185.785156 322.496094 C 185.785156 322.496094 183.785156 327.121094 180.535156 327.996094 C 177.285156 328.871094 178.285156 331.996094 181.285156 332.371094 C 184.285156 332.746094 192.535156 331.496094 196.035156 324.246094 C 199.535156 316.996094 190.785156 316.371094 190.785156 316.371094 C 190.785156 316.371094 185.410156 315.246094 185.785156 322.496094 "/>
<path style=" stroke:none;fill-rule:nonzero;fill:rgb(87.889099%,25.87738%,23.143005%);fill-opacity:1;" d="M 199.535156 322.871094 C 199.535156 322.871094 195.785156 331.496094 188.160156 332.621094 C 188.160156 332.621094 185.785156 334.121094 189.535156 335.871094 C 193.285156 337.621094 204.535156 336.996094 208.285156 329.246094 C 212.035156 321.496094 205.785156 319.871094 205.785156 319.871094 C 205.785156 319.871094 201.410156 317.871094 199.535156 322.871094 "/>
<path style=" stroke:none;fill-rule:nonzero;fill:rgb(87.889099%,25.87738%,23.143005%);fill-opacity:1;" d="M 241.578125 330.660156 C 241.578125 330.660156 232.128906 328.34375 230.914063 334.089844 C 229.699219 339.832031 235.773438 352.320313 262.90625 353.480469 C 290.035156 354.640625 296.226563 351.824219 296.003906 340.828125 C 295.5625 332.042969 283.902344 332.929688 283.902344 332.929688 C 283.902344 332.929688 262.464844 334.804688 241.578125 330.660156 "/>
<path style=" stroke:none;fill-rule:nonzero;fill:rgb(87.889099%,25.87738%,23.143005%);fill-opacity:1;" d="M 233.621094 347.34375 C 233.621094 347.34375 249.425781 357.507813 267.601563 357.121094 C 285.78125 356.734375 290.921875 354.636719 292.300781 358.28125 C 293.683594 361.929688 296.335938 380.933594 263.183594 376.292969 C 231.800781 370.878906 225.5 357.285156 225.5 357.285156 C 225.5 357.285156 222.902344 353.199219 225.609375 348.390625 C 228.429688 343.859375 233.621094 347.34375 233.621094 347.34375 "/>
<path style=" stroke:none;fill-rule:nonzero;fill:rgb(87.889099%,25.87738%,23.143005%);fill-opacity:1;" d="M 229.285156 365.746094 C 244.035156 377.621094 264.363281 379.9375 275.910156 379.496094 C 275.910156 379.496094 282.796875 379.21875 283.074219 386.675781 C 283.351563 394.136719 258.484375 397.449219 241.855469 390.15625 C 225.222656 384.132813 212.902344 367.394531 217.710938 362.695313 C 217.710938 362.695313 221.273438 358.621094 229.285156 365.746094 "/>
<path style=" stroke:none;fill-rule:nonzero;fill:rgb(87.889099%,25.87738%,23.143005%);fill-opacity:1;" d="M 128.535156 368.496094 C 128.535156 368.496094 134.035156 365.996094 139.035156 377.371094 C 144.035156 388.746094 151.535156 391.621094 147.285156 394.246094 C 140.285156 396.496094 122.660156 370.621094 128.535156 368.496094 "/>
<path style=" stroke:none;fill-rule:nonzero;fill:rgb(87.889099%,25.87738%,23.143005%);fill-opacity:1;" d="M 194.226563 174.105469 C 208.179688 174.417969 230.507813 174.105469 239.5 167.59375 C 246.015625 162.011719 248.804688 176.898438 248.804688 176.898438 C 248.804688 176.898438 253.144531 190.234375 245.394531 190.851563 C 237.640625 191.472656 235.777344 182.480469 208.488281 185.582031 C 183.371094 186.820313 177.789063 190.542969 177.789063 190.542969 C 177.789063 190.542969 175 193.335938 170.035156 192.402344 C 165.074219 191.472656 164.453125 184.960938 165.074219 177.828125 C 165.695313 170.695313 165.695313 165.425781 170.65625 164.804688 C 180.582031 163.5625 177.789063 174.726563 194.226563 174.105469 "/>
<path style=" stroke:none;fill-rule:nonzero;fill:rgb(87.889099%,25.87738%,23.143005%);fill-opacity:1;" d="M 174.378906 230.855469 C 174.378906 230.855469 168.796875 206.050781 222.757813 204.808594 C 261.828125 205.117188 261.519531 225.894531 254.074219 225.585938 C 254.074219 225.585938 221.824219 208.222656 185.851563 235.199219 C 175.617188 240.472656 174.378906 230.855469 174.378906 230.855469 "/>
<path style=" stroke:none;fill-rule:nonzero;fill:rgb(87.889099%,25.87738%,23.143005%);fill-opacity:1;" d="M 226.785156 224.035156 C 208.644531 224.890625 189.417969 234.113281 186.78125 241.402344 C 185.542969 246.054688 191.433594 258.457031 202.597656 252.5625 C 213.761719 246.671875 225.769531 238.011719 245.703125 241.710938 C 267.410156 245.742188 264.621094 242.640625 263.378906 236.75 C 261.984375 230.703125 248.183594 222.796875 226.785156 224.035156 "/>
<path style=" stroke:none;fill-rule:nonzero;fill:rgb(87.889099%,25.87738%,23.143005%);fill-opacity:1;" d="M 243.222656 243.570313 C 243.222656 243.570313 221.207031 242.644531 204.460938 253.804688 C 204.460938 253.804688 197.328125 257.21875 202.289063 265.277344 C 207.25 273.34375 221.824219 266.828125 221.824219 266.828125 C 221.824219 266.828125 241.050781 257.21875 261.828125 262.488281 C 278.574219 267.140625 274.234375 258.765625 274.234375 258.765625 C 274.234375 258.765625 275.472656 245.121094 243.222656 243.570313 "/>
<path style=" stroke:none;fill-rule:nonzero;fill:rgb(87.889099%,25.87738%,23.143005%);fill-opacity:1;" d="M 216.863281 286.367188 C 216.863281 286.367188 208.183594 266.210938 244.773438 264.347656 C 281.363281 262.488281 279.503906 283.265625 279.503906 283.265625 C 279.503906 283.265625 278.972656 288.925781 266.171875 284.195313 C 251.90625 278.925781 234.230469 288.535156 234.230469 288.535156 C 234.230469 288.535156 221.824219 295.359375 216.863281 286.367188 "/>
<path style=" stroke:none;fill-rule:nonzero;fill:rgb(87.889099%,25.87738%,23.143005%);fill-opacity:1;" d="M 224.617188 299.390625 C 224.925781 295.050781 237.949219 285.128906 259.96875 286.058594 C 281.984375 286.984375 285.085938 296.601563 285.707031 300.632813 C 286.328125 304.664063 283.847656 306.523438 277.644531 305.28125 C 271.441406 304.042969 259.96875 301.253906 240.742188 306.523438 C 228.027344 310.242188 224.304688 303.730469 224.617188 299.390625 "/>
<path style=" stroke:none;fill-rule:nonzero;fill:rgb(87.889099%,25.87738%,23.143005%);fill-opacity:1;" d="M 262.449219 306.523438 C 262.449219 306.523438 231.75 305.902344 228.957031 318.929688 C 227.097656 330.710938 271.441406 331.019531 271.441406 331.019531 C 271.441406 331.019531 290.976563 331.644531 290.976563 321.71875 C 290.976563 311.796875 278.886719 307.453125 262.449219 306.523438 "/>
<path style=" stroke:none;fill-rule:nonzero;fill:rgb(87.889099%,25.87738%,23.143005%);fill-opacity:1;" d="M 218.101563 374.742188 C 212.832031 366.992188 206.320313 372.574219 206.320313 374.742188 C 206.320313 376.914063 202.289063 389.007813 228.957031 402.03125 C 249.425781 411.644531 263.378906 400.480469 262.140625 399.242188 C 260.898438 398.003906 263.070313 396.761719 252.214844 396.140625 C 243.1875 395.625 225.546875 389.011719 218.101563 374.742188 "/>
<path style=" stroke:none;fill-rule:nonzero;fill:rgb(87.889099%,25.87738%,23.143005%);fill-opacity:1;" d="M 146.160156 371.644531 C 152.980469 369.78125 154.53125 384.355469 159.804688 390.558594 C 164.871094 396.523438 168.175781 401.722656 163.214844 401.722656 C 155.152344 399.242188 135.617188 373.8125 146.160156 371.644531 "/>
<path style=" stroke:none;fill-rule:nonzero;fill:rgb(87.889099%,25.87738%,23.143005%);fill-opacity:1;" d="M 163.035156 391.003906 C 163.035156 391.003906 154.398438 377.886719 159.59375 374.929688 C 164.792969 371.96875 168.390625 380.285156 173.109375 389.804688 C 177.828125 399.320313 185.746094 404.039063 183.265625 406.679688 C 180.789063 409.316406 169.59375 402.839844 163.035156 391.003906 "/>
<path style=" stroke:none;fill-rule:nonzero;fill:rgb(87.889099%,25.87738%,23.143005%);fill-opacity:1;" d="M 173.910156 377.488281 C 173.910156 377.488281 180.789063 372.929688 189.824219 388.441406 C 198.863281 403.957031 201.5 405.71875 205.660156 407.636719 C 205.660156 407.636719 206.777344 408.4375 205.980469 409.476563 C 205.179688 410.515625 188.546875 412.835938 177.269531 393.003906 C 169.191406 379.085938 173.910156 377.488281 173.910156 377.488281 "/>
<path style=" stroke:none;fill-rule:nonzero;fill:rgb(87.889099%,25.87738%,23.143005%);fill-opacity:1;" d="M 192.382813 382.285156 C 192.382813 382.285156 199.101563 377.890625 206.617188 389.882813 C 214.136719 401.878906 231.332031 405.476563 231.332031 405.476563 C 231.332031 405.476563 232.769531 405.800781 232.449219 407.636719 C 232.132813 409.476563 214.535156 412.996094 201.179688 401 C 187.824219 389.003906 190.066406 383.164063 192.382813 382.285156 "/>
<path style=" stroke:none;fill-rule:nonzero;fill:rgb(87.889099%,25.87738%,23.143005%);fill-opacity:1;" d="M 167.566406 93.265625 C 167.566406 93.265625 168.867188 86.550781 178.832031 90.015625 C 188.796875 93.480469 193.773438 101.484375 195.078125 105.394531 C 196.8125 110.59375 202.878906 117.527344 207.210938 118.394531 L 207.859375 120.992188 C 207.859375 120.992188 195.945313 118.175781 190.746094 112.328125 C 185.546875 106.476563 177.75 102.578125 171.46875 102.578125 C 164.96875 99.546875 167.566406 93.265625 167.566406 93.265625 "/>
<path style=" stroke:none;fill-rule:nonzero;fill:rgb(87.889099%,25.87738%,23.143005%);fill-opacity:1;" d="M 236.453125 116.660156 L 236.453125 118.394531 C 236.453125 118.394531 252.050781 118.609375 253.132813 111.679688 C 254.214844 104.746094 251.617188 101.0625 248.148438 101.929688 C 242.734375 102.578125 240.136719 115.792969 236.453125 116.660156 "/>
<path style=" stroke:none;fill-rule:nonzero;fill:rgb(87.889099%,25.87738%,23.143005%);fill-opacity:1;" d="M 163.234375 105.613281 C 163.234375 105.613281 159.335938 111.242188 166.703125 116.226563 C 174.066406 121.210938 193.347656 127.058594 199.195313 132.039063 C 204.828125 134.421875 204.828125 128.140625 204.828125 128.140625 C 204.828125 128.140625 206.777344 122.941406 204.394531 121.859375 C 192.910156 120.125 175.582031 97.164063 163.234375 105.613281 "/>
<path style=" stroke:none;fill-rule:nonzero;fill:rgb(87.889099%,25.87738%,23.143005%);fill-opacity:1;" d="M 158.902344 120.992188 C 157.386719 127.707031 162.585938 143.304688 208.292969 150.019531 C 208.292969 150.019531 209.160156 150.453125 210.675781 148.503906 C 212.191406 146.554688 214.574219 142.4375 214.574219 142.4375 C 214.574219 142.4375 215.871094 139.839844 213.273438 138.972656 C 210.675781 138.105469 184.464844 129.222656 172.984375 121.640625 C 172.984375 121.640625 161.71875 114.492188 158.902344 120.992188 "/>
<path style=" stroke:none;fill-rule:nonzero;fill:rgb(87.889099%,25.87738%,23.143005%);fill-opacity:1;" d="M 229.304688 122.726563 C 229.304688 122.726563 231.472656 122.507813 231.902344 120.992188 C 231.902344 120.992188 242.085938 121.644531 246.851563 118.824219 C 246.851563 118.824219 252.050781 116.441406 253.132813 121.640625 C 254.214844 126.839844 254.433594 131.824219 244.683594 133.554688 C 234.9375 135.289063 232.988281 133.773438 232.988281 133.773438 C 232.988281 133.773438 234.070313 125.972656 230.820313 124.890625 "/>
<path style=" stroke:none;fill-rule:nonzero;fill:rgb(87.889099%,25.87738%,23.143005%);fill-opacity:1;" d="M 232.554688 137.453125 C 232.554688 137.453125 231.902344 144.171875 230.605469 145.6875 C 230.605469 145.6875 233.871094 151.085938 239.269531 151.535156 C 247.066406 152.183594 254.867188 141.136719 250.75 135.070313 C 247.5 132.257813 245.765625 136.804688 232.554688 137.453125 "/>
<path style=" stroke:none;fill-rule:nonzero;fill:rgb(96.484375%,86.71875%,19.213867%);fill-opacity:1;" d="M 211.039063 107.0625 C 211.039063 107.0625 210.066406 101.914063 211.875 101.636719 C 213.683594 101.359375 215.910156 102.75 216.882813 105.53125 C 217.855469 108.316406 219.246094 107.339844 220.222656 105.53125 C 221.195313 103.722656 223.980469 102.332031 224.953125 104.699219 C 225.925781 107.0625 225.648438 119.167969 222.726563 121.671875 C 222.726563 121.671875 215.773438 121.253906 210.625 129.183594 C 210.625 129.183594 207.007813 129.183594 207.425781 126.957031 C 207.839844 124.730469 212.710938 119.722656 211.039063 107.0625 "/>
<path style=" stroke:none;fill-rule:nonzero;fill:rgb(96.484375%,86.71875%,19.213867%);fill-opacity:1;" d="M 207.839844 129.320313 C 207.839844 129.320313 205.476563 128.90625 205.476563 130.992188 C 205.613281 134.332031 211.179688 137.390625 217.160156 130.851563 C 217.160156 130.851563 219.945313 128.488281 220.640625 131.410156 C 221.335938 134.332031 218.273438 150.191406 208.257813 157.007813 L 208.953125 159.929688 C 208.953125 159.929688 215.910156 159.929688 221.890625 151.441406 L 222.726563 151.441406 C 222.726563 151.441406 229.546875 162.570313 235.386719 162.015625 L 235.386719 160.207031 C 235.386719 160.207031 227.457031 152.554688 228.570313 145.320313 C 229.683594 138.085938 232.050781 124.871094 226.34375 123.339844 C 215.769531 120.695313 213.546875 133.496094 207.839844 129.320313 "/>
</g>
</svg>
