<?xml version="1.0" encoding="iso-8859-1"?>
<!-- Generator: Adobe Illustrator 19.0.0, SVG Export Plug-In . SVG Version: 6.00 Build 0)  -->
<svg version="1.1" id="Capa_1" xmlns="http://www.w3.org/2000/svg" xmlns:xlink="http://www.w3.org/1999/xlink" x="0px" y="0px"
	 viewBox="0 0 512 512" style="enable-background:new 0 0 512 512;" xml:space="preserve">
<linearGradient id="SVGID_1_" gradientUnits="userSpaceOnUse" x1="393.7653" y1="89.9248" x2="451.2253" y2="32.4648" gradientTransform="matrix(1.0667 0 0 -1.0667 3.2667 557.5322)">
	<stop  offset="0" style="stop-color:#97AAAA"/>
	<stop  offset="1" style="stop-color:#E8EFEE"/>
</linearGradient>
<path style="fill:url(#SVGID_1_);" d="M485.275,102.733v383.193c0,13.276-10.774,24.05-24.05,24.05H50.775
	c-13.276,0-24.05-10.774-24.05-24.05V102.733c0-13.276,10.774-24.05,24.05-24.05h410.449
	C474.5,78.683,485.275,89.458,485.275,102.733z"/>
<linearGradient id="SVGID_2_" gradientUnits="userSpaceOnUse" x1="236.9375" y1="359.797" x2="236.9375" y2="138.587" gradientTransform="matrix(1.0667 0 0 -1.0667 3.2667 557.5322)">
	<stop  offset="0" style="stop-color:#FFFFFF"/>
	<stop  offset="1" style="stop-color:#E8EFEE"/>
</linearGradient>
<path style="fill:url(#SVGID_2_);" d="M364.208,509.976H50.775c-13.282,0-24.05-10.767-24.05-24.05V102.733
	c0-13.282,10.767-24.05,24.05-24.05h410.449c13.282,0,24.05,10.767,24.05,24.05v292.474c0,3.68-1.447,7.213-4.031,9.835
	l-93.815,95.216C381.301,506.474,372.938,509.976,364.208,509.976z"/>
<linearGradient id="SVGID_3_" gradientUnits="userSpaceOnUse" x1="335.554" y1="74.4664" x2="-3.4359" y2="44.7464" gradientTransform="matrix(1.0667 0 0 -1.0667 3.2667 557.5322)">
	<stop  offset="0" style="stop-color:#C2CECE;stop-opacity:0"/>
	<stop  offset="0.179" style="stop-color:#AFBCBC;stop-opacity:0.179"/>
	<stop  offset="1" style="stop-color:#5B6A6A"/>
</linearGradient>
<path style="fill:url(#SVGID_3_);" d="M485.275,466.686v19.239c0,13.276-10.774,24.05-24.05,24.05H50.775
	c-13.276,0-24.05-10.774-24.05-24.05v-19.239H485.275z"/>
<linearGradient id="SVGID_4_" gradientUnits="userSpaceOnUse" x1="276.4857" y1="372.1129" x2="-62.5043" y2="61.6129" gradientTransform="matrix(1.0667 0 0 -1.0667 3.2667 557.5322)">
	<stop  offset="0" style="stop-color:#C2CECE;stop-opacity:0"/>
	<stop  offset="0.179" style="stop-color:#AFBCBC;stop-opacity:0.179"/>
	<stop  offset="1" style="stop-color:#5B6A6A"/>
</linearGradient>
<path style="fill:url(#SVGID_4_);" d="M485.275,306.355V102.733c0-13.282-10.767-24.05-24.05-24.05H50.775
	c-13.282,0-24.05,10.767-24.05,24.05v203.621C26.725,307.815,485.275,306.355,485.275,306.355z"/>
<linearGradient id="SVGID_5_" gradientUnits="userSpaceOnUse" x1="353.726" y1="136.1409" x2="398.1586" y2="91.7183" gradientTransform="matrix(1.0667 0 0 -1.0667 3.2667 557.5322)">
	<stop  offset="0" style="stop-color:#FFFFFF"/>
	<stop  offset="1" style="stop-color:#E8EFEE"/>
</linearGradient>
<path style="fill:url(#SVGID_5_);" d="M484.043,400.95c0,0-0.71,2.013-3.508,4.811c-1.039,1.039-92.556,93.937-92.556,93.937
	c-6.479,6.576-15.326,10.278-24.558,10.278l0,0l0,0c7.969,0,14.43-6.461,14.43-14.43V425c0-13.282,10.767-24.05,24.05-24.05
	L484.043,400.95L484.043,400.95z"/>
<circle style="fill:#1ACEB8;" cx="116.747" cy="208.085" r="15.472"/>
<circle style="fill:#D63305;" cx="116.747" cy="274.197" r="15.472"/>
<g>
	<circle style="fill:#1ACEB8;" cx="116.747" cy="341.717" r="15.472"/>
	<circle style="fill:#1ACEB8;" cx="116.747" cy="409.237" r="15.472"/>
</g>
<g>
	<rect x="154.731" y="198.933" style="fill:#C2CECE;" width="256" height="17.636"/>
	<rect x="154.731" y="266.271" style="fill:#C2CECE;" width="256" height="17.636"/>
	<rect x="154.731" y="333.61" style="fill:#C2CECE;" width="256" height="17.636"/>
	<rect x="154.731" y="400.949" style="fill:#C2CECE;" width="202.272" height="17.636"/>
</g>
<linearGradient id="SVGID_6_" gradientUnits="userSpaceOnUse" x1="335.9245" y1="328.974" x2="-15.4094" y2="680.304" gradientTransform="matrix(1.0667 0 0 -1.0667 3.2667 557.5322)">
	<stop  offset="0" style="stop-color:#C2CECE;stop-opacity:0"/>
	<stop  offset="0.179" style="stop-color:#AFBCBC;stop-opacity:0.179"/>
	<stop  offset="1" style="stop-color:#5B6A6A"/>
</linearGradient>
<path style="fill:url(#SVGID_6_);" d="M425.666,509.976h38.509c11.652,0,21.099-9.446,21.099-21.099V99.782
	c0-11.652-9.446-21.099-21.099-21.099H47.824c-11.652,0-21.099,9.446-21.099,21.099v11.252L425.666,509.976z"/>
<linearGradient id="SVGID_7_" gradientUnits="userSpaceOnUse" x1="236.9375" y1="450.5269" x2="236.9375" y2="418.597" gradientTransform="matrix(1.0667 0 0 -1.0667 3.2667 557.5322)">
	<stop  offset="0" style="stop-color:#FFC200"/>
	<stop  offset="0.268" style="stop-color:#FFBB00"/>
	<stop  offset="0.659" style="stop-color:#FFA801"/>
	<stop  offset="1" style="stop-color:#FF9102"/>
</linearGradient>
<path style="fill:url(#SVGID_7_);" d="M490.901,109.627H21.099C9.446,109.627,0,100.182,0,88.529V23.123
	C0,11.47,9.446,2.024,21.099,2.024h469.803C502.554,2.024,512,11.47,512,23.123V88.53C512,100.182,502.554,109.627,490.901,109.627z
	"/>
<g>
</g>
<g>
</g>
<g>
</g>
<g>
</g>
<g>
</g>
<g>
</g>
<g>
</g>
<g>
</g>
<g>
</g>
<g>
</g>
<g>
</g>
<g>
</g>
<g>
</g>
<g>
</g>
<g>
</g>
</svg>
