<?xml version="1.0" encoding="iso-8859-1"?>
<!-- Generator: Adobe Illustrator 19.0.0, SVG Export Plug-In . SVG Version: 6.00 Build 0)  -->
<svg version="1.1" id="Capa_1" xmlns="http://www.w3.org/2000/svg" xmlns:xlink="http://www.w3.org/1999/xlink" x="0px" y="0px"
	 viewBox="0 0 512 512" style="enable-background:new 0 0 512 512;" xml:space="preserve">
<linearGradient id="SVGID_1_" gradientUnits="userSpaceOnUse" x1="236.8377" y1="277.8372" x2="247.1877" y2="787.5172" gradientTransform="matrix(1.0667 0 0 -1.0667 3.2667 557.5332)">
	<stop  offset="0" style="stop-color:#97AAAA"/>
	<stop  offset="1" style="stop-color:#E8EFEE"/>
</linearGradient>
<path style="fill:url(#SVGID_1_);" d="M456.025,70.524l55.506,280.949c2.606,13.189-5.984,26.007-19.172,28.613L84.584,460.648
	c-13.189,2.606-26.007-5.984-28.613-19.172L0.466,160.527c-2.606-13.189,5.984-26.007,19.172-28.613l407.774-80.562
	C440.601,48.746,453.419,57.335,456.025,70.524z"/>
<linearGradient id="SVGID_2_" gradientUnits="userSpaceOnUse" x1="260.4018" y1="171.2184" x2="273.4618" y2="109.1884" gradientTransform="matrix(1.0667 0 0 -1.0667 3.2667 557.5332)">
	<stop  offset="0" style="stop-color:#363F3E;stop-opacity:0"/>
	<stop  offset="1" style="stop-color:#303033"/>
</linearGradient>
<path style="fill:url(#SVGID_2_);" d="M492.357,380.089L84.586,460.644c-13.188,2.612-26.004-5.979-28.617-19.167l-3.657-18.516
	c4.005,1.253,8.382,1.555,12.794,0.685L456.021,70.519l55.515,280.953C514.136,364.66,505.545,377.476,492.357,380.089z"/>
<linearGradient id="SVGID_3_" gradientUnits="userSpaceOnUse" x1="382.349" y1="128.7392" x2="433.749" y2="77.3292" gradientTransform="matrix(1.0667 0 0 -1.0667 3.2667 557.5332)">
	<stop  offset="0" style="stop-color:#97AAAA"/>
	<stop  offset="1" style="stop-color:#E8EFEE"/>
</linearGradient>
<path style="fill:url(#SVGID_3_);" d="M493.635,127.339v286.38c0,13.444-10.911,24.355-24.355,24.355H53.624
	c-13.444,0-24.355-10.911-24.355-24.355v-286.38c0-13.444,10.911-24.355,24.355-24.355H469.28
	C482.724,102.984,493.635,113.894,493.635,127.339z"/>
<linearGradient id="SVGID_4_" gradientUnits="userSpaceOnUse" x1="242.0487" y1="436.0274" x2="242.0487" y2="103.1174" gradientTransform="matrix(1.0667 0 0 -1.0667 3.2667 557.5332)">
	<stop  offset="0" style="stop-color:#FFFFFF"/>
	<stop  offset="1" style="stop-color:#E8EFEE"/>
</linearGradient>
<path style="fill:url(#SVGID_4_);" d="M371.032,438.074H53.624c-13.451,0-24.355-10.905-24.355-24.355v-286.38
	c0-13.451,10.905-24.355,24.355-24.355H469.28c13.451,0,24.355,10.905,24.355,24.355v194.51c0,3.727-1.467,7.305-4.082,9.959
	l-95.005,96.423C388.343,434.528,379.872,438.074,371.032,438.074z"/>
<linearGradient id="SVGID_5_" gradientUnits="userSpaceOnUse" x1="242.0487" y1="328.1074" x2="242.0487" y2="85.7274" gradientTransform="matrix(1.0667 0 0 -1.0667 3.2667 557.5332)">
	<stop  offset="0" style="stop-color:#3FA9F5"/>
	<stop  offset="1" style="stop-color:#0071E2"/>
</linearGradient>
<path style="fill:url(#SVGID_5_);" d="M458.32,149.114v214.398c-16.218,16.462-35.42,35.941-48.364,49.084H85.237
	c-11.401,0-20.653-9.252-20.653-20.653V149.114c0-11.401,9.252-20.653,20.653-20.653h352.43
	C449.068,128.461,458.32,137.713,458.32,149.114z"/>
<linearGradient id="SVGID_6_" gradientUnits="userSpaceOnUse" x1="242.0487" y1="137.9374" x2="242.0487" y2="107.8474" gradientTransform="matrix(1.0667 0 0 -1.0667 3.2667 557.5332)">
	<stop  offset="0" style="stop-color:#C2CECE;stop-opacity:0"/>
	<stop  offset="0.179" style="stop-color:#AFBCBC;stop-opacity:0.179"/>
	<stop  offset="1" style="stop-color:#5B6A6A"/>
</linearGradient>
<path style="fill:url(#SVGID_6_);" d="M493.635,394.235v19.484c0,13.444-10.911,24.355-24.355,24.355H53.624
	c-13.444,0-24.355-10.911-24.355-24.355v-19.484H493.635z"/>
<linearGradient id="SVGID_7_" gradientUnits="userSpaceOnUse" x1="232.2152" y1="164.0954" x2="99.3352" y2="296.9654" gradientTransform="matrix(1.0667 0 0 -1.0667 3.2667 557.5332)">
	<stop  offset="1.000000e-004" style="stop-color:#008BF2;stop-opacity:0"/>
	<stop  offset="1" style="stop-color:#0046E2"/>
</linearGradient>
<path style="fill:url(#SVGID_7_);" d="M64.705,394.143c0.064,0.605,0.158,1.2,0.273,1.788c0.021,0.109,0.043,0.218,0.066,0.326
	c0.123,0.578,0.269,1.148,0.439,1.708c0.03,0.098,0.063,0.195,0.095,0.293c0.183,0.571,0.385,1.133,0.615,1.681
	c0.021,0.05,0.045,0.097,0.066,0.147c0.226,0.525,0.475,1.037,0.741,1.538c0.039,0.075,0.077,0.151,0.117,0.226
	c0.273,0.498,0.571,0.98,0.882,1.452c0.07,0.107,0.14,0.213,0.212,0.318c0.31,0.451,0.638,0.89,0.982,1.313
	c0.086,0.106,0.175,0.21,0.262,0.315c0.354,0.419,0.721,0.828,1.106,1.217c0.081,0.081,0.165,0.159,0.247,0.239
	c0.364,0.356,0.74,0.699,1.13,1.027c0.075,0.063,0.145,0.129,0.221,0.191c3.562,2.918,8.113,4.672,13.074,4.672h324.719
	c10.13-10.285,24.091-24.449,37.457-38.014L337.691,273.928c-8.48-7.779-21.501-7.779-29.981,0l-48.684,44.66l-76.543-76.499
	c-9.07-10.86-26.039-10.575-34.686,0.868L64.584,353.074v38.867c0,0.655,0.038,1.3,0.098,1.94
	C64.69,393.968,64.695,394.056,64.705,394.143z"/>
<linearGradient id="SVGID_8_" gradientUnits="userSpaceOnUse" x1="280.1897" y1="297.9874" x2="280.1897" y2="127.6074" gradientTransform="matrix(1.0667 0 0 -1.0667 3.2667 557.5332)">
	<stop  offset="0" style="stop-color:#C2D600"/>
	<stop  offset="1" style="stop-color:#7BD101"/>
</linearGradient>
<path style="fill:url(#SVGID_8_);" d="M447.418,374.586c-13.35,13.536-27.281,27.676-37.405,37.95l-98.748-0.081l-154.413-0.128
	l91.132-83.609l59.726-54.789c8.48-7.779,21.501-7.779,29.981,0L447.418,374.586z"/>
<linearGradient id="SVGID_9_" gradientUnits="userSpaceOnUse" x1="356.2965" y1="150.0367" x2="224.0365" y2="282.2967" gradientTransform="matrix(1.0667 0 0 -1.0667 3.2667 557.5332)">
	<stop  offset="1.000000e-004" style="stop-color:#1ACEB8;stop-opacity:0"/>
	<stop  offset="1" style="stop-color:#04959C"/>
</linearGradient>
<path style="fill:url(#SVGID_9_);" d="M337.691,273.928c-8.48-7.779-21.501-7.779-29.981,0l-59.726,54.789l63.281,83.737
	l98.748,0.081c10.123-10.274,24.054-24.414,37.405-37.95L337.691,273.928z"/>
<linearGradient id="SVGID_10_" gradientUnits="userSpaceOnUse" x1="299.8842" y1="273.3274" x2="299.8842" y2="248.9774" gradientTransform="matrix(1.0667 0 0 -1.0667 3.2667 557.5332)">
	<stop  offset="0" style="stop-color:#FFFFFF"/>
	<stop  offset="1" style="stop-color:#E8EFEE"/>
</linearGradient>
<path style="fill:url(#SVGID_10_);" d="M357.506,292.114c-3.761,3.053-9.682,2.345-12.457-2.137l-0.012-0.012
	c-3.285-5.329-11.028-5.329-14.314,0v0.012c-3.285,5.329-11.04,5.329-14.325,0v-0.012c-1.637-2.67-4.4-3.994-7.163-3.994
	s-5.526,1.324-7.163,3.994c-2.983,4.841-9.647,5.282-13.293,1.335l18.934-17.367c8.475-7.79,21.5-7.79,29.974,0L357.506,292.114z"/>
<linearGradient id="SVGID_11_" gradientUnits="userSpaceOnUse" x1="297.7256" y1="251.3658" x2="272.5956" y2="276.4958" gradientTransform="matrix(1.0667 0 0 -1.0667 3.2667 557.5332)">
	<stop  offset="0" style="stop-color:#C2CECE;stop-opacity:0"/>
	<stop  offset="0.179" style="stop-color:#AFBCBC;stop-opacity:0.179"/>
	<stop  offset="1" style="stop-color:#5B6A6A"/>
</linearGradient>
<path style="fill:url(#SVGID_11_);" d="M357.506,292.114c-3.761,3.053-9.682,2.345-12.457-2.137l-0.012-0.012
	c-3.285-5.329-11.028-5.329-14.314,0v0.012c-3.285,5.329-11.04,5.329-14.325,0v-0.012c-1.637-2.67-4.4-3.994-7.163-3.994
	s-5.526,1.324-7.163,3.994c-2.983,4.841-9.647,5.282-13.293,1.335l18.934-17.367c8.475-7.79,21.5-7.79,29.974,0L357.506,292.114z"/>
<path style="fill:#008BF2;" d="M163.096,271.861c-0.14,0-0.277,0.007-0.416,0.011c0.155-1.267,0.236-2.557,0.236-3.866
	c0-17.447-14.144-31.59-31.59-31.59c-12.994,0-24.155,7.846-29.006,19.059c-1.13-0.453-2.363-0.705-3.654-0.705
	c-5.423,0-9.819,4.396-9.819,9.819c0,1.652,0.41,3.209,1.132,4.575c-6.953,2.599-11.904,9.301-11.904,17.161
	c0,10.116,8.202,18.318,18.318,18.318h66.704c9.052,0,16.39-7.338,16.39-16.39S172.148,271.861,163.096,271.861z"/>
<linearGradient id="SVGID_12_" gradientUnits="userSpaceOnUse" x1="173.1667" y1="336.0774" x2="173.1667" y2="125.5874" gradientTransform="matrix(1.0667 0 0 -1.0667 3.2667 557.5332)">
	<stop  offset="0" style="stop-color:#C2D600"/>
	<stop  offset="1" style="stop-color:#7BD101"/>
</linearGradient>
<path style="fill:url(#SVGID_12_);" d="M311.371,412.594l-229.455-0.267c-9.821-1.59-17.332-10.112-17.332-20.386v-38.867
	l83.214-110.116c8.873-11.741,26.512-11.741,35.385,0.001l64.803,85.759l63.281,83.737L311.371,412.594z"/>
<linearGradient id="SVGID_13_" gradientUnits="userSpaceOnUse" x1="152.0863" y1="302.7174" x2="152.0863" y2="276.9474" gradientTransform="matrix(1.0667 0 0 -1.0667 3.2667 557.5332)">
	<stop  offset="0" style="stop-color:#FFFFFF"/>
	<stop  offset="1" style="stop-color:#E8EFEE"/>
</linearGradient>
<path style="fill:url(#SVGID_13_);" d="M200.214,265.506c-3.668,3.877-10.274,3.402-13.246-1.405v-0.023
	c-1.649-2.658-4.4-3.982-7.163-3.982s-5.515,1.324-7.163,3.994c-1.648,2.658-4.4,3.994-7.163,3.994s-5.515-1.335-7.163-3.994
	c-1.648-2.658-4.4-3.994-7.163-3.994s-5.515,1.335-7.163,3.994c-2.96,4.806-9.542,5.282-13.222,1.417l17.03-22.545
	c8.869-11.748,26.515-11.748,35.385,0L200.214,265.506z"/>
<linearGradient id="SVGID_14_" gradientUnits="userSpaceOnUse" x1="360.3271" y1="204.7207" x2="405.3222" y2="159.7156" gradientTransform="matrix(1.0667 0 0 -1.0667 3.2667 557.5332)">
	<stop  offset="0" style="stop-color:#FFFFFF"/>
	<stop  offset="1" style="stop-color:#E8EFEE"/>
</linearGradient>
<path style="fill:url(#SVGID_14_);" d="M492.387,327.665c0,0-0.72,2.038-3.553,4.871c-1.052,1.052-93.729,95.129-93.729,95.129
	c-6.561,6.659-15.52,10.41-24.869,10.41l0,0l0,0c8.07,0,14.613-6.542,14.613-14.613V352.02c0-13.451,10.905-24.355,24.355-24.355
	L492.387,327.665L492.387,327.665z"/>
<path style="fill:#008BF2;" d="M337.233,206.65c-0.14,0-0.277,0.007-0.416,0.011c0.155-1.267,0.236-2.557,0.236-3.866
	c0-17.447-14.144-31.59-31.59-31.59c-12.994,0-24.155,7.846-29.006,19.059c-1.13-0.453-2.363-0.705-3.654-0.705
	c-5.423,0-9.819,4.396-9.819,9.819c0,1.652,0.41,3.209,1.132,4.575c-6.953,2.599-11.904,9.301-11.904,17.161
	c0,10.116,8.202,18.318,18.318,18.318h66.704c9.052,0,16.39-7.338,16.39-16.39S346.286,206.65,337.233,206.65z"/>
<linearGradient id="SVGID_15_" gradientUnits="userSpaceOnUse" x1="441.9478" y1="233.7879" x2="282.6378" y2="393.088" gradientTransform="matrix(1.0667 0 0 -1.0667 3.2667 557.5332)">
	<stop  offset="1.000000e-004" style="stop-color:#008BF2;stop-opacity:0"/>
	<stop  offset="1" style="stop-color:#0046E2"/>
</linearGradient>
<path style="fill:url(#SVGID_15_);" d="M458.32,221.675l-50.558-50.558c-9.039-9.494-21.79-15.422-35.934-15.422
	c-27.405,0-49.621,22.217-49.621,49.621c0,14.144,5.927,26.895,15.422,35.934L458.32,361.941L458.32,221.675L458.32,221.675z"/>
<linearGradient id="SVGID_16_" gradientUnits="userSpaceOnUse" x1="345.5272" y1="410.8274" x2="345.5272" y2="245.3374" gradientTransform="matrix(1.0667 0 0 -1.0667 3.2667 557.5332)">
	<stop  offset="0" style="stop-color:#FFCF95"/>
	<stop  offset="0.427" style="stop-color:#FFC954"/>
	<stop  offset="1" style="stop-color:#FFC200"/>
</linearGradient>
<circle style="fill:url(#SVGID_16_);" cx="371.829" cy="205.312" r="49.621"/>
<g>
</g>
<g>
</g>
<g>
</g>
<g>
</g>
<g>
</g>
<g>
</g>
<g>
</g>
<g>
</g>
<g>
</g>
<g>
</g>
<g>
</g>
<g>
</g>
<g>
</g>
<g>
</g>
<g>
</g>
</svg>
