<svg id="Capa_1" enable-background="new 0 0 510 510" height="512" viewBox="0 0 510 510" width="512" xmlns="http://www.w3.org/2000/svg" xmlns:xlink="http://www.w3.org/1999/xlink"><linearGradient id="SVGID_1_" gradientUnits="userSpaceOnUse" x1="132.649" x2="445.358" y1="132.649" y2="445.358"><stop offset="0" stop-color="#edf5ff"/><stop offset="1" stop-color="#d5e8fe"/></linearGradient><linearGradient id="lg1"><stop offset="0" stop-color="#07485e" stop-opacity="0"/><stop offset=".2708" stop-color="#074459" stop-opacity=".271"/><stop offset=".597" stop-color="#05394a" stop-opacity=".597"/><stop offset=".9505" stop-color="#032632" stop-opacity=".951"/><stop offset="1" stop-color="#03232e"/></linearGradient><linearGradient id="SVGID_2_" gradientUnits="userSpaceOnUse" x1="254.862" x2="52.328" xlink:href="#lg1" y1="254.862" y2="52.328"/><linearGradient id="SVGID_3_" gradientUnits="userSpaceOnUse" x1="405.813" x2="230.528" xlink:href="#lg1" y1="405.187" y2="229.901"/><linearGradient id="lg2"><stop offset="0" stop-color="#ff637b"/><stop offset="1" stop-color="#e63950"/></linearGradient><linearGradient id="SVGID_4_" gradientTransform="matrix(0 1 -1 0 -4810 -4256)" gradientUnits="userSpaceOnUse" x1="4501.62" x2="4526.683" xlink:href="#lg2" y1="-5195.51" y2="-5195.51"/><linearGradient id="lg3"><stop offset="0" stop-color="#ff9690"/><stop offset="1" stop-color="#f9545b"/></linearGradient><linearGradient id="SVGID_5_" gradientTransform="matrix(0 1 -1 0 -4810 -4256)" gradientUnits="userSpaceOnUse" x1="4504.822" x2="4522.077" xlink:href="#lg3" y1="-5240.678" y2="-5223.422"/><linearGradient id="SVGID_6_" gradientTransform="matrix(.707 .707 -.707 .707 -3286.447 -1131.816)" gradientUnits="userSpaceOnUse" x1="3475.428" x2="3500.491" xlink:href="#lg2" y1="-1654.063" y2="-1654.063"/><linearGradient id="SVGID_7_" gradientTransform="matrix(.707 .707 -.707 .707 -3286.447 -1131.816)" gradientUnits="userSpaceOnUse" x1="3478.63" x2="3495.885" xlink:href="#lg3" y1="-1699.231" y2="-1681.976"/><linearGradient id="SVGID_8_" gradientTransform="matrix(-.707 .707 -.707 -.707 -3678.184 -7542.446)" gradientUnits="userSpaceOnUse" x1="2723.066" x2="2748.13" xlink:href="#lg2" y1="-8425.318" y2="-8425.318"/><linearGradient id="SVGID_9_" gradientTransform="matrix(-.707 .707 -.707 -.707 -3678.184 -7542.446)" gradientUnits="userSpaceOnUse" x1="2726.268" x2="2743.523" xlink:href="#lg3" y1="-8470.486" y2="-8453.231"/><linearGradient id="SVGID_10_" gradientUnits="userSpaceOnUse" x1="245.619" x2="270.683" xlink:href="#lg2" y1="124.49" y2="124.49"/><linearGradient id="SVGID_11_" gradientUnits="userSpaceOnUse" x1="248.822" x2="266.077" xlink:href="#lg3" y1="79.322" y2="96.578"/><linearGradient id="SVGID_12_" gradientTransform="matrix(-1 0 0 -1 -554 -8862.034)" gradientUnits="userSpaceOnUse" x1="-818.381" x2="-793.317" xlink:href="#lg2" y1="-9247.544" y2="-9247.544"/><linearGradient id="SVGID_13_" gradientTransform="matrix(-1 0 0 -1 -554 -8862.034)" gradientUnits="userSpaceOnUse" x1="-815.178" x2="-797.923" xlink:href="#lg3" y1="-9292.712" y2="-9275.456"/><linearGradient id="SVGID_14_" gradientTransform="matrix(0 -1 1 0 4052.034 -4810)" gradientUnits="userSpaceOnUse" x1="-5074.38" x2="-5049.317" xlink:href="#lg2" y1="-3927.544" y2="-3927.544"/><linearGradient id="SVGID_15_" gradientTransform="matrix(0 -1 1 0 4052.034 -4810)" gradientUnits="userSpaceOnUse" x1="-5071.178" x2="-5053.923" xlink:href="#lg3" y1="-3972.712" y2="-3955.456"/><linearGradient id="SVGID_16_" gradientTransform="matrix(-.707 -.707 .707 -.707 2588.221 -7789.958)" gradientUnits="userSpaceOnUse" x1="-4048.189" x2="-4023.125" xlink:href="#lg2" y1="-7468.99" y2="-7468.99"/><linearGradient id="SVGID_17_" gradientTransform="matrix(-.707 -.707 .707 -.707 2588.221 -7789.958)" gradientUnits="userSpaceOnUse" x1="-4044.986" x2="-4027.731" xlink:href="#lg3" y1="-7514.158" y2="-7496.903"/><linearGradient id="SVGID_18_" gradientTransform="matrix(.707 -.707 .707 .707 2979.958 -1667.779)" gradientUnits="userSpaceOnUse" x1="-3295.827" x2="-3270.763" xlink:href="#lg2" y1="-697.736" y2="-697.736"/><linearGradient id="SVGID_19_" gradientTransform="matrix(.707 -.707 .707 .707 2979.958 -1667.779)" gradientUnits="userSpaceOnUse" x1="-3292.625" x2="-3275.369" xlink:href="#lg3" y1="-742.904" y2="-725.648"/><linearGradient id="SVGID_20_" gradientUnits="userSpaceOnUse" x1="164.321" x2="354.473" xlink:href="#lg3" y1="164.321" y2="354.473"/><linearGradient id="lg4"><stop offset="0" stop-color="#e63950" stop-opacity="0"/><stop offset=".0467" stop-color="#e4354b" stop-opacity=".047"/><stop offset=".4669" stop-color="#d31822" stop-opacity=".467"/><stop offset=".7991" stop-color="#c90709" stop-opacity=".799"/><stop offset="1" stop-color="#c50000"/></linearGradient><linearGradient id="SVGID_21_" gradientUnits="userSpaceOnUse" x1="338.792" x2="268.764" xlink:href="#lg4" y1="190.23" y2="120.203"/><linearGradient id="SVGID_22_" gradientUnits="userSpaceOnUse" x1="272.667" x2="239.834" xlink:href="#lg4" y1="290.562" y2="225.679"/><linearGradient id="SVGID_23_" gradientTransform="matrix(.927 .375 -.375 .927 -1719.616 -226.763)" gradientUnits="userSpaceOnUse" x1="2003.687" x2="2023.79" xlink:href="#lg2" y1="-398.331" y2="-398.331"/><linearGradient id="SVGID_24_" gradientTransform="matrix(.927 .375 -.375 .927 -1719.616 -226.763)" gradientUnits="userSpaceOnUse" x1="2006.256" x2="2020.095" xlink:href="#lg3" y1="-434.559" y2="-420.719"/><linearGradient id="SVGID_25_" gradientTransform="matrix(-.375 .927 -.927 -.375 -4583.237 -5975.616)" gradientUnits="userSpaceOnUse" x1="3954.823" x2="3974.925" xlink:href="#lg2" y1="-6925.888" y2="-6925.888"/><linearGradient id="SVGID_26_" gradientTransform="matrix(-.375 .927 -.927 -.375 -4583.237 -5975.616)" gradientUnits="userSpaceOnUse" x1="3957.391" x2="3971.231" xlink:href="#lg3" y1="-6962.116" y2="-6948.276"/><linearGradient id="SVGID_27_" gradientTransform="matrix(.39 .921 -.921 .39 -4342.053 -2508.114)" gradientUnits="userSpaceOnUse" x1="4331.156" x2="4351.259" xlink:href="#lg2" y1="-3258.016" y2="-3258.016"/><linearGradient id="SVGID_28_" gradientTransform="matrix(.39 .921 -.921 .39 -4342.053 -2508.114)" gradientUnits="userSpaceOnUse" x1="4333.725" x2="4347.565" xlink:href="#lg3" y1="-3294.244" y2="-3280.404"/><linearGradient id="SVGID_29_" gradientTransform="matrix(-.921 .39 -.39 -.921 -2301.886 -8598.053)" gradientUnits="userSpaceOnUse" x1="1095.137" x2="1115.24" xlink:href="#lg2" y1="-9253.357" y2="-9253.357"/><linearGradient id="SVGID_30_" gradientTransform="matrix(-.921 .39 -.39 -.921 -2301.886 -8598.053)" gradientUnits="userSpaceOnUse" x1="1097.706" x2="1111.546" xlink:href="#lg3" y1="-9289.585" y2="-9275.745"/><linearGradient id="SVGID_31_" gradientTransform="matrix(-.927 -.375 .375 -.927 1089.149 -8650.148)" gradientUnits="userSpaceOnUse" x1="-2572.735" x2="-2552.632" xlink:href="#lg2" y1="-8673.058" y2="-8673.058"/><linearGradient id="SVGID_32_" gradientTransform="matrix(-.927 -.375 .375 -.927 1089.149 -8650.148)" gradientUnits="userSpaceOnUse" x1="-2570.166" x2="-2556.326" xlink:href="#lg3" y1="-8709.285" y2="-8695.445"/><linearGradient id="SVGID_33_" gradientUnits="userSpaceOnUse" x1="156.195" x2="145.251" xlink:href="#lg4" y1="244.933" y2="167.934"/><linearGradient id="SVGID_34_" gradientTransform="matrix(.375 -.927 .927 .375 3840.147 -3166.851)" gradientUnits="userSpaceOnUse" x1="-4523.87" x2="-4503.768" xlink:href="#lg2" y1="-2145.5" y2="-2145.5"/><linearGradient id="SVGID_35_" gradientTransform="matrix(.375 -.927 .927 .375 3840.147 -3166.851)" gradientUnits="userSpaceOnUse" x1="-4521.302" x2="-4507.462" xlink:href="#lg3" y1="-2181.728" y2="-2167.888"/><linearGradient id="SVGID_36_" gradientTransform="matrix(-.39 -.921 .921 -.39 3600.276 -6478.25)" gradientUnits="userSpaceOnUse" x1="-4900.204" x2="-4880.101" xlink:href="#lg2" y1="-5813.373" y2="-5813.373"/><linearGradient id="SVGID_37_" gradientTransform="matrix(-.39 -.921 .921 -.39 3600.276 -6478.25)" gradientUnits="userSpaceOnUse" x1="-4897.636" x2="-4883.796" xlink:href="#lg3" y1="-5849.6" y2="-5835.76"/><linearGradient id="SVGID_38_" gradientUnits="userSpaceOnUse" x1="245.85" x2="169.242" xlink:href="#lg4" y1="171.377" y2="111.576"/><linearGradient id="SVGID_39_" gradientTransform="matrix(.921 -.39 .39 .921 1668.249 -655.724)" gradientUnits="userSpaceOnUse" x1="-1664.185" x2="-1644.082" xlink:href="#lg2" y1="181.969" y2="181.969"/><linearGradient id="SVGID_40_" gradientTransform="matrix(.921 -.39 .39 .921 1668.249 -655.724)" gradientUnits="userSpaceOnUse" x1="-1661.617" x2="-1647.777" xlink:href="#lg3" y1="145.741" y2="159.581"/><linearGradient id="SVGID_41_" gradientUnits="userSpaceOnUse" x1="230.767" x2="298.447" xlink:href="#lg2" y1="230.767" y2="298.447"/><linearGradient id="SVGID_42_" gradientUnits="userSpaceOnUse" x1="305.333" x2="270.638" xlink:href="#lg1" y1="305.333" y2="270.638"/><linearGradient id="SVGID_43_" gradientTransform="matrix(-1 0 0 -1 510 -8002)" gradientUnits="userSpaceOnUse" x1="125.644" x2="410.558" xlink:href="#lg2" y1="-8386.356" y2="-8101.442"/><linearGradient id="SVGID_44_" gradientUnits="userSpaceOnUse" x1="125.644" x2="410.558" xlink:href="#lg2" y1="125.644" y2="410.558"/><g><circle cx="255" cy="255" fill="url(#SVGID_1_)" r="246.078"/><path d="m359.377 119.668c-6.805 6.805-8.173 16.97-4.143 25.147l-4.813 4.813c-.035-.019-76.762-75.57-76.762-75.57-3.85-6.266-10.766-9.446-18.66-9.446-12.088 0-19.888 8.8-19.888 20.888 0 7.889 2.179 14.793 8.439 18.644 1.196 1.948 3.688 4.694 5.414 6.176v11.083c-9.135.47-18.024 1.863-26.589 4.064-1.19-1.156-3.534-3.123-4.979-3.892-4.229-7.94-13.893-10.476-22.332-6.897-8.926 3.786-12.093 13.091-8.308 22.017.303.715.662 2.387 1.045 3.04-3.691 2.17-7.265 4.516-10.721 7.016-.196-.129-26.459-27.083-26.459-27.083-8.548-8.548-21.407-6.548-29.954 2s-9.548 20.407-1 28.955c0 0 27.951 26.26 28.079 26.454-2.941 4.066-6.664 9.3-9.146 13.689-.658-.371-2.335-1.718-3.054-2.009-8.989-3.635-18.222-.295-21.857 8.694-3.4 8.408-.82 17.903 7.013 22.07.829 1.554 2.893 3.987 4.166 5.242-1.858 7.826-2.04 15.914-2.466 24.202l-12.083 1c-1.482-1.726-4.228-5.218-6.176-6.414-3.851-6.26-10.755-9.438-18.643-9.438-12.088 0-20.888 8.8-20.888 20.888 0 7.894 3.18 14.81 9.446 18.66l74.64 77.692-3.882 3.882c-8.178-4.031-18.342-2.663-25.148 4.143-8.548 8.548-8.548 22.407 0 30.955l119.142 119.142c5.356.335 10.75.525 16.19.525 140.83 0 255-114.17 255-255 0-5.154-.171-10.268-.473-15.347l-119.196-119.985c-8.547-8.547-22.406-8.547-30.954 0z" fill="url(#SVGID_2_)"/><path d="m394.508 191.812c-4.62-6.571-13.306-9.291-21.017-6.123-.225-.319-9.043-9.328-9.043-9.328l-188.094 188.095 11.265 10.394c-2.865 7.598-.114 15.983 6.276 20.5l109.956 109.956c101.992-19.792 182.277-100.357 201.654-202.496z" fill="url(#SVGID_3_)"/><g><g><path d="m353.556 255c0-3.886 3.15-7.035 7.035-7.035h49.838c3.886 0 7.035 3.15 7.035 7.035 0 3.886-3.15 7.035-7.035 7.035h-49.838c-3.886 0-7.035-3.149-7.035-7.035z" fill="url(#SVGID_4_)"/><circle cx="424.5" cy="255" fill="url(#SVGID_5_)" r="21.888"/></g><g><path d="m324.689 185.311c-2.747-2.748-2.747-7.202 0-9.95l35.241-35.24c2.747-2.748 7.202-2.748 9.95 0 2.747 2.748 2.747 7.202 0 9.95l-35.241 35.241c-2.748 2.746-7.202 2.746-9.95-.001z" fill="url(#SVGID_6_)"/><circle cx="374.854" cy="135.146" fill="url(#SVGID_7_)" r="21.888"/></g><g><path d="m324.689 324.689c2.748-2.747 7.202-2.747 9.95 0l35.241 35.241c2.747 2.747 2.747 7.202 0 9.95-2.747 2.747-7.202 2.747-9.95 0l-35.241-35.241c-2.747-2.748-2.747-7.202 0-9.95z" fill="url(#SVGID_8_)"/><circle cx="374.854" cy="374.854" fill="url(#SVGID_9_)" r="21.888"/></g><g><path d="m255 156.444c-3.886 0-7.035-3.15-7.035-7.035v-49.838c0-3.886 3.15-7.035 7.035-7.035 3.886 0 7.035 3.15 7.035 7.035v49.838c0 3.886-3.149 7.035-7.035 7.035z" fill="url(#SVGID_10_)"/><circle cx="255" cy="85.5" fill="url(#SVGID_11_)" r="21.888"/></g><g><path d="m255 353.556c3.886 0 7.035 3.15 7.035 7.035v49.838c0 3.886-3.15 7.035-7.035 7.035-3.886 0-7.035-3.15-7.035-7.035v-49.838c0-3.886 3.149-7.035 7.035-7.035z" fill="url(#SVGID_12_)"/><circle cx="255" cy="424.5" fill="url(#SVGID_13_)" r="21.888"/></g><g><path d="m156.444 255c0 3.886-3.15 7.035-7.035 7.035h-49.838c-3.886 0-7.035-3.15-7.035-7.035 0-3.886 3.15-7.035 7.035-7.035h49.838c3.886 0 7.035 3.149 7.035 7.035z" fill="url(#SVGID_14_)"/><circle cx="85.5" cy="255" fill="url(#SVGID_15_)" r="21.888"/></g><g><path d="m185.311 324.689c2.748 2.748 2.748 7.202 0 9.95l-35.241 35.241c-2.748 2.747-7.202 2.747-9.95 0-2.748-2.747-2.748-7.202 0-9.95l35.24-35.241c2.749-2.747 7.203-2.747 9.951 0z" fill="url(#SVGID_16_)"/><circle cx="135.146" cy="374.854" fill="url(#SVGID_17_)" r="21.888"/></g><g><path d="m185.311 185.311c-2.748 2.748-7.202 2.748-9.95 0l-35.24-35.241c-2.748-2.748-2.748-7.202 0-9.95 2.748-2.748 7.202-2.748 9.95 0l35.241 35.24c2.746 2.749 2.746 7.203-.001 9.951z" fill="url(#SVGID_18_)"/><circle cx="135.146" cy="135.146" fill="url(#SVGID_19_)" r="21.888"/></g><circle cx="255" cy="255" fill="url(#SVGID_20_)" r="134.778"/><path d="m308.765 131.384-20.358 50.495s21.574 5.526 41.899 39.714l48.698-19.473c-13.501-31.616-38.739-57.016-70.239-70.736z" fill="url(#SVGID_21_)"/><path d="m255 389.778c74.436 0 134.778-60.342 134.778-134.778 0-17.407-3.301-34.043-9.31-49.317l-248.248 104.981c21.189 46.662 68.194 79.114 122.78 79.114z" fill="url(#SVGID_22_)"/><g><path d="m284.635 181.717c-2.889-1.168-4.284-4.458-3.116-7.347l14.986-37.058c1.168-2.889 4.458-4.284 7.347-3.116 2.889 1.168 4.284 4.458 3.116 7.347l-14.986 37.058c-1.169 2.89-4.458 4.285-7.347 3.116z" fill="url(#SVGID_23_)"/><circle cx="305.967" cy="128.966" fill="url(#SVGID_24_)" r="17.556"/></g><g><path d="m328.283 284.635c1.168-2.889 4.458-4.284 7.347-3.116l37.058 14.986c2.889 1.168 4.284 4.458 3.116 7.347-1.168 2.889-4.458 4.284-7.347 3.116l-37.058-14.986c-2.89-1.169-4.285-4.458-3.116-7.347z" fill="url(#SVGID_25_)"/><circle cx="381.034" cy="305.967" fill="url(#SVGID_26_)" r="17.556"/></g><g><path d="m327.774 224.136c-1.217-2.869.123-6.181 2.992-7.398l36.8-15.607c2.869-1.217 6.181.123 7.398 2.992 1.217 2.869-.123 6.181-2.992 7.398l-36.8 15.607c-2.869 1.217-6.181-.122-7.398-2.992z" fill="url(#SVGID_27_)"/><circle cx="380.159" cy="201.92" fill="url(#SVGID_28_)" r="17.556"/></g><g><path d="m285.864 327.774c2.869-1.217 6.181.123 7.398 2.992l15.607 36.8c1.217 2.869-.123 6.181-2.992 7.398-2.869 1.217-6.181-.123-7.398-2.992l-15.607-36.8c-1.217-2.869.122-6.181 2.992-7.398z" fill="url(#SVGID_29_)"/><circle cx="308.08" cy="380.159" fill="url(#SVGID_30_)" r="17.556"/></g><g><path d="m225.365 328.283c2.889 1.168 4.284 4.458 3.116 7.347l-14.986 37.058c-1.168 2.889-4.458 4.284-7.347 3.116-2.889-1.168-4.284-4.458-3.116-7.347l14.986-37.058c1.169-2.89 4.458-4.285 7.347-3.116z" fill="url(#SVGID_31_)"/><circle cx="204.033" cy="381.034" fill="url(#SVGID_32_)" r="17.556"/></g><path d="m124.49 221.005 49.616 49.616s-4.697-33.459 7.611-45.255l-51.517-21.333z" fill="url(#SVGID_33_)"/><g><path d="m181.717 225.365c-1.168 2.889-4.458 4.284-7.347 3.116l-37.058-14.986c-2.889-1.168-4.284-4.458-3.116-7.347 1.168-2.889 4.458-4.284 7.347-3.116l37.058 14.986c2.89 1.169 4.285 4.458 3.116 7.347z" fill="url(#SVGID_34_)"/><circle cx="128.966" cy="204.033" fill="url(#SVGID_35_)" r="17.556"/></g><g><path d="m182.226 285.864c1.217 2.869-.123 6.181-2.992 7.398l-36.8 15.607c-2.869 1.217-6.181-.123-7.398-2.992-1.217-2.869.123-6.181 2.992-7.398l36.8-15.607c2.869-1.217 6.181.122 7.398 2.992z" fill="url(#SVGID_36_)"/><circle cx="129.841" cy="308.08" fill="url(#SVGID_37_)" r="17.556"/></g><path d="m202.649 130.769 21.473 48.796c17.979-8.99 42.053-7.083 42.053-7.083l-47.344-47.344c-5.545 1.541-10.949 3.423-16.182 5.631z" fill="url(#SVGID_38_)"/><g><path d="m224.136 182.226c-2.869 1.217-6.181-.123-7.398-2.992l-15.607-36.8c-1.217-2.869.123-6.181 2.992-7.398 2.869-1.217 6.181.123 7.398 2.992l15.607 36.8c1.217 2.869-.122 6.181-2.992 7.398z" fill="url(#SVGID_39_)"/><circle cx="201.92" cy="129.841" fill="url(#SVGID_40_)" r="17.556"/></g><circle cx="255" cy="255" fill="url(#SVGID_41_)" r="85.852"/></g><path d="m97.091 443.719c42.736 35.797 97.801 57.359 157.909 57.359 135.905 0 246.078-110.173 246.078-246.078 0-60.108-21.563-115.173-57.359-157.909z" fill="url(#SVGID_42_)"/><path d="m255 510c140.83 0 255-114.17 255-255s-114.17-255-255-255-255 114.17-255 255 114.17 255 255 255zm0-453.71c109.4 0 198.08 88.97 198.08 198.71s-88.68 198.71-198.08 198.71-198.08-88.97-198.08-198.71 88.68-198.71 198.08-198.71z" fill="url(#SVGID_43_)"/><g fill="url(#SVGID_44_)"><path d="m255 0c-140.83 0-255 114.17-255 255s114.17 255 255 255 255-114.17 255-255-114.17-255-255-255zm0 490.581c-130.105 0-235.581-105.476-235.581-235.581s105.476-235.581 235.581-235.581 235.581 105.476 235.581 235.581-105.476 235.581-235.581 235.581z"/><path d="m461.19 104.94-356.25 356.25c-21.5-15.67-40.46-34.63-56.13-56.13l356.25-356.25c21.5 15.67 40.46 34.63 56.13 56.13z"/></g></g></svg>