<svg id="Capa_1" enable-background="new 0 0 510 510" height="512" viewBox="0 0 510 510" width="512" xmlns="http://www.w3.org/2000/svg" xmlns:xlink="http://www.w3.org/1999/xlink"><linearGradient id="SVGID_1_" gradientTransform="matrix(1 0 0 -1 0 512)" gradientUnits="userSpaceOnUse" x1="257.537" x2="386.67" y1="384.5" y2="384.5"><stop offset="0" stop-color="#ff637b"/><stop offset="1" stop-color="#f90217"/></linearGradient><linearGradient id="SVGID_2_" gradientTransform="matrix(1 0 0 -1 0 512)" gradientUnits="userSpaceOnUse" x1="127.044" x2="254.537" y1="129.5" y2="129.5"><stop offset="0" stop-color="#28a265"/><stop offset="1" stop-color="#28895e"/></linearGradient><linearGradient id="SVGID_3_" gradientTransform="matrix(1 0 0 -1 0 512)" gradientUnits="userSpaceOnUse" x1="382.5" x2="382.5" y1="256.396" y2="125.688"><stop offset="0" stop-color="#7faef4"/><stop offset="1" stop-color="#4c8df1"/></linearGradient><linearGradient id="SVGID_4_" gradientTransform="matrix(1 0 0 -1 0 512)" gradientUnits="userSpaceOnUse" x1="329.265" x2="271.277" y1="232.235" y2="174.247"><stop offset="0" stop-color="#4c8df1" stop-opacity="0"/><stop offset=".5721" stop-color="#476fcb" stop-opacity=".572"/><stop offset="1" stop-color="#4256ac"/></linearGradient><linearGradient id="SVGID_5_" gradientTransform="matrix(1 0 0 -1 0 512)" gradientUnits="userSpaceOnUse" x1="127.5" x2="127.5" y1="385.39" y2="257.676"><stop offset="0" stop-color="#ffd833"/><stop offset="1" stop-color="#f2b631"/></linearGradient><linearGradient id="SVGID_6_" gradientTransform="matrix(1 0 0 -1 0 512)" gradientUnits="userSpaceOnUse" x1="383.982" x2="383.982" y1="183" y2="127.918"><stop offset="0" stop-color="#4c8df1" stop-opacity="0"/><stop offset=".5631" stop-color="#466cc8" stop-opacity=".563"/><stop offset="1" stop-color="#4256ac"/></linearGradient><linearGradient id="lg1"><stop offset="0" stop-color="#108372" stop-opacity="0"/><stop offset="1" stop-color="#006837"/></linearGradient><linearGradient id="SVGID_7_" gradientTransform="matrix(1 0 0 -1 0 512)" gradientUnits="userSpaceOnUse" x1="192.036" x2="192.036" xlink:href="#lg1" y1="76" y2="6.971"/><linearGradient id="lg2"><stop offset="0" stop-color="#f9a126" stop-opacity="0"/><stop offset="1" stop-color="#f9a126"/></linearGradient><linearGradient id="SVGID_8_" gradientTransform="matrix(1 0 0 -1 0 512)" gradientUnits="userSpaceOnUse" x1="127.5" x2="127.5" xlink:href="#lg2" y1="289" y2="259.983"/><linearGradient id="SVGID_9_" gradientTransform="matrix(1 0 0 -1 0 512)" gradientUnits="userSpaceOnUse" x1="171.735" x2="236.752" xlink:href="#lg2" y1="272.765" y2="337.783"/><linearGradient id="SVGID_10_" gradientTransform="matrix(1 0 0 -1 0 512)" gradientUnits="userSpaceOnUse" x1="318.555" x2="318.555" y1="328" y2="244.946"><stop offset="0" stop-color="#f90217" stop-opacity="0"/><stop offset="1" stop-color="#c50000"/></linearGradient><linearGradient id="SVGID_11_" gradientTransform="matrix(1 0 0 -1 0 512)" gradientUnits="userSpaceOnUse" x1="275.515" x2="331.188" y1="335.515" y2="279.843"><stop offset="0" stop-color="#f90217" stop-opacity="0"/><stop offset=".313" stop-color="#ed0212" stop-opacity=".313"/><stop offset=".8796" stop-color="#cd0003" stop-opacity=".88"/><stop offset="1" stop-color="#c50000"/></linearGradient><linearGradient id="SVGID_12_" gradientTransform="matrix(1 0 0 -1 0 512)" gradientUnits="userSpaceOnUse" x1="220" x2="256.222" xlink:href="#lg1" y1="129.5" y2="129.5"/><linearGradient id="SVGID_13_" gradientTransform="matrix(1 0 0 -1 0 512)" gradientUnits="userSpaceOnUse" x1="235.985" x2="169.984" xlink:href="#lg1" y1="176.985" y2="242.986"/><g><g><path d="m255 24.968c0-16.118 15.085-28.078 30.741-24.25 56.393 13.788 98.243 64.656 98.243 125.298 0 71.236-57.748 128.984-128.984 128.984z" fill="url(#SVGID_1_)"/><path d="m255 485.032c0 16.118-15.085 28.078-30.741 24.249-56.393-13.788-98.243-64.656-98.243-125.298 0-71.235 57.748-128.983 128.984-128.983z" fill="url(#SVGID_2_)"/><path d="m485.032 255c16.118 0 28.078 15.085 24.25 30.741-13.788 56.393-64.656 98.243-125.298 98.243-71.236 0-128.984-57.748-128.984-128.984z" fill="url(#SVGID_3_)"/><path d="m255 255c0 2.161.048 4.31.143 6.447 4.563 102.631 157.967 100.761 160.795-1.932.041-1.5.062-3.005.062-4.515z" fill="url(#SVGID_4_)"/><path d="m24.968 255c-16.118 0-28.078-15.085-24.25-30.741 13.788-56.393 64.656-98.243 125.298-98.243 71.236 0 128.984 57.748 128.984 128.984z" fill="url(#SVGID_5_)"/></g><path d="m272.26 319.492c22.302 38.552 63.983 64.492 111.724 64.492s89.418-25.94 111.72-64.492z" fill="url(#SVGID_6_)"/><path d="m129.071 412c10.594 47.832 47.741 85.681 95.188 97.282 15.656 3.828 30.741-8.132 30.741-24.25v-73.032z" fill="url(#SVGID_7_)"/><path d="m.718 224.259c-3.828 15.656 8.132 30.741 24.25 30.741h230.032c0-23.494-6.285-45.52-17.26-64.492h-223.444c-6.027 10.418-10.644 21.753-13.578 33.751z" fill="url(#SVGID_8_)"/><path d="m94.062 250.485c-.041 1.5-.062 3.005-.062 4.515h161c0-2.161-.048-4.31-.143-6.447-4.563-102.631-157.967-100.761-160.795 1.932z" fill="url(#SVGID_9_)"/><path d="m255 148v107c63.74 0 116.675-46.238 127.11-107z" fill="url(#SVGID_10_)"/><path d="m259.515 94.062c-1.5-.041-3.005-.062-4.515-.062v161c2.161 0 4.31-.048 6.447-.143 102.631-4.563 100.761-157.967-1.932-160.795z" fill="url(#SVGID_11_)"/><path d="m201 501.15c7.402 3.417 15.18 6.157 23.259 8.132 15.656 3.828 30.741-8.132 30.741-24.25v-230.032c-19.282 0-37.572 4.238-54 11.823z" fill="url(#SVGID_12_)"/><path d="m250.485 415.938c1.5.041 3.005.062 4.515.062v-161c-2.161 0-4.31.048-6.447.143-102.631 4.563-100.761 157.967 1.932 160.795z" fill="url(#SVGID_13_)"/></g></svg>