<svg id="Capa_1" enable-background="new 0 0 510 510" height="512" viewBox="0 0 510 510" width="512" xmlns="http://www.w3.org/2000/svg" xmlns:xlink="http://www.w3.org/1999/xlink"><linearGradient id="lg1"><stop offset="0" stop-color="#7faef4"/><stop offset="1" stop-color="#4c8df1"/></linearGradient><linearGradient id="SVGID_1_" gradientUnits="userSpaceOnUse" x1="7.297" x2="25.993" xlink:href="#lg1" y1="140.992" y2="140.992"/><linearGradient id="SVGID_2_" gradientUnits="userSpaceOnUse" x1="7.297" x2="25.993" xlink:href="#lg1" y1="369.008" y2="369.008"/><linearGradient id="SVGID_3_" gradientUnits="userSpaceOnUse" x1="129.61" x2="472.884" xlink:href="#lg1" y1="115.575" y2="458.848"/><linearGradient id="lg2"><stop offset="0" stop-color="#4c8df1" stop-opacity="0"/><stop offset=".5631" stop-color="#466cc8" stop-opacity=".563"/><stop offset="1" stop-color="#4256ac"/></linearGradient><linearGradient id="SVGID_4_" gradientUnits="userSpaceOnUse" x1="379.352" x2="244.251" xlink:href="#lg2" y1="365.317" y2="230.216"/><linearGradient id="SVGID_5_" gradientUnits="userSpaceOnUse" x1="296.559" x2="221.424" xlink:href="#lg2" y1="282.524" y2="207.389"/><linearGradient id="lg3"><stop offset="0" stop-color="#e3e5e4"/><stop offset="1" stop-color="#cbd0e4"/></linearGradient><linearGradient id="SVGID_6_" gradientUnits="userSpaceOnUse" x1="147.184" x2="170.609" xlink:href="#lg3" y1="355.034" y2="378.459"/><linearGradient id="SVGID_7_" gradientUnits="userSpaceOnUse" x1="369.069" x2="392.494" xlink:href="#lg3" y1="133.148" y2="156.574"/><linearGradient id="SVGID_8_" gradientUnits="userSpaceOnUse" x1="165.882" x2="138.694" xlink:href="#lg3" y1="136.265" y2="163.454"/><linearGradient id="SVGID_9_" gradientUnits="userSpaceOnUse" x1="387.768" x2="360.579" xlink:href="#lg3" y1="358.15" y2="385.339"/><linearGradient id="SVGID_10_" gradientUnits="userSpaceOnUse" x1="222.157" x2="318.794" y1="208.122" y2="304.759"><stop offset="0" stop-color="#ebeff0"/><stop offset="1" stop-color="#e3e5e4"/></linearGradient><linearGradient id="SVGID_11_" gradientTransform="matrix(-1 0 0 -1 556 510)" gradientUnits="userSpaceOnUse" x1="250.372" x2="325.811" xlink:href="#lg3" y1="218.407" y2="293.846"/><linearGradient id="SVGID_12_" gradientUnits="userSpaceOnUse" x1="269.035" x2="269.035" y1="456.067" y2="524.948"><stop offset="0" stop-color="#4256ac" stop-opacity="0"/><stop offset="1" stop-color="#1b1464"/></linearGradient><linearGradient id="SVGID_13_" gradientUnits="userSpaceOnUse" x1="498.254" x2="447.62" xlink:href="#lg2" y1="288.894" y2="277.469"/><linearGradient id="SVGID_14_" gradientUnits="userSpaceOnUse" x1="452.355" x2="468.753" xlink:href="#lg3" y1="255" y2="255"/><g><g><path d="m56.14 204.503h-40.506c-8.634 0-15.634-7-15.634-15.634v-95.754c0-8.635 7-15.635 15.634-15.635h40.506z" fill="url(#SVGID_1_)"/><path d="m56.14 432.52h-40.506c-8.634 0-15.634-7-15.634-15.635v-95.754c0-8.635 7-15.634 15.634-15.634h40.506z" fill="url(#SVGID_2_)"/></g><path d="m464.476 495.965h-390.882c-25.142 0-45.524-20.382-45.524-45.524v-390.882c0-25.142 20.382-45.524 45.524-45.524h390.882c25.142 0 45.524 20.382 45.524 45.524v390.882c0 25.142-20.382 45.524-45.524 45.524z" fill="url(#SVGID_3_)"/><path d="m510 450.441v-262.574l-86.645-87.189c-9.369-9.358-22.476-7.281-31.845 2.077l-51.829 51.829c-20.158-13.645-44.471-23.693-70.647-23.693-69.693 0-124.107 54.414-124.107 124.107 0 26.176 9.009 51.528 22.654 71.686l-51.829 50.791c-9.358 9.369-10.397 22.476-1.039 31.845l87.13 86.645h262.634c25.141 0 45.523-20.382 45.523-45.524z" fill="url(#SVGID_4_)"/><circle cx="269.034" cy="254.999" fill="url(#SVGID_5_)" r="69.654"/><g><g><path d="m218.431 339.523-69.797 69.797c-9.369 9.358-24.554 9.358-33.922 0-9.358-9.369-9.358-24.554 0-33.922l69.797-69.797c8.34 13.908 20.015 25.582 33.922 33.922z" fill="url(#SVGID_6_)"/><path d="m430.376 117.638c0 6.138-2.347 12.277-7.021 16.961l-69.797 69.797c-8.34-13.907-20.015-25.582-33.922-33.922l69.797-69.797c9.369-9.358 24.554-9.358 33.922 0 4.674 4.685 7.021 10.823 7.021 16.961z" fill="url(#SVGID_7_)"/><path d="m148.634 100.677 69.797 69.797c-13.907 8.34-25.582 20.015-33.922 33.922l-69.797-69.797c-9.358-9.369-9.358-24.554 0-33.922 9.369-9.358 24.554-9.358 33.922 0z" fill="url(#SVGID_8_)"/><path d="m423.355 409.32c-4.684 4.674-10.823 7.021-16.961 7.021s-12.277-2.347-16.961-7.021l-69.797-69.797c13.907-8.34 25.582-20.015 33.922-33.922l69.797 69.797c9.358 9.369 9.358 24.554 0 33.922z" fill="url(#SVGID_9_)"/></g><path d="m269.034 128.814c-69.693 0-126.185 56.492-126.185 126.185s56.492 126.185 126.185 126.185 126.185-56.492 126.185-126.185-56.492-126.185-126.185-126.185zm0 188.524c-34.431 0-62.339-27.908-62.339-62.339s27.908-62.339 62.339-62.339 62.339 27.908 62.339 62.339-27.908 62.339-62.339 62.339z" fill="url(#SVGID_10_)"/><path d="m269.034 353.504c54.404 0 98.505-44.101 98.505-98.505s-44.101-98.505-98.505-98.505-98.505 44.101-98.505 98.505 44.101 98.505 98.505 98.505zm0-160.845c34.431 0 62.339 27.908 62.339 62.339s-27.908 62.339-62.339 62.339-62.339-27.908-62.339-62.339 27.908-62.339 62.339-62.339z" fill="url(#SVGID_11_)"/></g><path d="m28.07 407.808v42.633c0 25.142 20.382 45.524 45.524 45.524h390.882c25.142 0 45.524-20.382 45.524-45.524v-42.633z" fill="url(#SVGID_12_)"/><path d="m510 233.076-41.068-41.069c-2.839-3.357-7.076-5.493-11.817-5.493-8.549 0-15.478 6.93-15.478 15.478v108.351c0 4.741 2.137 8.978 5.493 11.817l62.87 62.872z" fill="url(#SVGID_13_)"/><path d="m455.946 324.654c-8.549 0-15.479-6.93-15.479-15.478v-108.351c0-8.549 6.93-15.478 15.478-15.478 8.549 0 15.478 6.93 15.478 15.478v108.351c.001 8.548-6.928 15.478-15.477 15.478z" fill="url(#SVGID_14_)"/></g></svg>