<svg id="Capa_1" enable-background="new 0 0 510 510" height="512" viewBox="0 0 510 510" width="512" xmlns="http://www.w3.org/2000/svg" xmlns:xlink="http://www.w3.org/1999/xlink"><linearGradient id="SVGID_1_" gradientUnits="userSpaceOnUse" x1="139.954" x2="405.96" y1="114.864" y2="380.87"><stop offset="0" stop-color="#28a265"/><stop offset="1" stop-color="#28895e"/></linearGradient><linearGradient id="SVGID_2_" gradientUnits="userSpaceOnUse" x1="374.755" x2="268.755" y1="407.938" y2="214.938"><stop offset="0" stop-color="#108372" stop-opacity="0"/><stop offset="1" stop-color="#006837"/></linearGradient><linearGradient id="lg1"><stop offset="0" stop-color="#ebeff0"/><stop offset="1" stop-color="#e3e5e4"/></linearGradient><linearGradient id="SVGID_3_" gradientUnits="userSpaceOnUse" x1="334.828" x2="400.786" xlink:href="#lg1" y1="173.675" y2="239.633"/><linearGradient id="SVGID_4_" gradientUnits="userSpaceOnUse" x1="394.348" x2="228.735" y1="252.612" y2="209.552"><stop offset="0" stop-color="#cbd0e4" stop-opacity="0"/><stop offset="1" stop-color="#6a7d83"/></linearGradient><linearGradient id="SVGID_5_" gradientUnits="userSpaceOnUse" x1="147.167" x2="277.795" xlink:href="#lg1" y1="161.086" y2="291.714"/><g><g><path d="m484.91 229.91c0-126.975-102.934-229.91-229.909-229.91-127.351 0-229.912 102.56-229.911 229.911 0 124.764 99.381 226.317 223.299 229.816 3.679.104 6.612 3.101 6.612 6.781v31.263c0 10.872 13.145 16.317 20.833 8.629l45.439-45.439c9.767-9.767 21.072-17.879 33.512-23.881 76.996-37.151 130.125-115.951 130.125-207.17z" fill="url(#SVGID_1_)"/></g><path d="m321.272 460.962c9.766-9.767 21.072-17.879 33.512-23.881 76.997-37.152 130.126-115.952 130.126-207.171 0-5.597-.211-11.144-.604-16.641l-63.226-63.226c-5.517-8.79-17.616-10.032-27.51-3.826l-42.091 27.958-32.781-32.507c-4.476-5.92-10.916-7.735-18.37-9.451-59.866-13.78-120.423-13.78-180.288 0-11.14 2.564-17.552 8.396-20.969 19.304-15.124 48.289-15.122 97.082 0 145.366 2.046 6.532 3.581 12.122 8.862 16.116l180.648 180.648z" fill="url(#SVGID_2_)"/><g><path d="m292.513 207.561 101.395-63.594c13.27-8.323 30.512 1.216 30.512 16.88v127.188c0 15.664-17.242 25.203-30.512 16.88l-101.395-63.594c-12.451-7.809-12.451-25.951 0-33.76z" fill="url(#SVGID_3_)"/><path d="m424.419 288.035v-12.443l-92.651-92.651-39.255 24.621c-12.451 7.809-12.451 25.951 0 33.76l101.395 63.594c13.269 8.322 30.511-1.217 30.511-16.881z" fill="url(#SVGID_4_)"/><g><path d="m324.12 151.758c-3.417-10.909-12.315-19.226-23.455-21.79-59.866-13.78-120.423-13.78-180.288 0-11.14 2.564-20.038 10.881-23.455 21.79-15.124 48.289-15.122 97.082 0 145.366 3.416 10.908 12.315 19.226 23.455 21.79 59.865 13.78 120.422 13.78 180.288 0 11.14-2.564 20.038-10.881 23.455-21.79 15.122-48.284 15.124-97.077 0-145.366z" fill="url(#SVGID_5_)"/></g></g></g></svg>