<svg id="Capa_1" enable-background="new 0 0 510 510" height="512" viewBox="0 0 510 510" width="512" xmlns="http://www.w3.org/2000/svg" xmlns:xlink="http://www.w3.org/1999/xlink"><linearGradient id="SVGID_1_" gradientUnits="userSpaceOnUse" x1="108.674" x2="448.827" y1="109.473" y2="449.626"><stop offset="0" stop-color="#ebeff0"/><stop offset="1" stop-color="#e3e5e4"/></linearGradient><linearGradient id="SVGID_2_" gradientUnits="userSpaceOnUse" x1="418.553" x2="466.118" y1="381.447" y2="429.013"><stop offset="0" stop-color="#cbd0e4"/><stop offset="1" stop-color="#6a7d83"/></linearGradient><linearGradient id="SVGID_3_" gradientUnits="userSpaceOnUse" x1="233.462" x2="233.462" y1="421.508" y2="475.848"><stop offset="0" stop-color="#cbd0e4" stop-opacity="0"/><stop offset="1" stop-color="#6a7d83"/></linearGradient><linearGradient id="SVGID_4_" gradientUnits="userSpaceOnUse" x1="241.487" x2="272.77" y1="52.032" y2="196.714"><stop offset="0" stop-color="#7faef4"/><stop offset="1" stop-color="#4c8df1"/></linearGradient><linearGradient id="SVGID_5_" gradientUnits="userSpaceOnUse" x1="351.713" x2="372.872" y1="72.255" y2="170.12"><stop offset="0" stop-color="#a7c5fd"/><stop offset="1" stop-color="#7faef4"/></linearGradient><linearGradient id="SVGID_6_" gradientUnits="userSpaceOnUse" x1="125.538" x2="183.114" y1="176.418" y2="442.704"><stop offset="0" stop-color="#4166bf"/><stop offset="1" stop-color="#4256ac"/></linearGradient><linearGradient id="SVGID_7_" gradientUnits="userSpaceOnUse" x1="116.846" x2="203.124" y1="258.287" y2="344.565"><stop offset="0" stop-color="#ebeff0"/><stop offset="1" stop-color="#d1cecf"/></linearGradient><g><g><path d="m476.362 46.711c-11.225 4.084-23.534 4.084-34.759 0l-16.236-5.9c-11.234-4.075-23.534-4.075-34.759 0l-16.245 5.9c-11.225 4.084-23.534 4.084-34.759 0l-16.235-5.9c-11.234-4.075-23.534-4.075-34.759 0l-16.245 5.9c-11.225 4.084-23.525 4.084-34.75 0l-16.245-5.9c-11.225-4.075-23.534-4.075-34.759 0l-16.236 5.9c-11.234 4.084-23.534 4.084-34.759 0l-16.245-5.9c-11.225-4.075-23.534-4.075-34.759 0l-16.236 5.9c-11.234 4.084-23.534 4.084-34.759 0-16.343-5.935-33.617 6.171-33.617 23.56v367.039c0 19.218 15.726 34.935 34.935 34.935h346.421c2.391 0 4.754-.224 7.076-.64v.001c.426-.074.852-.157 1.287-.241.176-.028.352-.074.528-.111 7.4-1.667 14.244-5.4 19.699-10.855l56.968-56.968h.009l31.23-31.239c5.427-5.427 9.15-12.235 10.836-19.607.056-.278.111-.537.167-.806.556-2.667.843-5.409.843-8.178v-273.336c0-17.387-17.278-29.491-33.622-23.559-.01.003-.015.005-.015.005z" fill="url(#SVGID_1_)"/><path d="m508.802 353.411c.13-.562.249-1.108.358-1.635h-107.005c-7.577 0-13.719 6.142-13.719 13.719v106.113c.836-.149 1.715-.324 2.621-.524 7.977-1.764 15.25-5.865 21.026-11.642l85.096-85.096c5.753-5.753 9.794-13.007 11.623-20.935z" fill="url(#SVGID_2_)"/><path d="m466.922 403.428h-466.92v33.882c0 19.214 15.721 34.935 34.935 34.935h346.419c10.725 0 21.01-4.26 28.594-11.844z" fill="url(#SVGID_3_)"/></g><g><path d="m459.5 139.615h-409c-3.979 0-7.205-3.226-7.205-7.205v-35.762c0-3.979 3.226-7.205 7.205-7.205h409c3.979 0 7.205 3.226 7.205 7.205v35.762c.001 3.979-3.225 7.205-7.205 7.205z" fill="url(#SVGID_4_)"/><path d="m461.611 139.615h-201.516c-2.814 0-5.095-2.281-5.095-5.095v-39.982c0-2.814 2.281-5.095 5.095-5.095h201.516c2.814 0 5.095 2.281 5.095 5.095v39.983c0 2.813-2.281 5.094-5.095 5.094z" fill="url(#SVGID_5_)"/><path d="m245.009 398.557h-189.201c-6.911 0-12.513-5.602-12.513-12.513v-189.202c0-6.911 5.602-12.513 12.513-12.513h189.201c6.911 0 12.513 5.602 12.513 12.513v189.201c.001 6.912-5.602 12.514-12.513 12.514z" fill="url(#SVGID_6_)"/><path d="m228.598 279.949h-68.614c-5.219 0-9.45 4.231-9.45 9.45v11.973c0 5.219 4.231 9.45 9.45 9.45h39.008c-7.716 19.478-26.733 33.02-48.92 32.879-36.461-.231-64.057-37.793-46.492-76.389 4.537-9.97 12.546-18.038 22.501-22.608 20.576-9.446 40.88-6.041 55.409 4.722 3.729 2.762 8.927 2.338 12.208-.944l8.542-8.542c4.016-4.016 3.572-10.63-.912-14.115-21.759-16.908-52.145-23.233-83.444-11.247-20.221 7.744-36.335 23.726-44.173 43.911-23.278 59.952 20.743 116.717 77.768 116 45.555-.573 81.985-38.131 81.985-83.69v-5.987c-.002-2.685-2.18-4.863-4.866-4.863z" fill="url(#SVGID_7_)"/><g><g><g><g><path d="m279.611 221.937h178.817c4.571 0 8.277-3.706 8.277-8.277v-21.053c0-4.571-3.706-8.277-8.277-8.277h-178.817c-4.571 0-8.277 3.706-8.277 8.277v21.053c-.001 4.571 3.705 8.277 8.277 8.277z" fill="#cbd0e4"/></g></g></g><g><g><g><path d="m279.611 280.643h178.817c4.571 0 8.277-3.706 8.277-8.277v-21.053c0-4.571-3.706-8.277-8.277-8.277h-178.817c-4.571 0-8.277 3.706-8.277 8.277v21.053c-.001 4.571 3.705 8.277 8.277 8.277z" fill="#cbd0e4"/></g></g></g><g><g><g><path d="m279.611 339.349h178.817c4.571 0 8.277-3.706 8.277-8.277v-21.053c0-4.572-3.706-8.277-8.277-8.277h-178.817c-4.571 0-8.277 3.706-8.277 8.277v21.053c-.001 4.571 3.705 8.277 8.277 8.277z" fill="#cbd0e4"/></g></g></g><g><g><g><path d="m277.327 398.055h90.437c3.31 0 5.993-2.683 5.993-5.993v-25.622c0-3.31-2.683-5.993-5.993-5.993h-90.437c-3.31 0-5.993 2.683-5.993 5.993v25.621c-.001 3.311 2.683 5.994 5.993 5.994z" fill="#cbd0e4"/></g></g></g></g></g></g></svg>