<svg id="Capa_1" enable-background="new 0 0 510 510" height="512" viewBox="0 0 510 510" width="512" xmlns="http://www.w3.org/2000/svg" xmlns:xlink="http://www.w3.org/1999/xlink"><linearGradient id="lg1"><stop offset="0" stop-color="#ebeff0"/><stop offset="1" stop-color="#e3e5e4"/></linearGradient><linearGradient id="SVGID_1_" gradientUnits="userSpaceOnUse" x1="155.333" x2="308.813" xlink:href="#lg1" y1="108.587" y2="343.602"/><linearGradient id="SVGID_2_" gradientUnits="userSpaceOnUse" x1="359.764" x2="198.666" y1="429.071" y2="42.224"><stop offset="0" stop-color="#cbd0e4" stop-opacity="0"/><stop offset="1" stop-color="#6a7d83"/></linearGradient><linearGradient id="SVGID_3_" gradientUnits="userSpaceOnUse" x1="195.961" x2="338.249" y1="50.305" y2="414.82"><stop offset="0" stop-color="#7faef4"/><stop offset="1" stop-color="#4c8df1"/></linearGradient><linearGradient id="lg2"><stop offset="0" stop-color="#4c8df1" stop-opacity="0"/><stop offset="1" stop-color="#4256ac"/></linearGradient><linearGradient id="SVGID_4_" gradientUnits="userSpaceOnUse" x1="397.866" x2="264.464" xlink:href="#lg2" y1="255.935" y2="122.533"/><linearGradient id="SVGID_5_" gradientUnits="userSpaceOnUse" x1="332.114" x2="119.1" xlink:href="#lg2" y1="277.158" y2="64.145"/><linearGradient id="lg3"><stop offset="0" stop-color="#a7c5fd"/><stop offset="1" stop-color="#7faef4"/></linearGradient><linearGradient id="SVGID_6_" gradientUnits="userSpaceOnUse" x1="311.346" x2="345.748" xlink:href="#lg3" y1="167.425" y2="206.862"/><linearGradient id="SVGID_7_" gradientUnits="userSpaceOnUse" x1="375.665" x2="346.353" xlink:href="#lg2" y1="357.095" y2="242.513"/><linearGradient id="SVGID_8_" gradientUnits="userSpaceOnUse" x1="306.189" x2="341.328" xlink:href="#lg3" y1="255.739" y2="309.326"/><linearGradient id="SVGID_9_" gradientUnits="userSpaceOnUse" x1="188.831" x2="232.532" xlink:href="#lg1" y1="131.388" y2="181.485"/><linearGradient id="SVGID_10_" gradientUnits="userSpaceOnUse" x1="290.383" x2="228.889" xlink:href="#lg2" y1="352.922" y2="209.084"/><linearGradient id="SVGID_11_" gradientUnits="userSpaceOnUse" x1="182.28" x2="226.917" xlink:href="#lg1" y1="243.575" y2="311.646"/><g><path d="m476.441 14.351h-442.882c-18.534 0-33.559 15.025-33.559 33.56v431.733c0 14.231 17.205 21.357 27.268 11.295l90.259-90.259c11.777-11.777 27.751-18.394 44.407-18.394h314.506c18.534 0 33.559-15.025 33.559-33.559v-300.816c.001-18.535-15.024-33.56-33.558-33.56z" fill="url(#SVGID_1_)"/><path d="m510 348.726v-250.242l-31.968-31.968c-5.441-8.694-15.096-11.282-26.108-11.282h-393.848c-17.001 0-27.586 10.585-27.586 27.586v237.466c0 11.012 2.588 20.667 11.282 26.108l65.021 65.021 10.735-10.735c11.777-11.777 27.751-18.394 44.407-18.394h314.506c18.534-.001 33.559-15.026 33.559-33.56z" fill="url(#SVGID_2_)"/><path d="m58.076 52.036h393.848c17.001 0 30.784 13.782 30.784 30.784v398.537c0 12.708-15.364 19.072-24.35 10.086l-123.948-123.949c-10.517-10.517-24.781-16.425-39.654-16.425h-236.68c-17.001 0-30.784-13.782-30.784-30.784v-237.465c0-17.002 13.783-30.784 30.784-30.784z" fill="url(#SVGID_3_)"/><path d="m482.708 284.546-128.121-128.12c-7.323-8.74-18.315-12.653-30.609-12.653-22.049 0-38.275 16.226-38.275 38.275 0 12.294 3.914 23.286 12.653 30.609l184.351 184.351v-112.462z" fill="url(#SVGID_4_)"/><path d="m245.427 117.723c-9.475-11.307-23.695-16.37-39.601-16.37-28.525 0-49.518 20.993-49.518 49.518 0 15.906 5.063 30.126 16.37 39.601l303.113 303.113c4.016-2.388 6.917-6.708 6.917-12.228v-126.353z" fill="url(#SVGID_5_)"/><g><g><circle cx="324.725" cy="182.762" fill="url(#SVGID_6_)" r="40.659"/><path d="m392.452 262.205c-17.868-15.833-41.378-23.783-67.13-23.783-.002 0-.011 0-.013 0-25.753 0-49.262 9.611-67.13 25.445-5.241 4.644-6.489 9.715-6.489 16.717v12.48c0 3.301.404 6.114 3.31 7.234l52.182 52.182c10.229 2.325 19.693 7.479 27.229 15.014l123.948 123.948c8.986 8.986 24.35 2.622 24.35-10.086v-128.785z" fill="url(#SVGID_7_)"/><path d="m324.732 236.048c-.002 0-.004 0-.007 0-.002 0-.004 0-.007 0-26.007 0-49.748 9.706-67.792 25.696-5.292 4.69-8.231 11.489-8.231 18.56v12.603c0 4.327 3.508 7.835 7.835 7.835h136.388c4.327 0 7.835-3.508 7.835-7.835v-12.603c0-7.071-2.938-13.871-8.231-18.56-18.042-15.99-41.784-25.696-67.79-25.696z" fill="url(#SVGID_8_)"/></g><g><circle cx="205.826" cy="150.871" fill="url(#SVGID_9_)" r="51.65"/><path d="m334.41 367.494 123.948 123.948c8.986 8.986 24.35 2.622 24.35-10.086v-39.165l-190.756-190.989c-22.921-20.312-53.081-30.51-86.117-30.51-.003 0-.014 0-.017 0-33.036 0-63.196 12.33-86.117 32.642-6.723 5.958-8.324 12.463-8.324 21.446v16.01c0 4.235.518 7.843 4.246 9.281l50.999 50.999h128.133c14.874-.001 29.138 5.907 39.655 16.424z" fill="url(#SVGID_10_)"/><path d="m205.835 218.56c-.003 0-.006 0-.009 0s-.006 0-.009 0c-33.036 0-63.196 12.33-86.117 32.642-6.723 5.958-10.456 14.595-10.456 23.578v16.01c0 5.497 4.456 9.953 9.953 9.953h173.256c5.497 0 9.953-4.456 9.953-9.953v-16.01c0-8.983-3.733-17.62-10.456-23.578-22.92-20.312-53.079-32.642-86.115-32.642z" fill="url(#SVGID_11_)"/></g></g></g></svg>