<svg id="Capa_1" enable-background="new 0 0 510 510" height="512" viewBox="0 0 510 510" width="512" xmlns="http://www.w3.org/2000/svg" xmlns:xlink="http://www.w3.org/1999/xlink"><linearGradient id="SVGID_1_" gradientTransform="matrix(-1 0 0 1 273.535 0)" gradientUnits="userSpaceOnUse" x1="-150.076" x2="-11.6" y1="211.162" y2="287.973"><stop offset="0" stop-color="#28a265"/><stop offset="1" stop-color="#28895e"/></linearGradient><linearGradient id="lg1"><stop offset="0" stop-color="#108372" stop-opacity="0"/><stop offset="1" stop-color="#006837"/></linearGradient><linearGradient id="SVGID_2_" gradientUnits="userSpaceOnUse" x1="337.313" x2="266.231" xlink:href="#lg1" y1="213.47" y2="170.612"/><linearGradient id="SVGID_3_" gradientUnits="userSpaceOnUse" x1="87.128" x2="225.617" y1="209.796" y2="286.614"><stop offset="0" stop-color="#7faef4"/><stop offset="1" stop-color="#4c8df1"/></linearGradient><linearGradient id="SVGID_4_" gradientUnits="userSpaceOnUse" x1="99.999" x2="99.999" y1="432.061" y2="503.306"><stop offset="0" stop-color="#4256ac" stop-opacity="0"/><stop offset="1" stop-color="#1b1464"/></linearGradient><linearGradient id="SVGID_5_" gradientUnits="userSpaceOnUse" x1="410.001" x2="410.001" xlink:href="#lg1" y1="419.506" y2="454.067"/><g><path d="m189.015 81.215 60.687 146.186 5.306 12.786 73.655 178.182c13.617 32.943 40.38 53.555 69.535 53.555h98.73c9.837 0 16.14-13.375 11.539-24.486l-160.415-387.358c-5.625-13.539-16.637-21.003-28.632-21.003h-130.029c-11.258 0-7.991 23.818-.376 42.138z" fill="url(#SVGID_1_)"/><path d="m249.702 227.401 5.306 12.786.01.025 231.712 231.712h10.198c9.837 0 16.14-13.375 11.539-24.486l-160.415-387.358c-5.625-13.539-16.637-21.003-28.632-21.003h-130.029c-11.258 0-7.991 23.818-.377 42.138z" fill="url(#SVGID_2_)"/><path d="m356.774 81.142c-7.647-18.278-28.174-18.247-35.788.073l-60.687 146.186-5.306 12.786-73.655 178.182c-13.617 32.943-40.38 53.555-69.535 53.555h-98.73c-9.837 0-16.14-13.375-11.539-24.486l160.414-387.358c5.625-13.539 16.637-22.003 28.632-22.003h130.028c11.258 0 21.591 7.941 26.864 20.654l.557 1.35z" fill="url(#SVGID_3_)"/><path d="m32.267 373.226-30.733 74.211c-4.601 11.111 1.702 24.486 11.539 24.486h98.73c29.155 0 55.917-20.612 69.535-53.555l18.661-45.143h-167.732z" fill="url(#SVGID_4_)"/><path d="m328.662 418.368c13.618 32.943 40.38 53.555 69.535 53.555h98.73c9.837 0 16.14-13.375 11.539-24.486l-30.733-74.211h-167.731z" fill="url(#SVGID_5_)"/></g></svg>