<svg id="Capa_1" enable-background="new 0 0 510 510" height="512" viewBox="0 0 510 510" width="512" xmlns="http://www.w3.org/2000/svg" xmlns:xlink="http://www.w3.org/1999/xlink"><linearGradient id="SVGID_1_" gradientUnits="userSpaceOnUse" x1="110.379" x2="412.934" y1="139.377" y2="441.932"><stop offset="0" stop-color="#7faef4"/><stop offset="1" stop-color="#4c8df1"/></linearGradient><linearGradient id="SVGID_2_" gradientUnits="userSpaceOnUse" x1="255" x2="255" y1="317.913" y2="-148.152"><stop offset="0" stop-color="#4c8df1" stop-opacity="0"/><stop offset="1" stop-color="#4256ac"/></linearGradient><linearGradient id="SVGID_3_" gradientUnits="userSpaceOnUse" x1="255" x2="255" y1="29.998" y2="135.998"><stop offset="0" stop-color="#cbd0e4"/><stop offset="1" stop-color="#6a7d83"/></linearGradient><linearGradient id="SVGID_4_" gradientUnits="userSpaceOnUse" x1="347" x2="401" y1="331.84" y2="483.84"><stop offset="0" stop-color="#4166bf"/><stop offset="1" stop-color="#4256ac"/></linearGradient><linearGradient id="SVGID_5_" gradientUnits="userSpaceOnUse" x1="255" x2="255" y1="439.289" y2="491.241"><stop offset="0" stop-color="#4256ac" stop-opacity="0"/><stop offset="1" stop-color="#1b1464"/></linearGradient><linearGradient id="SVGID_6_" gradientUnits="userSpaceOnUse" x1="102.029" x2="148.029" y1="323.405" y2="413.405"><stop offset="0" stop-color="#ebeff0"/><stop offset="1" stop-color="#e3e5e4"/></linearGradient><linearGradient id="SVGID_7_" gradientUnits="userSpaceOnUse" x1="127.5" x2="127.5" y1="435.998" y2="504.031"><stop offset="0" stop-color="#cbd0e4" stop-opacity="0"/><stop offset="1" stop-color="#6a7d83"/></linearGradient><g><g><path d="m490.588 491.483h-471.176c-10.721 0-19.412-8.691-19.412-19.412v-376.147c0-10.721 8.691-19.412 19.412-19.412h471.176c10.721 0 19.412 8.691 19.412 19.412v376.147c0 10.721-8.691 19.412-19.412 19.412z" fill="url(#SVGID_1_)"/><path d="m510 95.928v376.14c0 10.72-8.69 19.42-19.41 19.42h-96.19l-394.4-394.4s8.69-20.58 19.41-20.58h471.18c10.72 0 19.41 8.7 19.41 19.42z" fill="url(#SVGID_2_)"/><path d="m510 97.087h-510v-59.163c0-10.721 8.691-19.412 19.412-19.412h471.176c10.721 0 19.412 8.691 19.412 19.412z" fill="url(#SVGID_3_)"/><g fill="#fff"><path d="m35.738 73.537c-8.692 0-15.738-7.046-15.738-15.738 0-8.692 7.046-15.738 15.738-15.738 8.692 0 15.738 7.046 15.738 15.738 0 8.692-7.046 15.738-15.738 15.738z"/><path d="m75.869 73.537c-8.692 0-15.738-7.046-15.738-15.738 0-8.692 7.046-15.738 15.738-15.738 8.692 0 15.738 7.046 15.738 15.738 0 8.692-7.046 15.738-15.738 15.738z"/><path d="m116 73.537c-8.692 0-15.738-7.046-15.738-15.738 0-8.692 7.046-15.738 15.738-15.738 8.692 0 15.738 7.046 15.738 15.738 0 8.692-7.046 15.738-15.738 15.738z"/></g><path d="m223.008 281.998v209.485h267.58c10.721 0 19.412-8.691 19.412-19.412v-190.073z" fill="url(#SVGID_4_)"/><path d="m0 401.973v70.099c0 10.721 8.691 19.412 19.412 19.412h471.176c10.721 0 19.412-8.691 19.412-19.412v-70.099z" fill="url(#SVGID_5_)"/><path d="m235.779 491.483h-216.558c-10.616 0-19.221-8.605-19.221-19.221v-198.044c0-10.615 8.605-19.221 19.221-19.221h216.559c10.615 0 19.221 8.605 19.221 19.221v198.044c-.001 10.616-8.606 19.221-19.222 19.221z" fill="url(#SVGID_6_)"/><g><g><g><g><path d="m37.9 365.964h179.2c3.263 0 5.908-2.645 5.908-5.908v-14.408c0-3.263-2.645-5.908-5.908-5.908h-179.2c-3.263 0-5.908 2.645-5.908 5.908v14.408c0 3.263 2.645 5.908 5.908 5.908z" fill="#cbd0e4"/></g></g></g><g><g><g><path d="m37.9 406.9h179.2c3.263 0 5.908-2.645 5.908-5.908v-14.408c0-3.263-2.645-5.908-5.908-5.908h-179.2c-3.263 0-5.908 2.645-5.908 5.908v14.408c0 3.263 2.645 5.908 5.908 5.908z" fill="#cbd0e4"/></g></g></g><g><g><g><path d="m37.9 324.869h179.2c3.263 0 5.908-2.645 5.908-5.908v-14.408c0-3.263-2.645-5.908-5.908-5.908h-179.2c-3.263 0-5.908 2.645-5.908 5.908v14.408c0 3.263 2.645 5.908 5.908 5.908z" fill="#cbd0e4"/></g></g></g><g><g><g><path d="m36.27 447.836h114.551c2.363 0 4.278-1.915 4.278-4.278v-17.668c0-2.363-1.915-4.278-4.278-4.278h-114.551c-2.363 0-4.278 1.915-4.278 4.278v17.668c0 2.362 1.915 4.278 4.278 4.278z" fill="#cbd0e4"/></g></g></g></g></g></g><path d="m255 472.263v-70.29h-255v70.099c0 10.721 8.691 19.412 19.412 19.412h216.368c10.615-.001 19.22-8.606 19.22-19.221z" fill="url(#SVGID_7_)"/></svg>