<svg id="Capa_1" enable-background="new 0 0 510 510" height="512" viewBox="0 0 510 510" width="512" xmlns="http://www.w3.org/2000/svg" xmlns:xlink="http://www.w3.org/1999/xlink"><linearGradient id="SVGID_1_" gradientUnits="userSpaceOnUse" x1="124.201" x2="446.236" y1="142.092" y2="464.127"><stop offset="0" stop-color="#7faef4"/><stop offset="1" stop-color="#4c8df1"/></linearGradient><linearGradient id="lg1"><stop offset="0" stop-color="#4256ac" stop-opacity="0"/><stop offset="1" stop-color="#1b1464"/></linearGradient><linearGradient id="SVGID_2_" gradientUnits="userSpaceOnUse" x1="255" x2="255" xlink:href="#lg1" y1="360.208" y2="110.365"/><linearGradient id="SVGID_3_" gradientUnits="userSpaceOnUse" x1="255" x2="255" xlink:href="#lg1" y1="451.539" y2="533.386"/><linearGradient id="lg2"><stop offset="0" stop-color="#a7c5fd"/><stop offset="1" stop-color="#7faef4"/></linearGradient><linearGradient id="SVGID_4_" gradientUnits="userSpaceOnUse" x1="67.488" x2="129.8" xlink:href="#lg2" y1="102.119" y2="151.969"/><linearGradient id="lg3"><stop offset="0" stop-color="#4166bf"/><stop offset="1" stop-color="#4256ac"/></linearGradient><linearGradient id="SVGID_5_" gradientUnits="userSpaceOnUse" x1="199.363" x2="257.338" xlink:href="#lg3" y1="114.707" y2="172.682"/><linearGradient id="SVGID_6_" gradientUnits="userSpaceOnUse" x1="284.151" x2="363.614" xlink:href="#lg2" y1="81.327" y2="160.79"/><linearGradient id="SVGID_7_" gradientUnits="userSpaceOnUse" x1="418.268" x2="494.306" xlink:href="#lg3" y1="106.106" y2="182.144"/><linearGradient id="SVGID_8_" gradientUnits="userSpaceOnUse" x1="48.828" x2="104.399" xlink:href="#lg2" y1="204.487" y2="260.058"/><linearGradient id="SVGID_9_" gradientUnits="userSpaceOnUse" x1="194.363" x2="220.079" xlink:href="#lg3" y1="222.522" y2="248.238"/><linearGradient id="SVGID_10_" gradientUnits="userSpaceOnUse" x1="296.28" x2="349.268" xlink:href="#lg2" y1="196.939" y2="249.927"/><linearGradient id="SVGID_11_" gradientUnits="userSpaceOnUse" x1="430.131" x2="480.814" xlink:href="#lg3" y1="203.29" y2="253.973"/><linearGradient id="SVGID_12_" gradientUnits="userSpaceOnUse" x1="360.811" x2="425.597" y1="379.197" y2="443.983"><stop offset="0" stop-color="#ebeff0"/><stop offset="1" stop-color="#d1cecf"/></linearGradient><g><g><path d="m438.349 498.947h-366.698c-23.587 0-42.707-19.121-42.707-42.707v-366.698c0-23.587 19.121-42.707 42.707-42.707h366.697c23.587 0 42.707 19.121 42.707 42.707v366.698c.001 23.586-19.12 42.707-42.706 42.707z" fill="url(#SVGID_1_)"/><path d="m481.06 89.538v366.706c0 23.586-19.12 42.707-42.707 42.707h-174.151l-235.262-235.262v-174.151c0-23.586 19.12-42.707 42.707-42.707h366.706c23.586 0 42.707 19.121 42.707 42.707z" fill="url(#SVGID_2_)"/><path d="m28.944 394.196v62.044c0 23.587 19.121 42.707 42.708 42.707h366.697c23.587 0 42.707-19.121 42.707-42.707v-62.044z" fill="url(#SVGID_3_)"/></g><g><path d="m127.5 202.14h-127.5l30.514-156.218c3.957-20.256 21.705-34.873 42.344-34.873h73.305z" fill="url(#SVGID_4_)"/><path d="m255 202.14h-127.5l18.663-191.091h108.837z" fill="url(#SVGID_5_)"/><path d="m382.5 202.14h-127.5v-191.091h108.837z" fill="url(#SVGID_6_)"/><path d="m510 202.14h-127.5l-18.663-191.09h73.305c20.639 0 38.387 14.617 42.344 34.873z" fill="url(#SVGID_7_)"/></g><g><path d="m127.5 202.14h-127.5v8.132c0 35.208 28.542 63.75 63.75 63.75 35.208 0 63.75-28.542 63.75-63.75z" fill="url(#SVGID_8_)"/><path d="m255 202.14h-127.5v8.132c0 35.208 28.542 63.75 63.75 63.75 35.208 0 63.75-28.542 63.75-63.75z" fill="url(#SVGID_9_)"/><path d="m382.5 202.14h-127.5v8.132c0 35.208 28.542 63.75 63.75 63.75 35.208 0 63.75-28.542 63.75-63.75z" fill="url(#SVGID_10_)"/><path d="m510 202.14h-127.5v8.132c0 35.208 28.542 63.75 63.75 63.75 35.208 0 63.75-28.542 63.75-63.75z" fill="url(#SVGID_11_)"/></g><path d="m443.057 395.28h-48.034c-4.912 0-8.895 3.982-8.895 8.895v5.432c0 4.912 3.982 8.895 8.895 8.895h25.972c.751 0 1.273.772.969 1.458-6.153 13.864-20.055 23.374-36.184 23.272-26.531-.168-46.822-26.616-36.153-54.623 3.748-9.84 11.647-17.601 21.523-21.252 13.77-5.092 27.133-2.722 37.145 4.169 3.55 2.443 8.319 2.067 11.366-.981l3.898-3.898c3.858-3.858 3.358-10.267-1.07-13.454-15.347-11.047-35.906-15.303-57.284-8.366-18.312 5.942-32.674 20.501-38.46 38.863-13.666 43.373 18.647 83.222 60.093 82.701 34.265-.431 61.665-28.68 61.665-62.948v-2.716c0-3.009-2.438-5.447-5.446-5.447z" fill="url(#SVGID_12_)"/></g></svg>