<svg id="Capa_1" enable-background="new 0 0 510 510" height="512" viewBox="0 0 510 510" width="512" xmlns="http://www.w3.org/2000/svg" xmlns:xlink="http://www.w3.org/1999/xlink"><linearGradient id="SVGID_1_" gradientUnits="userSpaceOnUse" x1="304.978" x2="513.449" y1="219.544" y2="419.017"><stop offset="0" stop-color="#ebeff0"/><stop offset="1" stop-color="#cbd0e4"/></linearGradient><linearGradient id="lg1"><stop offset="0" stop-color="#cbd0e4" stop-opacity="0"/><stop offset="1" stop-color="#6a7d83"/></linearGradient><linearGradient id="SVGID_2_" gradientUnits="userSpaceOnUse" x1="425.728" x2="242.753" xlink:href="#lg1" y1="253.348" y2="331.337"/><linearGradient id="SVGID_3_" gradientUnits="userSpaceOnUse" x1="377.591" x2="377.591" xlink:href="#lg1" y1="434.61" y2="510.138"/><linearGradient id="SVGID_4_" gradientUnits="userSpaceOnUse" x1="79.869" x2="290.924" y1="168.132" y2="379.187"><stop offset="0" stop-color="#7faef4"/><stop offset="1" stop-color="#4c8df1"/></linearGradient><linearGradient id="SVGID_5_" gradientUnits="userSpaceOnUse" x1="297.333" x2="297.333" y1="476.604" y2="421.601"><stop offset="0" stop-color="#4166bf"/><stop offset="1" stop-color="#4256ac"/></linearGradient><linearGradient id="SVGID_6_" gradientUnits="userSpaceOnUse" x1="182.681" x2="182.681" y1="368.619" y2="434.678"><stop offset="0" stop-color="#4c8df1" stop-opacity="0"/><stop offset="1" stop-color="#4256ac"/></linearGradient><linearGradient id="SVGID_7_" gradientUnits="userSpaceOnUse" x1="109.998" x2="219.742" y1="159.253" y2="268.997"><stop offset="0" stop-color="#ebeff0"/><stop offset="1" stop-color="#d1cecf"/></linearGradient><g><path d="m316.348 509.956h158.64c18.471 0 33.445-14.974 33.445-33.445v-347.256c0-18.471-14.974-33.445-33.445-33.445h-337.807l130.625 379.517c7.132 20.72 26.629 34.629 48.542 34.629z" fill="url(#SVGID_1_)"/><path d="m263.251 95.81h-126.07l130.625 379.517c7.131 20.72 26.628 34.629 48.541 34.629h158.64c18.471 0 33.445-14.974 33.445-33.445v-135.52z" fill="url(#SVGID_2_)"/><path d="m463.508 366.132c-23.105-6.111-44.818-16.86-64.75-32.025 23.436-26.903 37.095-64.579 37.095-103.716v-.014h23.819c8.283 0 14.999-6.715 14.999-14.999s-6.715-14.999-14.999-14.999h-68.161v-9.78c0-8.283-6.715-14.999-14.999-14.999-8.283 0-14.999 6.715-14.999 14.999v9.78h-68.16c-8.283 0-14.999 6.715-14.999 14.999s6.715 14.999 14.999 14.999h112.502v.014c0 31.803-10.808 62.166-29.354 83.612-11.515-13.255-20.046-29.869-24.923-48.701-2.076-8.02-10.264-12.836-18.28-10.759-8.019 2.077-12.836 10.261-10.759 18.28 6.1 23.554 16.954 44.471 31.706 61.301-19.927 15.157-41.632 25.9-64.728 32.009-8.008 2.118-12.783 10.327-10.664 18.335 1.778 6.724 7.849 11.168 14.49 11.168 1.269 0 2.56-.163 3.845-.502 28.55-7.552 55.167-21.11 79.323-40.345 24.156 19.235 50.774 32.793 79.324 40.345 1.286.34 2.576.502 3.845.502 6.641 0 12.712-4.445 14.49-11.168 2.12-8.009-2.654-16.218-10.662-18.336z" fill="#6a7d83"/><path d="m246.749 414.146 21.058 61.181c7.131 20.72 26.628 34.629 48.541 34.629h158.64c18.471 0 33.445-14.974 33.445-33.445v-62.365z" fill="url(#SVGID_3_)"/><path d="m197.327 0h-162.315c-18.471 0-33.445 14.974-33.445 33.445v347.256c0 18.471 14.974 33.445 33.445 33.445h299.933c13.976 0 20.975 16.898 11.093 26.78 16.386-16.386 21.996-40.68 14.454-62.591l-119.494-347.181c-6.416-18.641-23.957-31.154-43.671-31.154z" fill="url(#SVGID_4_)"/><path d="m346.038 440.926-41.593 41.593c-10.141 10.141-2.959 27.481 11.383 27.481-23.253 0-43.94-14.763-51.502-36.751l-20.325-59.103h90.945c13.976 0 20.975 16.897 11.092 26.78z" fill="url(#SVGID_5_)"/><path d="m1.567 380.701c0 18.471 14.974 33.445 33.445 33.445h299.933c13.976 0 20.975 16.898 11.093 26.78 16.386-16.386 21.996-40.68 14.454-62.591l-21.836-63.443h-337.089z" fill="url(#SVGID_6_)"/><path d="m251.735 186.808h-86.407c-6.87 0-12.44 5.57-12.44 12.44v14.38c0 6.87 5.57 12.44 12.44 12.44h49.181c-9.812 24.77-33.995 41.989-62.21 41.811-45.772-.29-80.559-46.845-59.952-95.258 5.904-13.871 16.834-25.091 30.63-31.167 25.637-11.292 50.84-6.981 69.018 6.35 4.912 3.603 11.727 3.042 16.035-1.265l10.265-10.265c5.312-5.312 4.69-14.061-1.266-18.639-28.008-21.525-67.108-29.324-107.254-13.333-24.944 9.935-44.682 29.911-54.464 54.916-29.867 76.35 26.164 148.728 98.776 147.815 57.931-.728 104.256-48.489 104.256-106.424v-7.19c.001-3.652-2.958-6.611-6.608-6.611z" fill="url(#SVGID_7_)"/></g></svg>