<svg id="Capa_1" enable-background="new 0 0 510 510" height="512" viewBox="0 0 510 510" width="512" xmlns="http://www.w3.org/2000/svg" xmlns:xlink="http://www.w3.org/1999/xlink"><linearGradient id="SVGID_1_" gradientUnits="userSpaceOnUse" x1="147.562" x2="355.35" y1="147.562" y2="355.35"><stop offset="0" stop-color="#7faef4"/><stop offset="1" stop-color="#4c8df1"/></linearGradient><linearGradient id="lg1"><stop offset="0" stop-color="#4c8df1" stop-opacity="0"/><stop offset="1" stop-color="#4256ac"/></linearGradient><linearGradient id="SVGID_2_" gradientUnits="userSpaceOnUse" x1="160.516" x2="112.09" xlink:href="#lg1" y1="313.484" y2="265.057"/><linearGradient id="SVGID_3_" gradientUnits="userSpaceOnUse" x1="495.244" x2="414.227" xlink:href="#lg1" y1="375.361" y2="294.344"/><linearGradient id="SVGID_4_" gradientUnits="userSpaceOnUse" x1="89.713" x2="143.794" y1="232.543" y2="286.624"><stop offset="0" stop-color="#a7c5fd"/><stop offset="1" stop-color="#7faef4"/></linearGradient><linearGradient id="SVGID_5_" gradientUnits="userSpaceOnUse" x1="116.58" x2="176.291" xlink:href="#lg1" y1="234.05" y2="174.34"/><linearGradient id="SVGID_6_" gradientUnits="userSpaceOnUse" x1="322.255" x2="322.255" y1="244.631" y2="328.116"><stop offset="0" stop-color="#ebeff0"/><stop offset="1" stop-color="#e3e5e4"/></linearGradient><g><g><path d="m510 255c0 140.833-114.167 255-255 255s-255-114.167-255-255 114.167-255 255-255c98.252 0 183.526 55.568 226.109 136.99 6.728 12.864 2.819 40.313 7.298 54.351 4.825 15.122 17.849 16.917 19.783 33.119 1.195 10.013 1.81 20.205 1.81 30.54z" fill="url(#SVGID_1_)"/></g><path d="m224.459 169.792-198.134 198.134c13.635 27.559 32.101 52.296 54.297 73.11l207.54-207.54z" fill="url(#SVGID_2_)"/><path d="m510 255c0-10.336-.617-20.527-1.815-30.539-1.938-16.199-18.657-18.672-23.482-33.793l-174.153 174.152 95.575 95.575c62.997-46.429 103.875-121.134 103.875-205.395z" fill="url(#SVGID_3_)"/><g><path d="m205.46 202.45-28.64 28.64-145.84 145.83c-14.31-26.24-24.15-55.27-28.48-86.07l145.68-145.68c15.82-15.81 41.46-15.81 57.27.01h.01c.12.12.24.24.36.37 15.45 15.83 15.33 41.2-.36 56.9z" fill="url(#SVGID_4_)"/><path d="m73.275 220.075 57.278 57.278 46.267-46.264 28.64-28.64c15.69-15.7 13.05-38.31-2.4-54.14-.12-.13-.245-.245-.365-.365l-.005-.005c-15.81-15.82-38.69-18.58-54.51-2.77z" fill="url(#SVGID_5_)"/><path d="m508.19 224.46-140.36 140.36c-15.82 15.82-41.46 15.82-57.28 0l-162.37-162.37c-7.91-7.91-11.86-18.27-11.86-28.64s3.95-20.73 11.86-28.64c15.82-15.81 41.46-15.81 57.27.01l.37.37 120.45 120.44c7.13 7.14 18.71 7.14 25.84 0l129-129c13.97 26.72 23.35 56.23 27.08 87.47z" fill="url(#SVGID_6_)"/></g></g></svg>