<svg id="Capa_1" enable-background="new 0 0 510 510" height="512" viewBox="0 0 510 510" width="512" xmlns="http://www.w3.org/2000/svg" xmlns:xlink="http://www.w3.org/1999/xlink"><linearGradient id="lg1"><stop offset="0" stop-color="#ff637b"/><stop offset="1" stop-color="#e63950"/></linearGradient><linearGradient id="SVGID_1_" gradientUnits="userSpaceOnUse" x1="100.371" x2="426.998" xlink:href="#lg1" y1="186.037" y2="512.665"/><linearGradient id="SVGID_2_" gradientUnits="userSpaceOnUse" x1="419.998" x2="68.587" xlink:href="#lg1" y1="483.7" y2="132.288"/><linearGradient id="lg2"><stop offset="0" stop-color="#e63950" stop-opacity="0"/><stop offset=".0467" stop-color="#e4354b" stop-opacity=".047"/><stop offset=".4669" stop-color="#d31822" stop-opacity=".467"/><stop offset=".7991" stop-color="#c90709" stop-opacity=".799"/><stop offset="1" stop-color="#c50000"/></linearGradient><linearGradient id="SVGID_3_" gradientUnits="userSpaceOnUse" x1="255" x2="255" xlink:href="#lg2" y1="412.622" y2="457.533"/><linearGradient id="SVGID_4_" gradientUnits="userSpaceOnUse" x1="343.76" x2="230.16" xlink:href="#lg2" y1="426.861" y2="313.261"/><linearGradient id="lg3"><stop offset="0" stop-color="#edf5ff"/><stop offset="1" stop-color="#b5dbff"/></linearGradient><linearGradient id="SVGID_5_" gradientUnits="userSpaceOnUse" x1="221.237" x2="300.829" xlink:href="#lg3" y1="237.213" y2="294.473"/><linearGradient id="lg4"><stop offset="0" stop-color="#b5dbff" stop-opacity="0"/><stop offset=".2428" stop-color="#93cef6" stop-opacity=".243"/><stop offset=".5763" stop-color="#6abfec" stop-opacity=".576"/><stop offset=".8403" stop-color="#51b5e5" stop-opacity=".84"/><stop offset="1" stop-color="#48b2e3"/></linearGradient><linearGradient id="SVGID_6_" gradientTransform="matrix(.707 -.707 .707 .707 -728.901 -1249.723)" gradientUnits="userSpaceOnUse" x1="-142.846" x2="-60.891" xlink:href="#lg4" y1="1795.6" y2="1776.709"/><linearGradient id="SVGID_7_" gradientTransform="matrix(.707 -.707 .707 .707 -728.901 -1249.723)" gradientUnits="userSpaceOnUse" x1="-594.616" x2="-710.088" xlink:href="#lg4" y1="1731.989" y2="1791.663"/><linearGradient id="SVGID_8_" gradientUnits="userSpaceOnUse" x1="282.722" x2="468.313" xlink:href="#lg4" y1="270.023" y2="327.067"/><linearGradient id="SVGID_9_" gradientUnits="userSpaceOnUse" x1="123.933" x2="185.933" xlink:href="#lg4" y1="382.975" y2="346.309"/><linearGradient id="SVGID_10_" gradientTransform="matrix(0 1 -1 0 484.093 -25.907)" gradientUnits="userSpaceOnUse" x1="253.647" x2="333.239" xlink:href="#lg3" y1="204.803" y2="262.063"/><linearGradient id="SVGID_11_" gradientTransform="matrix(.707 .707 -.707 .707 1733.816 -754.808)" gradientUnits="userSpaceOnUse" x1="-97.011" x2="-15.056" xlink:href="#lg4" y1="1795.6" y2="1776.709"/><linearGradient id="SVGID_12_" gradientTransform="matrix(.707 .707 -.707 .707 1733.816 -754.808)" gradientUnits="userSpaceOnUse" x1="-548.781" x2="-664.254" xlink:href="#lg4" y1="1731.989" y2="1791.663"/><linearGradient id="SVGID_13_" gradientTransform="matrix(0 1 -1 0 484.093 -25.907)" gradientUnits="userSpaceOnUse" x1="315.132" x2="500.723" xlink:href="#lg4" y1="237.613" y2="294.657"/><linearGradient id="SVGID_14_" gradientUnits="userSpaceOnUse" x1="225.209" x2="345.853" xlink:href="#lg3" y1="252.765" y2="344.684"/><linearGradient id="SVGID_15_" gradientUnits="userSpaceOnUse" x1="186.071" x2="235.823" xlink:href="#lg4" y1="374.339" y2="424.091"/><linearGradient id="SVGID_16_" gradientUnits="userSpaceOnUse" x1="249.263" x2="294.884" xlink:href="#lg4" y1="374.147" y2="419.768"/><linearGradient id="SVGID_17_" gradientUnits="userSpaceOnUse" x1="311.455" x2="361.597" xlink:href="#lg4" y1="372.955" y2="423.096"/><linearGradient id="lg5"><stop offset="0" stop-color="#0b799d"/><stop offset="1" stop-color="#07485e"/></linearGradient><linearGradient id="SVGID_18_" gradientUnits="userSpaceOnUse" x1="238.04" x2="148.012" xlink:href="#lg5" y1="313.03" y2="223.002"/><linearGradient id="SVGID_19_" gradientTransform="matrix(-1 0 0 1 381.264 0)" gradientUnits="userSpaceOnUse" x1="109.303" x2="19.276" xlink:href="#lg5" y1="313.03" y2="223.002"/><linearGradient id="SVGID_20_" gradientUnits="userSpaceOnUse" x1="255" x2="255" xlink:href="#lg5" y1="335.969" y2="299.709"/><g><g><path d="m203.482 56.58-194.09 309.459c-25.402 40.501 3.711 93.124 51.518 93.124h388.18c47.807 0 76.92-52.624 51.518-93.124l-194.09-309.459c-23.834-38.001-79.202-38.001-103.036 0z" fill="url(#SVGID_1_)"/><path d="m221.022 131.338-128.008 204.098c-16.753 26.711 2.447 61.418 33.978 61.418h256.016c31.53 0 50.731-34.707 33.978-61.418l-128.008-204.098c-15.72-25.063-52.237-25.062-67.956 0z" fill="url(#SVGID_2_)"/><path d="m60.91 459.163h388.18c36.163 0 61.621-30.112 60.886-62.31h-509.952c-.735 32.199 24.723 62.31 60.886 62.31z" fill="url(#SVGID_3_)"/></g><path d="m84.362 459.163h364.728c47.807 0 76.92-52.624 51.518-93.124l-124.545-198.576z" fill="url(#SVGID_4_)"/><g><g><g><path d="m433.212 83.291c.571-10.952-3.322-22.094-11.687-30.459-15.661-15.661-41.053-15.661-56.715 0-15.661 15.661-15.661 41.053 0 56.715l-261.767 261.766c-15.661-15.661-41.053-15.661-56.715 0-15.661 15.661-15.661 41.053 0 56.715 8.366 8.366 19.507 12.259 30.459 11.687-.571 10.952 3.322 22.094 11.687 30.459 15.661 15.661 41.053 15.661 56.715 0 15.661-15.661 15.661-41.053 0-56.715l261.767-261.767c15.661 15.661 41.053 15.661 56.715 0 15.661-15.661 15.661-41.053 0-56.715-8.365-8.364-19.507-12.258-30.459-11.686z" fill="url(#SVGID_5_)"/><g><path d="m463.669 94.977c15.663 15.663 15.663 41.055 0 56.718-15.659 15.659-41.05 15.659-56.714-.004-8.364-8.364-12.26-19.51-11.685-30.459 9.552-.493 18.955-4.389 26.25-11.685s11.196-16.703 11.689-26.255c10.95-.575 22.097 3.321 30.46 11.685z" fill="url(#SVGID_6_)"/></g><path d="m103.044 371.315c8.364 8.364 12.26 19.51 11.685 30.459-9.552.493-18.955 4.389-26.25 11.685-7.295 7.295-11.196 16.703-11.689 26.255-10.949.575-22.095-3.321-30.459-11.685-15.663-15.663-15.663-41.055 0-56.718 15.659-15.659 41.05-15.659 56.713.004z" fill="url(#SVGID_7_)"/><path d="m395.269 121.234c-10.952.571-22.094-3.322-30.459-11.687l-261.767 261.766c8.366 8.366 12.259 19.507 11.687 30.459 10.952-.571 22.094 3.322 30.459 11.687l261.767-261.767c-8.365-8.365-12.258-19.506-11.687-30.458z" fill="url(#SVGID_8_)"/><path d="m191.786 366.863-42.147-42.147-46.597 46.596c8.366 8.366 12.259 19.507 11.688 30.459 10.952-.571 22.094 3.322 30.459 11.687z" fill="url(#SVGID_9_)"/></g><g><path d="m433.212 439.715c10.952.571 22.094-3.322 30.459-11.687 15.661-15.661 15.661-41.053 0-56.715-15.661-15.661-41.053-15.661-56.715 0l-261.766-261.767c15.661-15.661 15.661-41.053 0-56.715-15.661-15.661-41.053-15.661-56.715 0-8.366 8.366-12.259 19.507-11.687 30.459-10.952-.571-22.094 3.322-30.459 11.687-15.661 15.661-15.661 41.053 0 56.715 15.661 15.661 41.053 15.661 56.715 0l261.766 261.768c-15.661 15.661-15.661 41.053 0 56.715 15.661 15.661 41.053 15.661 56.715 0 8.365-8.366 12.258-19.508 11.687-30.46z" fill="url(#SVGID_10_)"/><g><path d="m421.526 470.172c-15.663 15.663-41.055 15.663-56.718 0-15.659-15.659-15.659-41.05.004-56.714 8.364-8.364 19.51-12.26 30.459-11.685.493 9.552 4.389 18.955 11.685 26.25 7.295 7.295 16.703 11.196 26.255 11.689.575 10.95-3.321 22.096-11.685 30.46z" fill="url(#SVGID_11_)"/></g><path d="m145.188 109.547c-8.364 8.364-19.51 12.26-30.459 11.685-.493-9.552-4.389-18.955-11.685-26.25s-16.703-11.196-26.254-11.69c-.575-10.949 3.321-22.095 11.685-30.459 15.663-15.663 41.055-15.663 56.718 0 15.658 15.659 15.658 41.051-.005 56.714z" fill="url(#SVGID_12_)"/><path d="m395.269 401.772c-.571-10.952 3.322-22.094 11.687-30.459l-261.766-261.767c-8.366 8.366-19.507 12.259-30.459 11.687.571 10.952-3.322 22.094-11.687 30.459l261.766 261.768c8.366-8.366 19.507-12.259 30.459-11.688z" fill="url(#SVGID_13_)"/></g></g><g><path d="m384 241.103c0-71.245-57.755-129-129-129s-129 57.755-129 129c0 18.688 3.98 36.445 11.129 52.478-7.149 7.625-11.129 16.069-11.129 24.956 0 16.585 13.845 31.63 36.332 42.672-1.538 3.042-2.409 6.477-2.409 10.118v17.114c0 12.406 10.057 22.462 22.462 22.462h18.46c12.405 0 22.462-10.057 22.462-22.462 0 12.406 10.057 22.462 22.462 22.462h18.46c12.406 0 22.462-10.057 22.462-22.462 0 12.406 10.057 22.462 22.462 22.462h18.46c12.406 0 22.462-10.057 22.462-22.462v-17.114c0-3.641-.872-7.076-2.409-10.118 22.489-11.041 36.334-26.087 36.334-42.672 0-8.887-3.979-17.332-11.129-24.956 7.15-16.033 11.129-33.79 11.129-52.478z" fill="url(#SVGID_14_)"/><g><path d="m223.308 388.441v-17.114c0-12.405-10.057-22.462-22.462-22.462h-18.46c-12.405 0-22.462 10.057-22.462 22.462v17.114c0 12.405 10.057 22.462 22.462 22.462h18.46c12.405 0 22.462-10.057 22.462-22.462z" fill="url(#SVGID_15_)"/><path d="m286.692 388.441v-17.114c0-12.405-10.057-22.462-22.462-22.462h-18.46c-12.405 0-22.462 10.057-22.462 22.462v17.114c0 12.405 10.057 22.462 22.462 22.462h18.46c12.406 0 22.462-10.057 22.462-22.462z" fill="url(#SVGID_16_)"/><path d="m350.077 388.441v-17.114c0-12.405-10.057-22.462-22.462-22.462h-18.46c-12.405 0-22.462 10.057-22.462 22.462v17.114c0 12.405 10.057 22.462 22.462 22.462h18.46c12.405 0 22.462-10.057 22.462-22.462z" fill="url(#SVGID_17_)"/></g><g><path d="m236.566 293.993c-10.761 18.732-37.964 23.301-60.759 10.206s-32.551-38.896-21.79-57.628 37.964-23.301 60.759-10.206 32.551 38.896 21.79 57.628z" fill="url(#SVGID_18_)"/><path d="m273.434 293.993c10.761 18.732 37.964 23.301 60.759 10.206s32.551-38.896 21.79-57.628-37.964-23.301-60.759-10.206-32.551 38.896-21.79 57.628z" fill="url(#SVGID_19_)"/></g><path d="m241.487 338.256c6.252-9.968 20.775-9.968 27.026 0 2.605 4.154 9.046 3.014 9.918-1.811.663-3.668.048-7.633-2.21-11.233l-7.708-12.289c-6.252-9.968-20.775-9.968-27.026 0l-7.708 12.289c-2.258 3.6-2.872 7.565-2.21 11.233.871 4.825 7.313 5.965 9.918 1.811z" fill="url(#SVGID_20_)"/></g></g></g></svg>