<svg id="Capa_1" enable-background="new 0 0 510 510" height="512" viewBox="0 0 510 510" width="512" xmlns="http://www.w3.org/2000/svg" xmlns:xlink="http://www.w3.org/1999/xlink"><linearGradient id="lg1"><stop offset="0" stop-color="#ff637b"/><stop offset="1" stop-color="#e63950"/></linearGradient><linearGradient id="SVGID_1_" gradientUnits="userSpaceOnUse" x1="100.371" x2="426.998" xlink:href="#lg1" y1="197.415" y2="524.043"/><linearGradient id="SVGID_2_" gradientUnits="userSpaceOnUse" x1="419.998" x2="68.587" xlink:href="#lg1" y1="495.078" y2="143.667"/><linearGradient id="lg2"><stop offset="0" stop-color="#e63950" stop-opacity="0"/><stop offset=".0467" stop-color="#e4354b" stop-opacity=".047"/><stop offset=".4669" stop-color="#d31822" stop-opacity=".467"/><stop offset=".7991" stop-color="#c90709" stop-opacity=".799"/><stop offset="1" stop-color="#c50000"/></linearGradient><linearGradient id="SVGID_3_" gradientUnits="userSpaceOnUse" x1="255" x2="255" xlink:href="#lg2" y1="424" y2="468.911"/><linearGradient id="SVGID_4_" gradientUnits="userSpaceOnUse" x1="391.185" x2="246.185" xlink:href="#lg2" y1="493.703" y2="268.703"/><linearGradient id="SVGID_5_" gradientUnits="userSpaceOnUse" x1="248.432" x2="254.831" y1="68.328" y2="155.785"><stop offset="0" stop-color="#edf5ff"/><stop offset="1" stop-color="#d5e8fe"/></linearGradient><linearGradient id="lg3"><stop offset="0" stop-color="#b5dbff" stop-opacity="0"/><stop offset=".2428" stop-color="#93cef6" stop-opacity=".243"/><stop offset=".5763" stop-color="#6abfec" stop-opacity=".576"/><stop offset=".8403" stop-color="#51b5e5" stop-opacity=".84"/><stop offset="1" stop-color="#48b2e3"/></linearGradient><linearGradient id="SVGID_6_" gradientUnits="userSpaceOnUse" x1="173.615" x2="94.28" xlink:href="#lg3" y1="214.373" y2="217.793"/><linearGradient id="SVGID_7_" gradientUnits="userSpaceOnUse" x1="304.115" x2="241.722" xlink:href="#lg3" y1="155.395" y2="291.381"/><linearGradient id="SVGID_8_" gradientUnits="userSpaceOnUse" x1="248.123" x2="163.332" xlink:href="#lg3" y1="138.416" y2="70.157"/><linearGradient id="SVGID_9_" gradientUnits="userSpaceOnUse" x1="358.263" x2="314.179" xlink:href="#lg3" y1="247.373" y2="246.662"/><linearGradient id="SVGID_10_" gradientUnits="userSpaceOnUse" x1="403.712" x2="295.635" xlink:href="#lg3" y1="275.585" y2="242.878"/><linearGradient id="SVGID_11_" gradientUnits="userSpaceOnUse" x1="240.359" x2="265.956" xlink:href="#lg3" y1="81.365" y2="293.964"/><linearGradient id="lg4"><stop offset="0" stop-color="#0b799d"/><stop offset="1" stop-color="#07485e"/></linearGradient><linearGradient id="SVGID_12_" gradientUnits="userSpaceOnUse" x1="192.663" x2="289.719" xlink:href="#lg4" y1="175.191" y2="374.636"/><linearGradient id="lg5"><stop offset="0" stop-color="#07485e" stop-opacity="0"/><stop offset="1" stop-color="#03232e"/></linearGradient><linearGradient id="SVGID_13_" gradientUnits="userSpaceOnUse" x1="304.762" x2="156.156" xlink:href="#lg5" y1="318.313" y2="339.644"/><linearGradient id="SVGID_14_" gradientUnits="userSpaceOnUse" x1="155.849" x2="252.906" xlink:href="#lg4" y1="193.105" y2="392.55"/><linearGradient id="SVGID_15_" gradientUnits="userSpaceOnUse" x1="133.728" x2="221.619" xlink:href="#lg5" y1="376.947" y2="337.677"/><linearGradient id="SVGID_16_" gradientUnits="userSpaceOnUse" x1="141.035" x2="105.459" xlink:href="#lg5" y1="287.701" y2="285.052"/><linearGradient id="SVGID_17_" gradientTransform="matrix(1 -.009 .009 1 -11.419 1.359)" gradientUnits="userSpaceOnUse" x1="131.974" x2="155.016" y1="284.379" y2="294.217"><stop offset="0" stop-color="#ff9100"/><stop offset="1" stop-color="#e63950"/></linearGradient><linearGradient id="SVGID_18_" gradientUnits="userSpaceOnUse" x1="98.065" x2="107.898" xlink:href="#lg5" y1="202.746" y2="160.73"/><g><g><g><path d="m203.482 67.959-194.09 309.459c-25.402 40.501 3.711 93.124 51.518 93.124h388.18c47.807 0 76.92-52.624 51.518-93.124l-194.09-309.459c-23.834-38.001-79.202-38.001-103.036 0z" fill="url(#SVGID_1_)"/><path d="m221.022 142.717-128.008 204.097c-16.753 26.711 2.447 61.418 33.978 61.418h256.016c31.53 0 50.731-34.707 33.978-61.418l-128.008-204.097c-15.72-25.063-52.237-25.063-67.956 0z" fill="url(#SVGID_2_)"/><path d="m60.91 470.542h388.18c36.163 0 61.621-30.112 60.886-62.31h-509.952c-.735 32.198 24.723 62.31 60.886 62.31z" fill="url(#SVGID_3_)"/></g></g><path d="m500.608 377.417-182.213-290.521c-23.56-13.664-50.921-21.497-80.118-21.497-12.279 0-24.228 1.403-35.713 4.022l-104.875 167.215 30.122 139.6c1.328 6.153 5.122 11.239 10.199 14.353l79.953 79.953h231.127c47.807 0 76.92-52.624 51.518-93.125z" fill="url(#SVGID_4_)"/><g><path d="m415.281 312.862-39.12 39.12c-.437-1.333-.917-2.656-1.44-3.978l-48.677-124.242c-15.358-42.534-56.122-72.931-103.978-72.856-33.052.053-61.647 15.86-78.279 43.691l-52.33-32.844c24.605-56.698 81.079-96.352 146.821-96.352 71.352 0 131.783 46.715 152.41 111.231.021.053.043.107.064.171l34.291 90.697c5.946 15.723 2.126 33.474-9.762 45.362z" fill="url(#SVGID_5_)"/><path d="m415.282 312.86-39.121 39.121c-.437-1.333-.917-2.656-1.44-3.978l-48.677-124.242c-15.358-42.534-56.122-72.931-103.978-72.856-15.828.021-30.631 3.669-43.59 10.516l-51.472-50.971c28.786-27.89 68.025-45.051 111.273-45.051 71.352 0 131.783 46.715 152.41 111.231.021.053.043.107.064.171l34.29 90.699c5.952 15.721 2.123 33.468-9.759 45.36z" fill="url(#SVGID_6_)"/><path d="m390.752 176.8c-.021-.064-.043-.117-.064-.171-20.627-64.516-81.058-111.231-152.41-111.231-34.626 0-66.673 11.011-92.855 29.708l45.158 61.042c9.805-3.426 20.393-5.227 31.486-5.245 47.856-.074 88.62 30.322 103.978 72.856l48.677 124.242c.523 1.323 1.003 2.645 1.44 3.978l39.12-39.12c11.888-11.888 15.708-29.639 9.762-45.365z" fill="url(#SVGID_7_)"/><path d="m326.044 223.761 48.677 124.242c.523 1.323 1.003 2.645 1.44 3.978l39.12-39.12c11.888-11.888 15.708-29.639 9.762-45.365l-34.291-90.696c-.021-.064-.043-.117-.064-.171-20.627-64.516-81.058-111.231-152.41-111.231v86.681c40.687 5.928 74.176 34.044 87.766 71.682z" fill="url(#SVGID_8_)"/><path d="m311.456 196.344c6.074 8.336 11.023 17.544 14.588 27.417l48.677 124.242c.523 1.323 1.003 2.645 1.44 3.978l39.12-39.12c11.888-11.888 15.708-29.639 9.762-45.365l-34.291-90.696c-.021-.064-.043-.117-.064-.171-3.757-11.749-8.839-22.904-15.061-33.297z" fill="url(#SVGID_9_)"/><path d="m330.29 234.596 44.432 113.407c.523 1.323 1.003 2.645 1.44 3.978l39.12-39.12c11.888-11.888 15.708-29.639 9.762-45.365l-29.967-79.259z" fill="url(#SVGID_10_)"/><path d="m359.508 188.567c-18.954-52.481-69.247-89.979-128.283-89.884-52.749.085-98.629 30.638-121.132 74.765l33.694 21.148c16.633-27.832 45.227-43.638 78.279-43.691 47.856-.074 88.62 30.322 103.978 72.856l48.677 124.242c.523 1.323 1.003 2.645 1.44 3.978l34.035-34.035z" fill="url(#SVGID_11_)"/><path d="m347.116 444.601c42.177 0 71.133-42.444 55.748-81.715l-60.786-155.155c-15.364-42.539-56.13-72.934-103.982-72.857-61.332.099-111.221 51.004-110.135 112.327.35 19.747 5.889 38.23 15.312 54.143 18.043 30.467 63.492 25.73 74.719-7.852l.006.001-.003.002c27.693 27.693 27.693 72.592 0 100.285l-29.514 29.514c-7.863 7.863-2.294 21.306 8.825 21.306h149.81z" fill="url(#SVGID_12_)"/><path d="m402.864 362.886-46.811-119.484c-30.745-28.991-72.182-46.766-117.775-46.766-41.845 0-80.189 14.974-109.98 39.849-.282 3.531-.401 7.105-.337 10.717.35 19.747 5.889 38.23 15.312 54.143 18.043 30.467 63.492 25.73 74.719-7.852l.006.001-.003.002c27.693 27.693 27.693 72.592 0 100.285l-29.514 29.514c-7.863 7.863-2.294 21.307 8.825 21.307h149.81c42.177-.001 71.134-42.445 55.748-81.716z" fill="url(#SVGID_13_)"/><g><path d="m279.851 220.421c-.927-37.893-31.666-68.906-69.549-70.149-26.968-.885-50.742 13.072-63.798 34.322l-48.241-29.793c-7.894-4.875-17.777 2.106-15.82 11.176l45.368 210.258c2.224 10.308 11.34 17.666 21.885 17.666 22.224 0 41.85-14.493 48.389-35.733l19.911-64.674c35.545-4.998 62.763-35.941 61.855-73.073z" fill="url(#SVGID_14_)"/></g><path d="m170.545 338.667c-17.924 0-34.364 6.359-47.185 16.943l4.451 20.626c2.224 10.308 11.34 17.666 21.885 17.666 22.224 0 41.85-14.493 48.389-35.733 2.327-7.557-2.202-15.498-9.882-17.379-5.659-1.386-11.572-2.123-17.658-2.123z" fill="url(#SVGID_15_)"/><path d="m133.276 249.175c-.146-.006-.291-.01-.437-.014-8.644-.235-15.192 7.762-13.369 16.215l11.425 52.95c1.129 5.232 6.46 8.352 11.604 6.873 16.735-4.811 28.831-20.579 28.005-39.046-.892-20.001-17.222-36.215-37.228-36.978z" fill="url(#SVGID_16_)"/><path d="m123.531 284.339 6.172 28.594c.699 3.239 4.916 4.101 6.829 1.396 8.083-11.425 11.171-25.646 8.554-39.394l-.77-4.043c-1.607-8.443-12.618-10.731-17.455-3.627-3.401 4.995-4.605 11.167-3.33 17.074z" fill="url(#SVGID_17_)"/><path d="m84.106 173.591 11.863 51.033c.386 1.66 2.763 1.686 3.154.028 1.712-7.256 6.157-16.979 17.645-21.563 3.879-1.548 4.926-6.531 1.898-9.408l-26.182-24.882c-3.623-3.445-9.51-.078-8.378 4.792z" fill="url(#SVGID_18_)"/></g></g></svg>