<svg id="Capa_1" enable-background="new 0 0 510 510" height="512" viewBox="0 0 510 510" width="512" xmlns="http://www.w3.org/2000/svg" xmlns:xlink="http://www.w3.org/1999/xlink"><linearGradient id="lg1"><stop offset="0" stop-color="#edf5ff"/><stop offset="1" stop-color="#d5e8fe"/></linearGradient><linearGradient id="SVGID_1_" gradientUnits="userSpaceOnUse" x1="117.907" x2="404.713" xlink:href="#lg1" y1="69.213" y2="356.019"/><linearGradient id="SVGID_2_" gradientUnits="userSpaceOnUse" x1="251.442" x2="259.282" y1="16.586" y2="136.43"><stop offset="0" stop-color="#b5dbff"/><stop offset="1" stop-color="#48b2e3"/></linearGradient><linearGradient id="lg2"><stop offset="0" stop-color="#ff637b"/><stop offset="1" stop-color="#e63950"/></linearGradient><linearGradient id="SVGID_3_" gradientUnits="userSpaceOnUse" x1="32.241" x2="46.622" xlink:href="#lg2" y1="58.926" y2="69.883"/><linearGradient id="SVGID_4_" gradientUnits="userSpaceOnUse" x1="72.372" x2="86.753" y1="58.926" y2="69.883"><stop offset="0" stop-color="#ffda2d"/><stop offset="1" stop-color="#fdbf00"/></linearGradient><linearGradient id="SVGID_5_" gradientUnits="userSpaceOnUse" x1="108.358" x2="142.441" y1="53.948" y2="88.031"><stop offset="0" stop-color="#b9dd39"/><stop offset="1" stop-color="#0b799d"/></linearGradient><linearGradient id="SVGID_6_" gradientUnits="userSpaceOnUse" x1="255" x2="255" y1="343.483" y2="442.478"><stop offset="0" stop-color="#b5dbff" stop-opacity="0"/><stop offset=".2428" stop-color="#93cef6" stop-opacity=".243"/><stop offset=".5763" stop-color="#6abfec" stop-opacity=".576"/><stop offset=".8403" stop-color="#51b5e5" stop-opacity=".84"/><stop offset="1" stop-color="#48b2e3"/></linearGradient><linearGradient id="SVGID_7_" gradientUnits="userSpaceOnUse" x1="364.603" x2="238.42" y1="462.397" y2="336.214"><stop offset="0" stop-color="#b5dbff" stop-opacity="0"/><stop offset=".1734" stop-color="#8fc5e9" stop-opacity=".173"/><stop offset=".4541" stop-color="#56a4c8" stop-opacity=".454"/><stop offset=".6955" stop-color="#2d8db1" stop-opacity=".696"/><stop offset=".8853" stop-color="#147ea2" stop-opacity=".885"/><stop offset="1" stop-color="#0b799d"/></linearGradient><linearGradient id="SVGID_8_" gradientUnits="userSpaceOnUse" x1="199.599" x2="314.407" xlink:href="#lg2" y1="313.184" y2="427.991"/><linearGradient id="SVGID_9_" gradientUnits="userSpaceOnUse" x1="334.801" x2="249.679" y1="449.775" y2="364.653"><stop offset="0" stop-color="#e63950" stop-opacity="0"/><stop offset=".0467" stop-color="#e4354b" stop-opacity=".047"/><stop offset=".4669" stop-color="#d31822" stop-opacity=".467"/><stop offset=".7991" stop-color="#c90709" stop-opacity=".799"/><stop offset="1" stop-color="#c50000"/></linearGradient><linearGradient id="SVGID_10_" gradientUnits="userSpaceOnUse" x1="227.846" x2="278.207" xlink:href="#lg1" y1="342.821" y2="393.182"/><g><g><g><g><path d="m490.588 390.309h-471.176c-10.721 0-19.412-8.691-19.412-19.412v-329.182c0-10.721 8.691-19.412 19.412-19.412h471.176c10.721 0 19.412 8.691 19.412 19.412v329.182c0 10.721-8.691 19.412-19.412 19.412z" fill="url(#SVGID_1_)"/><path d="m510 100.878h-510v-59.163c0-10.721 8.691-19.412 19.412-19.412h471.176c10.721 0 19.412 8.691 19.412 19.412z" fill="url(#SVGID_2_)"/><g><path d="m40.853 77.328h-10.229c-5.867 0-10.623-4.756-10.623-10.623v-10.229c0-5.867 4.756-10.623 10.623-10.623h10.229c5.867 0 10.623 4.756 10.623 10.623v10.229c0 5.867-4.756 10.623-10.623 10.623z" fill="url(#SVGID_3_)"/><path d="m80.984 77.328h-10.23c-5.867 0-10.623-4.756-10.623-10.623v-10.229c0-5.867 4.756-10.623 10.623-10.623h10.229c5.867 0 10.623 4.756 10.623 10.623v10.229c.001 5.867-4.755 10.623-10.622 10.623z" fill="url(#SVGID_4_)"/><path d="m121.115 77.328h-10.229c-5.867 0-10.623-4.756-10.623-10.623v-10.229c0-5.867 4.756-10.623 10.623-10.623h10.229c5.867 0 10.623 4.756 10.623 10.623v10.229c0 5.867-4.756 10.623-10.623 10.623z" fill="url(#SVGID_5_)"/></g><path d="m0 300.799v70.099c0 10.721 8.691 19.412 19.412 19.412h471.176c10.721 0 19.412-8.691 19.412-19.412v-70.099z" fill="url(#SVGID_6_)"/></g><g fill="#b5dbff"><path d="m166.113 307.684h-104.397c-7.252 0-13.131-5.879-13.131-13.131v-126.207c0-7.252 5.879-13.131 13.131-13.131h104.397c7.252 0 13.131 5.879 13.131 13.131v126.206c.001 7.252-5.878 13.132-13.131 13.132z"/><g><g><path d="m286.513 193.215h-71.598c-5.247 0-9.5-4.253-9.5-9.5v-19c0-5.247 4.253-9.5 9.5-9.5h71.598c5.247 0 9.5 4.253 9.5 9.5v19c0 5.246-4.253 9.5-9.5 9.5z"/><path d="m451.915 193.215h-125c-5.247 0-9.5-4.253-9.5-9.5v-19c0-5.247 4.253-9.5 9.5-9.5h125c5.247 0 9.5 4.253 9.5 9.5v19c0 5.246-4.253 9.5-9.5 9.5z"/></g><g><path d="m380.317 250.449h71.598c5.247 0 9.5-4.253 9.5-9.5v-19c0-5.247-4.253-9.5-9.5-9.5h-71.598c-5.247 0-9.5 4.253-9.5 9.5v19c0 5.247 4.253 9.5 9.5 9.5z"/><path d="m214.915 250.449h125c5.247 0 9.5-4.253 9.5-9.5v-19c0-5.247-4.253-9.5-9.5-9.5h-125c-5.247 0-9.5 4.253-9.5 9.5v19c0 5.247 4.253 9.5 9.5 9.5z"/></g><g><path d="m286.513 307.684h-71.598c-5.247 0-9.5-4.253-9.5-9.5v-19c0-5.247 4.253-9.5 9.5-9.5h71.598c5.247 0 9.5 4.253 9.5 9.5v19c0 5.246-4.253 9.5-9.5 9.5z"/><path d="m451.915 307.684h-125c-5.247 0-9.5-4.253-9.5-9.5v-19c0-5.247 4.253-9.5 9.5-9.5h125c5.247 0 9.5 4.253 9.5 9.5v19c0 5.246-4.253 9.5-9.5 9.5z"/></g></g></g></g><path d="m340.807 285.98c-21.668-22.503-52.101-34.506-85.807-34.506-65.784 0-117.111 51.327-117.111 117.111 0 7.42.68 14.681 1.979 21.724h305.268z" fill="url(#SVGID_7_)"/><circle cx="255" cy="368.585" fill="url(#SVGID_8_)" r="119.112"/></g><path d="m289.73 305.551-34.73 34.73-34.731-34.731c-9.029-9.028-20.664-8.027-29.693 1.001-9.029 9.029-8.028 21.665 1.001 30.694l33.73 33.73-33.73 32.729c-9.029 9.029-11.03 22.666-2.001 31.694l51.618 51.497c4.531.523 9.136.801 13.806.801 65.784 0 119.112-53.328 119.112-119.112 0-3.656-.174-7.271-.496-10.843l-53.192-53.192c-9.029-9.027-21.665-8.026-30.694 1.002z" fill="url(#SVGID_9_)"/><path d="m287.695 369.975 32.729-32.729c9.029-9.029 9.029-23.666 0-32.695-9.029-9.028-23.666-9.028-32.695 0l-32.729 32.729-32.729-32.729c-9.029-9.028-23.666-9.028-32.695 0-9.029 9.029-9.029 23.666 0 32.695l32.729 32.729-32.729 32.729c-9.029 9.029-9.029 23.666 0 32.695 4.514 4.514 10.431 6.771 16.347 6.771s11.833-2.257 16.347-6.771l32.73-32.729 32.729 32.729c4.514 4.514 10.431 6.771 16.348 6.771s11.833-2.257 16.347-6.771c9.029-9.029 9.029-23.666 0-32.695z" fill="url(#SVGID_10_)"/></g></svg>