<svg id="Capa_1" enable-background="new 0 0 510 510" height="512" viewBox="0 0 510 510" width="512" xmlns="http://www.w3.org/2000/svg" xmlns:xlink="http://www.w3.org/1999/xlink"><linearGradient id="SVGID_1_" gradientUnits="userSpaceOnUse" x1="159.674" x2="213.671" y1="94.837" y2="258.329"><stop offset="0" stop-color="#fdbf00"/><stop offset="1" stop-color="#ff9100"/></linearGradient><linearGradient id="lg1"><stop offset="0" stop-color="#ff9100" stop-opacity="0"/><stop offset="1" stop-color="#e63950"/></linearGradient><linearGradient id="SVGID_2_" gradientUnits="userSpaceOnUse" x1="311.644" x2="263.644" xlink:href="#lg1" y1="162.506" y2="83.506"/><linearGradient id="SVGID_3_" gradientUnits="userSpaceOnUse" x1="457.784" x2="421.45" xlink:href="#lg1" y1="267.517" y2="183.517"/><linearGradient id="SVGID_4_" gradientUnits="userSpaceOnUse" x1="320.142" x2="336.641" y1="32.746" y2="124.242"><stop offset="0" stop-color="#edf5ff"/><stop offset="1" stop-color="#d5e8fe"/></linearGradient><linearGradient id="SVGID_5_" gradientUnits="userSpaceOnUse" x1="341.746" x2="341.746" y1="170.667" y2="-42.514"><stop offset="0" stop-color="#b5dbff" stop-opacity="0"/><stop offset=".2428" stop-color="#93cef6" stop-opacity=".243"/><stop offset=".5763" stop-color="#6abfec" stop-opacity=".576"/><stop offset=".8403" stop-color="#51b5e5" stop-opacity=".84"/><stop offset="1" stop-color="#48b2e3"/></linearGradient><linearGradient id="lg2"><stop offset="0" stop-color="#0b799d"/><stop offset="1" stop-color="#07485e"/></linearGradient><linearGradient id="SVGID_6_" gradientUnits="userSpaceOnUse" x1="210.795" x2="261.795" xlink:href="#lg2" y1="241.307" y2="356.307"/><linearGradient id="SVGID_7_" gradientUnits="userSpaceOnUse" x1="293.431" x2="266.433" y1="269.176" y2="89.185"><stop offset="0" stop-color="#07485e" stop-opacity="0"/><stop offset="1" stop-color="#03232e"/></linearGradient><linearGradient id="SVGID_8_" gradientUnits="userSpaceOnUse" x1="247.331" x2="247.331" xlink:href="#lg2" y1="140.493" y2="184.675"/><linearGradient id="lg3"><stop offset="0" stop-color="#ffda2d"/><stop offset="1" stop-color="#fdbf00"/></linearGradient><linearGradient id="SVGID_9_" gradientUnits="userSpaceOnUse" x1="247.331" x2="247.331" xlink:href="#lg3" y1="378.382" y2="484.254"/><linearGradient id="SVGID_10_" gradientUnits="userSpaceOnUse" x1="247.331" x2="247.331" xlink:href="#lg3" y1="357.1" y2="458.687"/><linearGradient id="lg4"><stop offset="0" stop-color="#ff9100" stop-opacity="0"/><stop offset="1" stop-color="#ff9100"/></linearGradient><linearGradient id="SVGID_11_" gradientUnits="userSpaceOnUse" x1="247.331" x2="247.331" xlink:href="#lg4" y1="467.384" y2="553.851"/><linearGradient id="SVGID_12_" gradientTransform="matrix(.998 .065 -.065 .998 83.681 -94.637)" gradientUnits="userSpaceOnUse" x1="363.991" x2="392.991" xlink:href="#lg3" y1="232.555" y2="272.055"/><linearGradient id="SVGID_13_" gradientTransform="matrix(.998 .065 -.065 .998 83.681 -94.637)" gradientUnits="userSpaceOnUse" x1="352.216" x2="400.986" xlink:href="#lg4" y1="223.309" y2="272.078"/><linearGradient id="SVGID_14_" gradientTransform="matrix(.66 .752 -.752 .66 -72.575 -1449.682)" gradientUnits="userSpaceOnUse" x1="1592.559" x2="1483.074" xlink:href="#lg4" y1="669.282" y2="715.962"/><linearGradient id="SVGID_15_" gradientTransform="matrix(.66 .752 -.752 .66 -70.133 -1433.927)" gradientUnits="userSpaceOnUse" x1="1529.484" x2="1559.799" y1="664.728" y2="695.043"><stop offset="0" stop-color="#ff637b"/><stop offset="1" stop-color="#e63950"/></linearGradient><linearGradient id="lg5"><stop offset="0" stop-color="#ff9100"/><stop offset=".2061" stop-color="#fc850b"/><stop offset=".5808" stop-color="#f26429"/><stop offset="1" stop-color="#e63950"/></linearGradient><linearGradient id="SVGID_16_" gradientTransform="matrix(.998 .065 -.065 .998 83.681 -94.637)" gradientUnits="userSpaceOnUse" x1="268.111" x2="281.971" xlink:href="#lg5" y1="221.469" y2="235.329"/><linearGradient id="SVGID_17_" gradientTransform="matrix(.998 .065 -.065 .998 83.681 -94.637)" gradientUnits="userSpaceOnUse" x1="415.36" x2="429.22" xlink:href="#lg5" y1="314.813" y2="328.673"/><linearGradient id="SVGID_18_" gradientTransform="matrix(.998 .065 -.065 .998 83.681 -94.637)" gradientUnits="userSpaceOnUse" x1="287.15" x2="294.08" xlink:href="#lg5" y1="200.11" y2="207.04"/><linearGradient id="lg6"><stop offset="0" stop-color="#ffd945"/><stop offset=".3043" stop-color="#ffcd3e"/><stop offset=".8558" stop-color="#ffad2b"/><stop offset="1" stop-color="#ffa325"/></linearGradient><linearGradient id="SVGID_19_" gradientTransform="matrix(.998 .065 -.065 .998 83.681 -94.637)" gradientUnits="userSpaceOnUse" x1="410.342" x2="417.272" xlink:href="#lg6" y1="283.593" y2="290.523"/><linearGradient id="SVGID_20_" gradientTransform="matrix(.998 .065 -.065 .998 83.681 -94.637)" gradientUnits="userSpaceOnUse" x1="283.071" x2="290.001" xlink:href="#lg6" y1="286.624" y2="293.554"/><linearGradient id="SVGID_21_" gradientTransform="matrix(.998 .065 -.065 .998 83.681 -94.637)" gradientUnits="userSpaceOnUse" x1="390.188" x2="397.118" xlink:href="#lg6" y1="169.143" y2="176.073"/><g><g><path d="m477.014 214.616-198.207-202.173c-17.705-16.59-45.247-16.59-62.952 0l-198.207 202.173c-6.029 4.187-9.979 11.158-9.979 19.054v253.142c0 12.807 10.381 23.188 23.188 23.188h432.949c12.806 0 23.187-10.381 23.187-23.188v-253.142c0-7.896-3.951-14.866-9.979-19.054z" fill="url(#SVGID_1_)"/><path d="m486.993 306.721v-73.051c0-7.896-3.95-14.867-9.979-19.054l-155.801-158.919c-57.038 22.472-97.404 78.064-97.404 143.084 0 84.904 68.828 153.732 153.732 153.732 42.836.001 81.574-17.526 109.452-45.792z" fill="url(#SVGID_2_)"/><path d="m382.06 145.101c-7.607 1.549-9.7 9.739-4.579 15.573l13.451 15.463c2.392 2.726 4.142 7.524 2.964 10.954l-5.89 17.141c-1.566 4.556-.71 9.09 2.734 11.54l96.254 96.254v-78.356c0-7.896-3.95-14.867-9.979-19.054l-73.43-74.899-.001-.001z" fill="url(#SVGID_3_)"/><path d="m440.746 182c-13.807 0-25-11.193-25-25 0-40.804-33.196-74-74-74s-74 33.196-74 74c0 13.807-11.193 25-25 25s-25-11.193-25-25c0-68.374 55.626-124 124-124s124 55.626 124 124c0 13.807-11.193 25-25 25z" fill="url(#SVGID_4_)"/><path d="m341.746 61.059c-55.739 0-101.085 45.346-101.085 101.085 0 7.93 4.538 14.785 11.15 18.154 9.324-3.631 15.935-12.69 15.935-23.298 0-40.804 33.196-74 74-74s74 33.196 74 74c0 10.608 6.611 19.667 15.935 23.298 6.612-3.369 11.15-10.224 11.15-18.154 0-55.739-45.347-101.085-101.085-101.085z" fill="url(#SVGID_5_)"/><g><circle cx="247.331" cy="323.693" fill="url(#SVGID_6_)" r="178.062"/><path d="m425.392 323.693c0-98.341-79.721-178.062-178.062-178.062-34.589 0-66.867 9.873-94.191 26.939.719 3.863 3.16 7.169 6.576 9.049l237.786 237.786c17.657-27.641 27.891-60.481 27.891-95.712z" fill="url(#SVGID_7_)"/><path d="m152.916 142.399v27.808c0 6.362 4.631 11.782 10.964 12.878 24.581 4.253 53.07 6.686 83.45 6.686s58.87-2.433 83.451-6.686c6.333-1.096 10.964-6.515 10.964-12.878v-27.808c0-8.049-7.28-14.189-15.308-12.893-23.569 3.805-50.495 5.967-79.107 5.967s-55.538-2.162-79.107-5.967c-8.027-1.295-15.307 4.844-15.307 12.893z" fill="url(#SVGID_8_)"/></g><g><path d="m482.081 219.408c.271.347.534.701.786 1.064l-204.06 208.144c-17.705 16.59-45.247 16.59-62.952 0l-204.06-208.144c.252-.363.514-.717.786-1.064-3.075 3.934-4.912 8.882-4.912 14.262v253.142c0 12.807 10.381 23.188 23.188 23.188h432.949c12.806 0 23.187-10.381 23.187-23.188v-253.142c0-5.38-1.837-10.327-4.912-14.262z" fill="url(#SVGID_9_)"/></g><path d="m463.805 510h-432.948c-7.901 0-14.875-3.955-19.061-9.989l204.06-191.216c17.705-16.59 45.247-16.59 62.952 0l204.06 191.216c-4.188 6.034-11.162 9.989-19.063 9.989z" fill="url(#SVGID_10_)"/><path d="m7.669 431.414v55.398c0 12.807 10.381 23.188 23.188 23.188h432.949c12.806 0 23.187-10.381 23.187-23.188v-55.398z" fill="url(#SVGID_11_)"/></g><g><g><g><path d="m472.361 202.392 21.871-4.455c7.607-1.55 10.7-10.739 5.579-16.573l-14.451-16.464c-2.392-2.725-3.141-6.524-1.963-9.953l5.89-17.141c2.541-7.395-3.916-14.751-11.577-13.19l-17.76 3.618c-3.554.724-7.222-.511-9.615-3.237l-14.451-16.464c-5.121-5.834-14.634-3.958-17.157 3.383l-7.253 21.109c-1.164 3.387-4.033 5.905-7.542 6.62l-21.872 4.455c-7.607 1.549-10.7 10.739-5.579 16.573l14.451 16.464c2.392 2.725 3.141 6.524 1.963 9.953l-5.89 17.141c-2.541 7.395 3.916 14.751 11.578 13.19l17.76-3.618c3.554-.724 7.222.511 9.615 3.237l14.451 16.464c5.121 5.834 14.634 3.958 17.157-3.383l7.253-21.109c1.163-3.387 4.032-5.905 7.542-6.62z" fill="url(#SVGID_12_)"/><path d="m410.212 179.813-4.466 13.354c-1.553 4.644 2.491 9.234 7.294 8.276l13.553-2.701c2.244-.447 4.555.342 6.057 2.068l7.506 8.625c3.238 3.721 9.294 2.514 10.858-2.164l3.626-10.844c.726-2.17 2.558-3.784 4.801-4.232l13.553-2.701c4.803-.957 6.779-6.746 3.564-10.44l-9.244-10.622c-1.483-1.704-1.954-4.066-1.237-6.209l4.466-13.354c1.553-4.644-2.491-9.233-7.294-8.276l-13.553 2.701c-2.244.447-4.555-.342-6.057-2.068l-7.506-8.625c-3.238-3.721-9.294-2.514-10.858 2.164l-3.626 10.844c-.726 2.17-2.558 3.784-4.801 4.232l-13.553 2.701c-4.803.957-6.779 6.746-3.564 10.44l9.244 10.622c1.483 1.704 1.954 4.066 1.237 6.209z" fill="url(#SVGID_13_)"/><path d="m418.353 192.603 2.811 13.797c.978 4.799 6.775 6.75 10.455 3.52l10.386-9.117c1.719-1.509 4.116-1.982 6.279-1.238l10.814 3.716c4.665 1.603 9.306-2.47 8.321-7.304l-2.282-11.204c-.457-2.242.322-4.556 2.042-6.065l10.386-9.117c3.681-3.231 2.497-9.232-2.134-10.824l-13.317-4.576c-2.137-.734-3.725-2.544-4.176-4.758l-2.811-13.797c-.978-4.799-6.775-6.75-10.455-3.52l-10.386 9.117c-1.719 1.509-4.115 1.982-6.279 1.238l-10.814-3.716c-4.665-1.603-9.306 2.47-8.321 7.304l2.282 11.204c.457 2.242-.322 4.556-2.042 6.065l-10.386 9.117c-3.68 3.231-2.497 9.232 2.134 10.824l13.317 4.576c2.137.734 3.726 2.544 4.176 4.758z" fill="url(#SVGID_14_)"/><path d="m452.554 184.23 9.21-1.876c3.203-.652 4.506-4.522 2.349-6.979l-6.086-6.933c-1.007-1.148-1.323-2.747-.827-4.191l2.48-7.218c1.07-3.114-1.649-6.212-4.875-5.554l-7.479 1.524c-1.496.305-3.041-.215-4.049-1.363l-6.086-6.933c-2.156-2.457-6.163-1.667-7.225 1.425l-3.055 8.889c-.49 1.426-1.698 2.487-3.176 2.788l-9.21 1.876c-3.203.653-4.506 4.522-2.349 6.979l6.086 6.933c1.007 1.148 1.323 2.747.827 4.191l-2.48 7.218c-1.07 3.114 1.649 6.212 4.875 5.554l7.479-1.524c1.496-.305 3.041.215 4.049 1.363l6.086 6.933c2.156 2.457 6.163 1.667 7.225-1.425l3.055-8.889c.49-1.427 1.698-2.487 3.176-2.788z" fill="url(#SVGID_15_)"/></g></g><circle cx="340.098" cy="147.496" fill="url(#SVGID_16_)" r="12.006"/><circle cx="480.972" cy="250.209" fill="url(#SVGID_17_)" r="12.006"/><path d="m364.845 125.952c-.215 3.308-3.072 5.816-6.38 5.6-3.308-.215-5.816-3.072-5.6-6.38.215-3.308 3.072-5.816 6.38-5.6 3.308.215 5.816 3.072 5.6 6.38z" fill="url(#SVGID_18_)"/><path d="m482.353 217.261c-.215 3.308-3.072 5.816-6.38 5.6-3.308-.215-5.816-3.072-5.6-6.38.215-3.308 3.072-5.816 6.38-5.6 3.308.215 5.816 3.072 5.6 6.38z" fill="url(#SVGID_19_)"/><path d="m355.154 212.018c-.215 3.308-3.072 5.816-6.38 5.6-3.308-.215-5.816-3.072-5.6-6.38.215-3.308 3.072-5.816 6.38-5.6 3.308.215 5.815 3.072 5.6 6.38z" fill="url(#SVGID_20_)"/><path d="m469.677 101.744c-.215 3.308-3.072 5.816-6.38 5.6-3.308-.215-5.816-3.072-5.6-6.38.215-3.308 3.072-5.816 6.38-5.6 3.308.215 5.815 3.071 5.6 6.38z" fill="url(#SVGID_21_)"/></g></g></svg>