<?xml version="1.0" encoding="UTF-8"?>
<svg xmlns="http://www.w3.org/2000/svg" xmlns:xlink="http://www.w3.org/1999/xlink" width="262.2pt" height="207.35pt" viewBox="0 0 262.2 207.35" version="1.1">
<defs>
<clipPath id="clip1">
  <path d="M 7 111 L 262.199219 111 L 262.199219 207.351563 L 7 207.351563 Z M 7 111 "/>
</clipPath>
</defs>
<g id="surface1">
<g clip-path="url(#clip1)" clip-rule="nonzero">
<path style=" stroke:none;fill-rule:nonzero;fill:rgb(14.498901%,18.399048%,46.299744%);fill-opacity:1;" d="M 48.304688 156.265625 L 48.304688 136.703125 C 48.304688 135.171875 47.664063 133.769531 46.625 132.753906 C 45.589844 131.738281 44.164063 131.105469 42.597656 131.105469 L 41.558594 131.105469 C 39.996094 131.105469 38.570313 131.738281 37.53125 132.753906 C 36.496094 133.769531 35.851563 135.171875 35.851563 136.703125 L 35.851563 156.265625 L 27.695313 156.265625 L 27.695313 136.703125 C 27.695313 135.171875 27.054688 133.769531 26.015625 132.753906 C 24.980469 131.738281 23.554688 131.105469 21.988281 131.105469 L 20.949219 131.105469 C 19.386719 131.105469 17.957031 131.738281 16.921875 132.753906 C 15.886719 133.769531 15.242188 135.171875 15.242188 136.703125 L 15.242188 156.265625 L 7.085938 156.265625 L 7.085938 136.703125 C 7.085938 132.960938 8.644531 129.558594 11.15625 127.097656 C 13.667969 124.632813 17.136719 123.101563 20.949219 123.101563 L 21.988281 123.101563 C 25.800781 123.101563 29.265625 124.628906 31.773438 127.085938 C 34.285156 124.628906 37.75 123.101563 41.558594 123.101563 L 42.597656 123.101563 C 46.414063 123.101563 49.882813 124.632813 52.394531 127.097656 C 54.90625 129.558594 56.460938 132.960938 56.460938 136.703125 L 56.460938 156.265625 Z M 119.003906 131.105469 L 114.871094 131.105469 C 112.855469 131.105469 111.019531 131.914063 109.6875 133.222656 C 108.355469 134.53125 107.53125 136.332031 107.53125 138.308594 L 107.53125 156.265625 L 99.375 156.265625 L 99.375 138.308594 C 99.375 134.121094 101.117188 130.324219 103.921875 127.566406 C 106.730469 124.8125 110.605469 123.101563 114.871094 123.101563 L 119.003906 123.101563 Z M 136.171875 123.3125 L 139.496094 123.3125 C 146.6875 123.3125 152.71875 128.457031 153.945313 135.183594 L 144.609375 135.183594 C 143.554688 132.519531 140.90625 129.980469 137.835938 129.980469 L 137.832031 129.980469 C 133.835938 129.980469 130.566406 133.191406 130.566406 137.113281 L 130.566406 143.398438 C 130.566406 147.320313 133.835938 150.53125 137.832031 150.53125 L 137.835938 150.53125 C 141.285156 150.53125 144.195313 148.136719 144.921875 144.957031 L 154.09375 144.957031 C 153.3125 152.167969 147.046875 157.839844 139.496094 157.839844 L 136.171875 157.839844 C 128.097656 157.839844 121.492188 151.359375 121.492188 143.4375 L 121.492188 137.714844 C 121.492188 129.792969 128.097656 123.3125 136.171875 123.3125 M 206.558594 123.3125 C 209.949219 123.3125 212.761719 125.128906 215.3125 127.277344 L 215.3125 117.910156 C 215.3125 114.390625 218.246094 111.511719 221.835938 111.511719 L 224.429688 111.511719 L 224.429688 144.957031 L 224.480469 144.957031 C 223.703125 152.167969 217.433594 157.839844 209.882813 157.839844 L 206.558594 157.839844 C 198.484375 157.839844 191.878906 151.359375 191.878906 143.4375 L 191.878906 137.714844 C 191.878906 129.792969 198.484375 123.3125 206.558594 123.3125 M 215.3125 135.804688 L 214.996094 135.183594 C 213.9375 132.519531 211.296875 130.621094 208.222656 130.621094 L 208.21875 130.621094 C 204.222656 130.621094 200.953125 133.832031 200.953125 137.753906 L 200.953125 143.398438 C 200.953125 147.320313 204.222656 150.53125 208.21875 150.53125 L 208.222656 150.53125 C 211.671875 150.53125 214.585938 148.136719 215.3125 144.957031 Z M 244.28125 123.3125 L 247.605469 123.3125 C 254.796875 123.3125 260.828125 128.457031 262.058594 135.183594 L 261.976563 135.183594 C 262.125 136.003906 262.203125 136.851563 262.203125 137.714844 L 262.203125 143.4375 C 262.203125 143.949219 262.175781 144.457031 262.121094 144.957031 L 262.203125 144.957031 C 261.425781 152.167969 255.160156 157.839844 247.605469 157.839844 L 244.199219 157.839844 C 236.648438 157.839844 230.382813 152.167969 229.601563 144.957031 L 229.683594 144.957031 C 229.628906 144.457031 229.601563 143.949219 229.601563 143.4375 L 229.601563 137.714844 C 229.601563 136.851563 229.679688 136.003906 229.828125 135.183594 L 229.75 135.183594 C 230.980469 128.457031 237.003906 123.3125 244.199219 123.3125 Z M 245.902344 130.621094 C 241.921875 130.644531 238.675781 133.84375 238.675781 137.753906 L 238.675781 143.398438 C 238.675781 147.308594 241.921875 150.507813 245.902344 150.53125 C 249.882813 150.507813 253.128906 147.308594 253.128906 143.398438 L 253.128906 137.753906 C 253.128906 133.84375 249.882813 130.644531 245.902344 130.621094 M 168.589844 123.3125 L 177.386719 123.3125 C 182.84375 123.3125 187.308594 127.691406 187.308594 133.042969 L 187.308594 144.859375 C 187.308594 148.097656 186.867188 149.675781 184.75 152.507813 C 182.335938 155.738281 178.445313 157.839844 174.078125 157.839844 L 167.796875 157.839844 C 162.113281 157.839844 157.460938 153.277344 157.460938 147.695313 L 157.460938 146.898438 C 157.460938 138.785156 165.351563 136.753906 172.382813 136.753906 C 174.195313 136.753906 176.851563 135.902344 178.125 134.632813 L 178.125 130.902344 C 177.144531 129.722656 175.222656 129.191406 172.605469 129.191406 C 168.289063 129.191406 167.039063 131.996094 167.039063 134.226563 L 158.664063 134.226563 L 158.664063 133.042969 C 158.664063 127.691406 163.128906 123.3125 168.589844 123.3125 M 178.125 141.101563 C 175.011719 141.101563 166.097656 142.703125 166.097656 147.503906 C 166.097656 149.933594 168.261719 151.917969 170.910156 151.917969 C 174.878906 151.917969 178.125 148.941406 178.125 145.296875 Z M 67.996094 206.699219 L 67.996094 166.78125 C 67.996094 164.046875 72.738281 161.710938 76.90625 161.710938 L 76.90625 206.699219 Z M 85.429688 173.441406 L 94.339844 173.441406 L 94.339844 206.699219 L 85.429688 206.699219 Z M 85.429688 161.710938 L 94.339844 161.710938 L 94.339844 170.390625 L 85.429688 170.390625 Z M 111.671875 206.699219 L 100.429688 173.488281 L 109.335938 173.488281 L 116.125 195.78125 C 118.097656 189.300781 120.070313 182.824219 122.039063 176.34375 C 122.59375 174.316406 124.621094 173.488281 126.289063 173.488281 L 131.820313 173.488281 L 120.578125 206.699219 Z M 154.855469 181.539063 L 150.71875 181.539063 C 148.703125 181.539063 146.871094 182.347656 145.539063 183.65625 C 144.203125 184.964844 143.378906 186.761719 143.378906 188.742188 L 143.378906 206.699219 L 135.226563 206.699219 L 135.226563 188.742188 C 135.226563 184.554688 136.96875 180.753906 139.773438 178 C 142.578125 175.246094 146.453125 173.539063 150.71875 173.539063 L 154.855469 173.539063 Z M 172.128906 172.820313 L 175.453125 172.820313 C 180.527344 172.820313 185.011719 175.339844 187.65625 179.242188 C 190.691406 183.726563 189.78125 187.605469 190.230469 192.714844 L 166.523438 192.714844 L 166.523438 192.910156 C 166.523438 196.828125 169.792969 200.039063 173.789063 200.039063 C 175.953125 200.039063 177.902344 199.101563 179.238281 197.617188 L 189.335938 197.617188 C 187.347656 203.265625 181.863281 207.351563 175.453125 207.351563 L 172.128906 207.351563 C 164.054688 207.351563 157.449219 200.867188 157.449219 192.949219 L 157.449219 187.222656 C 157.449219 179.300781 164.054688 172.820313 172.128906 172.820313 M 173.789063 179.492188 C 169.796875 179.492188 166.523438 182.703125 166.523438 186.621094 L 166.523438 186.972656 L 181.257813 186.972656 C 181.257813 183.484375 178.261719 179.492188 173.789063 179.492188 M 75.75 122.929688 L 79.074219 122.929688 C 84.148438 122.929688 88.632813 125.453125 91.277344 129.355469 C 94.3125 133.835938 93.402344 137.714844 93.851563 142.828125 L 70.144531 142.828125 L 70.144531 143.019531 C 70.144531 146.941406 73.414063 150.148438 77.414063 150.148438 C 79.574219 150.148438 81.527344 149.210938 82.859375 147.726563 L 92.957031 147.726563 C 90.964844 153.375 85.484375 157.460938 79.074219 157.460938 L 75.75 157.460938 C 67.675781 157.460938 61.070313 150.980469 61.070313 143.054688 L 61.070313 137.332031 C 61.070313 129.410156 67.675781 122.929688 75.75 122.929688 M 77.414063 129.601563 C 73.414063 129.601563 70.144531 132.808594 70.144531 136.730469 L 70.144531 137.082031 L 84.878906 137.082031 C 84.878906 133.597656 81.882813 129.601563 77.414063 129.601563 "/>
</g>
<path style=" stroke:none;fill-rule:nonzero;fill:rgb(14.498901%,18.399048%,46.299744%);fill-opacity:1;" d="M 201.359375 51.15625 C 201.359375 79.40625 168.382813 102.308594 127.695313 102.308594 C 87.011719 102.308594 54.03125 79.40625 54.03125 51.15625 C 54.03125 22.90625 87.011719 0.00390625 127.695313 0.00390625 C 168.382813 0.00390625 201.359375 22.90625 201.359375 51.15625 "/>
<path style=" stroke:none;fill-rule:nonzero;fill:rgb(97.999573%,87.5%,0.39978%);fill-opacity:1;" d="M 197.882813 47.523438 C 197.882813 72.699219 166.382813 93.109375 127.523438 93.109375 C 88.667969 93.109375 57.167969 72.699219 57.167969 47.523438 C 57.167969 22.347656 88.667969 1.9375 127.523438 1.9375 C 166.382813 1.9375 197.882813 22.347656 197.882813 47.523438 "/>
<path style=" stroke:none;fill-rule:nonzero;fill:rgb(14.498901%,18.399048%,46.299744%);fill-opacity:1;" d="M 198.761719 44.871094 L 198.636719 43.828125 C 197.519531 34.433594 192.175781 25.589844 183.183594 18.253906 L 182.539063 17.730469 L 181.8125 18.132813 C 169.324219 25.019531 155.855469 25.3125 141.785156 19.007813 C 122.609375 10.410156 113.105469 20.363281 112.730469 20.769531 L 110.515625 23.035156 C 106.609375 22.605469 96.253906 23.90625 94.515625 24.132813 C 88.800781 23.726563 81.769531 21.453125 73.613281 17.382813 L 72.921875 17.035156 L 72.308594 17.515625 C 62.480469 25.210938 56.789063 34.585938 55.859375 44.632813 L 57.078125 44.746094 L 56.902344 45.960938 C 63.925781 46.980469 74.695313 49.574219 86.144531 56.132813 L 86.382813 56.269531 C 86.125 57.007813 85.953125 57.789063 85.953125 58.617188 C 85.953125 62.585938 89.183594 65.816406 93.15625 65.816406 C 93.402344 65.816406 93.648438 65.800781 93.90625 65.769531 C 94.523438 68.171875 96.039063 70.035156 98.121094 70.882813 C 99.722656 71.535156 101.550781 71.515625 103.296875 70.839844 C 104.070313 73.097656 105.59375 74.796875 107.609375 75.617188 C 109.320313 76.3125 111.269531 76.308594 113.132813 75.617188 C 114.179688 78.871094 117.203125 81.160156 120.730469 81.160156 C 122.894531 81.160156 124.855469 80.289063 126.300781 78.890625 C 127.054688 79.28125 130.136719 80.78125 133.375 80.78125 C 135.332031 80.78125 137.339844 80.230469 138.902344 78.546875 C 142.195313 78.628906 147.640625 77.53125 148.96875 72.957031 C 152.289063 72.78125 157.363281 71.074219 158.714844 65.453125 C 160.40625 65.339844 163.726563 64.863281 165.640625 62.859375 C 167.949219 60.4375 167.984375 57.398438 166.835938 55.183594 C 168.851563 54.074219 175.546875 51.335938 197.746094 45.15625 "/>
<path style=" stroke:none;fill-rule:nonzero;fill:rgb(100%,100%,100%);fill-opacity:1;" d="M 115.226563 73.71875 L 115.027344 71.824219 L 113.386719 72.789063 C 111.769531 73.738281 110.011719 73.945313 108.535156 73.34375 C 106.871094 72.667969 105.699219 71.03125 105.3125 68.855469 L 105 67.074219 L 103.460938 68.023438 C 101.984375 68.933594 100.382813 69.152344 99.046875 68.609375 C 97.441406 67.957031 96.339844 66.296875 96.101563 64.171875 L 95.9375 62.703125 L 94.527344 63.132813 C 94.007813 63.289063 93.570313 63.363281 93.15625 63.363281 C 90.539063 63.363281 88.410156 61.234375 88.410156 58.613281 C 88.410156 57.964844 88.542969 57.34375 88.78125 56.777344 L 89.019531 56.34375 C 89.433594 55.589844 90.035156 54.980469 90.738281 54.554688 C 90.765625 54.535156 90.792969 54.523438 90.820313 54.507813 C 91.121094 54.335938 91.441406 54.203125 91.773438 54.097656 C 91.847656 54.074219 91.921875 54.046875 92 54.027344 C 92.375 53.929688 92.761719 53.867188 93.15625 53.867188 C 94.839844 53.867188 96.414063 54.796875 97.265625 56.289063 L 97.992188 57.574219 L 99.121094 56.617188 C 100.769531 55.230469 102.777344 54.765625 104.402344 55.425781 C 105.738281 55.96875 106.714844 57.195313 107.148438 58.882813 L 107.597656 60.621094 L 109.054688 59.570313 C 110.820313 58.292969 112.839844 57.933594 114.515625 58.613281 C 117.078125 59.65625 118.386719 62.855469 117.695313 66.386719 L 117.3125 68.34375 L 119.230469 67.804688 C 119.804688 67.644531 120.28125 67.570313 120.730469 67.570313 C 123.800781 67.570313 126.296875 70.066406 126.296875 73.136719 C 126.296875 73.480469 126.257813 73.816406 126.195313 74.140625 C 126.164063 74.316406 126.113281 74.484375 126.0625 74.652344 C 126.023438 74.78125 125.988281 74.910156 125.941406 75.035156 C 125.851563 75.273438 125.75 75.503906 125.628906 75.730469 C 125.609375 75.761719 125.59375 75.792969 125.578125 75.824219 C 125.429688 76.082031 125.261719 76.335938 125.070313 76.574219 L 124.984375 76.6875 C 123.960938 77.910156 122.445313 78.703125 120.730469 78.703125 C 117.894531 78.703125 115.527344 76.5625 115.226563 73.71875 "/>
<path style=" stroke:none;fill-rule:nonzero;fill:rgb(100%,100%,100%);fill-opacity:1;" d="M 163.863281 61.164063 C 162.617188 62.46875 160.132813 62.894531 158.601563 62.996094 L 146.425781 51.84375 C 145.9375 51.378906 145.335938 51.035156 144.863281 51.523438 C 144.394531 52.015625 144.898438 52.828125 145.386719 53.296875 L 156.429688 64.316406 C 155.46875 69.777344 150.3125 70.4375 148.59375 70.503906 L 140.972656 62.582031 C 140.519531 62.078125 139.863281 61.585938 139.359375 62.039063 C 138.855469 62.492188 139.394531 63.203125 139.847656 63.707031 L 146.652344 72.015625 C 145.820313 75.484375 141.421875 76.019531 139.429688 76.074219 L 132.054688 68.425781 C 131.601563 67.921875 130.992188 67.480469 130.488281 67.933594 C 129.984375 68.386719 130.433594 69.132813 130.886719 69.640625 L 136.964844 77 C 134.261719 79.617188 129.351563 77.625 127.796875 76.890625 C 127.839844 76.808594 127.871094 76.722656 127.914063 76.640625 C 128.007813 76.449219 128.101563 76.265625 128.179688 76.066406 C 128.335938 75.6875 128.453125 75.296875 128.542969 74.898438 C 128.570313 74.78125 128.589844 74.664063 128.609375 74.550781 C 128.695313 74.085938 128.753906 73.617188 128.753906 73.136719 C 128.753906 68.578125 124.890625 64.835938 120.316406 65.128906 C 120.519531 61.125 118.648438 57.644531 115.441406 56.339844 C 113.394531 55.515625 111.109375 55.671875 108.980469 56.746094 C 108.804688 56.371094 108.597656 56.023438 108.375 55.691406 C 108.347656 55.652344 108.328125 55.605469 108.304688 55.566406 C 108.230469 55.464844 108.136719 55.378906 108.0625 55.28125 C 107.324219 54.335938 106.40625 53.589844 105.324219 53.148438 C 103.195313 52.285156 100.761719 52.597656 98.613281 53.953125 C 98.296875 53.582031 97.9375 53.253906 97.558594 52.953125 C 97.53125 52.933594 97.511719 52.90625 97.484375 52.886719 C 97.285156 52.734375 97.054688 52.628906 96.839844 52.496094 C 95.738281 51.824219 94.480469 51.414063 93.15625 51.414063 C 92.714844 51.414063 92.28125 51.464844 91.855469 51.546875 C 91.78125 51.558594 91.703125 51.570313 91.628906 51.585938 C 91.261719 51.667969 90.90625 51.78125 90.558594 51.917969 C 90.429688 51.96875 90.304688 52.019531 90.179688 52.078125 C 89.878906 52.214844 89.589844 52.371094 89.3125 52.546875 C 89.15625 52.644531 89.011719 52.757813 88.867188 52.867188 C 88.71875 52.980469 88.574219 53.101563 88.429688 53.226563 C 88.175781 53.449219 87.9375 53.691406 87.714844 53.953125 C 87.667969 54.007813 87.613281 54.058594 87.566406 54.117188 L 87.363281 54.003906 C 76.917969 48.015625 67.015625 45.242188 59.863281 43.953125 C 59.375 43.867188 57.871094 43.789063 57.410156 43.714844 C 58.570313 34.992188 63.566406 26.3125 72.105469 19.4375 C 72.453125 19.605469 73.90625 20.261719 74.25 20.425781 C 82.027344 24.140625 88.824219 26.210938 94.472656 26.589844 L 94.59375 26.597656 L 94.710938 26.578125 C 98.828125 26.042969 104.984375 25.410156 108.480469 25.398438 L 98.894531 35.222656 L 99.375 36.03125 C 101.019531 38.808594 103.703125 39.628906 106.304688 39.628906 C 109.945313 39.628906 113.421875 38.019531 113.667969 37.90625 L 113.84375 37.804688 C 113.84375 37.804688 117.601563 35.203125 122.710938 31.726563 L 124.132813 30.757813 C 129.003906 27.414063 132.535156 30.335938 132.726563 30.496094 C 132.933594 30.660156 153.839844 47.089844 161.425781 53.425781 L 164.28125 55.710938 C 165.335938 57.050781 165.644531 59.296875 163.863281 61.164063 "/>
<path style=" stroke:none;fill-rule:nonzero;fill:rgb(100%,100%,100%);fill-opacity:1;" d="M 165.195313 53.296875 L 162.980469 51.523438 C 155.382813 45.183594 134.449219 28.730469 134.292969 28.609375 C 132.566406 27.097656 127.933594 25.179688 122.746094 28.730469 L 121.332031 29.695313 L 122.019531 30.710938 L 121.328125 29.695313 C 116.675781 32.863281 113.140625 35.308594 112.535156 35.722656 C 111.710938 36.09375 105.046875 38.898438 102.027344 35.527344 L 111.96875 25.058594 L 114.511719 22.457031 C 114.597656 22.363281 123.195313 13.363281 140.78125 21.246094 C 154.042969 27.191406 167.300781 27.460938 179.367188 22.089844 C 180.339844 21.652344 182.660156 20.507813 183.617188 20.003906 C 191.394531 26.542969 196.21875 34.53125 197.488281 42.683594 C 174.765625 49.03125 167.136719 52.101563 165.195313 53.296875 "/>
</g>
</svg>
