<?xml version="1.0" encoding="iso-8859-1"?>
<!-- Generator: Adobe Illustrator 19.0.0, SVG Export Plug-In . SVG Version: 6.00 Build 0)  -->
<svg version="1.1" id="Capa_1" xmlns="http://www.w3.org/2000/svg" xmlns:xlink="http://www.w3.org/1999/xlink" x="0px" y="0px"
	 viewBox="0 0 464 464" style="enable-background:new 0 0 464 464;" xml:space="preserve">
<path style="fill:#CFDFE8;" d="M64,0h336l0,0v432c0,17.673-14.327,32-32,32H96c-17.673,0-32-14.327-32-32V0L64,0z"/>
<path style="fill:#E9686A;" d="M64,0h336v80H64V0z"/>
<g>
	<path style="fill:#FFFFFF;" d="M112,128h64v48h-64V128z"/>
	<path style="fill:#FFFFFF;" d="M112,288h64v48h-64V288z"/>
	<path style="fill:#FFFFFF;" d="M112,368h64v48h-64V368z"/>
</g>
<path style="fill:#E9686A;" d="M120,264c-0.722-0.001-1.44-0.098-2.136-0.288c-2.566-0.714-4.608-2.657-5.448-5.184l-8-24
	c-1.396-4.197,0.875-8.732,5.072-10.128c4.197-1.396,8.732,0.875,10.128,5.072l4.248,12.704l46.968-40.248
	c3.245-2.998,8.307-2.798,11.305,0.447c2.998,3.245,2.798,8.307-0.447,11.305c-0.148,0.136-0.3,0.267-0.458,0.392l-56,48
	C123.778,263.326,121.92,264.011,120,264L120,264z"/>
<g>
	<path style="fill:#5A6470;" d="M216,120h144v16H216V120z"/>
	<path style="fill:#5A6470;" d="M216,152h144v16H216V152z"/>
	<path style="fill:#5A6470;" d="M216,200h144v16H216V200z"/>
	<path style="fill:#5A6470;" d="M216,232h144v16H216V232z"/>
	<path style="fill:#5A6470;" d="M216,280h144v16H216V280z"/>
	<path style="fill:#5A6470;" d="M216,312h144v16H216V312z"/>
	<path style="fill:#5A6470;" d="M216,360h144v16H216V360z"/>
	<path style="fill:#5A6470;" d="M216,392h144v16H216V392z"/>
</g>
<g>
	<path style="fill:#FFFFFF;" d="M152,56h-40c-4.418,0-8-3.582-8-8s3.582-8,8-8h40c4.418,0,8,3.582,8,8S156.418,56,152,56z"/>
	<path style="fill:#FFFFFF;" d="M352,56h-40c-4.418,0-8-3.582-8-8s3.582-8,8-8h40c4.418,0,8,3.582,8,8S356.418,56,352,56z"/>
</g>
<g>
</g>
<g>
</g>
<g>
</g>
<g>
</g>
<g>
</g>
<g>
</g>
<g>
</g>
<g>
</g>
<g>
</g>
<g>
</g>
<g>
</g>
<g>
</g>
<g>
</g>
<g>
</g>
<g>
</g>
</svg>
