<?xml version="1.0" encoding="iso-8859-1"?>
<!-- Generator: Adobe Illustrator 19.0.0, SVG Export Plug-In . SVG Version: 6.00 Build 0)  -->
<!-- License: CC0 License. Made by SVG Repo: https://www.svgrepo.com/svg/201429/tic-tac-toe -->
<svg version="1.1" id="Layer_1" xmlns="http://www.w3.org/2000/svg" xmlns:xlink="http://www.w3.org/1999/xlink" x="0px" y="0px"
	 viewBox="0 0 512 512" style="enable-background:new 0 0 512 512;" xml:space="preserve">
<g>
	<g>
		<path d="M508.852,167.869v-16.787H347.279V0h-16.787v151.082H179.41V0h-16.787v151.082H3.148v16.787h159.475v151.082H3.148v16.787
			h159.475V512h16.787V335.738h151.082V512h16.787V335.738h161.574v-16.787H347.279V167.869H508.852z M330.492,318.951H179.41
			V167.869h151.082V318.951z"/>
	</g>
</g>
<g>
	<g>
		<path d="M256,184.656c-32.398,0-58.754,26.356-58.754,58.754s26.356,58.754,58.754,58.754s58.754-26.356,58.754-58.754
			S288.398,184.656,256,184.656z M256,285.377c-23.141,0-41.967-18.827-41.967-41.967s18.826-41.967,41.967-41.967
			s41.967,18.827,41.967,41.967S279.141,285.377,256,285.377z"/>
	</g>
</g>
<g>
	<g>
		<path d="M256,16.787c-32.398,0-58.754,26.356-58.754,58.754s26.356,58.754,58.754,58.754s58.754-26.356,58.754-58.754
			S288.398,16.787,256,16.787z M256,117.508c-23.141,0-41.967-18.827-41.967-41.967c0-23.14,18.826-41.967,41.967-41.967
			s41.967,18.827,41.967,41.967C297.967,98.681,279.141,117.508,256,117.508z"/>
	</g>
</g>
<g>
	<g>
		<path d="M423.869,184.656c-32.398,0-58.754,26.356-58.754,58.754s26.356,58.754,58.754,58.754s58.754-26.356,58.754-58.754
			S456.267,184.656,423.869,184.656z M423.869,285.377c-23.141,0-41.967-18.827-41.967-41.967s18.826-41.967,41.967-41.967
			s41.967,18.827,41.967,41.967S447.01,285.377,423.869,285.377z"/>
	</g>
</g>
<g>
	<g>
		<path d="M88.131,352.525c-32.398,0-58.754,26.356-58.754,58.754s26.356,58.754,58.754,58.754s58.754-26.356,58.754-58.754
			S120.529,352.525,88.131,352.525z M88.131,453.246c-23.141,0-41.967-18.827-41.967-41.967s18.826-41.967,41.967-41.967
			s41.967,18.827,41.967,41.967S111.273,453.246,88.131,453.246z"/>
	</g>
</g>
<g>
	<g>
		<path d="M100,243.41l44.426-44.425c3.279-3.279,3.279-8.592,0-11.871c-3.275-3.277-8.594-3.277-11.869,0L88.131,231.54
			l-44.426-44.426c-3.275-3.277-8.594-3.277-11.869,0c-3.279,3.279-3.279,8.592,0,11.871l44.426,44.425l-44.426,44.425
			c-3.279,3.279-3.279,8.592,0,11.871c1.637,1.638,3.787,2.458,5.934,2.458s4.297-0.82,5.934-2.458l44.426-44.426l44.426,44.426
			c1.637,1.638,3.787,2.458,5.934,2.458s4.297-0.82,5.934-2.458c3.279-3.279,3.279-8.592,0-11.871L100,243.41z"/>
	</g>
</g>
<g>
	<g>
		<path d="M100,75.541l44.426-44.425c3.279-3.279,3.279-8.592,0-11.871c-3.275-3.277-8.594-3.277-11.869,0L88.131,63.671
			L43.705,19.245c-3.275-3.277-8.594-3.277-11.869,0c-3.279,3.279-3.279,8.592,0,11.871l44.426,44.425l-44.426,44.425
			c-3.279,3.279-3.279,8.592,0,11.871c1.637,1.638,3.787,2.458,5.934,2.458s4.297-0.82,5.934-2.458l44.426-44.426l44.426,44.426
			c1.637,1.638,3.787,2.458,5.934,2.458s4.297-0.82,5.934-2.458c3.279-3.279,3.279-8.592,0-11.871L100,75.541z"/>
	</g>
</g>
<g>
	<g>
		<path d="M435.738,75.541l44.426-44.425c3.279-3.279,3.279-8.592,0-11.871c-3.275-3.277-8.594-3.277-11.869,0l-44.426,44.426
			l-44.426-44.426c-3.275-3.277-8.594-3.277-11.869,0c-3.279,3.279-3.279,8.592,0,11.871L412,75.541l-44.426,44.425
			c-3.279,3.279-3.279,8.592,0,11.871c1.637,1.638,3.787,2.458,5.934,2.458s4.297-0.82,5.934-2.458l44.426-44.426l44.426,44.426
			c1.637,1.638,3.787,2.458,5.934,2.458s4.297-0.82,5.934-2.458c3.279-3.279,3.279-8.592,0-11.871L435.738,75.541z"/>
	</g>
</g>
<g>
	<g>
		<path d="M435.738,411.279l44.426-44.425c3.279-3.279,3.279-8.592,0-11.871c-3.275-3.277-8.594-3.277-11.869,0l-44.426,44.426
			l-44.426-44.426c-3.275-3.277-8.594-3.277-11.869,0c-3.279,3.279-3.279,8.592,0,11.871L412,411.279l-44.426,44.425
			c-3.279,3.279-3.279,8.592,0,11.871c1.637,1.638,3.787,2.458,5.934,2.458s4.297-0.82,5.934-2.458l44.426-44.426l44.426,44.426
			c1.637,1.638,3.787,2.458,5.934,2.458s4.297-0.82,5.934-2.458c3.279-3.279,3.279-8.592,0-11.871L435.738,411.279z"/>
	</g>
</g>
<g>
	<g>
		<path d="M267.869,411.279l44.426-44.425c3.279-3.279,3.279-8.592,0-11.871c-3.274-3.277-8.594-3.277-11.869,0L256,399.409
			l-44.426-44.426c-3.274-3.277-8.594-3.277-11.869,0c-3.279,3.279-3.279,8.592,0,11.871l44.426,44.425l-44.426,44.425
			c-3.279,3.279-3.279,8.592,0,11.871c1.637,1.638,3.787,2.458,5.934,2.458s4.297-0.82,5.934-2.458L256,423.148l44.426,44.426
			c1.637,1.638,3.787,2.458,5.934,2.458s4.297-0.82,5.934-2.458c3.279-3.279,3.279-8.592,0-11.871L267.869,411.279z"/>
	</g>
</g>
<g>
</g>
<g>
</g>
<g>
</g>
<g>
</g>
<g>
</g>
<g>
</g>
<g>
</g>
<g>
</g>
<g>
</g>
<g>
</g>
<g>
</g>
<g>
</g>
<g>
</g>
<g>
</g>
<g>
</g>
</svg>
