<svg xmlns="http://www.w3.org/2000/svg" xmlns:xlink="http://www.w3.org/1999/xlink" data-name="Layer 1" viewBox="0 0 16 16"><defs><radialGradient id="h" cx="-46.375" cy="-122.938" r=".5" gradientTransform="matrix(16 0 0 -16 750 -1959)" gradientUnits="userSpaceOnUse"><stop offset="0" stop-color="#f28a2d" stop-opacity="0"/><stop offset="1" stop-color="#f08423" stop-opacity=".34"/></radialGradient><radialGradient id="a" cx="-43.179" cy="-123.001" r=".101" gradientTransform="matrix(14.5998 6.5456 5.063 -11.2928 1254.893 -1098.066)" gradientUnits="userSpaceOnUse"><stop offset="0" stop-color="#f28a2d" stop-opacity=".5"/><stop offset="1" stop-color="#f28a2d" stop-opacity="0"/></radialGradient><radialGradient id="i" cx="-52.645" cy="-139.426" r=".283" gradientTransform="matrix(12.5663 -9.904 -3.6032 -4.5717 171.05 -1147.043)" xlink:href="#a"/><radialGradient id="j" cx="-48.304" cy="-162.637" r=".107" gradientTransform="matrix(15.7394 -2.8762 -.572 -3.1299 672.345 -645.941)" gradientUnits="userSpaceOnUse"><stop offset="0" stop-color="#d45f00" stop-opacity=".15"/><stop offset="1" stop-color="#f28a2d" stop-opacity="0"/></radialGradient><radialGradient id="k" cx="-44.37" cy="-156.49" r=".106" gradientTransform="matrix(15.6768 3.1995 .6363 -3.1176 806.046 -343.762)" gradientUnits="userSpaceOnUse"><stop offset="0" stop-color="#d45f00" stop-opacity=".15"/><stop offset="1" stop-color="#d45f00" stop-opacity="0"/></radialGradient><radialGradient id="b" cx="-120.298" cy="-137.114" r=".872" gradientTransform="matrix(0 -2.1326 -2.1327 0 -287.43 -252.278)" gradientUnits="userSpaceOnUse"><stop offset="0" stop-color="#3b446b"/><stop offset=".688" stop-color="#202340"/></radialGradient><radialGradient id="m" cx="-120.313" cy="-137.114" r=".872" gradientTransform="matrix(0 -2.1326 -2.1327 0 -281.416 -252.31)" xlink:href="#b"/><radialGradient id="c" cx="-166.153" cy="-115.139" r=".298" gradientTransform="matrix(-.339 -1.3177 -6.1081 1.5713 -754.607 -36.31)" gradientUnits="userSpaceOnUse"><stop offset="0" stop-color="#e38200"/><stop offset="1" stop-color="#cd6700"/></radialGradient><radialGradient id="n" cx="-151.516" cy="-122.921" r=".314" gradientTransform="matrix(.2577 -1.3359 -7.9278 -1.5293 -924.512 -388.861)" xlink:href="#c"/><radialGradient id="f" cx="-25.998" cy="-129.932" r="1.226" gradientTransform="matrix(4.3582 3.2271 3.227 -4.3582 532.515 -474.901)" gradientUnits="userSpaceOnUse"><stop offset="0" stop-color="#eda83a"/><stop offset="1" stop-color="#ffdc5e"/></radialGradient><radialGradient id="u" cx="15.654" cy="21.737" r="8.846" gradientTransform="translate(0 -14)" xlink:href="#f"/><linearGradient id="d" x1="-46.375" x2="-46.375" y1="-123.388" y2="-122.512" gradientTransform="matrix(16 0 0 -16 750 -1959)" gradientUnits="userSpaceOnUse"><stop offset="0" stop-color="#f28a2d"/><stop offset="1" stop-color="#fde86f"/></linearGradient><linearGradient id="l" x1="-34.809" x2="-34.809" y1="-273.683" y2="-275.203" gradientTransform="matrix(3.4035 0 0 -.9374 126.474 -251.242)" gradientUnits="userSpaceOnUse"><stop offset="0" stop-color="#482314"/><stop offset="1" stop-color="#9a4111"/></linearGradient><linearGradient id="o" x1="9.161" x2="6.018" y1="16.597" y2="8.266" gradientUnits="userSpaceOnUse"><stop offset="0" stop-color="#f9c9a4"/><stop offset="1" stop-color="#f9e7c0"/></linearGradient><linearGradient id="p" x1="6.391" x2="8.448" y1="16.159" y2="6.631" xlink:href="#d"/><linearGradient id="q" x1="4.736" x2="27.739" y1="12.545" y2="5.144" gradientUnits="userSpaceOnUse"><stop offset="0" stop-color="#e04300"/><stop offset="1" stop-color="#ffa320"/></linearGradient><linearGradient id="r" x1="4.009" x2="12.404" y1="11.938" y2="4.973" xlink:href="#d"/><linearGradient id="e" x1="8.395" x2="1.913" y1="10.935" y2="10.236" gradientUnits="userSpaceOnUse"><stop offset="0" stop-color="#9c0600"/><stop offset="1" stop-color="#9c0600" stop-opacity="0"/></linearGradient><linearGradient id="t" x1="-1.326" x2="12.914" y1="12.567" y2="11.552" xlink:href="#e"/><linearGradient id="v" x1="7.248" x2="9.425" y1="16.375" y2="6.208" xlink:href="#d"/><clipPath id="g"><rect width="16" height="16" fill="none"/></clipPath><clipPath id="s"><circle cx="8" cy="8" r="8" fill="none"/></clipPath></defs><g clip-path="url(#g)"><path fill="url(#d)" fill-rule="evenodd" d="M16,8A8,8,0,1,1,8,0,8.02352,8.02352,0,0,1,16,8Z"/><path fill="url(#h)" fill-rule="evenodd" d="M16,8A8,8,0,1,1,8,0,8.02352,8.02352,0,0,1,16,8Z" data-name="b"/><path fill="url(#a)" fill-rule="evenodd" d="M16,8A8,8,0,1,1,8,0,8.02352,8.02352,0,0,1,16,8Z" data-name="b"/><path fill="url(#i)" fill-rule="evenodd" d="M16,8A8,8,0,1,1,8,0,8.02352,8.02352,0,0,1,16,8Z" data-name="b"/><path fill="url(#j)" fill-rule="evenodd" d="M16,8A8,8,0,1,1,8,0,8.02352,8.02352,0,0,1,16,8Z" data-name="b"/><path fill="url(#k)" fill-rule="evenodd" d="M16,8A8,8,0,1,1,8,0,8.02352,8.02352,0,0,1,16,8Z" data-name="b"/><path fill="url(#l)" fill-rule="evenodd" d="M9.7,5.9c-.1-.3-3.3-.3-3.4,0s.6.7,1.7.7S9.8,6.2,9.7,5.9Z"/><path fill="url(#b)" fill-rule="evenodd" d="M6,4.1c0,.7-.4.9-1,1s-1.1-.2-1.1-1c0-.6.3-1.4,1.1-1.4C5.7,2.7,6,3.5,6,4.1Z"/><path fill="#4e506a" fill-rule="evenodd" d="M4.9,3.1a.34826.34826,0,0,1-.1.5c-.1.1-.3.2-.4,0a.45417.45417,0,0,1,0-.5.44637.44637,0,0,1,.5,0Z"/><path fill="url(#m)" fill-rule="evenodd" d="M10,4.1c0,.7.4.9,1.1,1,.6.1,1.1-.2,1.1-1,0-.6-.3-1.4-1.1-1.4S10,3.5,10,4.1Z"/><path fill="#4e506a" fill-rule="evenodd" d="M11,3.1c.1.1,0,.3-.1.5a.30417.30417,0,0,1-.4,0c-.1-.1,0-.3.1-.5C10.8,2.9,10.9,2.9,11,3.1Z"/><path fill="url(#c)" fill-rule="evenodd" d="M3.4,2.1c-.2.2,0,.5.3.4A5.85669,5.85669,0,0,1,6.5,2c.3,0,.4,0,.3-.4,0-.3-.4-.5-1.2-.4A3.78644,3.78644,0,0,0,3.4,2.1Z"/><path fill="url(#n)" fill-rule="evenodd" d="M10.4,1.2c-.8-.1-1.2.1-1.2.4-.1.4,0,.4.3.4a5.39694,5.39694,0,0,1,2.8.5c.4.2.5-.2.3-.4A3.78644,3.78644,0,0,0,10.4,1.2Z"/><path fill="url(#o)" d="M8.31724,10.17246A2.16207,2.16207,0,0,0,7.88351,11.585a2.16214,2.16214,0,0,0,1.021,1.06816,2.02815,2.02815,0,0,1,1.04241,1.33633l.00065.00317.00009,0,.19975.84373L6.19113,15.773l-.19974-.84373.00009,0-.00083-.00313a2.02816,2.02816,0,0,1,.33261-1.66184A2.16215,2.16215,0,0,0,6.757,11.85171a2.16216,2.16216,0,0,0-1.021-1.06816,2.02814,2.02814,0,0,1-1.0424-1.33633L4.49083,8.5908l3.95628-.93661.20275.85642A2.02815,2.02815,0,0,1,8.31724,10.17246Z" data-name="Layer 2"/><path fill="url(#p)" d="M7.93266,14.30519a5.06509,5.06509,0,0,1,1.08855.60257l-1.7914.4241S7.78542,14.34005,7.93266,14.30519Zm-.33514-1.06292a.0914.0914,0,1,0,.11.06788A.0914.0914,0,0,0,7.59752,13.24227Zm.16381.29518a.0914.0914,0,1,0,.11.06789A.0914.0914,0,0,0,7.76133,13.53745Zm-.08982.5819a.0914.0914,0,1,0,.11.06788A.09139.09139,0,0,0,7.67151,14.11935Zm-.03207-1.31512a.0914.0914,0,1,0,.11.06789A.09139.09139,0,0,0,7.63944,12.80423Zm-2.279-2.79766c.08741.36921.58334.60119.89559.76328a1.55888,1.55888,0,0,1,.75775.886c.00361.01524.00778.02966.01232.04353a2.13789,2.13789,0,0,0,.39638.89248.1266.1266,0,0,0,.16556.00249c.13542-.135.07049-.6545-.03-1.10185a1.84076,1.84076,0,0,1,.28823-1.09909c.20644-.28488.54573-.71458.45832-1.08381A8.33465,8.33465,0,0,0,5.36043,10.00657ZM7.93921,13.877a.0914.0914,0,1,0,.11.06789A.0914.0914,0,0,0,7.93921,13.877Z" data-name="Layer 3"/><path fill="url(#q)" d="M8.49941,7.875l-3.9563.93661a.227.227,0,0,1-.10458-.44174l3.9563-.93661a.227.227,0,0,1,.10458.44174Zm1.86889,6.90905a.227.227,0,0,0-.27315-.16856l-3.9563.93661a.227.227,0,1,0,.10457.4417l3.9563-.93661A.227.227,0,0,0,10.3683,14.78409Z" data-name="Layer 4"/><path fill="url(#r)" d="M8.29211,9.25694c.03236.13668-.60047.40352-1.41348.596s-1.4983.23769-1.53066.101.60047-.40352,1.41348-.596S8.25975,9.12026,8.29211,9.25694Z" data-name="Layer 5"/><g clip-path="url(#s)"><path fill="url(#e)" d="M6.31933,10.25326a.82184.82184,0,0,0-.458-.17463c-.72793-.086-1.48341-.12807-1.76-.14228a1.24221,1.24221,0,0,0,.99713-.28009c.04012-.03877.42538-.42025.27383-.72006a.56611.56611,0,0,0-.42793-.24331c-.05378.01316-.133.03111-.22957.04756A3.71631,3.71631,0,0,1,2.8877,8.56517a4.77,4.77,0,0,1-.93585-.46256A3.27059,3.27059,0,0,0,1.3,7.7a1.17553,1.17553,0,0,0-.80158-.10293C.002,7.81606.08161,8.953.097,9.17277a4.17965,4.17965,0,0,0,1.71086,3.16648,3.55484,3.55484,0,0,0,2.93911.49967C5.75052,12.5085,6.65048,11.59569,6.6,10.9A.93851.93851,0,0,0,6.31933,10.25326Z"/><path fill="url(#f)" fill-rule="evenodd" d="M1.3,7.7c-.5-.5-1.4-.8-1.5.4a4.23772,4.23772,0,0,0,1.4,3.4c2.8,2.2,5.3,1,5.4-.6.1-1.2-1.4-1.1-1.8-1.1V9.7c.1-.1.3-.2.4-.3.4-.3.2-.8-.3-.7a4.23105,4.23105,0,0,1-2.1.1C2,8.5,1.9,8.2,1.3,7.7Z"/></g><path fill="url(#t)" d="M15.13789,8.26713c-.11608-.09583-.16921-.062-.3612-.1548-.30835-.14911-.35542.67451-.47669.68767-.17312.01879-.24414-.60673-.32245-.352a3.22671,3.22671,0,0,1-1.0043,1.44331,3.80684,3.80684,0,0,1-1.93207.88144,13.13383,13.13383,0,0,1-1.76673-.09346.463.463,0,0,0-.28693.11919.39881.39881,0,0,0-.10079.18265c-.06223.22482.18157.4657.36713.649A1.88447,1.88447,0,0,0,9.6,11.9c.14121.05492.27912.12324.27176.18346-.02033.16628-1.17117-.12915-1.72285.44688a1.295,1.295,0,0,0-.28284,1.01094,1.85351,1.85351,0,0,0,1.1253,1.31607,2.754,2.754,0,0,0,1.51742.19512A7.27361,7.27361,0,0,0,13.637,13.6617c.79466-.59482,1.192-2.89222,1.45734-3.46719.33929-.73521.36328.33148.32731-.09557a3.40011,3.40011,0,0,1-.05159-.92881,1.18506,1.18506,0,0,0,0-.4902A.74547.74547,0,0,0,15.13789,8.26713Z"/><path fill="url(#u)" d="M14.3,7.8c.3-.6.8-.4,1.1-.3a.91613.91613,0,0,1,.7,1,5.70617,5.70617,0,0,1-1.5,4.3c-2.3,2.6-6.2,2.2-6.6.6C7.7,12.2,9.1,12,9.6,12v-.1c-.2-.1-.3-.2-.5-.3-.4-.3-.3-.9.2-.8a6.80386,6.80386,0,0,0,2,.2c1.9-.2,2.2-1.7,3-3.2Z"/><circle cx="7.601" cy="14.726" r=".091" fill="url(#v)"/></g></svg>