<svg xmlns="http://www.w3.org/2000/svg" xmlns:xlink="http://www.w3.org/1999/xlink" data-name="Layer 1" viewBox="0 0 16 16"><defs><radialGradient id="h" cx="-45.438" cy="-3.938" r=".5" gradientTransform="matrix(16 0 0 -16 735 -55)" gradientUnits="userSpaceOnUse"><stop offset="0" stop-color="#f28a2d" stop-opacity="0"/><stop offset="1" stop-color="#f08423" stop-opacity=".34"/></radialGradient><radialGradient id="a" cx="-45.1" cy="-2.776" r=".101" gradientTransform="matrix(14.5998 6.5456 5.063 -11.2928 674.237 272.182)" gradientUnits="userSpaceOnUse"><stop offset="0" stop-color="#f28a2d" stop-opacity=".5"/><stop offset="1" stop-color="#f28a2d" stop-opacity="0"/></radialGradient><radialGradient id="i" cx="-47.361" cy="-12.208" r=".283" gradientTransform="matrix(12.5663 -9.904 -3.6032 -4.5717 563.043 -513.109)" xlink:href="#a"/><radialGradient id="j" cx="-46.107" cy="-15.953" r=".107" gradientTransform="matrix(15.7394 -2.8762 -.572 -3.1299 721.67 -180.516)" gradientUnits="userSpaceOnUse"><stop offset="0" stop-color="#d45f00" stop-opacity=".15"/><stop offset="1" stop-color="#f28a2d" stop-opacity="0"/></radialGradient><radialGradient id="k" cx="-44.831" cy="-10.064" r=".106" gradientTransform="matrix(15.6768 3.1995 .6363 -3.1176 720.103 114.21)" gradientUnits="userSpaceOnUse"><stop offset="0" stop-color="#d45f00" stop-opacity=".15"/><stop offset="1" stop-color="#d45f00" stop-opacity="0"/></radialGradient><radialGradient id="b" cx="-66.78" cy="-24.645" r=".872" gradientTransform="matrix(0 -2.1326 -2.1327 0 -47.567 -138.146)" gradientUnits="userSpaceOnUse"><stop offset="0" stop-color="#3b446b"/><stop offset=".688" stop-color="#202340"/></radialGradient><radialGradient id="m" cx="-66.795" cy="-24.645" r=".872" gradientTransform="matrix(0 -2.1326 -2.1327 0 -41.554 -138.177)" xlink:href="#b"/><radialGradient id="c" cx="-85.249" cy="-7.41" r=".298" gradientTransform="matrix(-.339 -1.3177 -6.1081 1.5713 -69.16 -98.978)" gradientUnits="userSpaceOnUse"><stop offset="0" stop-color="#e38200"/><stop offset="1" stop-color="#cd6700"/></radialGradient><radialGradient id="n" cx="-69.825" cy="-8.172" r=".314" gradientTransform="matrix(.2577 -1.3359 -7.9278 -1.5293 -35.856 -104.244)" xlink:href="#c"/><radialGradient id="e" cx="-37.436" cy="-1.444" r="1.226" gradientTransform="matrix(4.3582 3.2271 3.227 -4.3582 167.733 121.99)" gradientUnits="userSpaceOnUse"><stop offset="0" stop-color="#eda83a"/><stop offset="1" stop-color="#ffdc5e"/></radialGradient><radialGradient id="t" cx="15.654" cy="21.737" r="8.846" gradientTransform="translate(0 -14)" xlink:href="#e"/><linearGradient id="g" x1="-45.438" x2="-45.438" y1="-4.388" y2="-3.512" gradientTransform="matrix(16 0 0 -16 735 -55)" gradientUnits="userSpaceOnUse"><stop offset="0" stop-color="#f28a2d"/><stop offset="1" stop-color="#fde86f"/></linearGradient><linearGradient id="l" x1="-34.103" x2="-34.103" y1="-42.204" y2="-43.723" gradientTransform="matrix(3.4035 0 0 -.9374 124.07 -34.253)" gradientUnits="userSpaceOnUse"><stop offset="0" stop-color="#482314"/><stop offset="1" stop-color="#9a4111"/></linearGradient><linearGradient id="o" x1="2.281" x2="12.155" y1="7.999" y2="16.078" gradientUnits="userSpaceOnUse"><stop offset="0" stop-color="#16992b"/><stop offset="1" stop-color="#126d1a"/></linearGradient><linearGradient id="p" x1="4.149" x2="12.482" y1="8.632" y2="16.393" gradientUnits="userSpaceOnUse"><stop offset="0" stop-color="#f34462"/><stop offset="1" stop-color="#cc0820"/></linearGradient><linearGradient id="q" x1="5.472" x2="10.769" y1="11.19" y2="11.19" xlink:href="#b"/><linearGradient id="d" x1="8.395" x2="1.913" y1="10.935" y2="10.236" gradientUnits="userSpaceOnUse"><stop offset="0" stop-color="#9c0600"/><stop offset="1" stop-color="#9c0600" stop-opacity="0"/></linearGradient><linearGradient id="s" x1="-1.326" x2="12.914" y1="12.567" y2="11.552" xlink:href="#d"/><clipPath id="f"><rect width="16" height="16" fill="none"/></clipPath><clipPath id="r"><circle cx="8" cy="8" r="8" fill="none"/></clipPath></defs><g clip-path="url(#f)"><path fill="url(#g)" fill-rule="evenodd" d="M16,8A8,8,0,1,1,8,0,8.02352,8.02352,0,0,1,16,8Z"/><path fill="url(#h)" fill-rule="evenodd" d="M16,8A8,8,0,1,1,8,0,8.02352,8.02352,0,0,1,16,8Z" data-name="b"/><path fill="url(#a)" fill-rule="evenodd" d="M16,8A8,8,0,1,1,8,0,8.02352,8.02352,0,0,1,16,8Z" data-name="b"/><path fill="url(#i)" fill-rule="evenodd" d="M16,8A8,8,0,1,1,8,0,8.02352,8.02352,0,0,1,16,8Z" data-name="b"/><path fill="url(#j)" fill-rule="evenodd" d="M16,8A8,8,0,1,1,8,0,8.02352,8.02352,0,0,1,16,8Z" data-name="b"/><path fill="url(#k)" fill-rule="evenodd" d="M16,8A8,8,0,1,1,8,0,8.02352,8.02352,0,0,1,16,8Z" data-name="b"/><path fill="url(#l)" fill-rule="evenodd" d="M9.7,5.9c-.1-.3-3.3-.3-3.4,0s.6.7,1.7.7S9.8,6.2,9.7,5.9Z"/><path fill="url(#b)" fill-rule="evenodd" d="M6,4.1c0,.7-.4.9-1,1s-1.1-.2-1.1-1c0-.6.3-1.4,1.1-1.4C5.7,2.7,6,3.5,6,4.1Z"/><path fill="#4e506a" fill-rule="evenodd" d="M4.9,3.1a.34826.34826,0,0,1-.1.5c-.1.1-.3.2-.4,0a.45417.45417,0,0,1,0-.5.44637.44637,0,0,1,.5,0Z"/><path fill="url(#m)" fill-rule="evenodd" d="M10,4.1c0,.7.4.9,1.1,1,.6.1,1.1-.2,1.1-1,0-.6-.3-1.4-1.1-1.4S10,3.5,10,4.1Z"/><path fill="#4e506a" fill-rule="evenodd" d="M11,3.1c.1.1,0,.3-.1.5a.30417.30417,0,0,1-.4,0c-.1-.1,0-.3.1-.5C10.8,2.9,10.9,2.9,11,3.1Z"/><path fill="url(#c)" fill-rule="evenodd" d="M3.4,2.1c-.2.2,0,.5.3.4A5.85669,5.85669,0,0,1,6.5,2c.3,0,.4,0,.3-.4,0-.3-.4-.5-1.2-.4A3.78644,3.78644,0,0,0,3.4,2.1Z"/><path fill="url(#n)" fill-rule="evenodd" d="M10.4,1.2c-.8-.1-1.2.1-1.2.4-.1.4,0,.4.3.4a5.39694,5.39694,0,0,1,2.8.5c.4.2.5-.2.3-.4A3.78644,3.78644,0,0,0,10.4,1.2Z"/><path fill="url(#o)" d="M12.95376,13.92654a.43031.43031,0,0,1-.025.63105A6.00238,6.00238,0,0,1,4.46551,6.09436a.4303.4303,0,0,1,.63105-.025Z" data-name="Layer 2"/><path fill="#fff" d="M12.78981,13.76257a5.324,5.324,0,0,1-7.5293-7.5293Z" data-name="Layer 3"/><path fill="url(#p)" d="M12.43263,13.40539a4.8189,4.8189,0,0,1-6.815-6.815Z" data-name="Layer 4"/><path fill="url(#q)" d="M6.504,8.38665l-.00629.01019c-.00419.00583-.01013.01616-.01806.026-.00789.01024-.01738.02357-.02853.03626-.01111.01307-.02379.02677-.03772.04057s-.02917.02768-.04542.04089a.57593.57593,0,0,1-.05154.038.51809.51809,0,0,1-.056.03311.55182.55182,0,0,1-.05865.02634.45773.45773,0,0,1-.118.02911.36636.36636,0,0,1-.10619-.00395A.31678.31678,0,0,1,5.90007,8.638c-.00951-.00431-.01717-.00943-.02231-.01222l-.008-.00526a.26209.26209,0,0,1-.04639-.36774l.00485-.00606.00666-.00688L5.854,8.223a.31609.31609,0,0,1,.07018-.04157.36655.36655,0,0,1,.10271-.02716.458.458,0,0,1,.12149.00251.5509.5509,0,0,1,.063.01281.51872.51872,0,0,1,.06188.02.57418.57418,0,0,1,.05863.02574c.01877.00933.03667.01956.05329.02991s.032.021.0457.03131c.01369.00992.02585.02085.03579.02911.0099.00791.018.01668.02334.02145l.00836.00856A.04418.04418,0,0,1,6.504,8.38665Zm1.41862,4.358.00961.00713c.00606.00388.01539.01128.02642.01752.01111.0066.02486.01547.03991.02313.01517.008.032.01607.05007.02373s.03732.01492.05733.02118a.56577.56577,0,0,0,.062.01621.52.52,0,0,0,.06424.01007.55084.55084,0,0,0,.06423.00275.45831.45831,0,0,0,.12038-.01662.36675.36675,0,0,0,.09719-.043.31718.31718,0,0,0,.06278-.05207l.01621-.01962.00548-.00785.00384-.00676a.26206.26206,0,0,0-.10359-.35588l-.00873-.00392-.024-.00857a.31585.31585,0,0,0-.08056-.01265.36624.36624,0,0,0-.10549.01279.45747.45747,0,0,0-.11194.04729.5582.5582,0,0,0-.05378.03521.51991.51991,0,0,0-.05006.0415.57493.57493,0,0,0-.045.04561c-.014.01561-.02683.03173-.03844.04751s-.022.03135-.03087.046c-.009.01427-.01629.02894-.02248.04028-.00628.011-.01051.02215-.01374.02856l-.0046.011A.044.044,0,0,0,7.92261,12.74467Zm-1.91987-.34019-.00542.01067c-.00279.00661-.00853.01707-.01282.029-.00462.01206-.01105.0271-.01606.04324-.00537.01632-.01046.03425-.015.05335s-.0084.0393-.01122.06009a.57222.57222,0,0,0-.00554.06379.51806.51806,0,0,0,.0009.065.55036.55036,0,0,0,.0081.06379.45729.45729,0,0,0,.03666.11586.366.366,0,0,0,.05872.08856.31687.31687,0,0,0,.06191.0531l.02206.01268.00865.00409.00732.00265a.2621.2621,0,0,0,.33334-.16206l.00241-.00927L6.4812,12.874a.31694.31694,0,0,0-.00108-.08156.366.366,0,0,0-.03039-.10181.458.458,0,0,0-.06547-.10238.54968.54968,0,0,0-.04377-.04708.5192.5192,0,0,0-.04935-.04236.56822.56822,0,0,0-.05252-.03661c-.01775-.01116-.03581-.0211-.05331-.02989s-.0346-.01635-.05054-.0227c-.01561-.00649-.03126-.0112-.04349-.01537-.01191-.00433-.0236-.00663-.03046-.00873l-.01167-.00267A.04414.04414,0,0,0,6.00274,12.40448Zm-.14692-2.1319-.0113.00392c-.00661.00281-.018.00639-.02933.012-.01169.00548-.02677.01185-.04158.02-.01516.008-.03129.01742-.04778.02805s-.03332.02247-.04976.03547a.572.572,0,0,0-.04825.04209.521.521,0,0,0-.04446.04746.55323.55323,0,0,0-.03841.05154.45685.45685,0,0,0-.054.10888.36671.36671,0,0,0-.01917.1045.31683.31683,0,0,0,.00775.0812l.00711.02443.00339.009.00343.007a.26209.26209,0,0,0,.35249.11459l.00816-.005.02056-.015a.31615.31615,0,0,0,.05579-.05949.3659.3659,0,0,0,.04877-.0944.457.457,0,0,0,.02389-.11914.55183.55183,0,0,0,.00115-.06428.51948.51948,0,0,0-.00614-.06473.56964.56964,0,0,0-.01243-.06282c-.005-.02034-.01115-.04-.01764-.05851s-.01356-.03578-.02065-.0514c-.00674-.01551-.01475-.02976-.02067-.04125-.00556-.01138-.01238-.02115-.01587-.02742l-.00654-.01A.04418.04418,0,0,0,5.85582,10.27258Zm2.5221.4815-.00313-.01155c-.00236-.00678-.00511-.01838-.00992-.03011-.00466-.01206-.01-.02753-.017-.04288-.00694-.01569-.0152-.03241-.02465-.04961s-.02011-.0348-.03194-.05209a.56907.56907,0,0,0-.03864-.05107.522.522,0,0,0-.04425-.04766.55381.55381,0,0,0-.04875-.04191.45824.45824,0,0,0-.10485-.06142.3662.3662,0,0,0-.10292-.0264.31663.31663,0,0,0-.08153.00208l-.02486.00538-.00916.00275-.00719.00294a.26211.26211,0,0,0-.13885.34368l.00441.00848.01352.02155a.316.316,0,0,0,.05547.0598.36611.36611,0,0,0,.09078.05522.45814.45814,0,0,0,.11719.03213.55365.55365,0,0,0,.06405.00561.523.523,0,0,0,.065-.00162.57115.57115,0,0,0,.06354-.008c.02065-.00361.04072-.00834.0596-.01353s.03664-.011.05271-.017c.01594-.00563.03071-.01266.04258-.01773.01175-.00477.022-.01089.02848-.01393l.01045-.00584A.04412.04412,0,0,0,8.37792,10.75408Zm1.72017,2.01954.01088.005c.00672.00253.0174.00783.02948.01165.01225.00413.02753.01.04386.01431.0165.00471.03464.00908.05391.01282s.0396.00682.06047.0088a.574.574,0,0,0,.064.003.51636.51636,0,0,0,.06493-.00351.5509.5509,0,0,0,.0634-.01064.45751.45751,0,0,0,.1143-.04125.36578.36578,0,0,0,.08613-.0622.31671.31671,0,0,0,.05058-.064l.01177-.02256.00374-.00881.00236-.0074a.26208.26208,0,0,0-.17523-.32661l-.00935-.002-.0252-.00341a.316.316,0,0,0-.08145.00436.36605.36605,0,0,0-.10052.0344.45841.45841,0,0,0-.09967.0695.55136.55136,0,0,0-.0453.04563.52066.52066,0,0,0-.04035.051.57717.57717,0,0,0-.03449.05395c-.01043.01818-.01966.03663-.02773.05446s-.01495.03521-.02067.0514c-.00587.01586-.00992.03169-.01362.04408-.00386.01206-.00569.02385-.00751.03079l-.00222.01178A.04413.04413,0,0,0,10.09809,12.77362ZM9.2016,13.79l.00255.01169c.002.0069.00421.01861.0084.03057.004.01226.00859.028.01491.04365.00617.016.01358.03314.02215.05078s.01834.03577.02931.05362a.572.572,0,0,0,.03606.05292.51764.51764,0,0,0,.04182.04979.5525.5525,0,0,0,.04661.04427.45842.45842,0,0,0,.10167.06656.36612.36612,0,0,0,.10148.03145.31591.31591,0,0,0,.08154.002l.0251-.00414.00928-.00231.00734-.00256a.2621.2621,0,0,0,.15569-.33637l-.004-.00869L9.86908,13.851a.31621.31621,0,0,0-.05245-.06247.36647.36647,0,0,0-.08792-.05965.45786.45786,0,0,0-.11547-.03788.55014.55014,0,0,0-.06369-.00878.52138.52138,0,0,0-.065-.0016.56952.56952,0,0,0-.06385.00487c-.02079.00259-.04109.00631-.06019.01058s-.03714.0092-.05349.01438c-.01619.00485-.03131.01111-.04341.01561-.012.00417-.02247.00978-.02913.01251l-.01072.0053A.04411.04411,0,0,0,9.2016,13.79Z" data-name="Layer 5"/><g clip-path="url(#r)"><path fill="url(#d)" d="M6.31933,10.25326a.82184.82184,0,0,0-.458-.17463c-.72793-.086-1.48341-.12807-1.76-.14228a1.24221,1.24221,0,0,0,.99713-.28009c.04012-.03877.42538-.42025.27383-.72006a.56611.56611,0,0,0-.42793-.24331c-.05378.01316-.133.03111-.22957.04756A3.71631,3.71631,0,0,1,2.8877,8.56517a4.77,4.77,0,0,1-.93585-.46256A3.27059,3.27059,0,0,0,1.3,7.7a1.17553,1.17553,0,0,0-.80158-.10293C.002,7.81606.08161,8.953.097,9.17277a4.17965,4.17965,0,0,0,1.71086,3.16648,3.55484,3.55484,0,0,0,2.93911.49967C5.75052,12.5085,6.65048,11.59569,6.6,10.9A.93851.93851,0,0,0,6.31933,10.25326Z"/><path fill="url(#e)" fill-rule="evenodd" d="M1.3,7.7c-.5-.5-1.4-.8-1.5.4a4.23772,4.23772,0,0,0,1.4,3.4c2.8,2.2,5.3,1,5.4-.6.1-1.2-1.4-1.1-1.8-1.1V9.7c.1-.1.3-.2.4-.3.4-.3.2-.8-.3-.7a4.23105,4.23105,0,0,1-2.1.1C2,8.5,1.9,8.2,1.3,7.7Z"/></g><path fill="url(#s)" d="M15.13789,8.26713c-.11608-.09583-.16921-.062-.3612-.1548-.30835-.14911-.35542.67451-.47669.68767-.17312.01879-.24414-.60673-.32245-.352a3.22671,3.22671,0,0,1-1.0043,1.44331,3.80684,3.80684,0,0,1-1.93207.88144,13.13383,13.13383,0,0,1-1.76673-.09346.463.463,0,0,0-.28693.11919.39881.39881,0,0,0-.10079.18265c-.06223.22482.18157.4657.36713.649A1.88447,1.88447,0,0,0,9.6,11.9c.14121.05492.27912.12324.27176.18346-.02033.16628-1.17117-.12915-1.72285.44688a1.295,1.295,0,0,0-.28284,1.01094,1.85351,1.85351,0,0,0,1.1253,1.31607,2.754,2.754,0,0,0,1.51742.19512A7.27361,7.27361,0,0,0,13.637,13.6617c.79466-.59482,1.192-2.89222,1.45734-3.46719.33929-.73521.36328.33148.32731-.09557a3.40011,3.40011,0,0,1-.05159-.92881,1.18506,1.18506,0,0,0,0-.4902A.74547.74547,0,0,0,15.13789,8.26713Z"/><path fill="url(#t)" d="M14.3,7.8c.3-.6.8-.4,1.1-.3a.91613.91613,0,0,1,.7,1,5.70617,5.70617,0,0,1-1.5,4.3c-2.3,2.6-6.2,2.2-6.6.6C7.7,12.2,9.1,12,9.6,12v-.1c-.2-.1-.3-.2-.5-.3-.4-.3-.3-.9.2-.8a6.80386,6.80386,0,0,0,2,.2c1.9-.2,2.2-1.7,3-3.2Z"/></g></svg>