<svg xmlns="http://www.w3.org/2000/svg" xmlns:xlink="http://www.w3.org/1999/xlink" data-name="Layer 1" viewBox="0 0 16 16"><defs><radialGradient id="i" cx="-94.188" cy="-50.688" r=".5" gradientTransform="matrix(16 0 0 -16 1515 -803)" gradientUnits="userSpaceOnUse"><stop offset="0" stop-color="#f28a2d" stop-opacity="0"/><stop offset="1" stop-color="#f08423" stop-opacity=".34"/></radialGradient><radialGradient id="a" cx="-93.009" cy="-48.301" r=".101" gradientTransform="matrix(14.5998 6.5456 5.063 -11.2928 1604.199 71.67)" gradientUnits="userSpaceOnUse"><stop offset="0" stop-color="#f28a2d" stop-opacity=".5"/><stop offset="1" stop-color="#f28a2d" stop-opacity="0"/></radialGradient><radialGradient id="j" cx="-98.511" cy="-67.675" r=".283" gradientTransform="matrix(12.5663 -9.904 -3.6032 -4.5717 1005.95 -1273.271)" xlink:href="#a"/><radialGradient id="k" cx="-95.404" cy="-76.495" r=".107" gradientTransform="matrix(15.7394 -2.8762 -.572 -3.1299 1462.95 -511.794)" gradientUnits="userSpaceOnUse"><stop offset="0" stop-color="#d45f00" stop-opacity=".15"/><stop offset="1" stop-color="#f28a2d" stop-opacity="0"/></radialGradient><radialGradient id="l" cx="-93.097" cy="-64.345" r=".106" gradientTransform="matrix(15.6768 3.1995 .6363 -3.1176 1511.294 99.41)" gradientUnits="userSpaceOnUse"><stop offset="0" stop-color="#d45f00" stop-opacity=".15"/><stop offset="1" stop-color="#d45f00" stop-opacity="0"/></radialGradient><radialGradient id="b" cx="-139.413" cy="-93.027" r=".872" gradientTransform="matrix(0 -2.1326 -2.1327 0 -193.406 -293.04)" gradientUnits="userSpaceOnUse"><stop offset="0" stop-color="#3b446b"/><stop offset=".688" stop-color="#202340"/></radialGradient><radialGradient id="m" cx="-139.427" cy="-93.027" r=".872" gradientTransform="matrix(0 -2.1326 -2.1327 0 -187.392 -293.072)" xlink:href="#b"/><radialGradient id="c" cx="-178.089" cy="-57.657" r=".298" gradientTransform="matrix(-.339 -1.3177 -6.1081 1.5713 -407.545 -142.362)" gradientUnits="userSpaceOnUse"><stop offset="0" stop-color="#e38200"/><stop offset="1" stop-color="#cd6700"/></radialGradient><radialGradient id="n" cx="-146.34" cy="-59.528" r=".314" gradientTransform="matrix(.2577 -1.3359 -7.9278 -1.5293 -423.279 -285)" xlink:href="#c"/><radialGradient id="f" cx="-76.902" cy="-46.258" r="1.226" gradientTransform="matrix(4.3582 3.2271 3.227 -4.3582 484.347 54.038)" gradientUnits="userSpaceOnUse"><stop offset="0" stop-color="#eda83a"/><stop offset="1" stop-color="#ffdc5e"/></radialGradient><radialGradient id="r" cx="15.654" cy="21.737" r="8.846" gradientTransform="translate(0 -14)" xlink:href="#f"/><linearGradient id="h" x1="-94.188" x2="-94.188" y1="-51.138" y2="-50.262" gradientTransform="matrix(16 0 0 -16 1515 -803)" gradientUnits="userSpaceOnUse"><stop offset="0" stop-color="#f28a2d"/><stop offset="1" stop-color="#fde86f"/></linearGradient><linearGradient id="d" x1="-70.825" x2="-70.825" y1="-133.142" y2="-134.662" gradientTransform="matrix(3.4035 0 0 -.9374 249.053 -119.498)" gradientUnits="userSpaceOnUse"><stop offset="0" stop-color="#482314"/><stop offset="1" stop-color="#9a4111"/></linearGradient><linearGradient id="o" x1="5.815" x2="6.12" y1="11.451" y2="7.978" gradientTransform="rotate(7.561 7.218 10.365)" xlink:href="#d"/><linearGradient id="e" x1="8.295" x2="1.89" y1="10.924" y2="10.234" gradientUnits="userSpaceOnUse"><stop offset="0" stop-color="#9c0600"/><stop offset="1" stop-color="#9c0600" stop-opacity="0"/></linearGradient><linearGradient id="q" x1="-1.326" x2="12.914" y1="12.567" y2="11.552" xlink:href="#e"/><clipPath id="g"><rect width="16" height="16" fill="none"/></clipPath><clipPath id="p"><circle cx="8" cy="8" r="8" fill="none"/></clipPath></defs><g clip-path="url(#g)"><path fill="url(#h)" fill-rule="evenodd" d="M16,8A8,8,0,1,1,8,0,8.02352,8.02352,0,0,1,16,8Z"/><path fill="url(#i)" fill-rule="evenodd" d="M16,8A8,8,0,1,1,8,0,8.02352,8.02352,0,0,1,16,8Z" data-name="b"/><path fill="url(#a)" fill-rule="evenodd" d="M16,8A8,8,0,1,1,8,0,8.02352,8.02352,0,0,1,16,8Z" data-name="b"/><path fill="url(#j)" fill-rule="evenodd" d="M16,8A8,8,0,1,1,8,0,8.02352,8.02352,0,0,1,16,8Z" data-name="b"/><path fill="url(#k)" fill-rule="evenodd" d="M16,8A8,8,0,1,1,8,0,8.02352,8.02352,0,0,1,16,8Z" data-name="b"/><path fill="url(#l)" fill-rule="evenodd" d="M16,8A8,8,0,1,1,8,0,8.02352,8.02352,0,0,1,16,8Z" data-name="b"/><path fill="url(#d)" fill-rule="evenodd" d="M9.7,5.9c-.1-.3-3.3-.3-3.4,0s.6.7,1.7.7S9.8,6.2,9.7,5.9Z"/><path fill="url(#b)" fill-rule="evenodd" d="M6,4.1c0,.7-.4.9-1,1s-1.1-.2-1.1-1c0-.6.3-1.4,1.1-1.4C5.7,2.7,6,3.5,6,4.1Z"/><path fill="#4e506a" fill-rule="evenodd" d="M4.9,3.1a.34826.34826,0,0,1-.1.5c-.1.1-.3.2-.4,0a.45417.45417,0,0,1,0-.5.44637.44637,0,0,1,.5,0Z"/><path fill="url(#m)" fill-rule="evenodd" d="M10,4.1c0,.7.4.9,1.1,1,.6.1,1.1-.2,1.1-1,0-.6-.3-1.4-1.1-1.4S10,3.5,10,4.1Z"/><path fill="#4e506a" fill-rule="evenodd" d="M11,3.1c.1.1,0,.3-.1.5a.30417.30417,0,0,1-.4,0c-.1-.1,0-.3.1-.5C10.8,2.9,10.9,2.9,11,3.1Z"/><path fill="url(#c)" fill-rule="evenodd" d="M3.4,2.1c-.2.2,0,.5.3.4A5.85669,5.85669,0,0,1,6.5,2c.3,0,.4,0,.3-.4,0-.3-.4-.5-1.2-.4A3.78644,3.78644,0,0,0,3.4,2.1Z"/><path fill="url(#n)" fill-rule="evenodd" d="M10.4,1.2c-.8-.1-1.2.1-1.2.4-.1.4,0,.4.3.4a5.39694,5.39694,0,0,1,2.8.5c.4.2.5-.2.3-.4A3.78644,3.78644,0,0,0,10.4,1.2Z"/><path fill="#ddd" d="M6.25274,8.2568c-1.64225-.218-3.0193-.05052-3.07565.374L3.1768,8.64c-.03687.42285,1.24142.93774,2.87189,1.15415s2.99889.05277,3.07355-.36507l.00208-.00894c.05635-.42456-1.22927-.94541-2.87158-1.16338Z" data-name="Layer 2"/><path fill="url(#o)" d="M6.19487,8.69294c1.4549.19311,2.59385.65453,2.54393,1.03063s-1.26982.52444-2.7247.33134S3.42026,9.40038,3.47017,9.02428s1.2698-.52444,2.7247-.33134Z" data-name="Layer 3"/><path fill="#fff" d="M9.2178,10.04606a1.68269,1.68269,0,0,0-.172-.01389l.07549-.58889.00093-.01416c-.07468.41785-1.443.58149-3.07355.36507S3.13993,9.06287,3.1768,8.64L3.174,8.6539l-.54634,3.97952s-.284,2.10653,2.68044,2.5c1.84018.24424,2.66844-.47331,3.032-1.05272l.02567.00384a1.74879,1.74879,0,0,0,1.87-.7976,3.7028,3.7028,0,0,0,.4298-1.46318A1.587,1.587,0,0,0,9.2178,10.04606Zm.39185,2.8568a.97185.97185,0,0,1-.99175.46812l.33368-2.60338a.9347.9347,0,0,1,.16957.00677,1.00427,1.00427,0,0,1,.63806.32553.78017.78017,0,0,1,.17823.62724A3.108,3.108,0,0,1,9.60965,12.90286Z" data-name="Layer 4"/><path fill="#fff" d="M6.25674,5.97289,6.30561,5.98a.62992.62992,0,0,1,.34932.19345.70353.70353,0,0,1,.16211.28916.8261.8261,0,0,1,.01413.39648.80034.80034,0,0,1-.2161.40629.77506.77506,0,0,1-.45878.22065.9438.9438,0,0,0-.33458.0607.64723.64723,0,0,0-.23915.17731.816.816,0,0,0-.08605.1262.85535.85535,0,0,0-.05932.14157.84575.84575,0,0,0-.03986.294.80218.80218,0,0,0,.05443.26383A.75321.75321,0,0,0,5.57,8.75093a.85583.85583,0,0,0,.13765.13026,1.03648,1.03648,0,0,0,.10779.06894l.04061.02321.0052.00294a.053.053,0,0,1-.03424.09837l-.05143-.00782a.807.807,0,0,1-.145-.037.82379.82379,0,0,1-.21153-.11244.87541.87541,0,0,1-.21958-.23283.9969.9969,0,0,1-.13969-.35707A1.08286,1.08286,0,0,1,5.06733,7.897a1.05712,1.05712,0,0,1,.19683-.42769.99548.99548,0,0,1,.39544-.30679,1.2142,1.2142,0,0,1,.12-.04064.92594.92594,0,0,1,.12665-.02676c.02186-.00311.04573-.00676.06584-.00877l.05026-.00206L6.11382,7.081a.42587.42587,0,0,0,.241-.09379.4942.4942,0,0,0,.1487-.21531.58733.58733,0,0,0,.03425-.2517.52352.52352,0,0,0-.06152-.21153.56108.56108,0,0,0-.11123-.1401.66571.66571,0,0,0-.09878-.07174l-.04319-.024a.05363.05363,0,0,1,.03371-.1ZM7.279,7.14894a.04448.04448,0,0,0-.05883-.02228l-.02537.01143-.03015.01418a.2223.2223,0,0,0-.04176.02371c-.01571.01062-.03374.0224-.05253.036l-.05492.0476c-.01894.01789-.0361.03973-.05591.06175-.019.02254-.03524.049-.0542.07581a.78566.78566,0,0,0-.08168.19482.75864.75864,0,0,0,.03531.49186.78926.78926,0,0,0,.06512.11955.42313.42313,0,0,0,.04007.0559l.03945.04631.03717.04362a.19032.19032,0,0,1,.01682.02083l.01013.01679a.54431.54431,0,0,1,.04195.07371.661.661,0,0,1,.04788.16825.673.673,0,0,1,.00151.16708.71792.71792,0,0,1-.03356.15006c-.00973.0218-.016.04511-.02616.065-.01059.01957-.01971.03938-.03009.05691l-.03065.0492c-.01107.014-.02143.02711-.03054.03962a.68053.68053,0,0,1-.04748.05467l-.01766.02-.00311.00352a.04495.04495,0,0,0,.04695.07262L7.015,9.29735a.41768.41768,0,0,0,.0785-.03569c.0162-.00931.03458-.01963.05347-.0325l.058-.04657a.76432.76432,0,0,0,.11613-.13837.73857.73857,0,0,0,.106-.44336.75971.75971,0,0,0-.068-.25605.79081.79081,0,0,0-.07248-.12215l-.02226-.0303a.27713.27713,0,0,0-.02-.02293l-.03871-.04227L7.16916,8.0876a.22644.22644,0,0,1-.02908-.035.52828.52828,0,0,1-.04935-.07631.66014.66014,0,0,1-.05647-.17053.65081.65081,0,0,1,.03234-.32755c.01026-.02248.018-.04581.029-.06594.01174-.01957.02131-.03985.03319-.05679l.0337-.04817.03154-.0361a.41912.41912,0,0,1,.054-.05245L7.26859,7.2A.04458.04458,0,0,0,7.279,7.14894Z" data-name="Layer 5" opacity=".5"/><g clip-path="url(#p)"><path fill="url(#e)" d="M6.31933,10.25326a.82184.82184,0,0,0-.458-.17463c-.72793-.086-1.48341-.12807-1.76-.14228a1.24221,1.24221,0,0,0,.99713-.28009c.04012-.03877.42538-.42025.27383-.72006a.56611.56611,0,0,0-.42793-.24331c-.05378.01316-.133.03111-.22957.04756A3.71631,3.71631,0,0,1,2.8877,8.56517a4.77,4.77,0,0,1-.93585-.46256A3.27059,3.27059,0,0,0,1.3,7.7a1.17553,1.17553,0,0,0-.80158-.10293C.002,7.81606.08161,8.953.097,9.17277a4.17965,4.17965,0,0,0,1.71086,3.16648,3.55484,3.55484,0,0,0,2.93911.49967c1.00354-.33042,1.81425-1.16375,1.76377-1.85945C6.50405,10.88719,6.56845,10.46525,6.31933,10.25326Z"/><path fill="url(#f)" fill-rule="evenodd" d="M1.3,7.7c-.5-.5-1.4-.8-1.5.4a4.23772,4.23772,0,0,0,1.4,3.4c2.8,2.2,5.3,1,5.4-.6.1-1.2-1.4-1.1-1.8-1.1V9.7c.1-.1.3-.2.4-.3.4-.3.2-.8-.3-.7a4.23105,4.23105,0,0,1-2.1.1C2,8.5,1.9,8.2,1.3,7.7Z"/></g><path fill="url(#q)" d="M15.13789,8.26713c-.11608-.09583-.16921-.062-.3612-.1548-.30835-.14911-.35542.67451-.47669.68767-.17312.01879-.24414-.60673-.32245-.352a3.22671,3.22671,0,0,1-1.0043,1.44331,3.80684,3.80684,0,0,1-1.93207.88144,13.13383,13.13383,0,0,1-1.76673-.09346.463.463,0,0,0-.28693.11919.39881.39881,0,0,0-.10079.18265c-.06223.22482.18157.4657.36713.649A1.88447,1.88447,0,0,0,9.6,11.9c.14121.05492.27912.12324.27176.18346-.02033.16628-1.17117-.12915-1.72285.44688a1.295,1.295,0,0,0-.28284,1.01094,1.85351,1.85351,0,0,0,1.1253,1.31607,2.754,2.754,0,0,0,1.51742.19512A7.27361,7.27361,0,0,0,13.637,13.6617c.79466-.59482,1.192-2.89222,1.45734-3.46719.33929-.73521.36328.33148.32731-.09557a3.40011,3.40011,0,0,1-.05159-.92881,1.18506,1.18506,0,0,0,0-.4902A.74547.74547,0,0,0,15.13789,8.26713Z"/><path fill="url(#r)" d="M14.3,7.8c.3-.6.8-.4,1.1-.3a.91613.91613,0,0,1,.7,1,5.70617,5.70617,0,0,1-1.5,4.3c-2.3,2.6-6.2,2.2-6.6.6C7.7,12.2,9.1,12,9.6,12v-.1c-.2-.1-.3-.2-.5-.3-.4-.3-.3-.9.2-.8a6.80386,6.80386,0,0,0,2,.2c1.9-.2,2.2-1.7,3-3.2Z"/></g></svg>