<svg xmlns="http://www.w3.org/2000/svg" xmlns:xlink="http://www.w3.org/1999/xlink" data-name="Layer 1" viewBox="0 0 16 16"><defs><radialGradient id="h" cx="-70.75" cy="-98.5" r=".5" gradientTransform="matrix(16 0 0 -16 1140 -1568)" gradientUnits="userSpaceOnUse"><stop offset="0" stop-color="#f28a2d" stop-opacity="0"/><stop offset="1" stop-color="#f08423" stop-opacity=".34"/></radialGradient><radialGradient id="a" cx="-68.285" cy="-97.445" r=".101" gradientTransform="matrix(14.5998 6.5456 5.063 -11.2928 1492.039 -645.146)" gradientUnits="userSpaceOnUse"><stop offset="0" stop-color="#f28a2d" stop-opacity=".5"/><stop offset="1" stop-color="#f28a2d" stop-opacity="0"/></radialGradient><radialGradient id="i" cx="-76.479" cy="-116.088" r=".283" gradientTransform="matrix(12.5663 -9.904 -3.6032 -4.5717 554.648 -1276.398)" xlink:href="#a"/><radialGradient id="j" cx="-72.447" cy="-133.995" r=".107" gradientTransform="matrix(15.7394 -2.8762 -.572 -3.1299 1068.726 -625.735)" gradientUnits="userSpaceOnUse"><stop offset="0" stop-color="#d45f00" stop-opacity=".15"/><stop offset="1" stop-color="#f28a2d" stop-opacity="0"/></radialGradient><radialGradient id="k" cx="-69.066" cy="-124.773" r=".106" gradientTransform="matrix(15.6768 3.1995 .6363 -3.1176 1173.008 -165.87)" gradientUnits="userSpaceOnUse"><stop offset="0" stop-color="#d45f00" stop-opacity=".15"/><stop offset="1" stop-color="#d45f00" stop-opacity="0"/></radialGradient><radialGradient id="b" cx="-135.514" cy="-126.305" r=".872" gradientTransform="matrix(0 -2.1326 -2.1327 0 -264.377 -284.726)" gradientUnits="userSpaceOnUse"><stop offset="0" stop-color="#3b446b"/><stop offset=".688" stop-color="#202340"/></radialGradient><radialGradient id="m" cx="-135.528" cy="-126.305" r=".872" gradientTransform="matrix(0 -2.1326 -2.1327 0 -258.364 -284.757)" xlink:href="#b"/><radialGradient id="c" cx="-180.542" cy="-97.04" r=".298" gradientTransform="matrix(-.339 -1.3177 -6.1081 1.5713 -648.935 -83.71)" gradientUnits="userSpaceOnUse"><stop offset="0" stop-color="#e38200"/><stop offset="1" stop-color="#cd6700"/></radialGradient><radialGradient id="n" cx="-157.297" cy="-102.543" r=".314" gradientTransform="matrix(.2577 -1.3359 -7.9278 -1.5293 -761.472 -365.42)" xlink:href="#c"/><radialGradient id="s" cx="15.654" cy="21.737" r="8.846" gradientTransform="translate(0 -14)" xlink:href="#f"/><radialGradient id="v" cx="-50.669" cy="-100.67" r="1.226" gradientTransform="matrix(4.3582 3.2271 3.227 -4.3582 545.607 -267.758)" xlink:href="#f"/><linearGradient id="d" x1="-70.75" x2="-70.75" y1="-98.95" y2="-98.074" gradientTransform="matrix(16 0 0 -16 1140 -1568)" gradientUnits="userSpaceOnUse"><stop offset="0" stop-color="#f28a2d"/><stop offset="1" stop-color="#fde86f"/></linearGradient><linearGradient id="l" x1="-53.17" x2="-53.17" y1="-226.147" y2="-227.667" gradientTransform="matrix(3.4035 0 0 -.9374 188.965 -206.681)" gradientUnits="userSpaceOnUse"><stop offset="0" stop-color="#482314"/><stop offset="1" stop-color="#9a4111"/></linearGradient><linearGradient id="o" x1="7.248" x2="9.425" y1="16.375" y2="6.208" xlink:href="#d"/><linearGradient id="e" x1="27.993" x2="9.287" y1="41.378" y2="13.612" gradientTransform="rotate(-6.67 -52.698 70.162)" gradientUnits="userSpaceOnUse"><stop offset="0" stop-color="#9c0600"/><stop offset="1" stop-color="#9c0600" stop-opacity="0"/></linearGradient><linearGradient id="p" x1="17.342" x2="3.797" y1="29.185" y2="-7.73" gradientTransform="rotate(-6.67 -52.698 70.162)" xlink:href="#d"/><linearGradient id="f" x1="17.347" x2="9.989" y1="25.345" y2="13.964" gradientTransform="rotate(-6.67 -52.698 70.162)" gradientUnits="userSpaceOnUse"><stop offset="0" stop-color="#eda83a"/><stop offset="1" stop-color="#ffdc5e"/></linearGradient><linearGradient id="q" x1="2.11" x2="14.646" y1="9.866" y2="17.959" gradientTransform="rotate(-6.67 -52.698 70.162)" gradientUnits="userSpaceOnUse"><stop offset="0" stop-color="#5aff00"/><stop offset="1" stop-color="#126d1a"/></linearGradient><linearGradient id="r" x1="-1.326" x2="12.914" y1="12.567" y2="11.552" xlink:href="#e"/><linearGradient id="u" x1="8.395" x2="1.913" y1="10.935" y2="10.236" xlink:href="#e"/><clipPath id="g"><rect width="16" height="16" fill="none"/></clipPath><clipPath id="t"><circle cx="8" cy="8" r="8" fill="none"/></clipPath></defs><g clip-path="url(#g)"><path fill="url(#d)" fill-rule="evenodd" d="M16,8A8,8,0,1,1,8,0,8.02352,8.02352,0,0,1,16,8Z"/><path fill="url(#h)" fill-rule="evenodd" d="M16,8A8,8,0,1,1,8,0,8.02352,8.02352,0,0,1,16,8Z" data-name="b"/><path fill="url(#a)" fill-rule="evenodd" d="M16,8A8,8,0,1,1,8,0,8.02352,8.02352,0,0,1,16,8Z" data-name="b"/><path fill="url(#i)" fill-rule="evenodd" d="M16,8A8,8,0,1,1,8,0,8.02352,8.02352,0,0,1,16,8Z" data-name="b"/><path fill="url(#j)" fill-rule="evenodd" d="M16,8A8,8,0,1,1,8,0,8.02352,8.02352,0,0,1,16,8Z" data-name="b"/><path fill="url(#k)" fill-rule="evenodd" d="M16,8A8,8,0,1,1,8,0,8.02352,8.02352,0,0,1,16,8Z" data-name="b"/><path fill="url(#l)" fill-rule="evenodd" d="M9.7,5.9c-.1-.3-3.3-.3-3.4,0s.6.7,1.7.7S9.8,6.2,9.7,5.9Z"/><path fill="url(#b)" fill-rule="evenodd" d="M6,4.1c0,.7-.4.9-1,1s-1.1-.2-1.1-1c0-.6.3-1.4,1.1-1.4C5.7,2.7,6,3.5,6,4.1Z"/><path fill="#4e506a" fill-rule="evenodd" d="M4.9,3.1a.34826.34826,0,0,1-.1.5c-.1.1-.3.2-.4,0a.45417.45417,0,0,1,0-.5.44637.44637,0,0,1,.5,0Z"/><path fill="url(#m)" fill-rule="evenodd" d="M10,4.1c0,.7.4.9,1.1,1,.6.1,1.1-.2,1.1-1,0-.6-.3-1.4-1.1-1.4S10,3.5,10,4.1Z"/><path fill="#4e506a" fill-rule="evenodd" d="M11,3.1c.1.1,0,.3-.1.5a.30417.30417,0,0,1-.4,0c-.1-.1,0-.3.1-.5C10.8,2.9,10.9,2.9,11,3.1Z"/><path fill="url(#c)" fill-rule="evenodd" d="M3.4,2.1c-.2.2,0,.5.3.4A5.85669,5.85669,0,0,1,6.5,2c.3,0,.4,0,.3-.4,0-.3-.4-.5-1.2-.4A3.78644,3.78644,0,0,0,3.4,2.1Z"/><path fill="url(#n)" fill-rule="evenodd" d="M10.4,1.2c-.8-.1-1.2.1-1.2.4-.1.4,0,.4.3.4a5.39694,5.39694,0,0,1,2.8.5c.4.2.5-.2.3-.4A3.78644,3.78644,0,0,0,10.4,1.2Z"/><circle cx="7.601" cy="14.726" r=".091" fill="url(#o)"/><path fill="url(#e)" d="M10.22318,13.23025a2.79085,2.79085,0,0,0-.1753-.71916l.01474.00428c-.00982-.02624-.03061-.04944-.04121-.07546a2.85307,2.85307,0,0,0-.34643-.63439l-.00061-.00114L9.643,11.76244l-.53072-.71281-.01186-.01608a2.88222,2.88222,0,0,0-.34118-.37773c-.03783-.03565-.07846-.06577-.11775-.099a2.82183,2.82183,0,0,0-.27213-.20543c-.04865-.03188-.09768-.06116-.14776-.0897a2.765,2.765,0,0,0-.28636-.14137c-.05061-.02153-.10017-.04441-.1517-.0628a2.70467,2.70467,0,0,0-.34942-.09689c-.03507-.00743-.06906-.01944-.1043-.02544a2.6163,2.6163,0,0,0-.45758-.03655c-.04421.00031-.0875.0074-.13165.01a2.51067,2.51067,0,0,0-.32839.03853c-.04836.0093-.09548.02109-.1433.03329a4.593,4.593,0,0,1-.0243-.80833,3.545,3.545,0,0,1,.418-1.57245,2.114,2.114,0,0,0-.86712.67869c-.22886-.2629.08029-1.03763.08029-1.03763a1.38219,1.38219,0,0,0-.71961.94786A4.5295,4.5295,0,0,1,5.37,6.64365c-.8153.17757-.87147,1.25069-.87147,1.25069A2.49612,2.49612,0,0,1,4.049,6.22387a1.60706,1.60706,0,0,0-.48236,1.46139,3.86263,3.86263,0,0,0-1.16715-.577l.45127.80406a1.4764,1.4764,0,0,0-1.05039.21612,1.77422,1.77422,0,0,1,1.04009.658s-.53394-.0608-.84317.71387c.28114-.23781,1.09626-.41569,1.34876-.11684a1.68406,1.68406,0,0,0-1.12386.95216,1.3058,1.3058,0,0,1,1.34913-.11708.81452.81452,0,0,0-.56278.42751.78937.78937,0,0,0-.02761.58538,1.63289,1.63289,0,0,1,1.02223-.334,7.04105,7.04105,0,0,1,.75137.21313l.017-.00354-.00729.01151c-.03667.06372-.06263.13185-.0935.1984-.035.0754-.07117.15-.09863.22841-.024.06891-.04071.13926-.0588.21012-.02115.0822-.04009.16429-.05324.24853-.01079.06986-.01809.13945-.0233.21029a2.69092,2.69092,0,0,0-.00551.27188c.0018.06678.0031.13266.00984.1996a2.76924,2.76924,0,0,0,.052.30685c.012.05566.01956.11131.03512.16656a2.81557,2.81557,0,0,0,.16927.45645l.00056.00014a2.92382,2.92382,0,0,0,.23134.3845l-.00193.00656c.02019.02962.03812.0601.05971.08894l.162.21737.41232.554a2.88474,2.88474,0,0,0,.39929.43165c.03032.02681.06406.04654.09522.07183a2.81381,2.81381,0,0,0,.36782.26c.00912.00527.01694.01333.02611.01846l.00145-.00489a2.73482,2.73482,0,0,0,.59609.24559l-.003.01041c.0305.00877.06234.007.093.01455a2.63383,2.63383,0,0,0,.45754.07142c.02971.002.05863.01278.08837.01382l.00193-.00657a2.527,2.527,0,0,0,.47-.02912l.01718.005c.01556-.0025.03025-.00961.04578-.01237a2.44839,2.44839,0,0,0,.342-.09268c.0509-.017.10218-.03016.15207-.05063a2.43349,2.43349,0,0,0,.32654-.17087c.03479-.02094.07277-.033.10679-.05587l-.005-.0015.001-.00328c.03365-.02256.07065-.03666.10348-.06108a2.40433,2.40433,0,0,0,.4445-.44282l.00579.00169c.01635-.0206.02432-.04588.04-.06687a2.44521,2.44521,0,0,0,.25329-.424c.01287-.02727.0347-.05.04649-.07775l-.01146-.00338a2.56961,2.56961,0,0,0,.179-.616l.00433.00125c.0012-.00817-.00041-.01675.00073-.02491a2.697,2.697,0,0,0,.01777-.6245c-.00036-.00427.00077-.00838.00034-.01265Z"/><path fill="url(#p)" d="M10.23477,11.69456a2.71438,2.71438,0,0,1-.44,3.81,2.7144,2.7144,0,0,1-3.77606-.67031l-.58844-.79053A2.71367,2.71367,0,0,1,5.8703,10.234a2.71386,2.71386,0,0,1,3.77606.67031Z"/><path fill="url(#f)" d="M9.79621,12.863l-.6306-.18472.18476-.63029.63056.18442Zm-.36947,1.26089-.63056-.18441.185-.63094.63029.18475Zm-.36967,1.26184-.6306-.18472.18468-.6309.63094.185Zm-1.52243-1.816.18468-.63091.63094.185-.185.631Zm.26085,1.44595L7.1652,14.831,7.35,14.20071l.63032.18507Zm-1.522-1.81539.185-.63063.63056.18441-.185.63094Zm.26116,1.44591-.63056-.18441.18472-.63059.63059.18472ZM5.01256,12.8309,5.19724,12.2l.6306.18471-.18465.63122Zm.55419-1.89148.6306.18472-.1851.63L5.382,11.5694Zm1.26116.36913.63029.18475-.18472.6306-.63029-.18476Zm.36944-1.2612.63094.185-.185.63064-.6309-.18469ZM8.71974,11.863,8.535,12.4933l-.63087-.18438.185-.63094Zm-.26089-1.44626.63032.18507-.18475.63028-.6306-.18471Zm2.174,2.00666a2.95346,2.95346,0,0,0-.398-.72883l-.06921-.09273,0,.00031-.63063-.185.13922-.47513-.02781-.03764A2.77855,2.77855,0,0,0,6.56457,9.87069l-.18285.62258-.60892-.1782A2.67974,2.67974,0,0,0,5.133,13.55129l.32516.09527-.08942.30574c.02072.03036.039.06161.06123.09117l.58875.79049a2.91607,2.91607,0,0,0,.91065.80186l.05114-.17391.6306.18472-.0723.24662a2.72642,2.72642,0,0,0,.655.10227l.048-.16387.45342.1324a2.48183,2.48183,0,0,0,.99767-.392l-.00518-.00158.18472-.6306.384.11243a2.5396,2.5396,0,0,0,.34824-.58292l-.54723-.16045.18468-.6309.53879.15768a2.76277,2.76277,0,0,0,.01928-.67867l-.37331-.1093.18472-.6306Z"/><path fill="url(#q)" d="M3.97853,10.069a.8345.8345,0,0,0-.57688.43821.80889.80889,0,0,0-.0283.60005,1.67363,1.67363,0,0,1,1.04791-.34239,7.22929,7.22929,0,0,1,.77019.21844h0A2.12025,2.12025,0,0,0,6.744,9.82943a4.71437,4.71437,0,0,1-.025-.83314,3.63378,3.63378,0,0,1,.42851-1.612,2.16721,2.16721,0,0,0-.88886.69576C6.024,7.81058,6.341,7.0164,6.341,7.0164a1.417,1.417,0,0,0-.73773.9717,4.64377,4.64377,0,0,1,.21919-1.58379c-.83573.182-.89335,1.28208-.89335,1.28208a2.559,2.559,0,0,1-.46083-1.71245A1.64748,1.64748,0,0,0,3.97376,7.472a3.95971,3.95971,0,0,0-1.19645-.59152l.46261.82425a1.51337,1.51337,0,0,0-1.07675.22158,1.81878,1.81878,0,0,1,1.06618.67454S2.682,8.53853,2.365,9.33271c.28816-.24382,1.12373-.42616,1.38261-.11983a1.72629,1.72629,0,0,0-1.15206.9761,1.33858,1.33858,0,0,1,1.383-.12Z"/><path fill="url(#r)" d="M15.13789,8.26713c-.11608-.09583-.16921-.062-.3612-.1548-.30835-.14911-.35542.67451-.47669.68767-.17312.01879-.24414-.60673-.32245-.352a3.22671,3.22671,0,0,1-1.0043,1.44331,3.80684,3.80684,0,0,1-1.93207.88144,13.13383,13.13383,0,0,1-1.76673-.09346.463.463,0,0,0-.28693.11919.39881.39881,0,0,0-.10079.18265c-.06223.22482.18157.4657.36713.649A1.88447,1.88447,0,0,0,9.6,11.9c.14121.05492.27912.12324.27176.18346-.02033.16628-1.17117-.12915-1.72285.44688a1.295,1.295,0,0,0-.28284,1.01094,1.85351,1.85351,0,0,0,1.1253,1.31607,2.754,2.754,0,0,0,1.51742.19512A7.27361,7.27361,0,0,0,13.637,13.6617c.79466-.59482,1.192-2.89222,1.45734-3.46719.33929-.73521.36328.33148.32731-.09557a3.40011,3.40011,0,0,1-.05159-.92881,1.18506,1.18506,0,0,0,0-.4902A.74547.74547,0,0,0,15.13789,8.26713Z"/><path fill="url(#s)" d="M14.3,7.8c.3-.6.8-.4,1.1-.3a.91613.91613,0,0,1,.7,1,5.70617,5.70617,0,0,1-1.5,4.3c-2.3,2.6-6.2,2.2-6.6.6C7.7,12.2,9.1,12,9.6,12v-.1c-.2-.1-.3-.2-.5-.3-.4-.3-.3-.9.2-.8a6.80386,6.80386,0,0,0,2,.2c1.9-.2,2.2-1.7,3-3.2Z"/><g clip-path="url(#t)"><path fill="url(#u)" d="M6.31933,10.25326a.82184.82184,0,0,0-.458-.17463c-.72793-.086-1.48341-.12807-1.76-.14228a1.24221,1.24221,0,0,0,.99713-.28009c.04012-.03877.42538-.42025.27383-.72006a.56611.56611,0,0,0-.42793-.24331c-.05378.01316-.133.03111-.22957.04756A3.71631,3.71631,0,0,1,2.8877,8.56517a4.77,4.77,0,0,1-.93585-.46256A3.27059,3.27059,0,0,0,1.3,7.7a1.17553,1.17553,0,0,0-.80158-.10293C.002,7.81606.08161,8.953.097,9.17277a4.17965,4.17965,0,0,0,1.71086,3.16648,3.55484,3.55484,0,0,0,2.93911.49967C5.75052,12.5085,6.65048,11.59569,6.6,10.9A.93851.93851,0,0,0,6.31933,10.25326Z"/><path fill="url(#v)" fill-rule="evenodd" d="M1.3,7.7c-.5-.5-1.4-.8-1.5.4a4.23772,4.23772,0,0,0,1.4,3.4c2.8,2.2,5.3,1,5.4-.6.1-1.2-1.4-1.1-1.8-1.1V9.7c.1-.1.3-.2.4-.3.4-.3.2-.8-.3-.7a4.23105,4.23105,0,0,1-2.1.1C2,8.5,1.9,8.2,1.3,7.7Z"/></g></g></svg>