<svg xmlns="http://www.w3.org/2000/svg" xmlns:xlink="http://www.w3.org/1999/xlink" data-name="Layer 1" viewBox="0 0 16 16"><defs><radialGradient id="i" cx="-45.438" cy="-72.444" r=".5" gradientTransform="matrix(16 0 0 -16 735 -1151.1)" gradientUnits="userSpaceOnUse"><stop offset="0" stop-color="#f28a2d" stop-opacity="0"/><stop offset="1" stop-color="#f08423" stop-opacity=".34"/></radialGradient><radialGradient id="a" cx="-43.452" cy="-72.006" r=".101" gradientTransform="matrix(14.5998 6.5456 5.063 -11.2928 1000.681 -520.415)" gradientUnits="userSpaceOnUse"><stop offset="0" stop-color="#f28a2d" stop-opacity=".5"/><stop offset="1" stop-color="#f28a2d" stop-opacity="0"/></radialGradient><radialGradient id="j" cx="-49.856" cy="-85.384" r=".283" gradientTransform="matrix(12.5663 -9.904 -3.6032 -4.5717 330.72 -872.352)" xlink:href="#a"/><radialGradient id="k" cx="-46.832" cy="-100.364" r=".107" gradientTransform="matrix(15.7394 -2.8762 -.572 -3.1299 684.79 -446.798)" gradientUnits="userSpaceOnUse"><stop offset="0" stop-color="#d45f00" stop-opacity=".15"/><stop offset="1" stop-color="#f28a2d" stop-opacity="0"/></radialGradient><radialGradient id="l" cx="-44.026" cy="-94.395" r=".106" gradientTransform="matrix(15.6768 3.1995 .6363 -3.1176 761.13 -151.279)" gradientUnits="userSpaceOnUse"><stop offset="0" stop-color="#d45f00" stop-opacity=".15"/><stop offset="1" stop-color="#d45f00" stop-opacity="0"/></radialGradient><radialGradient id="b" cx="-97.014" cy="-89.122" r=".872" gradientTransform="matrix(0 -2.1326 -2.1327 0 -185.076 -202.622)" gradientUnits="userSpaceOnUse"><stop offset="0" stop-color="#3b446b"/><stop offset=".688" stop-color="#202340"/></radialGradient><radialGradient id="n" cx="-97.029" cy="-89.122" r=".872" gradientTransform="matrix(0 -2.1326 -2.1327 0 -179.063 -202.653)" xlink:href="#b"/><radialGradient id="c" cx="-131.143" cy="-69.34" r=".298" gradientTransform="matrix(-.339 -1.3177 -6.1081 1.5713 -462.99 -62.143)" gradientUnits="userSpaceOnUse"><stop offset="0" stop-color="#e38200"/><stop offset="1" stop-color="#cd6700"/></radialGradient><radialGradient id="o" cx="-116.358" cy="-74.161" r=".314" gradientTransform="matrix(.2577 -1.3359 -7.9278 -1.5293 -547.013 -267.324)" xlink:href="#c"/><radialGradient id="u" cx="15.654" cy="21.737" r="8.846" gradientTransform="translate(0 -14)" xlink:href="#e"/><radialGradient id="x" cx="-30.361" cy="-75.475" r="1.226" gradientTransform="matrix(4.3582 3.2271 3.227 -4.3582 375.798 -223.488)" xlink:href="#e"/><linearGradient id="h" x1="-45.438" x2="-45.438" y1="-72.894" y2="-72.018" gradientTransform="matrix(16 0 0 -16 735 -1151.1)" gradientUnits="userSpaceOnUse"><stop offset="0" stop-color="#f28a2d"/><stop offset="1" stop-color="#fde86f"/></linearGradient><linearGradient id="m" x1="-34.103" x2="-34.103" y1="-175.463" y2="-176.982" gradientTransform="matrix(3.4035 0 0 -.9374 124.07 -159.17)" gradientUnits="userSpaceOnUse"><stop offset="0" stop-color="#482314"/><stop offset="1" stop-color="#9a4111"/></linearGradient><linearGradient id="d" x1="11.285" x2="8.487" y1="6.051" y2="8.81" gradientTransform="rotate(-11.439 7.868 10.06)" gradientUnits="userSpaceOnUse"><stop offset="0" stop-color="#597b91"/><stop offset="1" stop-color="#32597e"/></linearGradient><linearGradient id="p" x1="2.722" x2="13.396" y1="5.678" y2="16.9" gradientTransform="rotate(-11.439 7.868 10.06)" gradientUnits="userSpaceOnUse"><stop offset="0" stop-color="#2b3b47"/><stop offset="1" stop-color="#1b252e"/></linearGradient><linearGradient id="q" x1="9.852" x2="10.556" y1="11.13" y2="11.13" gradientTransform="rotate(-11.439 7.868 10.06)" gradientUnits="userSpaceOnUse"><stop offset="0" stop-color="#18afff"/><stop offset="1" stop-color="#0062df"/></linearGradient><linearGradient id="e" x1="10.435" x2="11.138" y1="9.949" y2="9.949" gradientTransform="rotate(-11.439 7.868 10.06)" gradientUnits="userSpaceOnUse"><stop offset="0" stop-color="#eda83a"/><stop offset="1" stop-color="#ffdc5e"/></linearGradient><linearGradient id="r" x1="9.553" x2="10.256" y1="10.248" y2="10.248" gradientTransform="rotate(-11.439 7.868 10.06)" gradientUnits="userSpaceOnUse"><stop offset="0" stop-color="#ff6680"/><stop offset="1" stop-color="#e61739"/></linearGradient><linearGradient id="s" x1="10.734" x2="11.437" y1="10.831" y2="10.831" gradientTransform="rotate(-11.439 7.868 10.06)" gradientUnits="userSpaceOnUse"><stop offset="0" stop-color="#16992b"/><stop offset="1" stop-color="#12b31a"/></linearGradient><linearGradient id="t" x1="4.433" x2="10.299" y1="7.345" y2="12.287" xlink:href="#d"/><linearGradient id="f" x1="-1.326" x2="12.914" y1="12.567" y2="11.552" gradientUnits="userSpaceOnUse"><stop offset="0" stop-color="#9c0600"/><stop offset="1" stop-color="#9c0600" stop-opacity="0"/></linearGradient><linearGradient id="w" x1="8.295" x2="1.89" y1="10.924" y2="10.234" xlink:href="#f"/><clipPath id="g"><rect width="16" height="16" fill="none"/></clipPath><clipPath id="v"><circle cx="8" cy="8" r="8" fill="none"/></clipPath></defs><g clip-path="url(#g)"><path fill="url(#h)" fill-rule="evenodd" d="M16,8A8,8,0,1,1,8,0,8.02352,8.02352,0,0,1,16,8Z"/><path fill="url(#i)" fill-rule="evenodd" d="M16,8A8,8,0,1,1,8,0,8.02352,8.02352,0,0,1,16,8Z" data-name="b"/><path fill="url(#a)" fill-rule="evenodd" d="M16,8A8,8,0,1,1,8,0,8.02352,8.02352,0,0,1,16,8Z" data-name="b"/><path fill="url(#j)" fill-rule="evenodd" d="M16,8A8,8,0,1,1,8,0,8.02352,8.02352,0,0,1,16,8Z" data-name="b"/><path fill="url(#k)" fill-rule="evenodd" d="M16,8A8,8,0,1,1,8,0,8.02352,8.02352,0,0,1,16,8Z" data-name="b"/><path fill="url(#l)" fill-rule="evenodd" d="M16,8A8,8,0,1,1,8,0,8.02352,8.02352,0,0,1,16,8Z" data-name="b"/><path fill="url(#m)" fill-rule="evenodd" d="M9.7,5.9c-.1-.3-3.3-.3-3.4,0s.6.7,1.7.7S9.8,6.2,9.7,5.9Z"/><path fill="url(#b)" fill-rule="evenodd" d="M6,4.1c0,.7-.4.9-1,1s-1.1-.2-1.1-1c0-.6.3-1.4,1.1-1.4C5.7,2.7,6,3.5,6,4.1Z"/><path fill="#4e506a" fill-rule="evenodd" d="M4.9,3.1a.34826.34826,0,0,1-.1.5c-.1.1-.3.2-.4,0a.45417.45417,0,0,1,0-.5.44637.44637,0,0,1,.5,0Z"/><path fill="url(#n)" fill-rule="evenodd" d="M10,4.1c0,.7.4.9,1.1,1,.6.1,1.1-.2,1.1-1,0-.6-.3-1.4-1.1-1.4S10,3.5,10,4.1Z"/><path fill="#4e506a" fill-rule="evenodd" d="M11,3.1c.1.1,0,.3-.1.5a.30417.30417,0,0,1-.4,0c-.1-.1,0-.3.1-.5C10.8,2.9,10.9,2.9,11,3.1Z"/><path fill="url(#c)" fill-rule="evenodd" d="M3.4,2.1c-.2.2,0,.5.3.4A5.85669,5.85669,0,0,1,6.5,2c.3,0,.4,0,.3-.4,0-.3-.4-.5-1.2-.4A3.78644,3.78644,0,0,0,3.4,2.1Z"/><path fill="url(#o)" fill-rule="evenodd" d="M10.4,1.2c-.8-.1-1.2.1-1.2.4-.1.4,0,.4.3.4a5.39694,5.39694,0,0,1,2.8.5c.4.2.5-.2.3-.4A3.78644,3.78644,0,0,0,10.4,1.2Z"/><path fill="url(#d)" d="M8.432,8.11678a.18193.18193,0,0,1-.12934-.22239A1.589,1.589,0,0,1,9.30439,6.847c.3339-.16658.62226-.31046.72313-.69174a.18191.18191,0,1,1,.35172.093,1.4498,1.4498,0,0,1-.91243.92424c-.369.18408-.68762.34306-.81246.81494A.1819.1819,0,0,1,8.432,8.11678Z" data-name="Layer 2"/><path fill="url(#p)" d="M12.16611,10.07322l-.01947-.14047a1.59263,1.59263,0,0,0-1.18505-1.5251L6.05945,7.11076a1.59264,1.59264,0,0,0-1.73049.6534c-.04986.06281-.09971.1284-.1514.19563a8.99367,8.99367,0,0,0-1.36389,3.531.86243.86243,0,0,0,1.45272.8237c.181-.16354.82658-.6939,1.47952-1.28447a1.0192,1.0192,0,0,0,.43553.24008c.81464.21552.993-.42852,1.51755-.28975a.23888.23888,0,0,1,.07645.02023c.52455.13877.36111.78676,1.17574,1.00227a1.02111,1.02111,0,0,0,.36539.02892c.27337.81326.56259,1.56147.63718,1.78735a.86548.86548,0,0,0,1.67.00244A8.98813,8.98813,0,0,0,12.16611,10.07322Z" data-name="Layer 3"/><path fill="#132028" d="M11.79646,10.32846a1.32238,1.32238,0,1,1-.94019-1.61661A1.32239,1.32239,0,0,1,11.79646,10.32846ZM6.06858,7.44523a1.32238,1.32238,0,1,0,.94019,1.61661A1.32238,1.32238,0,0,0,6.06858,7.44523Z" data-name="Layer 4"/><circle cx="10.37" cy="10.645" r=".352" fill="url(#q)" data-name="Layer 5"/><circle cx="10.706" cy="9.372" r=".352" fill="url(#e)" data-name="Layer 6"/><circle cx="9.901" cy="9.841" r=".352" fill="url(#r)" data-name="Layer 7"/><circle cx="11.174" cy="10.177" r=".352" fill="url(#s)" data-name="Layer 8"/><path fill="url(#t)" d="M7.65183,9.86979l-.42518-.11248a.13758.13758,0,0,1,.07038-.266l.42517.11248a.13758.13758,0,1,1-.07037.266Zm1.2689.19338A.13759.13759,0,0,0,8.82291,9.895L8.39774,9.7825a.13758.13758,0,0,0-.07038.266l.42518.11248A.13759.13759,0,0,0,8.92073,10.06317ZM6.60311,9.68968a.61166.61166,0,1,0,.43488.74775A.61165.61165,0,0,0,6.60311,9.68968Zm2.64067.6986a.61166.61166,0,1,0,.43487.74776A.61167.61167,0,0,0,9.24378,10.38828ZM5.33242,8.29036l-.46073-.12189c-.05366-.01419-.11273.03318-.13194.10582l-.08554.32334a.12239.12239,0,0,0,.06235.15722l.46073.12189a.08734.08734,0,0,0,.07263-.01564l.17917-.12558a.16988.16988,0,0,0,.05235-.19788l-.09362-.19776A.08732.08732,0,0,0,5.33242,8.29036Zm.81258.05178.12189-.46073c.01419-.05366-.03318-.11273-.10582-.13195l-.32333-.08554a.1224.1224,0,0,0-.15723.06236L5.55863,8.187a.0873.0873,0,0,0,.01563.07263l.12558.17916a.16985.16985,0,0,0,.19788.05235l.19776-.09362A.08728.08728,0,0,0,6.145,8.34214Zm-.01669.81474.46073.12188c.05366.0142.11273-.03317.13195-.10581l.08554-.32334a.12238.12238,0,0,0-.06236-.15722L6.28344,8.5705a.08731.08731,0,0,0-.07263.01564l-.17918.12558a.16987.16987,0,0,0-.05235.19788l.09364.19775A.08727.08727,0,0,0,6.12831,9.15688ZM5.31574,9.1051l-.12189.46073c-.0142.05366.03317.11273.10581.13195l.32334.08554A.12238.12238,0,0,0,5.78022,9.721l.12189-.46073a.08733.08733,0,0,0-.01563-.07263l-.12559-.17916A.16987.16987,0,0,0,5.563,8.95608l-.19775.09363A.08725.08725,0,0,0,5.31574,9.1051Z" data-name="Layer 9"/><path fill="url(#f)" d="M15.13789,8.26713c-.11608-.09583-.16921-.062-.3612-.1548-.30835-.14911-.35542.67451-.47669.68767-.17312.01879-.24414-.60673-.32245-.352a3.22671,3.22671,0,0,1-1.0043,1.44331,3.80684,3.80684,0,0,1-1.93207.88144,13.13383,13.13383,0,0,1-1.76673-.09346.463.463,0,0,0-.28693.11919.39881.39881,0,0,0-.10079.18265c-.06223.22482.18157.4657.36713.649A1.88447,1.88447,0,0,0,9.6,11.9c.14121.05492.27912.12324.27176.18346-.02033.16628-1.17117-.12915-1.72285.44688a1.295,1.295,0,0,0-.28284,1.01094,1.85351,1.85351,0,0,0,1.1253,1.31607,2.754,2.754,0,0,0,1.51742.19512A7.27361,7.27361,0,0,0,13.637,13.6617c.79466-.59482,1.192-2.89222,1.45734-3.46719.33929-.73521.36328.33148.32731-.09557a3.40011,3.40011,0,0,1-.05159-.92881,1.18506,1.18506,0,0,0,0-.4902A.74547.74547,0,0,0,15.13789,8.26713Z"/><path fill="url(#u)" d="M14.3,7.8c.3-.6.8-.4,1.1-.3a.91613.91613,0,0,1,.7,1,5.70617,5.70617,0,0,1-1.5,4.3c-2.3,2.6-6.2,2.2-6.6.6C7.7,12.2,9.1,12,9.6,12v-.1c-.2-.1-.3-.2-.5-.3-.4-.3-.3-.9.2-.8a6.80386,6.80386,0,0,0,2,.2c1.9-.2,2.2-1.7,3-3.2Z"/><g clip-path="url(#v)"><path fill="url(#w)" d="M6.31933,10.25326a.82184.82184,0,0,0-.458-.17463c-.72793-.086-1.48341-.12807-1.76-.14228a1.24221,1.24221,0,0,0,.99713-.28009c.04012-.03877.42538-.42025.27383-.72006a.56611.56611,0,0,0-.42793-.24331c-.05378.01316-.133.03111-.22957.04756A3.71631,3.71631,0,0,1,2.8877,8.56517a4.77,4.77,0,0,1-.93585-.46256A3.27059,3.27059,0,0,0,1.3,7.7a1.17553,1.17553,0,0,0-.80158-.10293C.002,7.81606.08161,8.953.097,9.17277a4.17965,4.17965,0,0,0,1.71086,3.16648,3.55484,3.55484,0,0,0,2.93911.49967c1.00354-.33042,1.81425-1.16375,1.76377-1.85945C6.50405,10.88719,6.56845,10.46525,6.31933,10.25326Z"/><path fill="url(#x)" fill-rule="evenodd" d="M1.3,7.7c-.5-.5-1.4-.8-1.5.4a4.23772,4.23772,0,0,0,1.4,3.4c2.8,2.2,5.3,1,5.4-.6.1-1.2-1.4-1.1-1.8-1.1V9.7c.1-.1.3-.2.4-.3.4-.3.2-.8-.3-.7a4.23105,4.23105,0,0,1-2.1.1C2,8.5,1.9,8.2,1.3,7.7Z"/></g></g></svg>