<svg xmlns="http://www.w3.org/2000/svg" xmlns:xlink="http://www.w3.org/1999/xlink" data-name="Layer 1" viewBox="0 0 16 16"><defs><radialGradient id="j" cx="-70.75" cy="-50.688" r=".5" gradientTransform="matrix(16 0 0 -16 1140 -803)" gradientUnits="userSpaceOnUse"><stop offset="0" stop-color="#f28a2d" stop-opacity="0"/><stop offset="1" stop-color="#f08423" stop-opacity=".34"/></radialGradient><radialGradient id="a" cx="-69.435" cy="-49.128" r=".101" gradientTransform="matrix(14.5998 6.5456 5.063 -11.2928 1264.204 -91.97)" gradientUnits="userSpaceOnUse"><stop offset="0" stop-color="#f28a2d" stop-opacity=".5"/><stop offset="1" stop-color="#f28a2d" stop-opacity="0"/></radialGradient><radialGradient id="k" cx="-74.738" cy="-65.016" r=".283" gradientTransform="matrix(12.5663 -9.904 -3.6032 -4.5717 716.792 -1025.671)" xlink:href="#a"/><radialGradient id="l" cx="-71.942" cy="-75.082" r=".107" gradientTransform="matrix(15.7394 -2.8762 -.572 -3.1299 1094.466 -439.89)" gradientUnits="userSpaceOnUse"><stop offset="0" stop-color="#d45f00" stop-opacity=".15"/><stop offset="1" stop-color="#f28a2d" stop-opacity="0"/></radialGradient><radialGradient id="m" cx="-69.628" cy="-65.916" r=".106" gradientTransform="matrix(15.6768 3.1995 .6363 -3.1176 1144.374 19.422)" gradientUnits="userSpaceOnUse"><stop offset="0" stop-color="#d45f00" stop-opacity=".15"/><stop offset="1" stop-color="#d45f00" stop-opacity="0"/></radialGradient><radialGradient id="b" cx="-114.413" cy="-81.305" r=".872" gradientTransform="matrix(0 -2.1326 -2.1327 0 -168.406 -239.726)" gradientUnits="userSpaceOnUse"><stop offset="0" stop-color="#3b446b"/><stop offset=".688" stop-color="#202340"/></radialGradient><radialGradient id="n" cx="-114.427" cy="-81.305" r=".872" gradientTransform="matrix(0 -2.1326 -2.1327 0 -162.392 -239.757)" xlink:href="#b"/><radialGradient id="c" cx="-148.512" cy="-53.818" r=".298" gradientTransform="matrix(-.339 -1.3177 -6.1081 1.5713 -374.07 -109.419)" gradientUnits="userSpaceOnUse"><stop offset="0" stop-color="#e38200"/><stop offset="1" stop-color="#cd6700"/></radialGradient><radialGradient id="o" cx="-124.821" cy="-56.488" r=".314" gradientTransform="matrix(.2577 -1.3359 -7.9278 -1.5293 -404.721 -251.602)" xlink:href="#c"/><radialGradient id="g" cx="-55.607" cy="-49.001" r="1.226" gradientTransform="matrix(4.3582 3.2271 3.227 -4.3582 400.392 -26.639)" gradientUnits="userSpaceOnUse"><stop offset="0" stop-color="#eda83a"/><stop offset="1" stop-color="#ffdc5e"/></radialGradient><radialGradient id="y" cx="15.654" cy="21.737" r="8.846" gradientTransform="translate(0 -14)" xlink:href="#g"/><linearGradient id="i" x1="-70.75" x2="-70.75" y1="-51.138" y2="-50.262" gradientTransform="matrix(16 0 0 -16 1140 -803)" gradientUnits="userSpaceOnUse"><stop offset="0" stop-color="#f28a2d"/><stop offset="1" stop-color="#fde86f"/></linearGradient><linearGradient id="d" x1="-53.17" x2="-53.17" y1="-133.142" y2="-134.662" gradientTransform="matrix(3.4035 0 0 -.9374 188.965 -119.498)" gradientUnits="userSpaceOnUse"><stop offset="0" stop-color="#482314"/><stop offset="1" stop-color="#9a4111"/></linearGradient><linearGradient id="e" x1="6.948" x2="9.262" y1="9.629" y2="16.33" gradientTransform="rotate(9.916 7.441 11.261)" gradientUnits="userSpaceOnUse"><stop offset="0" stop-color="#18afff"/><stop offset="1" stop-color="#0062df"/></linearGradient><linearGradient id="p" x1="5.611" x2="9.343" y1="8.874" y2="8.874" gradientTransform="rotate(9.916 7.441 11.261)" gradientUnits="userSpaceOnUse"><stop offset="0" stop-color="#ff6680"/><stop offset="1" stop-color="#e61739"/></linearGradient><linearGradient id="q" x1="7.236" x2="12.222" y1="8.574" y2="14.145" gradientTransform="rotate(9.916 7.441 11.261)" gradientUnits="userSpaceOnUse"><stop offset="0" stop-color="#fff"/><stop offset="1" stop-color="#6b9fcc"/></linearGradient><linearGradient id="r" x1="3.87" x2="7.601" y1="10.445" y2="10.445" gradientTransform="rotate(9.916 7.441 11.261)" xlink:href="#d"/><linearGradient id="t" x1="5.008" x2="8.655" y1="5.939" y2="14.138" xlink:href="#e"/><linearGradient id="v" x1="6.905" x2="9.219" y1="9.643" y2="16.345" xlink:href="#e"/><linearGradient id="f" x1="8.295" x2="1.89" y1="10.924" y2="10.234" gradientUnits="userSpaceOnUse"><stop offset="0" stop-color="#9c0600"/><stop offset="1" stop-color="#9c0600" stop-opacity="0"/></linearGradient><linearGradient id="x" x1="-1.326" x2="12.914" y1="12.567" y2="11.552" xlink:href="#f"/><clipPath id="h"><rect width="16" height="16" fill="none"/></clipPath><clipPath id="s"><path fill="none" d="M7.77576,10.61627l-.27553-.04817-.27577-.04821L4.744,10.08624c-.27576-.04821-.89775-.0377-.83953.55344h0a4.67325,4.67325,0,0,0,2.54561,3.524h0l-.04813.2753s-1.18784.38345-1.435.47715h0c-.26511.09563-.12527.34719-.03546.40207h0A3.8245,3.8245,0,0,0,6.55417,15.88h0a5.72755,5.72755,0,0,0,1.94445.06179h0c.05611-.00833.32085-.17925.02711-.43038h0c-.52244-.44688-1.185-.90834-1.185-.90834h0l.04813-.2753a4.67575,4.67575,0,0,0,3.66434-2.48093h0c.15424-.33438-.24517-.70049-.79647-.79687h0Z"/></clipPath><clipPath id="u"><rect width="8.577" height="8.577" x="3.067" y="7.464" fill="none" transform="rotate(-80.084 7.355 11.752)"/></clipPath><clipPath id="w"><circle cx="8" cy="8" r="8" fill="none"/></clipPath></defs><g clip-path="url(#h)"><path fill="url(#i)" fill-rule="evenodd" d="M16,8A8,8,0,1,1,8,0,8.02352,8.02352,0,0,1,16,8Z"/><path fill="url(#j)" fill-rule="evenodd" d="M16,8A8,8,0,1,1,8,0,8.02352,8.02352,0,0,1,16,8Z" data-name="b"/><path fill="url(#a)" fill-rule="evenodd" d="M16,8A8,8,0,1,1,8,0,8.02352,8.02352,0,0,1,16,8Z" data-name="b"/><path fill="url(#k)" fill-rule="evenodd" d="M16,8A8,8,0,1,1,8,0,8.02352,8.02352,0,0,1,16,8Z" data-name="b"/><path fill="url(#l)" fill-rule="evenodd" d="M16,8A8,8,0,1,1,8,0,8.02352,8.02352,0,0,1,16,8Z" data-name="b"/><path fill="url(#m)" fill-rule="evenodd" d="M16,8A8,8,0,1,1,8,0,8.02352,8.02352,0,0,1,16,8Z" data-name="b"/><path fill="url(#d)" fill-rule="evenodd" d="M9.7,5.9c-.1-.3-3.3-.3-3.4,0s.6.7,1.7.7S9.8,6.2,9.7,5.9Z"/><path fill="url(#b)" fill-rule="evenodd" d="M6,4.1c0,.7-.4.9-1,1s-1.1-.2-1.1-1c0-.6.3-1.4,1.1-1.4C5.7,2.7,6,3.5,6,4.1Z"/><path fill="#4e506a" fill-rule="evenodd" d="M4.9,3.1a.34826.34826,0,0,1-.1.5c-.1.1-.3.2-.4,0a.45417.45417,0,0,1,0-.5.44637.44637,0,0,1,.5,0Z"/><path fill="url(#n)" fill-rule="evenodd" d="M10,4.1c0,.7.4.9,1.1,1,.6.1,1.1-.2,1.1-1,0-.6-.3-1.4-1.1-1.4S10,3.5,10,4.1Z"/><path fill="#4e506a" fill-rule="evenodd" d="M11,3.1c.1.1,0,.3-.1.5a.30417.30417,0,0,1-.4,0c-.1-.1,0-.3.1-.5C10.8,2.9,10.9,2.9,11,3.1Z"/><path fill="url(#c)" fill-rule="evenodd" d="M3.4,2.1c-.2.2,0,.5.3.4A5.85669,5.85669,0,0,1,6.5,2c.3,0,.4,0,.3-.4,0-.3-.4-.5-1.2-.4A3.78644,3.78644,0,0,0,3.4,2.1Z"/><path fill="url(#o)" fill-rule="evenodd" d="M10.4,1.2c-.8-.1-1.2.1-1.2.4-.1.4,0,.4.3.4a5.39694,5.39694,0,0,1,2.8.5c.4.2.5-.2.3-.4A3.78644,3.78644,0,0,0,10.4,1.2Z"/><rect width="8.577" height="8.577" x="3.067" y="7.464" fill="none" transform="rotate(-80.084 7.355 11.752)"/><path fill="url(#e)" d="M7.38884,14.3278a4.67521,4.67521,0,0,0,3.66407-2.48073c.15451-.33458-.24467-.70065-.7962-.79707l-2.48095-.43373-.27553-.04817-.27577-.04821-2.48024-.43361c-.276-.04825-.898-.03774-.83977.5534a4.67368,4.67368,0,0,0,2.54561,3.524l-.04813.2753s-1.1878.38322-1.435.47715c-.26511.09563-.12527.34719-.03546.40207A3.81954,3.81954,0,0,0,6.55417,15.88a5.72755,5.72755,0,0,0,1.94445.06179c.05612-.00833.32085-.17925.02734-.43034-.52267-.44692-1.18525-.90838-1.18525-.90838Z"/><path fill="#3b88c3" d="M11.057,11.73363c-.06943.3971-1.72981.43842-3.70922.09238-1.97894-.346-3.52706-.94821-3.45764-1.34532.06947-.39733,1.73009-.43862,3.709-.09265,1.97941.346,3.52729.94825,3.45783,1.34559"/><path fill="url(#p)" d="M9.68391,9.47645a1.82,1.82,0,0,1-2.03281.79228c-1.015-.17746-1.75222-.81135-1.6432-1.43493A1.66951,1.66951,0,0,1,8.12426,7.56224,1.66958,1.66958,0,0,1,9.68391,9.47645"/><path fill="url(#q)" d="M11.09933,11.49161c-.06618.37856-.90833.86261-2.01093.66985-1.01528-.1775-1.89551.00554-1.66509-1.3125a1.86589,1.86589,0,0,1,3.676.64265"/><path fill="url(#r)" d="M7.66843,10.89181c-.21262,1.21618-.91194.88326-2.01477.69046-1.01482-.17741-1.76979-.70945-1.66078-1.333a1.86565,1.86565,0,1,1,3.67555.64257"/><g clip-path="url(#s)"><path fill="url(#t)" d="M3.8082,10.944a11.64811,11.64811,0,0,0,7.36293,1.16071c-.01352.19766-.205.86948-.49946.87024a12.24931,12.24931,0,0,1-6.742-1.22728A3.91193,3.91193,0,0,1,3.8082,10.944"/></g><g clip-path="url(#u)"><path fill="url(#v)" d="M3.91252,10.46748a12.03211,12.03211,0,0,0,7.15414,1.27175,3.675,3.675,0,0,1-.28357.71859c-.13821.24964-3.81266.50144-6.79055-1.124-.08486-.05692-.21224-.95257-.08-.86633"/></g><g clip-path="url(#w)"><path fill="url(#f)" d="M6.31933,10.25326a.82184.82184,0,0,0-.458-.17463c-.72793-.086-1.48341-.12807-1.76-.14228a1.24221,1.24221,0,0,0,.99713-.28009c.04012-.03877.42538-.42025.27383-.72006a.56611.56611,0,0,0-.42793-.24331c-.05378.01316-.133.03111-.22957.04756A3.71631,3.71631,0,0,1,2.8877,8.56517a4.77,4.77,0,0,1-.93585-.46256A3.27059,3.27059,0,0,0,1.3,7.7a1.17553,1.17553,0,0,0-.80158-.10293C.002,7.81606.08161,8.953.097,9.17277a4.17965,4.17965,0,0,0,1.71086,3.16648,3.55484,3.55484,0,0,0,2.93911.49967c1.00354-.33042,1.81425-1.16375,1.76377-1.85945C6.50405,10.88719,6.56845,10.46525,6.31933,10.25326Z"/><path fill="url(#g)" fill-rule="evenodd" d="M1.3,7.7c-.5-.5-1.4-.8-1.5.4a4.23772,4.23772,0,0,0,1.4,3.4c2.8,2.2,5.3,1,5.4-.6.1-1.2-1.4-1.1-1.8-1.1V9.7c.1-.1.3-.2.4-.3.4-.3.2-.8-.3-.7a4.23105,4.23105,0,0,1-2.1.1C2,8.5,1.9,8.2,1.3,7.7Z"/></g><path fill="url(#x)" d="M15.13789,8.26713c-.11608-.09583-.16921-.062-.3612-.1548-.30835-.14911-.35542.67451-.47669.68767-.17312.01879-.24414-.60673-.32245-.352a3.22671,3.22671,0,0,1-1.0043,1.44331,3.80684,3.80684,0,0,1-1.93207.88144,13.13383,13.13383,0,0,1-1.76673-.09346.463.463,0,0,0-.28693.11919.39881.39881,0,0,0-.10079.18265c-.06223.22482.18157.4657.36713.649A1.88447,1.88447,0,0,0,9.6,11.9c.14121.05492.27912.12324.27176.18346-.02033.16628-1.17117-.12915-1.72285.44688a1.295,1.295,0,0,0-.28284,1.01094,1.85351,1.85351,0,0,0,1.1253,1.31607,2.754,2.754,0,0,0,1.51742.19512A7.27361,7.27361,0,0,0,13.637,13.6617c.79466-.59482,1.192-2.89222,1.45734-3.46719.33929-.73521.36328.33148.32731-.09557a3.40011,3.40011,0,0,1-.05159-.92881,1.18506,1.18506,0,0,0,0-.4902A.74547.74547,0,0,0,15.13789,8.26713Z"/><path fill="url(#y)" d="M14.3,7.8c.3-.6.8-.4,1.1-.3a.91613.91613,0,0,1,.7,1,5.70617,5.70617,0,0,1-1.5,4.3c-2.3,2.6-6.2,2.2-6.6.6C7.7,12.2,9.1,12,9.6,12v-.1c-.2-.1-.3-.2-.5-.3-.4-.3-.3-.9.2-.8a6.80386,6.80386,0,0,0,2,.2c1.9-.2,2.2-1.7,3-3.2Z"/></g></svg>