<svg xmlns="http://www.w3.org/2000/svg" xmlns:xlink="http://www.w3.org/1999/xlink" data-name="Layer 1" viewBox="0 0 16 16"><defs><radialGradient id="j" cx="-70.75" cy="19.437" r=".5" gradientTransform="matrix(16 0 0 -16 1140 319)" gradientUnits="userSpaceOnUse"><stop offset="0" stop-color="#f28a2d" stop-opacity="0"/><stop offset="1" stop-color="#f08423" stop-opacity=".34"/></radialGradient><radialGradient id="a" cx="-71.123" cy="21.739" r=".101" gradientTransform="matrix(14.5998 6.5456 5.063 -11.2928 930.046 719.355)" gradientUnits="userSpaceOnUse"><stop offset="0" stop-color="#f28a2d" stop-opacity=".5"/><stop offset="1" stop-color="#f28a2d" stop-opacity="0"/></radialGradient><radialGradient id="k" cx="-72.185" cy="9.889" r=".283" gradientTransform="matrix(12.5663 -9.904 -3.6032 -4.5717 954.603 -657.94)" xlink:href="#a"/><radialGradient id="l" cx="-71.2" cy="11.323" r=".107" gradientTransform="matrix(15.7394 -2.8762 -.572 -3.1299 1132.218 -167.316)" gradientUnits="userSpaceOnUse"><stop offset="0" stop-color="#d45f00" stop-opacity=".15"/><stop offset="1" stop-color="#f28a2d" stop-opacity="0"/></radialGradient><radialGradient id="m" cx="-70.453" cy="20.407" r=".106" gradientTransform="matrix(15.6768 3.1995 .6363 -3.1176 1102.378 291.183)" gradientUnits="userSpaceOnUse"><stop offset="0" stop-color="#d45f00" stop-opacity=".15"/><stop offset="1" stop-color="#d45f00" stop-opacity="0"/></radialGradient><radialGradient id="b" cx="-83.464" cy="-15.305" r=".872" gradientTransform="matrix(0 -2.1326 -2.1327 0 -27.648 -173.726)" gradientUnits="userSpaceOnUse"><stop offset="0" stop-color="#3b446b"/><stop offset=".688" stop-color="#202340"/></radialGradient><radialGradient id="o" cx="-83.479" cy="-15.305" r=".872" gradientTransform="matrix(0 -2.1326 -2.1327 0 -21.634 -173.757)" xlink:href="#b"/><radialGradient id="c" cx="-101.534" cy="9.575" r=".298" gradientTransform="matrix(-.339 -1.3177 -6.1081 1.5713 29.064 -147.125)" gradientUnits="userSpaceOnUse"><stop offset="0" stop-color="#e38200"/><stop offset="1" stop-color="#cd6700"/></radialGradient><radialGradient id="p" cx="-77.188" cy="11.061" r=".314" gradientTransform="matrix(.2577 -1.3359 -7.9278 -1.5293 118.514 -84.668)" xlink:href="#c"/><radialGradient id="g" cx="-62.849" cy="26.78" r="1.226" gradientTransform="matrix(4.3582 3.2271 3.227 -4.3582 187.41 327.002)" gradientUnits="userSpaceOnUse"><stop offset="0" stop-color="#eda83a"/><stop offset="1" stop-color="#ffdc5e"/></radialGradient><radialGradient id="v" cx="15.654" cy="21.737" r="8.846" gradientTransform="translate(0 -14)" xlink:href="#g"/><linearGradient id="i" x1="-70.75" x2="-70.75" y1="18.987" y2="19.863" gradientTransform="matrix(16 0 0 -16 1140 319)" gradientUnits="userSpaceOnUse"><stop offset="0" stop-color="#f28a2d"/><stop offset="1" stop-color="#fde86f"/></linearGradient><linearGradient id="n" x1="-53.17" x2="-53.17" y1="3.265" y2="1.746" gradientTransform="matrix(3.4035 0 0 -.9374 188.965 8.37)" gradientUnits="userSpaceOnUse"><stop offset="0" stop-color="#482314"/><stop offset="1" stop-color="#9a4111"/></linearGradient><linearGradient id="d" x1="10.703" x2="3.294" y1="6.263" y2="18.681" gradientUnits="userSpaceOnUse"><stop offset="0" stop-color="#a04eff"/><stop offset="1" stop-color="#6200d4"/></linearGradient><linearGradient id="q" x1="9.753" x2="2.345" y1="5.696" y2="18.114" xlink:href="#d"/><linearGradient id="r" x1="3.459" x2="11.16" y1="10.731" y2="10.731" gradientUnits="userSpaceOnUse"><stop offset="0" stop-color="#7600ff"/><stop offset="1" stop-color="#49009e"/></linearGradient><linearGradient id="e" x1="10.753" x2="6.083" y1="-3.933" y2="16.445" gradientUnits="userSpaceOnUse"><stop offset="0" stop-color="#f34484"/><stop offset="1" stop-color="#cc0860"/></linearGradient><linearGradient id="s" x1="10.497" x2="5.828" y1="-3.991" y2="16.386" xlink:href="#e"/><linearGradient id="f" x1="8.395" x2="1.913" y1="10.935" y2="10.236" gradientUnits="userSpaceOnUse"><stop offset="0" stop-color="#9c0600"/><stop offset="1" stop-color="#9c0600" stop-opacity="0"/></linearGradient><linearGradient id="u" x1="-1.326" x2="12.914" y1="12.567" y2="11.552" xlink:href="#f"/><clipPath id="h"><rect width="16" height="16" fill="none"/></clipPath><clipPath id="t"><circle cx="8" cy="8" r="8" fill="none"/></clipPath></defs><g clip-path="url(#h)"><path fill="url(#i)" fill-rule="evenodd" d="M16,8A8,8,0,1,1,8,0,8.02352,8.02352,0,0,1,16,8Z"/><path fill="url(#j)" fill-rule="evenodd" d="M16,8A8,8,0,1,1,8,0,8.02352,8.02352,0,0,1,16,8Z" data-name="b"/><path fill="url(#a)" fill-rule="evenodd" d="M16,8A8,8,0,1,1,8,0,8.02352,8.02352,0,0,1,16,8Z" data-name="b"/><path fill="url(#k)" fill-rule="evenodd" d="M16,8A8,8,0,1,1,8,0,8.02352,8.02352,0,0,1,16,8Z" data-name="b"/><path fill="url(#l)" fill-rule="evenodd" d="M16,8A8,8,0,1,1,8,0,8.02352,8.02352,0,0,1,16,8Z" data-name="b"/><path fill="url(#m)" fill-rule="evenodd" d="M16,8A8,8,0,1,1,8,0,8.02352,8.02352,0,0,1,16,8Z" data-name="b"/><path fill="url(#n)" fill-rule="evenodd" d="M9.7,5.9c-.1-.3-3.3-.3-3.4,0s.6.7,1.7.7S9.8,6.2,9.7,5.9Z"/><path fill="url(#b)" fill-rule="evenodd" d="M6,4.1c0,.7-.4.9-1,1s-1.1-.2-1.1-1c0-.6.3-1.4,1.1-1.4C5.7,2.7,6,3.5,6,4.1Z"/><path fill="#4e506a" fill-rule="evenodd" d="M4.9,3.1a.34826.34826,0,0,1-.1.5c-.1.1-.3.2-.4,0a.45417.45417,0,0,1,0-.5.44637.44637,0,0,1,.5,0Z"/><path fill="url(#o)" fill-rule="evenodd" d="M10,4.1c0,.7.4.9,1.1,1,.6.1,1.1-.2,1.1-1,0-.6-.3-1.4-1.1-1.4S10,3.5,10,4.1Z"/><path fill="#4e506a" fill-rule="evenodd" d="M11,3.1c.1.1,0,.3-.1.5a.30417.30417,0,0,1-.4,0c-.1-.1,0-.3.1-.5C10.8,2.9,10.9,2.9,11,3.1Z"/><path fill="url(#c)" fill-rule="evenodd" d="M3.4,2.1c-.2.2,0,.5.3.4A5.85669,5.85669,0,0,1,6.5,2c.3,0,.4,0,.3-.4,0-.3-.4-.5-1.2-.4A3.78644,3.78644,0,0,0,3.4,2.1Z"/><path fill="url(#p)" fill-rule="evenodd" d="M10.4,1.2c-.8-.1-1.2.1-1.2.4-.1.4,0,.4.3.4a5.39694,5.39694,0,0,1,2.8.5c.4.2.5-.2.3-.4A3.78644,3.78644,0,0,0,10.4,1.2Z"/><path fill="url(#d)" d="M10.52665,15.13564a1.03155,1.03155,0,0,1-1.17462.85792l-5.5895-.87092A1.03156,1.03156,0,0,1,2.9046,13.948l.673-4.31916a1.03157,1.03157,0,0,1,1.17463-.85792l5.5895.87092a1.03156,1.03156,0,0,1,.85792,1.17462Z"/><path fill="url(#q)" d="M12.0806,10.173A1.03156,1.03156,0,0,1,10.906,11.031L3.79207,9.92252A1.02854,1.02854,0,1,1,4.10876,7.89l7.11392,1.10844A1.03157,1.03157,0,0,1,12.0806,10.173Z"/><path fill="url(#r)" d="M3.538,9.88293l7.62205,1.18762-.07918.50813L3.45882,10.39107Z"/><path fill="url(#e)" d="M8.07814,7.46751,7.57,7.38833a.77136.77136,0,0,0-.881.64344l-1.148,7.368,2.03255.3167,1.148-7.368A.77151.77151,0,0,0,8.07814,7.46751Z"/><path fill="url(#s)" d="M7.15758,8.365c.27948.04354.34132-.0811.13713-.27713L5.77316,6.62614a.46167.46167,0,0,0-.69177.04549l-.65187.81655a.27325.27325,0,0,0,.18738.481Zm1.01628.15835c-.27948-.04355-.30047-.1811-.04632-.30571l1.8944-.9295a.46171.46171,0,0,1,.64514.2538l.37258.97591c.10062.26446-.04565.44491-.32512.40137Z"/><g clip-path="url(#t)"><path fill="url(#f)" d="M6.31933,10.25326a.82184.82184,0,0,0-.458-.17463c-.72793-.086-1.48341-.12807-1.76-.14228a1.24221,1.24221,0,0,0,.99713-.28009c.04012-.03877.42538-.42025.27383-.72006a.56611.56611,0,0,0-.42793-.24331c-.05378.01316-.133.03111-.22957.04756A3.71631,3.71631,0,0,1,2.8877,8.56517a4.77,4.77,0,0,1-.93585-.46256A3.27059,3.27059,0,0,0,1.3,7.7a1.17553,1.17553,0,0,0-.80158-.10293C.002,7.81606.08161,8.953.097,9.17277a4.17965,4.17965,0,0,0,1.71086,3.16648,3.55484,3.55484,0,0,0,2.93911.49967C5.75052,12.5085,6.65048,11.59569,6.6,10.9A.93851.93851,0,0,0,6.31933,10.25326Z"/><path fill="url(#g)" fill-rule="evenodd" d="M1.3,7.7c-.5-.5-1.4-.8-1.5.4a4.23772,4.23772,0,0,0,1.4,3.4c2.8,2.2,5.3,1,5.4-.6.1-1.2-1.4-1.1-1.8-1.1V9.7c.1-.1.3-.2.4-.3.4-.3.2-.8-.3-.7a4.23105,4.23105,0,0,1-2.1.1C2,8.5,1.9,8.2,1.3,7.7Z"/></g><path fill="url(#u)" d="M15.13789,8.26713c-.11608-.09583-.16921-.062-.3612-.1548-.30835-.14911-.35542.67451-.47669.68767-.17312.01879-.24414-.60673-.32245-.352a3.22671,3.22671,0,0,1-1.0043,1.44331,3.80684,3.80684,0,0,1-1.93207.88144,13.13383,13.13383,0,0,1-1.76673-.09346.463.463,0,0,0-.28693.11919.39881.39881,0,0,0-.10079.18265c-.06223.22482.18157.4657.36713.649A1.88447,1.88447,0,0,0,9.6,11.9c.14121.05492.27912.12324.27176.18346-.02033.16628-1.17117-.12915-1.72285.44688a1.295,1.295,0,0,0-.28284,1.01094,1.85351,1.85351,0,0,0,1.1253,1.31607,2.754,2.754,0,0,0,1.51742.19512A7.27361,7.27361,0,0,0,13.637,13.6617c.79466-.59482,1.192-2.89222,1.45734-3.46719.33929-.73521.36328.33148.32731-.09557a3.40011,3.40011,0,0,1-.05159-.92881,1.18506,1.18506,0,0,0,0-.4902A.74547.74547,0,0,0,15.13789,8.26713Z"/><path fill="url(#v)" d="M14.3,7.8c.3-.6.8-.4,1.1-.3a.91613.91613,0,0,1,.7,1,5.70617,5.70617,0,0,1-1.5,4.3c-2.3,2.6-6.2,2.2-6.6.6C7.7,12.2,9.1,12,9.6,12v-.1c-.2-.1-.3-.2-.5-.3-.4-.3-.3-.9.2-.8a6.80386,6.80386,0,0,0,2,.2c1.9-.2,2.2-1.7,3-3.2Z"/></g></svg>