<svg xmlns="http://www.w3.org/2000/svg" xmlns:xlink="http://www.w3.org/1999/xlink" data-name="Layer 1" viewBox="0 0 16 16"><defs><radialGradient id="h" cx="-94.188" cy="-98.5" r=".5" gradientTransform="matrix(16 0 0 -16 1515 -1568)" gradientUnits="userSpaceOnUse"><stop offset="0" stop-color="#f28a2d" stop-opacity="0"/><stop offset="1" stop-color="#f08423" stop-opacity=".34"/></radialGradient><radialGradient id="a" cx="-91.859" cy="-96.619" r=".101" gradientTransform="matrix(14.5998 6.5456 5.063 -11.2928 1832.034 -481.506)" gradientUnits="userSpaceOnUse"><stop offset="0" stop-color="#f28a2d" stop-opacity=".5"/><stop offset="1" stop-color="#f28a2d" stop-opacity="0"/></radialGradient><radialGradient id="i" cx="-100.252" cy="-118.746" r=".283" gradientTransform="matrix(12.5663 -9.904 -3.6032 -4.5717 843.805 -1523.998)" xlink:href="#a"/><radialGradient id="j" cx="-95.91" cy="-135.407" r=".107" gradientTransform="matrix(15.7394 -2.8762 -.572 -3.1299 1437.21 -697.64)" gradientUnits="userSpaceOnUse"><stop offset="0" stop-color="#d45f00" stop-opacity=".15"/><stop offset="1" stop-color="#f28a2d" stop-opacity="0"/></radialGradient><radialGradient id="k" cx="-92.535" cy="-123.202" r=".106" gradientTransform="matrix(15.6768 3.1995 .6363 -3.1176 1539.928 -85.883)" gradientUnits="userSpaceOnUse"><stop offset="0" stop-color="#d45f00" stop-opacity=".15"/><stop offset="1" stop-color="#d45f00" stop-opacity="0"/></radialGradient><radialGradient id="b" cx="-160.514" cy="-138.027" r=".872" gradientTransform="matrix(0 -2.1326 -2.1327 0 -289.377 -338.04)" gradientUnits="userSpaceOnUse"><stop offset="0" stop-color="#3b446b"/><stop offset=".688" stop-color="#202340"/></radialGradient><radialGradient id="m" cx="-160.528" cy="-138.027" r=".872" gradientTransform="matrix(0 -2.1326 -2.1327 0 -283.364 -338.072)" xlink:href="#b"/><radialGradient id="c" cx="-210.12" cy="-100.879" r=".298" gradientTransform="matrix(-.339 -1.3177 -6.1081 1.5713 -682.41 -116.653)" gradientUnits="userSpaceOnUse"><stop offset="0" stop-color="#e38200"/><stop offset="1" stop-color="#cd6700"/></radialGradient><radialGradient id="n" cx="-178.817" cy="-105.584" r=".314" gradientTransform="matrix(.2577 -1.3359 -7.9278 -1.5293 -780.03 -398.818)" xlink:href="#c"/><radialGradient id="e" cx="15.654" cy="21.737" r="8.846" gradientTransform="translate(0 -14)" gradientUnits="userSpaceOnUse"><stop offset="0" stop-color="#eda83a"/><stop offset="1" stop-color="#ffdc5e"/></radialGradient><radialGradient id="s" cx="-71.964" cy="-97.927" r="1.226" gradientTransform="matrix(4.3582 3.2271 3.227 -4.3582 629.562 -187.08)" xlink:href="#e"/><linearGradient id="g" x1="-94.188" x2="-94.188" y1="-98.95" y2="-98.074" gradientTransform="matrix(16 0 0 -16 1515 -1568)" gradientUnits="userSpaceOnUse"><stop offset="0" stop-color="#f28a2d"/><stop offset="1" stop-color="#fde86f"/></linearGradient><linearGradient id="l" x1="-70.825" x2="-70.825" y1="-226.147" y2="-227.667" gradientTransform="matrix(3.4035 0 0 -.9374 249.053 -206.681)" gradientUnits="userSpaceOnUse"><stop offset="0" stop-color="#482314"/><stop offset="1" stop-color="#9a4111"/></linearGradient><linearGradient id="o" x1="4.506" x2="10.801" y1="14.471" y2="9.518" gradientUnits="userSpaceOnUse"><stop offset="0" stop-color="#18baff"/><stop offset="1" stop-color="#00cfdf"/></linearGradient><linearGradient id="p" x1="5.059" x2="10.444" y1="13.659" y2="8.652" gradientUnits="userSpaceOnUse"><stop offset="0" stop-color="#5ab300"/><stop offset="1" stop-color="#126d1a"/></linearGradient><linearGradient id="d" x1="-1.326" x2="12.914" y1="12.567" y2="11.552" gradientUnits="userSpaceOnUse"><stop offset="0" stop-color="#9c0600"/><stop offset="1" stop-color="#9c0600" stop-opacity="0"/></linearGradient><linearGradient id="r" x1="8.395" x2="1.913" y1="10.935" y2="10.236" xlink:href="#d"/><clipPath id="f"><rect width="16" height="16" fill="none"/></clipPath><clipPath id="q"><circle cx="8" cy="8" r="8" fill="none"/></clipPath></defs><g clip-path="url(#f)"><path fill="url(#g)" fill-rule="evenodd" d="M16,8A8,8,0,1,1,8,0,8.02352,8.02352,0,0,1,16,8Z"/><path fill="url(#h)" fill-rule="evenodd" d="M16,8A8,8,0,1,1,8,0,8.02352,8.02352,0,0,1,16,8Z" data-name="b"/><path fill="url(#a)" fill-rule="evenodd" d="M16,8A8,8,0,1,1,8,0,8.02352,8.02352,0,0,1,16,8Z" data-name="b"/><path fill="url(#i)" fill-rule="evenodd" d="M16,8A8,8,0,1,1,8,0,8.02352,8.02352,0,0,1,16,8Z" data-name="b"/><path fill="url(#j)" fill-rule="evenodd" d="M16,8A8,8,0,1,1,8,0,8.02352,8.02352,0,0,1,16,8Z" data-name="b"/><path fill="url(#k)" fill-rule="evenodd" d="M16,8A8,8,0,1,1,8,0,8.02352,8.02352,0,0,1,16,8Z" data-name="b"/><path fill="url(#l)" fill-rule="evenodd" d="M9.7,5.9c-.1-.3-3.3-.3-3.4,0s.6.7,1.7.7S9.8,6.2,9.7,5.9Z"/><path fill="url(#b)" fill-rule="evenodd" d="M6,4.1c0,.7-.4.9-1,1s-1.1-.2-1.1-1c0-.6.3-1.4,1.1-1.4C5.7,2.7,6,3.5,6,4.1Z"/><path fill="#4e506a" fill-rule="evenodd" d="M4.9,3.1a.34826.34826,0,0,1-.1.5c-.1.1-.3.2-.4,0a.45417.45417,0,0,1,0-.5.44637.44637,0,0,1,.5,0Z"/><path fill="url(#m)" fill-rule="evenodd" d="M10,4.1c0,.7.4.9,1.1,1,.6.1,1.1-.2,1.1-1,0-.6-.3-1.4-1.1-1.4S10,3.5,10,4.1Z"/><path fill="#4e506a" fill-rule="evenodd" d="M11,3.1c.1.1,0,.3-.1.5a.30417.30417,0,0,1-.4,0c-.1-.1,0-.3.1-.5C10.8,2.9,10.9,2.9,11,3.1Z"/><path fill="url(#c)" fill-rule="evenodd" d="M3.4,2.1c-.2.2,0,.5.3.4A5.85669,5.85669,0,0,1,6.5,2c.3,0,.4,0,.3-.4,0-.3-.4-.5-1.2-.4A3.78644,3.78644,0,0,0,3.4,2.1Z"/><path fill="url(#n)" fill-rule="evenodd" d="M10.4,1.2c-.8-.1-1.2.1-1.2.4-.1.4,0,.4.3.4a5.39694,5.39694,0,0,1,2.8.5c.4.2.5-.2.3-.4A3.78644,3.78644,0,0,0,10.4,1.2Z"/><path fill="url(#o)" d="M5.59585,8.29775a1.39626,1.39626,0,0,1,.14263.20591c.03794.06507-.03777.19325.08208.20515.10137.01006.23427.05513.31015-.03561a.96383.96383,0,0,1,.91538-.26994c.19941.01427.39787-.25456.3692-.45306-.01257-.087-.09229-.07949-.13636-.04068a2.3397,2.3397,0,0,0-.216.23977.74818.74818,0,0,1-.88273.02866.08874.08874,0,0,1-.01677-.12723.38562.38562,0,0,1,.0958-.10563,4.64306,4.64306,0,0,1,.657-.31635A4.22941,4.22941,0,0,0,5.53808,8.256.15.15,0,0,1,5.59585,8.29775Zm2.80194-.56728a.73756.73756,0,0,0,.78008.01473c.02722-.01341.05393-.02788.08049-.04261A4.24723,4.24723,0,0,0,7.9583,7.5q-.18841,0-.37278.01617a1.47581,1.47581,0,0,1,.17072.01763A1.79055,1.79055,0,0,1,8.39779,7.73047ZM12.2083,11.75A4.25,4.25,0,1,1,5.06035,8.64125a.08283.08283,0,0,0,.01106.02793,1.2899,1.2899,0,0,1,.20891.31681c.02362.07782.14814.06077.23018.04482.08163-.01587.10842.01818.11.08994.00139.06388-.01338.12559-.08667.13406C5.463,9.263,5.38966,9.24738,5.31853,9.254a.34163.34163,0,0,0-.26613.33428c-.00525.13841.08047.22275.255.238.09557.00836.19237.00249.28862.00306.12126-.00548.26671-.21084.373-.26746.19627-.10456.35019-.03722.52418.21571a.21293.21293,0,0,0,.2953.05154c.21238-.18549.43081-.05986.64771-.05187.1691.00623.2718.15593.40776.23379a.83687.83687,0,0,0-.41633.039,1.008,1.008,0,0,1-.92236-.16694c-.32963-.13016-.39371-.0581-.81981.01174A1.6631,1.6631,0,0,0,4.443,11.37155a.839.839,0,0,0,.89761,1.04758c.108-.00514.21518-.03086.323-.03253a.62366.62366,0,0,1,.6832.47025c.0575.15831.09509.32518.16556.47713a1.089,1.089,0,0,1,.11009.63088,1.35814,1.35814,0,0,0,.279.98192.82958.82958,0,0,0,1.41445.01959,1.41058,1.41058,0,0,0,.17864-.35247,1.04182,1.04182,0,0,1,.25678-.42735.616.616,0,0,0,.16268-.63493.64185.64185,0,0,1,.2754-.78293,1.67733,1.67733,0,0,0,.43378-.432c.14477-.22018.11025-.35208-.12658-.45581a.92262.92262,0,0,1-.31286-.17338,3.80612,3.80612,0,0,1-.66792-.89525A.71056.71056,0,0,1,8.4509,10.607c-.00448-.02656.02534-.06609.04976-.08856a.06624.06624,0,0,1,.09545.01443c.04579.05531.08316.11759.12416.17689.17128.24773.33835.49853.51565.74188a.37056.37056,0,0,0,.39944.19.901.901,0,0,0,.61114-.46888c.076-.15357.03434-.24494-.127-.31242-.08837-.037-.1848-.05636-.2698-.09915-.091-.04581-.17689-.15674-.13494-.22914.061-.10526.16817-.02254.249.03034a1.01728,1.01728,0,0,0,.61838.265.49594.49594,0,0,1,.52761.402c.04934.14761.06758.30535.10517.4572.06446.26044.17375.368.34852.33377.20839-.04088.21051-.21146.19864-.36885a.49054.49054,0,0,1,.2199-.465c.05889-.043.113-.09264.1683-.1405A4.28085,4.28085,0,0,1,12.2083,11.75Z" data-name="Layer 2"/><path fill="url(#p)" d="M9.59894,14.151a.69664.69664,0,0,1-.16945.45645.21714.21714,0,0,1-.25307.07909c-.10154-.03433-.09514-.12827-.09378-.20877a.48288.48288,0,0,1,.2652-.46715C9.52037,13.92449,9.59608,13.9658,9.59894,14.151ZM5.07141,8.66918a.083.083,0,0,1-.01106-.02793A4.2683,4.2683,0,0,1,5.53806,8.256a.14937.14937,0,0,1,.05779.04175,1.39626,1.39626,0,0,1,.14263.20591c.03794.06507-.03777.19325.08208.20515.10137.01006.23427.05513.31015-.03561a.96383.96383,0,0,1,.91538-.26994c.19941.01427.39787-.25456.3692-.45306-.01257-.087-.09229-.07949-.13636-.04069a2.33981,2.33981,0,0,0-.216.23978.74818.74818,0,0,1-.88273.02866.08874.08874,0,0,1-.01677-.12723.38562.38562,0,0,1,.0958-.10563,4.64306,4.64306,0,0,1,.657-.31635,4.23573,4.23573,0,0,1,.66931-.1126,1.47751,1.47751,0,0,1,.17072.01762,1.79022,1.79022,0,0,1,.64155.19666.73762.73762,0,0,0,.78009.01473c.02722-.01341.05392-.02788.08049-.04261a4.256,4.256,0,0,1,2.89189,3.34363c-.05535.04786-.10941.0975-.1683.1405a.49049.49049,0,0,0-.2199.465c.01185.15737.00973.328-.19864.36885-.17477.03427-.28406-.07333-.34852-.33377-.03759-.15186-.05581-.30961-.10517-.4572a.49594.49594,0,0,0-.52761-.402,1.01734,1.01734,0,0,1-.61838-.265c-.08084-.05288-.188-.1356-.249-.03034-.042.07238.04393.18331.13494.22914.085.04279.18143.06221.2698.09915.16136.06748.203.15885.127.31242a.901.901,0,0,1-.61114.46888.37059.37059,0,0,1-.39944-.19c-.17729-.24335-.34437-.49414-.51565-.74187-.041-.0593-.07837-.12158-.12416-.17689a.06623.06623,0,0,0-.09545-.01443c-.02442.02247-.05424.062-.04976.08856a.71066.71066,0,0,0,.06479.20519,3.80612,3.80612,0,0,0,.66792.89525.92262.92262,0,0,0,.31286.17338c.23683.10373.27135.23563.12658.45581a1.678,1.678,0,0,1-.43378.432.64187.64187,0,0,0-.2754.78293.616.616,0,0,1-.16268.63493,1.042,1.042,0,0,0-.25678.42735,1.41058,1.41058,0,0,1-.17864.35247.82958.82958,0,0,1-1.41445-.01959,1.35817,1.35817,0,0,1-.279-.98192,1.089,1.089,0,0,0-.11009-.63088c-.07047-.15193-.10806-.31882-.16556-.47713a.62366.62366,0,0,0-.6832-.47025c-.10779.00165-.215.02739-.323.03253A.839.839,0,0,1,4.443,11.37162,1.6631,1.6631,0,0,1,5.68548,9.895c.44862-.14981.46485-.22647.81981-.01175a1.00811,1.00811,0,0,0,.92236.16695.837.837,0,0,1,.41633-.039c-.136-.07786-.23866-.22756-.40776-.23379-.2169-.008-.43531-.13362-.64771.05186a.21292.21292,0,0,1-.2953-.05153c-.174-.25293-.34438-.20521-.54063-.10065a.95667.95667,0,0,1-.35656.1524c-.09623-.00055-.19305.0053-.28862-.00306-.17453-.01528-.26025-.09959-.255-.238a.34159.34159,0,0,1,.26613-.33428c.07115-.0066.14451.009.21529.00083.07328-.00845.088-.07017.08666-.13406-.00156-.07178-.02835-.10581-.11-.08994-.082.016-.20656.033-.23018-.04482A1.289,1.289,0,0,0,5.07141,8.66918Z" data-name="Layer 3"/><path fill="url(#d)" d="M15.13789,8.26713c-.11608-.09583-.16921-.062-.3612-.1548-.30835-.14911-.35542.67451-.47669.68767-.17312.01879-.24414-.60673-.32245-.352a3.22671,3.22671,0,0,1-1.0043,1.44331,3.80684,3.80684,0,0,1-1.93207.88144,13.13383,13.13383,0,0,1-1.76673-.09346.463.463,0,0,0-.28693.11919.39881.39881,0,0,0-.10079.18265c-.06223.22482.18157.4657.36713.649A1.88447,1.88447,0,0,0,9.6,11.9c.14121.05492.27912.12324.27176.18346-.02033.16628-1.17117-.12915-1.72285.44688a1.295,1.295,0,0,0-.28284,1.01094,1.85351,1.85351,0,0,0,1.1253,1.31607,2.754,2.754,0,0,0,1.51742.19512A7.27361,7.27361,0,0,0,13.637,13.6617c.79466-.59482,1.192-2.89222,1.45734-3.46719.33929-.73521.36328.33148.32731-.09557a3.40011,3.40011,0,0,1-.05159-.92881,1.18506,1.18506,0,0,0,0-.4902A.74547.74547,0,0,0,15.13789,8.26713Z"/><path fill="url(#e)" d="M14.3,7.8c.3-.6.8-.4,1.1-.3a.91613.91613,0,0,1,.7,1,5.70617,5.70617,0,0,1-1.5,4.3c-2.3,2.6-6.2,2.2-6.6.6C7.7,12.2,9.1,12,9.6,12v-.1c-.2-.1-.3-.2-.5-.3-.4-.3-.3-.9.2-.8a6.80386,6.80386,0,0,0,2,.2c1.9-.2,2.2-1.7,3-3.2Z"/><g clip-path="url(#q)"><path fill="url(#r)" d="M6.31933,10.25326a.82184.82184,0,0,0-.458-.17463c-.72793-.086-1.48341-.12807-1.76-.14228a1.24221,1.24221,0,0,0,.99713-.28009c.04012-.03877.42538-.42025.27383-.72006a.56611.56611,0,0,0-.42793-.24331c-.05378.01316-.133.03111-.22957.04756A3.71631,3.71631,0,0,1,2.8877,8.56517a4.77,4.77,0,0,1-.93585-.46256A3.27059,3.27059,0,0,0,1.3,7.7a1.17553,1.17553,0,0,0-.80158-.10293C.002,7.81606.08161,8.953.097,9.17277a4.17965,4.17965,0,0,0,1.71086,3.16648,3.55484,3.55484,0,0,0,2.93911.49967C5.75052,12.5085,6.65048,11.59569,6.6,10.9A.93851.93851,0,0,0,6.31933,10.25326Z"/><path fill="url(#s)" fill-rule="evenodd" d="M1.3,7.7c-.5-.5-1.4-.8-1.5.4a4.23772,4.23772,0,0,0,1.4,3.4c2.8,2.2,5.3,1,5.4-.6.1-1.2-1.4-1.1-1.8-1.1V9.7c.1-.1.3-.2.4-.3.4-.3.2-.8-.3-.7a4.23105,4.23105,0,0,1-2.1.1C2,8.5,1.9,8.2,1.3,7.7Z"/></g></g></svg>