<svg xmlns="http://www.w3.org/2000/svg" xmlns:xlink="http://www.w3.org/1999/xlink" data-name="Layer 1" viewBox="0 0 16 16"><defs><radialGradient id="i" cx="-94.188" cy="-71.938" r=".5" gradientTransform="matrix(16 0 0 -16 1515 -1143)" gradientUnits="userSpaceOnUse"><stop offset="0" stop-color="#f28a2d" stop-opacity="0"/><stop offset="1" stop-color="#f08423" stop-opacity=".34"/></radialGradient><radialGradient id="a" cx="-92.498" cy="-69.776" r=".101" gradientTransform="matrix(14.5998 6.5456 5.063 -11.2928 1705.459 -174.186)" gradientUnits="userSpaceOnUse"><stop offset="0" stop-color="#f28a2d" stop-opacity=".5"/><stop offset="1" stop-color="#f28a2d" stop-opacity="0"/></radialGradient><radialGradient id="j" cx="-99.285" cy="-90.373" r=".283" gradientTransform="matrix(12.5663 -9.904 -3.6032 -4.5717 933.885 -1384.705)" xlink:href="#a"/><radialGradient id="k" cx="-95.629" cy="-102.678" r=".107" gradientTransform="matrix(15.7394 -2.8762 -.572 -3.1299 1451.51 -594.392)" gradientUnits="userSpaceOnUse"><stop offset="0" stop-color="#d45f00" stop-opacity=".15"/><stop offset="1" stop-color="#f28a2d" stop-opacity="0"/></radialGradient><radialGradient id="l" cx="-92.847" cy="-90.504" r=".106" gradientTransform="matrix(15.6768 3.1995 .6363 -3.1176 1524.02 17.057)" gradientUnits="userSpaceOnUse"><stop offset="0" stop-color="#d45f00" stop-opacity=".15"/><stop offset="1" stop-color="#d45f00" stop-opacity="0"/></radialGradient><radialGradient id="b" cx="-148.791" cy="-113.027" r=".872" gradientTransform="matrix(0 -2.1326 -2.1327 0 -236.06 -313.04)" gradientUnits="userSpaceOnUse"><stop offset="0" stop-color="#3b446b"/><stop offset=".688" stop-color="#202340"/></radialGradient><radialGradient id="n" cx="-148.805" cy="-113.027" r=".872" gradientTransform="matrix(0 -2.1326 -2.1327 0 -230.046 -313.072)" xlink:href="#b"/><radialGradient id="c" cx="-192.325" cy="-76.867" r=".298" gradientTransform="matrix(-.339 -1.3177 -6.1081 1.5713 -529.707 -130.935)" gradientUnits="userSpaceOnUse"><stop offset="0" stop-color="#e38200"/><stop offset="1" stop-color="#cd6700"/></radialGradient><radialGradient id="o" cx="-160.774" cy="-79.997" r=".314" gradientTransform="matrix(.2577 -1.3359 -7.9278 -1.5293 -581.835 -335.586)" xlink:href="#c"/><radialGradient id="g" cx="15.654" cy="21.737" r="8.846" gradientTransform="translate(0 -14)" gradientUnits="userSpaceOnUse"><stop offset="0" stop-color="#eda83a"/><stop offset="1" stop-color="#ffdc5e"/></radialGradient><radialGradient id="w" cx="-74.707" cy="-69.222" r="1.226" gradientTransform="matrix(4.3582 3.2271 3.227 -4.3582 548.887 -53.126)" xlink:href="#g"/><linearGradient id="d" x1="-94.188" x2="-94.188" y1="-72.388" y2="-71.512" gradientTransform="matrix(16 0 0 -16 1515 -1143)" gradientUnits="userSpaceOnUse"><stop offset="0" stop-color="#f28a2d"/><stop offset="1" stop-color="#fde86f"/></linearGradient><linearGradient id="m" x1="-70.825" x2="-70.825" y1="-174.478" y2="-175.997" gradientTransform="matrix(3.4035 0 0 -.9374 249.053 -158.246)" gradientUnits="userSpaceOnUse"><stop offset="0" stop-color="#482314"/><stop offset="1" stop-color="#9a4111"/></linearGradient><linearGradient id="p" x1="7.248" x2="9.425" y1="16.375" y2="6.208" xlink:href="#d"/><linearGradient id="f" x1="5.818" x2="6.409" y1="21.374" y2="12.145" gradientUnits="userSpaceOnUse"><stop offset="0" stop-color="#9c0600"/><stop offset="1" stop-color="#9c0600" stop-opacity="0"/></linearGradient><linearGradient id="e" x1="9.059" x2="6.035" y1="2.342" y2="8.914" gradientUnits="userSpaceOnUse"><stop offset="0" stop-color="#5aff00"/><stop offset="1" stop-color="#126d1a"/></linearGradient><linearGradient id="q" x1="4.591" x2="9.768" y1="13.944" y2="9.63" gradientUnits="userSpaceOnUse"><stop offset="0" stop-color="#ff3e63"/><stop offset="1" stop-color="salmon"/></linearGradient><linearGradient id="r" x1="-2.962" x2="9.667" y1="4.675" y2="11.161" xlink:href="#e"/><linearGradient id="s" x1="9.485" x2="7.422" y1="14.666" y2="9.812" gradientUnits="userSpaceOnUse"><stop offset="0" stop-color="#e7204a"/><stop offset="1" stop-color="#e74249"/></linearGradient><linearGradient id="t" x1="-1.326" x2="12.914" y1="12.567" y2="11.552" xlink:href="#f"/><linearGradient id="v" x1="8.395" x2="1.913" y1="10.935" y2="10.236" xlink:href="#f"/><clipPath id="h"><rect width="16" height="16" fill="none"/></clipPath><clipPath id="u"><circle cx="8" cy="8" r="8" fill="none"/></clipPath></defs><g clip-path="url(#h)"><path fill="url(#d)" fill-rule="evenodd" d="M16,8A8,8,0,1,1,8,0,8.02352,8.02352,0,0,1,16,8Z"/><path fill="url(#i)" fill-rule="evenodd" d="M16,8A8,8,0,1,1,8,0,8.02352,8.02352,0,0,1,16,8Z" data-name="b"/><path fill="url(#a)" fill-rule="evenodd" d="M16,8A8,8,0,1,1,8,0,8.02352,8.02352,0,0,1,16,8Z" data-name="b"/><path fill="url(#j)" fill-rule="evenodd" d="M16,8A8,8,0,1,1,8,0,8.02352,8.02352,0,0,1,16,8Z" data-name="b"/><path fill="url(#k)" fill-rule="evenodd" d="M16,8A8,8,0,1,1,8,0,8.02352,8.02352,0,0,1,16,8Z" data-name="b"/><path fill="url(#l)" fill-rule="evenodd" d="M16,8A8,8,0,1,1,8,0,8.02352,8.02352,0,0,1,16,8Z" data-name="b"/><path fill="url(#m)" fill-rule="evenodd" d="M9.7,5.9c-.1-.3-3.3-.3-3.4,0s.6.7,1.7.7S9.8,6.2,9.7,5.9Z"/><path fill="url(#b)" fill-rule="evenodd" d="M6,4.1c0,.7-.4.9-1,1s-1.1-.2-1.1-1c0-.6.3-1.4,1.1-1.4C5.7,2.7,6,3.5,6,4.1Z"/><path fill="#4e506a" fill-rule="evenodd" d="M4.9,3.1a.34826.34826,0,0,1-.1.5c-.1.1-.3.2-.4,0a.45417.45417,0,0,1,0-.5.44637.44637,0,0,1,.5,0Z"/><path fill="url(#n)" fill-rule="evenodd" d="M10,4.1c0,.7.4.9,1.1,1,.6.1,1.1-.2,1.1-1,0-.6-.3-1.4-1.1-1.4S10,3.5,10,4.1Z"/><path fill="#4e506a" fill-rule="evenodd" d="M11,3.1c.1.1,0,.3-.1.5a.30417.30417,0,0,1-.4,0c-.1-.1,0-.3.1-.5C10.8,2.9,10.9,2.9,11,3.1Z"/><path fill="url(#c)" fill-rule="evenodd" d="M3.4,2.1c-.2.2,0,.5.3.4A5.85669,5.85669,0,0,1,6.5,2c.3,0,.4,0,.3-.4,0-.3-.4-.5-1.2-.4A3.78644,3.78644,0,0,0,3.4,2.1Z"/><path fill="url(#o)" fill-rule="evenodd" d="M10.4,1.2c-.8-.1-1.2.1-1.2.4-.1.4,0,.4.3.4a5.39694,5.39694,0,0,1,2.8.5c.4.2.5-.2.3-.4A3.78644,3.78644,0,0,0,10.4,1.2Z"/><circle cx="7.601" cy="14.726" r=".091" fill="url(#p)"/><path fill="url(#f)" d="M7.42715,8.58386c-1.1814.12421-1.40729.36377-1.40729.36377s-.27332-.21216-1.45471-.088c-1.01276.10644-2.5456.99463-2.29615,3.36774a3.60262,3.60262,0,0,0,1.017,2.226A7.94564,7.94564,0,0,0,6.9468,15.92279a7.9751,7.9751,0,0,0,.97253.03156s2.9798-1.843,2.691-4.5907A2.86563,2.86563,0,0,0,7.42715,8.58386Z"/><path fill="url(#e)" d="M2.59488,9.06A4.1281,4.1281,0,0,1,4.886,7.59669a2.012,2.012,0,0,1,2.04483.99238A1.18738,1.18738,0,0,1,8.03827,7.49471a2.31877,2.31877,0,0,1,1.75717.57935s-.80762.60418-1.0533.73709A8.57756,8.57756,0,0,1,5.08927,9.82147,13.387,13.387,0,0,1,2.59488,9.06"/><path fill="url(#q)" d="M6.713,8.84106s.2292-.24316,1.42815-.36917a2.90814,2.90814,0,0,1,3.23039,2.821c.29308,2.78843-3.16267,4.70417-3.16267,4.70417s-4.874.24847-5.3024-3.82765C2.6533,9.76113,4.20888,8.85976,5.23661,8.75174c1.199-.126,1.47634.08932,1.47634.08932"/><path fill="url(#r)" d="M2.59488,9.06A4.1281,4.1281,0,0,1,4.886,7.59669a2.012,2.012,0,0,1,2.04483.99238S6.082,9.96162,5.08927,9.82147A13.387,13.387,0,0,1,2.59488,9.06"/><path fill="url(#s)" d="M7.1527,9.17341a3.09759,3.09759,0,0,1,1.78285,2.31072,4.12379,4.12379,0,0,1-.46595,2.892,8.26606,8.26606,0,0,0-.033-2.79882A4.57047,4.57047,0,0,0,7.1527,9.17341Z"/><path fill="url(#t)" d="M15.13789,8.26713c-.11608-.09583-.16921-.062-.3612-.1548-.30835-.14911-.35542.67451-.47669.68767-.17312.01879-.24414-.60673-.32245-.352a3.22671,3.22671,0,0,1-1.0043,1.44331,3.80684,3.80684,0,0,1-1.93207.88144,13.13383,13.13383,0,0,1-1.76673-.09346.463.463,0,0,0-.28693.11919.39881.39881,0,0,0-.10079.18265c-.06223.22482.18157.4657.36713.649A1.88447,1.88447,0,0,0,9.6,11.9c.14121.05492.27912.12324.27176.18346-.02033.16628-1.17117-.12915-1.72285.44688a1.295,1.295,0,0,0-.28284,1.01094,1.85351,1.85351,0,0,0,1.1253,1.31607,2.754,2.754,0,0,0,1.51742.19512A7.27361,7.27361,0,0,0,13.637,13.6617c.79466-.59482,1.192-2.89222,1.45734-3.46719.33929-.73521.36328.33148.32731-.09557a3.40011,3.40011,0,0,1-.05159-.92881,1.18506,1.18506,0,0,0,0-.4902A.74547.74547,0,0,0,15.13789,8.26713Z"/><path fill="url(#g)" d="M14.3,7.8c.3-.6.8-.4,1.1-.3a.91613.91613,0,0,1,.7,1,5.70617,5.70617,0,0,1-1.5,4.3c-2.3,2.6-6.2,2.2-6.6.6C7.7,12.2,9.1,12,9.6,12v-.1c-.2-.1-.3-.2-.5-.3-.4-.3-.3-.9.2-.8a6.80386,6.80386,0,0,0,2,.2c1.9-.2,2.2-1.7,3-3.2Z"/><g clip-path="url(#u)"><path fill="url(#v)" d="M6.31933,10.25326a.82184.82184,0,0,0-.458-.17463c-.72793-.086-1.48341-.12807-1.76-.14228a1.24221,1.24221,0,0,0,.99713-.28009c.04012-.03877.42538-.42025.27383-.72006a.56611.56611,0,0,0-.42793-.24331c-.05378.01316-.133.03111-.22957.04756A3.71631,3.71631,0,0,1,2.8877,8.56517a4.77,4.77,0,0,1-.93585-.46256A3.27059,3.27059,0,0,0,1.3,7.7a1.17553,1.17553,0,0,0-.80158-.10293C.002,7.81606.08161,8.953.097,9.17277a4.17965,4.17965,0,0,0,1.71086,3.16648,3.55484,3.55484,0,0,0,2.93911.49967C5.75052,12.5085,6.65048,11.59569,6.6,10.9A.93851.93851,0,0,0,6.31933,10.25326Z"/><path fill="url(#w)" fill-rule="evenodd" d="M1.3,7.7c-.5-.5-1.4-.8-1.5.4a4.23772,4.23772,0,0,0,1.4,3.4c2.8,2.2,5.3,1,5.4-.6.1-1.2-1.4-1.1-1.8-1.1V9.7c.1-.1.3-.2.4-.3.4-.3.2-.8-.3-.7a4.23105,4.23105,0,0,1-2.1.1C2,8.5,1.9,8.2,1.3,7.7Z"/></g></g></svg>