<svg xmlns="http://www.w3.org/2000/svg" xmlns:xlink="http://www.w3.org/1999/xlink" data-name="Layer 1" viewBox="0 0 16 16"><defs><radialGradient id="i" cx="-94.188" cy="19.437" r=".5" gradientTransform="matrix(16 0 0 -16 1515 319)" gradientUnits="userSpaceOnUse"><stop offset="0" stop-color="#f28a2d" stop-opacity="0"/><stop offset="1" stop-color="#f08423" stop-opacity=".34"/></radialGradient><radialGradient id="a" cx="-94.697" cy="22.565" r=".101" gradientTransform="matrix(14.5998 6.5456 5.063 -11.2928 1270.04 882.995)" gradientUnits="userSpaceOnUse"><stop offset="0" stop-color="#f28a2d" stop-opacity=".5"/><stop offset="1" stop-color="#f28a2d" stop-opacity="0"/></radialGradient><radialGradient id="j" cx="-95.958" cy="7.23" r=".283" gradientTransform="matrix(12.5663 -9.904 -3.6032 -4.5717 1243.76 -905.54)" xlink:href="#a"/><radialGradient id="k" cx="-94.663" cy="9.911" r=".107" gradientTransform="matrix(15.7394 -2.8762 -.572 -3.1299 1500.703 -239.22)" gradientUnits="userSpaceOnUse"><stop offset="0" stop-color="#d45f00" stop-opacity=".15"/><stop offset="1" stop-color="#f28a2d" stop-opacity="0"/></radialGradient><radialGradient id="l" cx="-93.922" cy="21.978" r=".106" gradientTransform="matrix(15.6768 3.1995 .6363 -3.1176 1469.298 371.17)" gradientUnits="userSpaceOnUse"><stop offset="0" stop-color="#d45f00" stop-opacity=".15"/><stop offset="1" stop-color="#d45f00" stop-opacity="0"/></radialGradient><radialGradient id="b" cx="6.822" cy="14.644" r="16.403" gradientUnits="userSpaceOnUse"><stop offset="0" stop-color="#eda83a"/><stop offset="1" stop-color="#ffdc5e"/></radialGradient><radialGradient id="d" cx="-108.464" cy="-27.027" r=".872" gradientTransform="matrix(0 -2.1326 -2.1327 0 -52.648 -227.04)" gradientUnits="userSpaceOnUse"><stop offset="0" stop-color="#3b446b"/><stop offset=".688" stop-color="#202340"/></radialGradient><radialGradient id="t" cx="-108.479" cy="-27.027" r=".872" gradientTransform="matrix(0 -2.1326 -2.1327 0 -46.634 -227.072)" xlink:href="#d"/><radialGradient id="e" cx="-131.111" cy="5.736" r=".298" gradientTransform="matrix(-.339 -1.3177 -6.1081 1.5713 -4.41 -180.067)" gradientUnits="userSpaceOnUse"><stop offset="0" stop-color="#e38200"/><stop offset="1" stop-color="#cd6700"/></radialGradient><radialGradient id="u" cx="-98.708" cy="8.02" r=".314" gradientTransform="matrix(.2577 -1.3359 -7.9278 -1.5293 99.956 -118.066)" xlink:href="#e"/><radialGradient id="w" cx="-84.144" cy="29.523" r="1.226" gradientTransform="matrix(4.3582 3.2271 3.227 -4.3582 271.365 407.68)" xlink:href="#b"/><radialGradient id="y" cx="15.654" cy="21.737" r="8.846" gradientTransform="translate(0 -14)" xlink:href="#b"/><linearGradient id="h" x1="-94.188" x2="-94.188" y1="18.987" y2="19.863" gradientTransform="matrix(16 0 0 -16 1515 319)" gradientUnits="userSpaceOnUse"><stop offset="0" stop-color="#f28a2d"/><stop offset="1" stop-color="#fde86f"/></linearGradient><linearGradient id="c" x1="4.749" x2="7.89" y1="16.756" y2="9.273" gradientUnits="userSpaceOnUse"><stop offset="0" stop-color="#f34462"/><stop offset="1" stop-color="#cc0820"/></linearGradient><linearGradient id="m" x1="3.716" x2="4.955" y1="14.453" y2="8.033" xlink:href="#b"/><linearGradient id="n" x1="5.99" x2="7.229" y1="14.891" y2="8.471" xlink:href="#b"/><linearGradient id="o" x1="7.424" x2="8.663" y1="15.168" y2="8.748" xlink:href="#b"/><linearGradient id="p" x1="5.028" x2="6.267" y1="14.706" y2="8.286" xlink:href="#b"/><linearGradient id="q" x1="9.145" x2="10.384" y1="15.5" y2="9.08" xlink:href="#b"/><linearGradient id="r" x1="8.73" x2="4.157" y1="6.053" y2="20.928" xlink:href="#c"/><linearGradient id="s" x1="-70.825" x2="-70.825" y1="3.265" y2="1.746" gradientTransform="matrix(3.4035 0 0 -.9374 249.053 8.37)" gradientUnits="userSpaceOnUse"><stop offset="0" stop-color="#482314"/><stop offset="1" stop-color="#9a4111"/></linearGradient><linearGradient id="f" x1="8.395" x2="1.913" y1="10.935" y2="10.236" gradientUnits="userSpaceOnUse"><stop offset="0" stop-color="#9c0600"/><stop offset="1" stop-color="#9c0600" stop-opacity="0"/></linearGradient><linearGradient id="x" x1="-1.326" x2="12.914" y1="12.567" y2="11.552" xlink:href="#f"/><clipPath id="g"><rect width="16" height="16" fill="none"/></clipPath><clipPath id="v"><circle cx="8" cy="8" r="8" fill="none"/></clipPath></defs><g clip-path="url(#g)"><path fill="url(#h)" fill-rule="evenodd" d="M16,8A8,8,0,1,1,8,0,8.02352,8.02352,0,0,1,16,8Z"/><path fill="url(#i)" fill-rule="evenodd" d="M16,8A8,8,0,1,1,8,0,8.02352,8.02352,0,0,1,16,8Z" data-name="b"/><path fill="url(#a)" fill-rule="evenodd" d="M16,8A8,8,0,1,1,8,0,8.02352,8.02352,0,0,1,16,8Z" data-name="b"/><path fill="url(#j)" fill-rule="evenodd" d="M16,8A8,8,0,1,1,8,0,8.02352,8.02352,0,0,1,16,8Z" data-name="b"/><path fill="url(#k)" fill-rule="evenodd" d="M16,8A8,8,0,1,1,8,0,8.02352,8.02352,0,0,1,16,8Z" data-name="b"/><path fill="url(#l)" fill-rule="evenodd" d="M16,8A8,8,0,1,1,8,0,8.02352,8.02352,0,0,1,16,8Z" data-name="b"/><path fill="url(#c)" d="M11.0286,11.22759l-.00261.00006c.00888-.0347.01734-.0696.02482-.10491.35186-1.66106-.99822-3.354-3.0155-3.78135s-3.93783.57283-4.2897,2.23391c-.00748.03531-.01391.07063-.01985.106L3.7234,9.68014l-.00091.021a2.56746,2.56746,0,0,0-.02569.5924l-.159,3.66587a.83768.83768,0,0,0,.26962.65475,5.15587,5.15587,0,0,0,2.43739,1.18,5.156,5.156,0,0,0,2.70652-.09039.83779.83779,0,0,0,.51194-.48919l1.341-3.4155a2.56882,2.56882,0,0,0,.21671-.55194Z" data-name="Layer 2"/><path fill="url(#b)" d="M5.06236,12.50749l1.21573-3.0162a.37857.37857,0,0,1,.49264-.2096h0a.37857.37857,0,0,1,.2096.49264L5.7646,12.79053a.37856.37856,0,0,1-.49264.2096h0A.37857.37857,0,0,1,5.06236,12.50749Z" data-name="Layer 3"/><path fill="url(#b)" d="M6.54861,13.09642l.69665-4.25336a.39927.39927,0,0,1,.45854-.32948l.16408.02688a.39927.39927,0,0,1,.32947.45854l-.69666,4.25335a.39926.39926,0,0,1-.45853.32948L6.87808,13.555A.39925.39925,0,0,1,6.54861,13.09642Z" data-name="Layer 4"/><path fill="url(#b)" d="M9.00537,12.4709,9.9635,8.97118a.37857.37857,0,0,1,.4651-.26517l.06859.01879a.37857.37857,0,0,1,.26517.4651l-.95813,3.49971a.37858.37858,0,0,1-.4651.26518L9.27054,12.936A.37857.37857,0,0,1,9.00537,12.4709Z" data-name="Layer 5"/><path fill="url(#b)" d="M7.93242,13.10487l.95813-3.49972A.37857.37857,0,0,1,9.35565,9.34l.06859.01879a.37857.37857,0,0,1,.26517.4651l-.95813,3.49972a.37857.37857,0,0,1-.4651.26517L8.19759,13.57A.37859.37859,0,0,1,7.93242,13.10487Z" data-name="Layer 6"/><path fill="url(#b)" d="M4.55232,11.10938,5.21191,7.925a.37854.37854,0,0,1,.44748-.29392h0a.37856.37856,0,0,1,.29392.44748L5.29374,11.263a.37856.37856,0,0,1-.44748.29392h0A.3786.3786,0,0,1,4.55232,11.10938Z" data-name="Layer 7"/><path fill="url(#m)" d="M4.1876,11.57532l.03689-3.25177a.37859.37859,0,0,1,.38285-.37426h0a.37855.37855,0,0,1,.37424.38284l-.0369,3.25179a.37858.37858,0,0,1-.38284.37426h0A.3786.3786,0,0,1,4.1876,11.57532Z" data-name="Layer 8"/><path fill="url(#n)" d="M5.65141,13.04428l1.21572-3.0162a.37858.37858,0,0,1,.49265-.2096h0a.37858.37858,0,0,1,.20959.49264l-1.21572,3.0162a.37857.37857,0,0,1-.49264.2096h0A.37856.37856,0,0,1,5.65141,13.04428Z" data-name="Layer 9"/><path fill="url(#o)" d="M7.48013,13.124l.52564-3.20922a.37855.37855,0,0,1,.43479-.3124h0a.37858.37858,0,0,1,.3124.43477l-.52564,3.20923a.37855.37855,0,0,1-.43479.3124h0A.37857.37857,0,0,1,7.48013,13.124Z" data-name="Layer 10"/><path fill="url(#p)" d="M5.04138,11.66725l.97905-3.10112a.37857.37857,0,0,1,.475-.247h0a.37857.37857,0,0,1,.247.475l-.979,3.10111a.37858.37858,0,0,1-.475.247h0A.37855.37855,0,0,1,5.04138,11.66725Z" data-name="Layer 11"/><path fill="url(#q)" d="M11.64224,9.46481l-1.43839,2.91658a.37859.37859,0,0,1-.507.17208h0a.37687.37687,0,0,1-.15229-.13677.37854.37854,0,0,1-.61981-.31l.1603-3.248a.37855.37855,0,0,1,.39677-.35944h0a.37857.37857,0,0,1,.35945.39677l-.13757,2.7877,1.25949-2.55379a.37858.37858,0,0,1,.507-.17208h0A.37856.37856,0,0,1,11.64224,9.46481Z" data-name="Layer 12"/><path fill="url(#r)" d="M11.037,11.188c-.12434.58694-1.22475.56045-1.56994.53737a.16146.16146,0,0,0-.1504.07953,2.1575,2.1575,0,0,1-2.43612.98794h0A2.15763,2.15763,0,0,1,5.059,10.9408a.23263.23263,0,0,0-.14871-.1869c-.35969-.13585-1.29822-.5481-1.17848-1.11336-.00748.03531-.01391.07064-.01985.106l-.00236-.00111-.00091.021a2.56867,2.56867,0,0,0-.02655.58022.21834.21834,0,0,1,.00032.0244l-.15328,3.53307a1.08889,1.08889,0,0,0,.38591.88177,5.26471,5.26471,0,0,0,2.31586,1.07359h0a5.236,5.236,0,0,0,2.595-.055,1.01992,1.01992,0,0,0,.65489-.60469l1.30647-3.32754.00707-.01538a2.56728,2.56728,0,0,0,.21274-.54445l.00769-.01957-.00261.00006C11.02106,11.25821,11.02951,11.22331,11.037,11.188Z" data-name="Layer 13"/><path fill="url(#s)" fill-rule="evenodd" d="M9.7,5.9c-.1-.3-3.3-.3-3.4,0s.6.7,1.7.7S9.8,6.2,9.7,5.9Z"/><path fill="url(#d)" fill-rule="evenodd" d="M6,4.1c0,.7-.4.9-1,1s-1.1-.2-1.1-1c0-.6.3-1.4,1.1-1.4C5.7,2.7,6,3.5,6,4.1Z"/><path fill="#4e506a" fill-rule="evenodd" d="M4.9,3.1a.34826.34826,0,0,1-.1.5c-.1.1-.3.2-.4,0a.45417.45417,0,0,1,0-.5.44637.44637,0,0,1,.5,0Z"/><path fill="url(#t)" fill-rule="evenodd" d="M10,4.1c0,.7.4.9,1.1,1,.6.1,1.1-.2,1.1-1,0-.6-.3-1.4-1.1-1.4S10,3.5,10,4.1Z"/><path fill="#4e506a" fill-rule="evenodd" d="M11,3.1c.1.1,0,.3-.1.5a.30417.30417,0,0,1-.4,0c-.1-.1,0-.3.1-.5C10.8,2.9,10.9,2.9,11,3.1Z"/><path fill="url(#e)" fill-rule="evenodd" d="M3.4,2.1c-.2.2,0,.5.3.4A5.85669,5.85669,0,0,1,6.5,2c.3,0,.4,0,.3-.4,0-.3-.4-.5-1.2-.4A3.78644,3.78644,0,0,0,3.4,2.1Z"/><path fill="url(#u)" fill-rule="evenodd" d="M10.4,1.2c-.8-.1-1.2.1-1.2.4-.1.4,0,.4.3.4a5.39694,5.39694,0,0,1,2.8.5c.4.2.5-.2.3-.4A3.78644,3.78644,0,0,0,10.4,1.2Z"/><g clip-path="url(#v)"><path fill="url(#f)" d="M6.31933,10.25326a.82184.82184,0,0,0-.458-.17463c-.72793-.086-1.48341-.12807-1.76-.14228a1.24221,1.24221,0,0,0,.99713-.28009c.04012-.03877.42538-.42025.27383-.72006a.56611.56611,0,0,0-.42793-.24331c-.05378.01316-.133.03111-.22957.04756A3.71631,3.71631,0,0,1,2.8877,8.56517a4.77,4.77,0,0,1-.93585-.46256A3.27059,3.27059,0,0,0,1.3,7.7a1.17553,1.17553,0,0,0-.80158-.10293C.002,7.81606.08161,8.953.097,9.17277a4.17965,4.17965,0,0,0,1.71086,3.16648,3.55484,3.55484,0,0,0,2.93911.49967C5.75052,12.5085,6.65048,11.59569,6.6,10.9A.93851.93851,0,0,0,6.31933,10.25326Z"/><path fill="url(#w)" fill-rule="evenodd" d="M1.3,7.7c-.5-.5-1.4-.8-1.5.4a4.23772,4.23772,0,0,0,1.4,3.4c2.8,2.2,5.3,1,5.4-.6.1-1.2-1.4-1.1-1.8-1.1V9.7c.1-.1.3-.2.4-.3.4-.3.2-.8-.3-.7a4.23105,4.23105,0,0,1-2.1.1C2,8.5,1.9,8.2,1.3,7.7Z"/></g><path fill="url(#x)" d="M15.13789,8.26713c-.11608-.09583-.16921-.062-.3612-.1548-.30835-.14911-.35542.67451-.47669.68767-.17312.01879-.24414-.60673-.32245-.352a3.22671,3.22671,0,0,1-1.0043,1.44331,3.80684,3.80684,0,0,1-1.93207.88144,13.13383,13.13383,0,0,1-1.76673-.09346.463.463,0,0,0-.28693.11919.39881.39881,0,0,0-.10079.18265c-.06223.22482.18157.4657.36713.649A1.88447,1.88447,0,0,0,9.6,11.9c.14121.05492.27912.12324.27176.18346-.02033.16628-1.17117-.12915-1.72285.44688a1.295,1.295,0,0,0-.28284,1.01094,1.85351,1.85351,0,0,0,1.1253,1.31607,2.754,2.754,0,0,0,1.51742.19512A7.27361,7.27361,0,0,0,13.637,13.6617c.79466-.59482,1.192-2.89222,1.45734-3.46719.33929-.73521.36328.33148.32731-.09557a3.40011,3.40011,0,0,1-.05159-.92881,1.18506,1.18506,0,0,0,0-.4902A.74547.74547,0,0,0,15.13789,8.26713Z"/><path fill="url(#y)" d="M14.3,7.8c.3-.6.8-.4,1.1-.3a.91613.91613,0,0,1,.7,1,5.70617,5.70617,0,0,1-1.5,4.3c-2.3,2.6-6.2,2.2-6.6.6C7.7,12.2,9.1,12,9.6,12v-.1c-.2-.1-.3-.2-.5-.3-.4-.3-.3-.9.2-.8a6.80386,6.80386,0,0,0,2,.2c1.9-.2,2.2-1.7,3-3.2Z"/></g></svg>