<svg aria-labelledby="js_c" viewBox="0 0 16 16" fill="#0084ff"><path fill="#0084ff" d="M16 9.1c0-.8-.3-1.1-.6-1.3.2-.3.3-.7.3-1.2 0-1-.8-1.7-2.1-1.7h-3.1c.1-.5.2-1.3.2-1.8 0-1.1-.3-2.4-1.2-3C9.3.1 9 0 8.7 0c-.6 0-1 .2-1.1.4-.1.1-.1.2-.1.3L7.6 3c0 .2 0 .4-.1.5L5.7 6.6l-.1.1-.3.1c-.2.2-.3.4-.3.6v6.1c0 .2.1.4.2.5.1.1 1 1 2 1h5.2c.9 0 1.4-.3 1.8-.9.3-.5.2-1 .1-1.4.5-.2.9-.5 1.1-1.2.1-.4 0-.8-.2-1 .4-.2.8-.6.8-1.4zM3.3 6H.7c-.4 0-.7.3-.7.7v8.5c0 .5.3.8.7.8h2.5c.5 0 .8-.3.8-.7V6.7c0-.4-.3-.7-.7-.7z"/></svg>