<?xml version="1.0" encoding="iso-8859-1"?>
<!-- Generator: Adobe Illustrator 19.0.0, SVG Export Plug-In . SVG Version: 6.00 Build 0)  -->
<svg version="1.1" id="Capa_1" xmlns="http://www.w3.org/2000/svg" xmlns:xlink="http://www.w3.org/1999/xlink" x="0px" y="0px"
	 viewBox="0 0 512 512" style="enable-background:new 0 0 512 512;" xml:space="preserve">
<path style="fill:#2196F3;" d="M256,256v256H96c-52.985-0.082-95.918-43.015-96-96V256H256z"/>
<path style="fill:#455A64;" d="M512,256v160c-0.082,52.985-43.015,95.918-96,96H256V256H512z"/>
<path style="fill:#FFC107;" d="M512,96v160H256V0h160C468.985,0.082,511.918,43.015,512,96z"/>
<path style="fill:#4CAF50;" d="M256,0v256H0V96C0.082,43.015,43.015,0.082,96,0H256z"/>
<g>
	<path style="fill:#FAFAFA;" d="M202.667,149.333h-128c-5.891,0-10.667-4.776-10.667-10.667S68.776,128,74.667,128h128
		c5.891,0,10.667,4.776,10.667,10.667S208.558,149.333,202.667,149.333z"/>
	<path style="fill:#FAFAFA;" d="M138.667,213.333c-5.891,0-10.667-4.776-10.667-10.667v-128C128,68.776,132.776,64,138.667,64
		s10.667,4.776,10.667,10.667v128C149.333,208.558,144.558,213.333,138.667,213.333z"/>
	<path style="fill:#FAFAFA;" d="M437.333,149.333H330.667c-5.891,0-10.667-4.776-10.667-10.667S324.776,128,330.667,128h106.667
		c5.891,0,10.667,4.776,10.667,10.667S443.224,149.333,437.333,149.333z"/>
	<path style="fill:#FAFAFA;" d="M181.333,448c-3.242,0.007-6.312-1.461-8.341-3.989L87.659,337.344
		c-3.682-4.601-2.937-11.315,1.664-14.997c4.601-3.682,11.315-2.937,14.997,1.664l0,0l85.333,106.667
		c3.676,4.603,2.924,11.315-1.679,14.991C186.088,447.175,183.747,447.997,181.333,448z"/>
	<path style="fill:#FAFAFA;" d="M96,448c-5.891,0.003-10.669-4.769-10.673-10.661c-0.001-2.421,0.821-4.77,2.331-6.662
		l85.333-106.667c3.682-4.601,10.396-5.346,14.997-1.664c4.601,3.682,5.346,10.396,1.664,14.997L104.32,444.011
		C102.295,446.533,99.235,448.001,96,448z"/>
	<path style="fill:#FAFAFA;" d="M416,448c-3.75,0.001-7.225-1.967-9.152-5.184l-64-106.667c-2.943-5.103-1.191-11.626,3.912-14.569
		c4.974-2.868,11.325-1.285,14.371,3.582l64,106.667c3.04,5.046,1.413,11.601-3.633,14.641C419.838,447.47,417.938,447.999,416,448z
		"/>
</g>
<g>
</g>
<g>
</g>
<g>
</g>
<g>
</g>
<g>
</g>
<g>
</g>
<g>
</g>
<g>
</g>
<g>
</g>
<g>
</g>
<g>
</g>
<g>
</g>
<g>
</g>
<g>
</g>
<g>
</g>
</svg>
